<svg xmlns="http://www.w3.org/2000/svg" viewBox="0 0 60.29 49.58"><defs><style>.cls-1{fill:#fefefe;}</style></defs><title>aquarius</title><g id="Layer_2" data-name="Layer 2"><g id="OBJECTS"><path class="cls-1" d="M56.31,22l.24-.32.27-.32.21-.33a4.14,4.14,0,0,0,.3-.76c0-.13.09-.26.13-.39s.09-.26.14-.39a5,5,0,0,0,.24-.78A4.5,4.5,0,0,0,58,18.1c0-.18,0-.36,0-.55s0-.44,0-.66h0l-.09.63c0,.23-.07.47-.11.71a4.92,4.92,0,0,1-.21.65,4.4,4.4,0,0,1-.21.5l-.24.5c-.07.16-.14.32-.22.48a1.61,1.61,0,0,1-.17.28,1.5,1.5,0,0,1-.19.25,4.68,4.68,0,0,1-.46.43l-.46.43a1.79,1.79,0,0,1-.25.22l-.26.2a5.72,5.72,0,0,1-.49.37c-.44.27-.91.51-1.37.74a7.67,7.67,0,0,1-.78.34l-.75.29-.46.11a3.85,3.85,0,0,1-.49.07c-.32,0-.65,0-1,0L49.33,24a3.62,3.62,0,0,1-.46-.06l-.73-.2c-.22-.08-.44-.17-.65-.27-.38-.2-.76-.42-1.13-.66a1.34,1.34,0,0,1,.26-.09h0l.58-.18a2.29,2.29,0,0,0,.28-.09l.33-.11.3-.12a2.29,2.29,0,0,0,.27-.14l.54-.33c.45-.29.91-.57,1.35-.88.22-.15.42-.32.63-.48s.43-.38.63-.58l.56-.6.62-.66c.19-.21.36-.43.53-.65s.15-.22.22-.33a3.15,3.15,0,0,0,.22-.33c.29-.47.52-1,.78-1.44a7.26,7.26,0,0,0,.6-1.49c0-.11.05-.23.07-.34s0-.23,0-.34,0-.47,0-.71,0-.23,0-.34l.05.07a.53.53,0,0,0,.08.23l.09.14.14.25c.11.17.22.35.32.53.21.35.41.71.6,1.07l.45.84h0c-.09-.57-.17-1.15-.3-1.72-.07-.3-.14-.6-.23-.9,0-.12-.08-.24-.11-.37a1.72,1.72,0,0,1-.07-.21l0-.09a.39.39,0,0,0-.11-.17,6.14,6.14,0,0,0-.32-.69.36.36,0,0,0,0-.09c.18-.38.36-.75.53-1.14a11.79,11.79,0,0,0,.42-1.18,4.42,4.42,0,0,0,.13-.61,2.94,2.94,0,0,0,0-.51,1.74,1.74,0,0,0-.06-.51,1.4,1.4,0,0,0-.13-.34,1.12,1.12,0,0,0-.28-.33l-.15-.12a1.71,1.71,0,0,0-.33-.17,1.74,1.74,0,0,0-.5-.12,2.56,2.56,0,0,0-.55,0,2,2,0,0,0-.48.09,2.32,2.32,0,0,0-1,.55,2.05,2.05,0,0,0-.34.38,1.77,1.77,0,0,0-.26.41,1.39,1.39,0,0,0-.14.6v.05l-.46-.34c-.66-.47-1.38-.85-2.08-1.27l-.11-.07c.08-.12.17-.23.25-.34s.48-.48.73-.71.48-.43.73-.63L52.12,5a5.12,5.12,0,0,1,.53-.25l.41-.12a3.94,3.94,0,0,1,.47-.1l.57-.07a5.32,5.32,0,0,1,.89,0l.59.09c.31.07.63.14,1,.23a7.61,7.61,0,0,1,.79.31,5.54,5.54,0,0,1,.53.3l.45.36a6.33,6.33,0,0,1,.46.44l.24.25.19.26a6.78,6.78,0,0,1,.45.84,1.58,1.58,0,0,1,.09.31,1.91,1.91,0,0,1,.06.33,3.54,3.54,0,0,1-.07.73,6.21,6.21,0,0,1-.14.62l-.21.64c-.07.21-.15.42-.23.63s-.16.42-.25.62l-.12.25v0l-.24.53c-.08.16-.15.32-.23.49-.14.34-.3.68-.45,1-.07.13-.13.27-.19.41h0l.13-.2c0-.06.07-.12.11-.17l.22-.36c.15-.24.3-.48.43-.72l.42-.73.21-.35c.07-.14.14-.28.2-.42s.23-.49.33-.75a2.39,2.39,0,0,0,.15-.37c0-.13.1-.26.14-.39a6,6,0,0,0,.21-.81,2.45,2.45,0,0,0,.06-.6,2,2,0,0,0-.06-.49,2.35,2.35,0,0,0-.14-.45c-.05-.13-.12-.26-.18-.39s-.13-.24-.21-.36l-.26-.37a5.57,5.57,0,0,0-.59-.6l-.2-.18A4.91,4.91,0,0,0,58.14,5a5.2,5.2,0,0,0-1.6-.7l-.42-.09-.42-.09A9.05,9.05,0,0,0,54.79,4L54.5,4A4,4,0,0,0,54,4l-.48.07a5.64,5.64,0,0,0-.7.21,4,4,0,0,0-.48.19l-.22.12L52,4.75l-.18.12a2.73,2.73,0,0,0-.31.27c-.21.2-.41.4-.6.61a6,6,0,0,0-.65.77L50,6.84l-.92-.67A7.89,7.89,0,0,1,48,5.32a5.34,5.34,0,0,1-.6-.89L47.13,4a5.11,5.11,0,0,0-.33-.48l-.61-.77c0-.17-.08-.34-.13-.5a5.65,5.65,0,0,0-.23-.57,2.63,2.63,0,0,0-.62-.86L45.15.72a3,3,0,0,0-.93-.56,2.17,2.17,0,0,0-.5-.13,2.69,2.69,0,0,0-.49,0,3.35,3.35,0,0,0-.95.13,6.64,6.64,0,0,0-.79.26,7.62,7.62,0,0,0-.9.46,4.82,4.82,0,0,0-.7.48,4.89,4.89,0,0,0-.58.54l-.25.27-.2.22-.43.54-.13.18-.24.36a3.54,3.54,0,0,0-.26.41c-.09.14-.18.28-.26.43a6.25,6.25,0,0,0-.45.85c-.07.14-.13.28-.19.42l-.42-.07L36,5.4l-.42,0-.92-.08-.87,0c-.3,0-.6,0-.9,0L32,5.31l-.93.11-.9.12-.86.13a17.68,17.68,0,0,0-1.78.41,15.19,15.19,0,0,0-1.76.6c-.28.12-.57.24-.84.38l-.83.42c-.26.15-.53.28-.79.44s-.58.33-.86.51-.51.32-.76.49L21,9.44l-.75.57c-.24.2-.46.42-.69.63s-.44.43-.65.66l-.29.33-.34.39c-.39.48-.77,1-1.13,1.45l-.11.16-.11.16-.25.42-.24.43c-.08.14-.15.29-.22.44a9.19,9.19,0,0,0-.36.86l-.17.44c-.05.15-.09.3-.14.44s-.15.53-.22.8-.14.6-.23.91-.15.57-.21.86-.1.6-.15.9c0,0,0,.07,0,.11l-.15.81c-.05.27-.09.54-.13.8-.07.5-.14,1-.23,1.48a3.15,3.15,0,0,1-.11.44l-.15.5-.18.53c-.06.15-.12.29-.19.44a6.17,6.17,0,0,1-.38.72,4.94,4.94,0,0,1-.5.7l-.37.42-.47.46-.47.44a6.41,6.41,0,0,1-.52.39l-.3.2-.38.21-.38.18-.43.21-.83.37-.86.38c-.25.11-.49.22-.73.35a1,1,0,0,1-.18.1l-.22.14L6.12,31l-.18.14-.14.11-.38.3-.34.29c-.12.11-.25.21-.36.32l-.34.33L4,32.83c-.11.11-.21.23-.32.35l-.31.38-.24.3c-.1.15-.21.29-.32.44s-.18.27-.27.4l-.1.14L2.34,35c-.08.16-.17.31-.26.46l-.22.41c-.06.11-.12.22-.17.33s-.17.36-.26.53a2.72,2.72,0,0,0-.16.35L1,37.64.89,38l-.18.52-.12.35a1.55,1.55,0,0,0-.07.23c-.05.17-.1.33-.14.5a1.39,1.39,0,0,0-.06.19c-.06.28-.13.56-.18.85s-.1.64-.13,1a7.85,7.85,0,0,0,0,1c0,.3,0,.59.08.87A7.67,7.67,0,0,0,.32,44.5c.06.27.14.54.21.81.13.46.26.92.4,1.38h0C.86,46.24.8,45.8.74,45.36S.55,44.2.5,43.61c0-.4,0-.81,0-1.21A6.4,6.4,0,0,1,.6,41.25c0-.24.09-.47.15-.7l.15-.61c0-.12.07-.24.11-.36s.1-.34.16-.52l0-.09.12-.33.18-.47a.61.61,0,0,1,.05-.12l.14-.33.18-.41c.14-.28.28-.57.43-.85l.32-.58c.08-.16.17-.3.26-.45L3,35.21l.1-.15c.11-.15.2-.3.31-.44s.23-.32.36-.47l.33-.41.32-.35.32-.33c.2-.21.42-.42.64-.61s.49-.42.74-.62l.4-.32.31-.22.32-.2.4-.21.76-.37.89-.4c.26-.11.53-.23.78-.36l.43-.21.15-.08.21-.11.21-.13a1.88,1.88,0,0,0,.18-.12,4.44,4.44,0,0,0,.38-.27l.18-.14.17-.16.3-.28c.21-.21.42-.42.62-.64l.3-.33a3.65,3.65,0,0,0,.24-.31c.16-.23.32-.46.46-.7a10.45,10.45,0,0,0,.67-1.49c.09-.25.17-.49.25-.74a5.42,5.42,0,0,0,.17-.82c.1-.53.18-1.06.27-1.59l.18-.85.18-1c.07-.35.16-.69.26-1s.21-.77.31-1.16a4.74,4.74,0,0,1,.15-.5,5.8,5.8,0,0,1,.19-.59c.14-.37.29-.74.44-1.1l.14-.3.25-.47.25-.41.24-.36.24-.33.32-.43c.18-.23.36-.47.55-.7s.51-.6.77-.89l.2-.21.17-.17.51-.49a17.17,17.17,0,0,1,1.8-1.38c.35-.22.7-.45,1.06-.66L24,8.28,24.53,8l.62-.34.59-.29.34-.15.27-.11.58-.22c.43-.15.87-.29,1.31-.41L29,6.3c.24-.06.49-.1.73-.14.48-.08,1-.15,1.45-.21l.73-.1.64-.06c.38,0,.76,0,1.14,0h.55q.31,0,.63,0c.38,0,.77,0,1.15.1l.26,0,.31,0,.17,0c-.14.37-.28.73-.41,1.11h0c.19-.32.4-.62.6-.93L37,6l.2,0h-.06l.34.06c.4.08.8.15,1.2.25s.85.2,1.27.33l.56.16.61.16c.36.09.72.18,1.09.25h0l.29.06h0l.41.07,0,.05a5.3,5.3,0,0,1-.42.52c-.15.16-.31.32-.47.47L41,9.29l-.55.49-.7.55-.66.48c-.23.15-.47.29-.71.42a5.24,5.24,0,0,1-.64.29,6.59,6.59,0,0,1-.72.22l-.43.08H36.2l-.36,0h0c.21.06.41.13.62.17a4.07,4.07,0,0,0,.6.06,4.82,4.82,0,0,0,1.19-.13,7.68,7.68,0,0,0,1.24-.37A10.6,10.6,0,0,0,40.66,11a4.74,4.74,0,0,0,.54-.31l.56-.38c.33-.24.64-.5,1-.76a13,13,0,0,0,1-.94,7.26,7.26,0,0,0,.75-1A25.12,25.12,0,0,0,45.8,5.28c.05-.09.09-.17.13-.26a5,5,0,0,0,.26-.74,2.8,2.8,0,0,0,.07-.76V3.35l.05.08c.08.16.17.32.25.49s.15.36.22.54a7.7,7.7,0,0,0,.47,1.15,4.3,4.3,0,0,0,.84,1c.29.27.59.53.9.79a4.23,4.23,0,0,0,.41.33l.59.38.85.52c.31.2.6.41.89.64a3.17,3.17,0,0,1-.12.41c0,.16-.09.32-.14.47s-.12.35-.19.52a4.73,4.73,0,0,1-.2.47c0,.1-.11.19-.16.28s-.14.2-.2.3-.26.37-.39.55l-.84,1.15-.31.41c-.11.13-.21.26-.33.39s-.29.32-.45.47-.33.34-.5.5-.35.35-.51.54l-.48.55-.11.12-.25.26a3.47,3.47,0,0,1-.29.25,3,3,0,0,1-.35.27l-.31.22-.27.16-.33.16-.35.15-.33.12c-.44.17-.87.35-1.31.5h0l-.5.14-.32-.43-.42-.56-.34-.51a3.21,3.21,0,0,1-.19-.31L41,16.46c-.06-.11-.12-.24-.19-.36s-.13-.24-.2-.36-.27-.49-.42-.74-.16-.26-.24-.38a3.81,3.81,0,0,0-.24-.32c-.07-.08-.14-.17-.22-.25l-.27-.25a6.46,6.46,0,0,0-.59-.44l-.27-.18L38,13l-.61-.32h0l-1.14-.62h0l.63.47.55.38c.2.13.39.27.58.41s.37.29.55.44l.19.18.23.24a4.29,4.29,0,0,1,.36.48c.07.1.12.2.18.3a4,4,0,0,1,.17.36c.12.25.25.51.37.77s.23.49.36.73a6.71,6.71,0,0,0,.45.77l.47.69.52.69,1,1.36c.34.43.68.87,1.06,1.27.19.21.4.41.61.6s.45.39.68.57a6.36,6.36,0,0,0,.66.5c.25.17.5.32.75.47s.51.28.76.41a5.05,5.05,0,0,0,.74.27,6.68,6.68,0,0,0,.86.2l.4,0,.41,0,.84,0a4.32,4.32,0,0,0,.87-.11l.46-.13.38-.13.82-.32c.25-.1.48-.22.73-.33l.72-.33.37-.2a3.51,3.51,0,0,0,.4-.27l.3-.25a3.73,3.73,0,0,0,.3-.26A2.6,2.6,0,0,0,56.31,22ZM42.42,7.22c-.25-.06-.49-.13-.73-.21l-.84-.29-.41-.15L40,6.41a18.31,18.31,0,0,0-1.78-.55l-1-.23.17-.24.13-.18c.23-.28.46-.56.71-.83l.4-.42.44-.45c.19-.17.38-.35.58-.51l.39-.33a6.65,6.65,0,0,1,1-.72l.61-.28a4.54,4.54,0,0,1,.69-.21l.34-.07.39,0a3.18,3.18,0,0,1,.43.06l.31.14a3.54,3.54,0,0,1,.42.35,2.11,2.11,0,0,1,.21.31,3.41,3.41,0,0,1,.24.63c0,.08,0,.16,0,.24a3.38,3.38,0,0,1,0,.55,3,3,0,0,1-.07.51,4.49,4.49,0,0,1-.31.67l-.27.5c-.21.37-.44.74-.66,1.1s-.39.62-.61.93ZM52.91,8.34a3.28,3.28,0,0,1,.2-.31,3.2,3.2,0,0,1,.61-.55,3.48,3.48,0,0,1,.64-.32,2.33,2.33,0,0,1,.46-.08,2.83,2.83,0,0,1,.65,0l.21.07a1.49,1.49,0,0,1,.3.18.6.6,0,0,1,.11.12,1.24,1.24,0,0,1,.1.2,1.43,1.43,0,0,1,0,.22c0,.1,0,.21,0,.32s0,.23,0,.34,0,.3-.07.44c-.13.59-.29,1.18-.44,1.77,0,.17-.09.35-.13.53a2.72,2.72,0,0,0-.27-.42c-.1-.14-.2-.27-.31-.4a4.53,4.53,0,0,0-.49-.49c-.13-.12-.28-.23-.42-.35s-.59-.44-.87-.67l-.38-.3A1.58,1.58,0,0,1,52.91,8.34Zm-7.3,13.92-.54-.45a6.88,6.88,0,0,1-.54-.54c-.2-.2-.38-.42-.56-.64-.36-.44-.7-.89-1-1.35l-.42-.56.15,0c.22,0,.44-.08.66-.14.47-.12.93-.26,1.39-.4a5.54,5.54,0,0,0,.68-.25l.34-.16.3-.19a5.19,5.19,0,0,0,.62-.42,5.45,5.45,0,0,0,.5-.46c.32-.35.65-.71,1-1s.68-.66,1-1A11.51,11.51,0,0,0,50,13.43l.77-1.17c.12-.2.24-.41.35-.62a3.58,3.58,0,0,0,.26-.64c.07-.22.12-.44.17-.66s.09-.41.13-.62,0-.27.07-.4l.45.35.44.37.89.68c.14.11.29.22.43.35l.33.33a5.64,5.64,0,0,1,.46.63c.08.13.17.26.26.39a1.79,1.79,0,0,1,0,.23,11.14,11.14,0,0,1-.15,1.16c0,.09,0,.19-.07.28s-.07.2-.1.29-.15.34-.23.51-.25.44-.39.65l-.44.69c-.14.23-.28.46-.43.68a2.52,2.52,0,0,1-.24.33l-.24.34q-.25.33-.54.66c-.34.35-.67.72-1,1.08-.19.2-.37.4-.57.58s-.4.37-.62.55-.39.32-.6.48l-.63.49c-.13.1-.26.21-.39.3s-.25.19-.39.28l-.44.23-.41.19-.45.21a3.84,3.84,0,0,0-.35.18.57.57,0,0,1-.13-.08C46,22.59,45.81,22.42,45.61,22.26Z"/><path class="cls-1" d="M2.48,46.45c0-.25,0-.5,0-.75s0-.53,0-.79c0-.53.08-1.07.17-1.6h0l0-.13c0-.25.09-.51.15-.76s.16-.54.24-.81c.15-.48.34-1,.54-1.43a10.45,10.45,0,0,1,.51-.93q.32-.48.66-.93c.22-.25.44-.49.68-.72a7.29,7.29,0,0,1,.81-.66q.65-.44,1.32-.81c.47-.26.95-.52,1.44-.74,1-.44,1.94-.83,2.9-1.26.48-.23,1-.46,1.45-.72a7.92,7.92,0,0,0,.69-.42c.26-.17.52-.36.76-.55.44-.35.88-.71,1.29-1.09l.59-.59c.21-.23.41-.48.61-.72a8,8,0,0,0,.48-.66L18,29c.07-.13.13-.26.19-.39a10.3,10.3,0,0,0,.63-1.71,9.39,9.39,0,0,0,.21-.95c0-.28.07-.57.09-.86l.06-.85c0-.27.06-.54.1-.82s.11-.77.14-1.16,0-.77,0-1.15a8.77,8.77,0,0,1,.1-1.15c.06-.38.13-.77.19-1.16s.14-.72.24-1.08a7.49,7.49,0,0,1,.48-1.18l-.06.13c.14-.3.27-.6.41-.89a8,8,0,0,1,.43-.82c.18-.27.38-.54.59-.8s.68-.74,1-1.08l.32-.31.33-.28c.18-.15.37-.3.57-.44s.51-.32.78-.47.59-.3.89-.43.6-.24.89-.35l.86-.31,1.11-.34.55-.16.69-.16a21.25,21.25,0,0,1,2.25-.27l.78-.05.93-.08.82-.08.43,0,.48,0h.5l1,0h.5l.5,0c.34,0,.67-.09,1-.13h-.78c-.25,0-.49,0-.74-.06h-.18l-.19,0-.41,0L36,8.87l-.38,0-.36,0-.39,0-.38,0H32.91c-.28,0-.56,0-.84,0l-.82.05-.88.08c-.28,0-.56.09-.84.13a15.83,15.83,0,0,0-1.64.43c-.55.16-1.08.36-1.62.55l-.78.29q-.39.15-.75.33a9.32,9.32,0,0,0-1.51.91A12.48,12.48,0,0,0,22,12.61c-.22.21-.43.42-.63.64a7.44,7.44,0,0,0-.59.67,6.54,6.54,0,0,0-.48.69c-.14.22-.27.45-.4.69s-.24.5-.37.75l-.42.85a6.13,6.13,0,0,0-.29.75c-.07.25-.12.51-.18.76-.13.55-.25,1.1-.35,1.65a6.71,6.71,0,0,0-.12.9c0,.29,0,.59-.05.89s0,.54-.08.81-.08.48-.12.73-.08.42-.11.64,0,.42-.07.64c0,.39-.07.79-.12,1.19a11.64,11.64,0,0,1-.74,2.3c-.08.16-.16.32-.25.47l-.31.48c-.22.3-.44.6-.67.89s-.33.37-.51.54-.44.41-.66.62c-.41.36-.82.71-1.26,1a15.49,15.49,0,0,1-1.38.76c-.46.23-.93.43-1.39.64L9,34.24c-.51.23-1,.48-1.49.75s-.9.54-1.34.83c-.26.17-.52.34-.76.53a6.76,6.76,0,0,0-.62.58c-.21.22-.41.45-.61.69s-.35.45-.51.7a11.08,11.08,0,0,0-.83,1.56c-.05.11-.09.24-.14.36s-.1.28-.14.42-.16.5-.23.75-.14.53-.2.8-.1.59-.13.88a13.14,13.14,0,0,0,0,1.66,8.52,8.52,0,0,0,.08.87l.09.82c.09.54.16,1.09.25,1.62s.15,1,.24,1.52h0c0-.51,0-1-.07-1.51S2.5,47,2.48,46.45Z"/><path class="cls-1" d="M23.44,34.12l.2-.27c.05-.08.1-.16.16-.24s.12-.18.17-.27l.21-.35c.05-.09.09-.19.14-.29s.12-.25.18-.37.15-.39.22-.59a11.25,11.25,0,0,0,.38-1.29c0-.22.11-.43.15-.65s.06-.29.08-.43,0-.24.05-.35c.06-.44.08-.89.11-1.33s.09-.94.11-1.41a9.22,9.22,0,0,0,0-1.39c-.06-.64-.18-1.28-.24-1.91,0-.41,0-.81-.05-1.21s0-.88,0-1.32,0-.89,0-1.34l0-.67c0-.23,0-.46.07-.68l0-.2a4,4,0,0,1,.15-.57c.05-.13.09-.26.15-.39a7.52,7.52,0,0,1,.43-.79l.15-.25.14-.19c.08-.12.18-.23.27-.34a5.11,5.11,0,0,1,.57-.57c.12-.08.23-.18.35-.27l.31-.22.35-.2.38-.21.73-.34c.48-.21,1-.38,1.5-.57l.39-.13c.34-.11.67-.23,1-.32l.28-.08.3-.07.47-.09,1.09-.13,1.07-.1.66,0,.77,0h0c-.24,0-.49-.09-.74-.12s-.44,0-.66,0c-.44,0-.88,0-1.32,0h-.64l-.37,0-.35,0-.36.05-.36.07-.56.14a22.23,22.23,0,0,0-2.68.91,10.47,10.47,0,0,0-1.21.6,2.61,2.61,0,0,0-.28.17L27,13.8a4.66,4.66,0,0,0-.49.39l-.23.23a3.33,3.33,0,0,0-.25.28,4.34,4.34,0,0,0-.42.54A8.93,8.93,0,0,0,25,16.33l-.35.37-.89,1c-.23.25-.45.5-.67.77s-.31.38-.45.58-.21.31-.31.47l-.33.58-.1.17a1.3,1.3,0,0,0-.08.17c-.11.22-.21.44-.31.66,0,0,0,.09-.05.13l-.15.37a7.35,7.35,0,0,0-.3.94c-.09.35-.16.7-.22,1.06l-.09.53c0,.19-.05.39-.07.58s-.09.66-.13,1-.07.7-.09,1.06,0,.7-.05,1.06c0,.19,0,.38,0,.57a5.43,5.43,0,0,1-.06.55A9.75,9.75,0,0,1,20,30.18q-.11.33-.24.66c-.08.2-.17.4-.26.59a7.49,7.49,0,0,1-.36.69c-.13.24-.27.47-.41.69l-.42.65-.24.36-.11.15-.12.15a1.29,1.29,0,0,1-.16.17l-.27.26-.52.45c-.32.27-.65.52-1,.76l-.39.27-.44.27c-.29.18-.59.35-.89.51l-.48.25-.43.19c-.34.15-.69.29-1,.42l-.38.14L11.1,38c-.26.07-.52.16-.78.22l-.8.2-.83.22h0c.72-.06,1.45-.11,2.16-.22a16.46,16.46,0,0,0,2-.43l.58-.19.53-.2a7.36,7.36,0,0,0,.9-.42,16.82,16.82,0,0,0,1.84-1.17c.29-.21.56-.43.83-.66a7.07,7.07,0,0,0,.75-.7c.12-.14.25-.29.36-.44l.29-.42.57-.87c.19-.3.36-.61.52-.91a10.66,10.66,0,0,0,.78-2,4.7,4.7,0,0,0,.12-.51c0-.18.08-.36.1-.53s0-.33.05-.49,0-.39,0-.58,0-.67,0-1,0-.68.08-1,.09-.7.14-1.05c0-.2.05-.41.08-.61l.09-.58c.05-.23.09-.47.15-.7a3.25,3.25,0,0,1,.11-.42c.05-.16.09-.32.14-.47s.07-.19.11-.29l.17-.45a.37.37,0,0,1,0-.11l.12-.26.15-.35c.21-.4.41-.8.63-1.19A13.62,13.62,0,0,1,24,18.11l.3-.4.45-.62c0,.1-.05.2-.07.3s-.08.47-.11.71a11.9,11.9,0,0,0-.08,1.34c0,.44,0,.89,0,1.34s0,.86,0,1.28a12.81,12.81,0,0,0,.09,1.39l.09.65c0,.23.06.45.09.68s0,.27,0,.41,0,.31,0,.47v.48c0,.35,0,.71-.08,1.06s-.07.73-.1,1.1-.07.67-.12,1c-.1.49-.21,1-.35,1.46-.08.26-.16.51-.25.76s-.1.27-.16.41a2.14,2.14,0,0,1-.12.28l-.15.3-.16.27c-.1.18-.22.35-.33.52a6,6,0,0,1-.37.51c-.11.15-.23.29-.35.44l-.43.47-.5.52c-.32.31-.64.62-1,.92l-.48.42-.35.3-.18.16-.65.5-.55.41L18,38.1l-.41.27-.3.19-.1.06-.54.31-.4.21-.55.26-.33.16-.12.06-1,.41-1.05.38-1.47.43-1.25.37L7.79,42l-.2.06h0c.9-.14,1.8-.3,2.7-.46l1.34-.26L13.24,41l.11,0,.44-.13.43-.14.25-.08.77-.29.28-.11.19-.08.8-.36.12-.07.41-.21c.17-.1.35-.18.52-.29l.74-.46.57-.4.48-.36.38-.28.19-.15.61-.5c.35-.3.7-.61,1-.93s.65-.63,1-1a6.1,6.1,0,0,0,.41-.46l.25-.29Z"/><path class="cls-1" d="M30.1,29.5c.08-.4.14-.81.21-1.22,0-.12,0-.25.05-.37s.05-.5.06-.75a2.82,2.82,0,0,0,0-.41c0-.26,0-.51,0-.77s0-.28,0-.42,0-.45,0-.68-.05-.41-.08-.61,0-.34-.07-.51c-.07-.36-.13-.72-.21-1.08s-.18-.79-.27-1.19-.14-.67-.2-1a11.87,11.87,0,0,1-.21-1.33,5.73,5.73,0,0,1,0-1.24,4.46,4.46,0,0,1,.29-.92,5,5,0,0,1,.6-.92c.14-.15.3-.3.46-.44l.26-.22.26-.21.27-.2a4.82,4.82,0,0,1,.73-.43,7.54,7.54,0,0,1,.79-.3,9,9,0,0,1,1-.28l.6-.13.53-.06a1.51,1.51,0,0,1,.3,0h0a.75.75,0,0,1-.13.06l-.15.06h0l.21-.05.1,0,0,0s0,0,0,0h0a.91.91,0,0,0-.33,0h-.54l-.33,0-.57,0-.53.07-.62.11-.49.11a3.85,3.85,0,0,0-.57.2,5.24,5.24,0,0,0-.48.23l-.25.15-.28.19-.26.18c-.14.09-.27.19-.4.29a3.39,3.39,0,0,0-.52.55,4.73,4.73,0,0,0-.44.66,5.13,5.13,0,0,0-.33.76,4.75,4.75,0,0,0-.19.83,6.45,6.45,0,0,0,0,.76c0,.12,0,.25,0,.38a3.59,3.59,0,0,0,.05.46c0,.2.06.41.09.61s0,.15,0,.22.05.26.08.39.08.37.12.56.16.66.23,1l.15.63c.05.21.09.42.13.62.09.39.14.78.21,1.16,0,.15,0,.31,0,.46s0,.37.05.56,0,.38,0,.56,0,.36,0,.54,0,.46,0,.69,0,.15,0,.23,0,.09,0,.14c0,.44-.05.88-.08,1.32,0,.15,0,.3,0,.45l-.06.82c-.06.79-.1,1.59-.17,2.38h0c.17-.72.32-1.45.47-2.18Z"/></g></g></svg>