<svg xmlns="http://www.w3.org/2000/svg" viewBox="0 0 43.56 45.74"><defs><style>.cls-1{fill:#fefefe;}</style></defs><title>aries</title><g id="Layer_2" data-name="Layer 2"><g id="OBJECTS"><polygon class="cls-1" points="30.26 13.78 30.26 13.78 30.27 13.78 30.26 13.78"/><path class="cls-1" d="M43.54,2.18l0-.06-.06,0a3.15,3.15,0,0,0-.29-.22l-.34-.18a6.28,6.28,0,0,0-.59-.27h0l-.12-.09s0,0,0,0a1.18,1.18,0,0,0-.19-.11l-.27-.11a4.5,4.5,0,0,0-.51-.2,4.44,4.44,0,0,0-.52-.15,5,5,0,0,1-.52-.14A6.93,6.93,0,0,0,39,.33L37.88.16C37.5.1,37.12,0,36.73,0H36l-.6,0-1.29,0-.63,0L32.85.2c-.44.07-.87.15-1.29.25s-.74.2-1.1.32a16.94,16.94,0,0,0-2.08.94c-.21.1-.43.19-.64.3l-.32.18h-.06l-.43.05-.82.14-.87.19-.91.21L23.51,3l-.38.11-.39.12c-.28.09-.55.18-.82.29s-.53.22-.79.34L21,3.91a6.82,6.82,0,0,0-.79.31c-.21.09-.41.2-.62.3l-.49.28a4.72,4.72,0,0,0-1,.74,8,8,0,0,0-.67.77,7.47,7.47,0,0,0-.6.79s0,0,0,.05l-.07.06-.2.17-.19.21a2.51,2.51,0,0,0-.32.48,2.76,2.76,0,0,0-.2.47,3.28,3.28,0,0,0-.15.51l-.06.24-.06.25a2,2,0,0,1-.07.23c0,.08,0,.15,0,.23a1.89,1.89,0,0,0-.05.23,2,2,0,0,0,0,.24,2.68,2.68,0,0,0,0,.4v.19h0l0-.27a.81.81,0,0,1,0,.15h0l.15-.54a2.18,2.18,0,0,1,.09-.23,2.25,2.25,0,0,1,.12-.21s0,0,0,0a1.16,1.16,0,0,1,0,.18l0,.19a3.42,3.42,0,0,0,0,.44h0c.06-.15.1-.31.16-.46s.12-.29.19-.43l.18-.42a1.67,1.67,0,0,0,.08-.2.1.1,0,0,1,0-.05s0,0,0-.06a.56.56,0,0,1,0-.12l0-.08.17-.26,0,.05.12-.16c.08-.12.18-.22.27-.33s.2-.22.3-.33.37-.44.58-.65l.33-.3.34-.31.62-.56a7,7,0,0,1,.86-.56c.15-.08.29-.17.44-.24l.37-.18c.33-.15.66-.29,1-.42s.74-.32,1.1-.48L23.38,4l.52-.2c.36-.15.7-.32,1.07-.45s.66-.24,1-.38l.55-.25h0l.12,0a5.39,5.39,0,0,0-.5.33,11.76,11.76,0,0,0-1,.8c-.14.13-.28.27-.41.41s-.23.27-.34.41c-.47.59-.91,1.18-1.34,1.78-.22.31-.43.61-.63.93s-.41.62-.58.94-.31.62-.45.94c-.07.16-.13.32-.19.49l-.17.48c-.1.27-.19.55-.28.83v0c-.09.23-.16.46-.23.7a9.19,9.19,0,0,0-.25,1.39,11.34,11.34,0,0,0-.11,1.44c0,.25,0,.51,0,.76s0,.45.05.67a5.23,5.23,0,0,0,.12.69c0,.11.07.21.1.32l.14.39a7.73,7.73,0,0,0,.58,1.24,4.57,4.57,0,0,0,.43.58,3.45,3.45,0,0,0,.26.28l.13.12,0,0,.06.05.1.05.29.23a2.38,2.38,0,0,0,.39.2c.24.11.49.2.74.3l.4.14.44.11a6,6,0,0,0,.84.09,14.28,14.28,0,0,0,1.73.05h.4l.43,0c.29,0,.57,0,.86-.09.53-.08,1.07-.16,1.6-.27a7.4,7.4,0,0,0,1.57-.51,6.45,6.45,0,0,0,.74-.38,7.76,7.76,0,0,0,.69-.4,13.29,13.29,0,0,0,1.33-1l.29-.26.28-.29.24-.25.24-.3c.16-.21.3-.42.45-.64s.26-.38.37-.58.22-.43.32-.65.17-.44.25-.68.07-.24.1-.36,0-.23.08-.35.07-.46.11-.69c.07-.47.13-.93.16-1.41l0-.72c0-.24,0-.49,0-.73s0-.46-.08-.69-.09-.47-.14-.71c-.1-.45-.2-.89-.32-1.32-.06-.23-.13-.46-.2-.69a4.61,4.61,0,0,0-.25-.71,3,3,0,0,0-.33-.61,1.59,1.59,0,0,0-.25-.33A2.44,2.44,0,0,0,35.63,5q-.37-.32-.78-.6L34.31,4h0a2.2,2.2,0,0,1,.31-.15l1-.47.28-.09L36.6,3l.32-.11.32-.09.35-.07.4,0,.79,0,1.7-.1h0L38,2.49h-.16L38,2.44q.39-.07.78-.12c.28,0,.56,0,.84,0l.73,0,.43,0,.42,0,.77.07.49,0h.27a.85.85,0,0,0,.22,0h.17l.17,0,.08,0a.28.28,0,0,0,.15-.06.25.25,0,0,0,0-.07A.12.12,0,0,0,43.54,2.18ZM19.07,6.08h0l-.06,0L19.17,6Zm11.37,4.2.21.12.16.12a1.29,1.29,0,0,1,.16.17,2.92,2.92,0,0,1,.28.52,3.13,3.13,0,0,1,.1.44,2.14,2.14,0,0,0-.12-.28,2.84,2.84,0,0,0-.42-.58,2.55,2.55,0,0,0-.3-.26l-.3-.22L30,10.19l.26,0ZM43.05,2.17H43a4,4,0,0,0-.5-.09L41.94,2c-.26,0-.53-.05-.79-.09l-.41,0-.43,0-.38,0h-.47c-.28,0-.55,0-.82.06L38.22,2a2.29,2.29,0,0,0-.44.09,8.27,8.27,0,0,0-.8.26c-.26.08-.5.18-.75.28l-.74.32L35.14,3a3.35,3.35,0,0,0-.54.16,2.82,2.82,0,0,0-.51.19l-.58.28c-.34.18-.66.36-1,.53s-.67.34-1,.53a9.46,9.46,0,0,0-.91.59l-.45.32L29.66,6a15.56,15.56,0,0,0-1.49,1.43c-.12.12-.21.25-.31.37s-.23.31-.33.47a6.89,6.89,0,0,0-.43.8,6.21,6.21,0,0,0-.34,1,6.1,6.1,0,0,0-.14.94,7.11,7.11,0,0,0-.06.92,3.55,3.55,0,0,0,.15,1,4.85,4.85,0,0,0,.35.86,3.11,3.11,0,0,0,.3.44,1.57,1.57,0,0,0,.44.36,2.15,2.15,0,0,0,.56.24,2.29,2.29,0,0,0,.36.07,1.51,1.51,0,0,0,.3,0,2.73,2.73,0,0,0,.57,0,2.55,2.55,0,0,0,.56-.14l.22-.1.26-.14a2.09,2.09,0,0,0,.42-.29,2.13,2.13,0,0,0,.3-.3,3.76,3.76,0,0,0,.25-.31,1.65,1.65,0,0,0,.19-.27.61.61,0,0,0,.07-.14.58.58,0,0,0,.06-.17,1.48,1.48,0,0,0,.06-.47,2.46,2.46,0,0,0,0-.28,1.29,1.29,0,0,0-.08-.28c0-.1,0-.19,0-.28a2,2,0,0,0-.06-.23l-.12-.3a1.59,1.59,0,0,0-.13-.22,1.71,1.71,0,0,0-.2-.27,1.36,1.36,0,0,0-.24-.24,1.31,1.31,0,0,0-.28-.17l-.15-.07a.94.94,0,0,0-.22-.07,1.35,1.35,0,0,0-.4,0h-.16L29.54,10a1.39,1.39,0,0,0-.19-.06,2,2,0,0,0-.23-.06h0l.12.05h0l.22.11a.82.82,0,0,1,.2.12h0l.05,0,.24.17a2.37,2.37,0,0,1,.28.27c.1.1.18.2.27.3a2.85,2.85,0,0,1,.33.68c0,.12.07.25.1.38s0,.23,0,.34a2.89,2.89,0,0,1-.08.59v0a1.47,1.47,0,0,1-.17.36,1.74,1.74,0,0,1-.18.22,2.06,2.06,0,0,1-.26.25h0a4.17,4.17,0,0,1-.61.38,1.75,1.75,0,0,1-.32.12l-.12,0h-.1l-.2-.08a2,2,0,0,1-.38-.26l-.24-.24a.94.94,0,0,1-.12-.22c0-.08-.07-.18-.11-.27-.09-.28-.16-.57-.22-.85a6.25,6.25,0,0,1-.08-.86,3.68,3.68,0,0,1,0-.58,1.55,1.55,0,0,1,.06-.31c0-.09.05-.19.08-.28a2,2,0,0,1,.08-.22,1.15,1.15,0,0,1,.1-.23c.06-.14.14-.29.22-.44L28.6,9l.28-.42c.29-.4.58-.8.91-1.18.17-.18.34-.37.52-.55s.38-.34.56-.52.52-.48.78-.71.38-.3.59-.44l.62-.41.54-.32.22-.14.17-.09.23.18c.27.22.56.43.84.64l.34.3a2.45,2.45,0,0,1,.31.34,3.09,3.09,0,0,1,.25.42,5.32,5.32,0,0,1,.21.5c.07.21.13.42.19.64s.12.43.18.65.11.46.16.69.1.43.14.65a7.22,7.22,0,0,1,.13.79c0,.23,0,.47,0,.71s0,.47,0,.7,0,.46,0,.68c0,.47-.09.93-.15,1.39,0,.23-.07.45-.11.68a3.87,3.87,0,0,1-.15.56l-.19.51a4.59,4.59,0,0,1-.24.5c-.09.16-.19.32-.29.48l-.32.49a5.75,5.75,0,0,1-.5.63,4.12,4.12,0,0,1-.28.31L34.2,18l-.55.43c-.22.16-.44.32-.67.47a7.48,7.48,0,0,1-.67.41c-.22.13-.44.25-.67.36a6.9,6.9,0,0,1-1.37.46l-.77.15-.41.07-.42.06c-.28,0-.55.07-.83.09l-.43,0-.43,0h-.31c-.37,0-.74,0-1.1-.05l-.54,0a5,5,0,0,1-.54-.07l-.37-.1a3.39,3.39,0,0,1-.41-.15,7.28,7.28,0,0,1-.77-.31l-.22-.13a1.66,1.66,0,0,1-.21-.16l0,0-.09-.07a0,0,0,0,0,0,0,.24.24,0,0,0-.06-.08l-.1-.1-.22-.22a4.39,4.39,0,0,1-.33-.4,6.53,6.53,0,0,1-.45-.82c-.13-.28-.24-.57-.35-.86,0-.13-.08-.25-.11-.38s0-.45,0-.67,0-.69,0-1l0-.52A4.1,4.1,0,0,1,21,13.9c.06-.36.14-.7.21-1.06a3.94,3.94,0,0,1,.1-.47c0-.16.09-.32.14-.48v0a20.92,20.92,0,0,1,.81-2c.08-.17.15-.33.24-.49l.26-.46L23,8.5l.31-.45.32-.48.11-.15.61-.83c.21-.27.43-.53.65-.8s.43-.55.65-.81a7.2,7.2,0,0,1,.74-.72,9.14,9.14,0,0,1,1.06-.75c.39-.25.8-.48,1.22-.7l1-.47.59-.26c.19-.09.39-.17.6-.25.39-.13.8-.25,1.2-.34s.69-.14,1-.19l.56-.08.56,0,1.16-.09.59,0,.53,0c.73,0,1.45.05,2.18.08a5.09,5.09,0,0,1,.55,0c.17,0,.35,0,.52.06l.53.06c.19,0,.38,0,.56.05l.25,0,.59.19.42.14.41.18.42.21.16.1Z"/><polygon class="cls-1" points="15.36 10.87 15.36 10.87 15.36 10.87 15.36 10.87"/><polygon class="cls-1" points="6.97 19.38 6.97 19.38 6.97 19.38 6.97 19.38"/><polygon class="cls-1" points="14.06 15.87 14.07 15.87 14.07 15.87 14.06 15.87"/><path class="cls-1" d="M17.51,13.21h-.09l-.25,0a5.12,5.12,0,0,0-.54.1,4.66,4.66,0,0,0-.49.16l-.22.1-.25.11-.42.22-.43.27-.22.13-.11.08-.09.06,0,0a.93.93,0,0,0-.18.16,1.45,1.45,0,0,0-.18.17c-.11.12-.21.25-.3.37l-.14.19-.14.19c-.09.13-.18.25-.26.38l-.18.29a2.33,2.33,0,0,0-.17.26l-.34.61h0l.34-.48h0l0,0h0l0,0h0c.08-.12.18-.23.27-.35l.3-.37.15-.18.16-.17c.11-.12.21-.24.33-.36l.32-.29a1.56,1.56,0,0,1,.2-.16h0l.08,0,.1-.07.22-.12.44-.26.41-.23.22-.12.2-.1a2.82,2.82,0,0,1,.63-.24l.29-.06.12,0-.09.09-.1.11-.12.12a2,2,0,0,1-.19.22,1.8,1.8,0,0,1-.19.2l-.37.25-.41.28-.2.13-.22.13-.42.23-.22.13-.21.11-.45.23-.22.12-.21.13c-.14.09-.27.19-.4.29l-.35.31,0,0h0l.26-.19.26-.18.27-.17L14,15.9h0l.06,0h0l.29-.13.29-.13.29-.13.29-.14.2-.09h0l.25-.13.2-.11c.15-.08.28-.17.42-.26l.2-.14a1.37,1.37,0,0,0,.2-.13,1.6,1.6,0,0,0,.37-.31c.1-.11.19-.24.29-.35l.14-.16c.06-.06.11-.12.17-.17s.11-.14.06-.21A.21.21,0,0,0,17.51,13.21Z"/><polygon class="cls-1" points="1.89 7.71 1.88 7.71 1.88 7.71 1.89 7.71"/><path class="cls-1" d="M24.06,31.07c-.28.14-.58.24-.88.36s-.66.28-1,.44l-.45.23-.46.23c-.32.17-.65.32-1,.49s-.6.34-.89.53l-.84.55a4.33,4.33,0,0,0-.41.3c-.16.12-.31.25-.46.38l-.35.32-.33.3-.35.33-.34.32L16,36.2l-.35.34-.69.69c-.22.23-.43.47-.64.7s-.4.49-.61.73-.38.46-.56.7a9.41,9.41,0,0,0-.6.81,9.06,9.06,0,0,0-.49.77c-.13.21-.23.43-.35.65s-.22.4-.34.6L11,42.8l-.35.55c-.16.23-.33.45-.48.68l-.44.66,0,.05h0c-.05.08-.11.15-.16.22a1,1,0,0,1-.14.15h0l-.13,0,0,0,0,0a.86.86,0,0,1-.13-.14,3.79,3.79,0,0,1-.2-.34c-.08-.12-.15-.25-.22-.38s-.14-.29-.22-.43a1.08,1.08,0,0,1-.08-.19,1,1,0,0,1,0-.1.33.33,0,0,0-.11-.13l0,0,0,0c0-.07,0-.14-.07-.2-.08-.24-.15-.47-.21-.71a7.55,7.55,0,0,1-.19-.79c-.05-.28-.09-.55-.12-.83s0-.52,0-.78a6.12,6.12,0,0,1,0-.86c0-.31.12-.62.18-.92s.12-.62.17-.93.13-.58.2-.88.07-.4.12-.6.1-.4.15-.59.1-.4.16-.59.11-.38.17-.57l.1-.31q.15-.42.33-.84c.12-.3.25-.59.37-.88s.26-.57.38-.85.26-.58.38-.87.22-.54.34-.81a9,9,0,0,0,.34-.86c.1-.29.18-.59.26-.88a5.54,5.54,0,0,0,.19-.9,6.23,6.23,0,0,0,.07-.86,4.17,4.17,0,0,0,0-.5c0-.1,0-.2,0-.3l.22-.09.8-.31c.27-.1.53-.22.79-.34a11,11,0,0,0,1-.57l.49-.32a5.33,5.33,0,0,1,.51-.31h0a3.53,3.53,0,0,0-.46.15l-.41.15-.87.31c-.55.2-1.13.34-1.69.49l-.56.17s0,0,0-.05l-.14.05h0a.07.07,0,0,1,0,.05l-.14,0c-.3.1-.58.21-.87.32l-.83.31q-.42.16-.84.3L7.37,26c-.35.12-.71.24-1.07.33h0l.17-.1.21-.13-.28.08-.45.11a2.65,2.65,0,0,1-.49.09l-.19,0-.52,0H4.65l-.33,0H4.17a.76.76,0,0,1-.21,0,1.12,1.12,0,0,1-.26-.08,2.55,2.55,0,0,1-.38-.26,2.25,2.25,0,0,1-.36-.4l-.09-.11s0,0,0,0l0-.16a2.28,2.28,0,0,1,0-.26,3.31,3.31,0,0,1,.06-.55c0-.19.08-.39.13-.58a1.47,1.47,0,0,1,.1-.22l.13-.2a7.28,7.28,0,0,1,.51-.62c.09-.09.18-.2.28-.29a3.19,3.19,0,0,1,.26-.26c.2-.17.37-.36.55-.54s.2-.19.29-.29.18-.2.28-.3.29-.31.44-.47l.4-.44c.26-.31.51-.62.74-.95L7.24,19l.16-.32c.11-.23.21-.45.32-.66s.14-.24.2-.36a3.13,3.13,0,0,0,.15-.32L8.19,17l.15-.42c.15-.44.33-.87.47-1.3l.12-.37,0,0c.09-.25.19-.49.29-.73s.2-.48.29-.72a10,10,0,0,1,.7-1.43c.12-.2.26-.4.39-.59l.37-.57a8.68,8.68,0,0,1,.64-.74,8.28,8.28,0,0,1,.68-.64,5.92,5.92,0,0,1,.48-.35l.59-.32h0c.33-.16.67-.31,1-.5a5.23,5.23,0,0,0,.75-.56l.3-.23.34-.22A2.29,2.29,0,0,1,16,7.25a1.34,1.34,0,0,0,.26-.09h0l0,0h0l-.1,0h0a2.32,2.32,0,0,1-.38,0,1.46,1.46,0,0,0-.46.15,7.51,7.51,0,0,0-.76.36l-.2.09a6.55,6.55,0,0,1-.74.27c-.29.09-.58.17-.86.28a4.63,4.63,0,0,0-.86.44,4.71,4.71,0,0,0-.76.63c-.19.19-.38.39-.55.59a7.21,7.21,0,0,0-.53.74l-.23.37c-.07.12-.14.24-.22.36a6.8,6.8,0,0,0-.38.7c-.2.44-.37.89-.54,1.35-.08.22-.17.45-.26.67l-.12.33-.13.39-.13.43-.1.27c0,.1-.07.21-.11.31s-.14.4-.21.6-.07.2-.1.31h0a1.86,1.86,0,0,1-.1.25c0,.09-.07.18-.12.27l-.15.27L7,17.93c-.08.18-.17.36-.26.54s-.09.19-.15.28H6.14c-.17,0-.33,0-.49,0l-.49-.06-.46-.07-.11,0-.34-.1-.2-.09-.18-.1-.22-.14A1.64,1.64,0,0,1,3.43,18l-.18-.13-.19-.16-.22-.21-.4-.41c-.12-.13-.25-.27-.36-.41L2,16.53l-.07-.09-.17-.24-.23-.34-.15-.25-.09-.18-.09-.17L1,15c-.06-.13-.11-.25-.16-.38s-.11-.32-.16-.48l-.15-.5-.06-.26c0-.09,0-.18,0-.27s0-.19,0-.28,0-.17,0-.25V12.2c0-.09,0-.17,0-.26s0-.32,0-.48l.06-.54c0-.1,0-.19,0-.28s0-.08,0-.12l0-.14c0-.09.05-.19.08-.29s0-.13.07-.2a2.6,2.6,0,0,1,.1-.25l.25-.55c.16-.33.34-.65.52-1,.09-.13.17-.27.26-.41h0l.19-.26h0l.18-.24L2.41,7l.18-.23.18-.22c.12-.14.23-.28.35-.41s.23-.28.35-.41a3.32,3.32,0,0,1,.25-.27A2.23,2.23,0,0,1,4,5.19a1.59,1.59,0,0,1,.13-.13l.16-.15.24-.2A4.59,4.59,0,0,1,5,4.38c.15-.11.31-.21.47-.31l.52-.31.5-.27c.24-.11.48-.21.73-.3l.4-.13A3.25,3.25,0,0,1,8,3a2.61,2.61,0,0,1,.27-.06l.32-.05.63-.06.64,0,.63,0,.79,0h.51l.26,0,.23,0,.08,0,.06,0h.05l.13,0,.12.08a2.11,2.11,0,0,1,.25.27.8.8,0,0,0,.13.13.92.92,0,0,0,.22.17.65.65,0,0,0,.16.09l.17.1a2.11,2.11,0,0,1,.31.21l.28.21.28.23.17.13a1.07,1.07,0,0,0,.16.14l.17.13.18.13a1.13,1.13,0,0,1,.22.27h0c0,.05.07.11.11.17a1.63,1.63,0,0,0,.11.17,1.14,1.14,0,0,1,.1.19c0,.06,0,.12.07.17s0,.12.06.18a1.5,1.5,0,0,1,.06.29h0a1.36,1.36,0,0,0,0-.29s0-.1,0-.15a.57.57,0,0,0,0-.14c0-.06,0-.11-.05-.16s0-.11-.08-.16l-.09-.15a.6.6,0,0,0-.09-.15A.42.42,0,0,0,15.41,5a.71.71,0,0,0-.1-.14L15,4.59c-.13-.11-.24-.22-.36-.34l-.09-.07-.11-.1-.22-.18a3.29,3.29,0,0,0-.41-.33,1.74,1.74,0,0,0-.26-.15.41.41,0,0,0-.11-.07l-.12-.09a1.37,1.37,0,0,1-.2-.22L13,2.84a1,1,0,0,0-.3-.22l-.17-.06-.13,0-.14,0-.17,0-.62,0h-.66c-.42,0-.84,0-1.26,0l-.68,0a6,6,0,0,0-.61.08l-.64.14A5.58,5.58,0,0,0,7,3a4.82,4.82,0,0,0-.57.22l-.57.28c-.36.19-.71.4-1.05.62l-.27.19-.24.18-.25.21-.22.19-.22.21-.2.21c-.13.13-.24.27-.36.4l-.36.42-.2.24-.18.2c-.11.15-.24.3-.35.46l-.2.25-.17.23-.14.22-.15.23c-.06.1-.12.19-.17.29L1,8.43a2.12,2.12,0,0,0-.11.21L.75,8.9l-.24.53a4.19,4.19,0,0,0-.2.49,2.76,2.76,0,0,0-.08.27c0,.05,0,.1,0,.15a.59.59,0,0,0,0,.13c0,.16-.05.33-.07.5s0,.35,0,.52l0,.31c0,.1,0,.19,0,.28v.25a2.53,2.53,0,0,0,0,.27,2.09,2.09,0,0,0,0,.25,2.51,2.51,0,0,1,0,.27c0,.18.07.36.11.54.09.35.21.69.33,1,0,.1.07.19.11.29l.1.21c0,.08.07.16.11.23s.1.19.14.28l.06.1.11.18.13.21.17.23.16.23.2.24.08.09.12.14.2.21.21.2.21.19.21.18L3,18l.1.07.12.09.16.08a5.07,5.07,0,0,0,.57.29L4,18.6l.28.09.22,0,.14,0,.63,0c.22,0,.45,0,.68,0l.63,0a2.26,2.26,0,0,1-.16.26l-.06.09-.23.31a4,4,0,0,1-.26.32c-.16.2-.32.4-.49.59L4.83,21l-.27.31-.27.27c-.18.19-.35.38-.54.56a6.92,6.92,0,0,0-.53.56A1.79,1.79,0,0,0,3,23a2.34,2.34,0,0,0-.25.39,1.65,1.65,0,0,0-.18.41,2.6,2.6,0,0,0,0,.39,4.85,4.85,0,0,0,0,.66,1,1,0,0,0,0,.35,2,2,0,0,0,.15.47.41.41,0,0,0,0,.08l0,.09.09.14a2.33,2.33,0,0,0,.19.39c0,.08.09.16.13.24l.18.3h0a4.17,4.17,0,0,1-.24-.58h0a0,0,0,0,0,0,0h0a2.68,2.68,0,0,0,.3.28,1.47,1.47,0,0,0,.47.23,1.93,1.93,0,0,0,.49.09h.29l.2,0,.21,0,.12,0,0,0h.17s0,0,0,0h.27l.42,0a3.25,3.25,0,0,0,.44,0,6.78,6.78,0,0,0,.9-.16l1-.23.88-.26.86-.29.82-.31.36-.14s0,.08,0,.12A10.93,10.93,0,0,1,11,27a6.14,6.14,0,0,1-.18.74c-.07.24-.14.48-.22.72s-.19.56-.31.84-.25.54-.37.81-.25.58-.37.86l-.39.83c-.19.43-.39.85-.57,1.29-.09.21-.18.42-.26.63s-.16.45-.23.67c-.19.58-.37,1.16-.5,1.75-.07.29-.16.58-.23.88s-.13.61-.19.92c0,.14-.07.29-.11.44s-.07.33-.11.49-.06.29-.08.44,0,.29,0,.44c0,.33,0,.66,0,1s0,.59.07.89,0,.36.08.53.07.33.1.49a9,9,0,0,0,.24.93,0,0,0,0,0,0,0,.43.43,0,0,0,.06.27c0,.06.05.11.07.17s.12.26.18.38a5,5,0,0,0,.43.69h0l.18.24.16.15a1.28,1.28,0,0,0,.22.17.66.66,0,0,0,.27.09h.12a1.51,1.51,0,0,0,.67,0,.92.92,0,0,0,.21-.13l.13-.11.14-.16.28-.42c.16-.25.3-.51.46-.76s.35-.5.5-.76l.38-.66.39-.64c.28-.47.52-.95.83-1.4l.24-.33.29-.36.29-.36.31-.36.62-.7.32-.34.34-.35c.46-.45,1-.88,1.45-1.32l.36-.34.36-.32.35-.31.33-.28.47-.41.35-.26c.13-.1.27-.18.41-.27s.57-.38.85-.56l.85-.55.47-.31.4-.3c.36-.27.71-.56,1.08-.82l.56-.41.24-.18.26-.23h0Zm-14.65,14Z"/><path class="cls-1" d="M29,21.59a2.08,2.08,0,0,0-.12-.32,1.54,1.54,0,0,0-.08-.19h0l0,.19a1.13,1.13,0,0,1,0,.18c0,.12,0,.24,0,.37s0,.21,0,.31,0,.22,0,.33-.08.45-.13.68-.08.45-.13.67-.11.42-.16.63-.07.21-.1.32l-.12.36s0,0,0-.06c-.15.43-.33.85-.52,1.26s-.36.84-.57,1.26l-.34.62-.17.31-.21.35h0c.17-.2.34-.4.5-.61L27.1,28l.2-.28c.14-.19.27-.39.4-.6l.36-.61c.12-.2.24-.4.35-.61s.2-.41.28-.62.15-.44.21-.67.09-.44.12-.66.05-.45.07-.67,0-.46,0-.68a3.71,3.71,0,0,0-.05-.67C29,21.8,29,21.7,29,21.59Z"/><path class="cls-1" d="M13.32,24.47h-.07Z"/><path class="cls-1" d="M23,6.43l0,0,0-.07Z"/><path class="cls-1" d="M31.77,11.45s0,0,0,0h0S31.77,11.47,31.77,11.45Z"/><path class="cls-1" d="M23,26.36c.09-.2.16-.42.24-.63s.08-.22.11-.33.08-.23.11-.35h0c-.07.13-.16.26-.23.39s-.17.27-.26.4l-.24.39c-.08.13-.17.25-.26.37l-.09.13c-.08.1-.15.2-.24.3s-.19.21-.29.31-.41.43-.63.63l-.67.58-.62.54-.44.34-.47.35c-.19.15-.36.31-.54.46l-.46.4c-.13.1-.26.2-.38.31l-.34.3-.68.61-.73.65-.65.65c-.43.45-.89.89-1.35,1.33l-.34.33-.35.34c-.22.23-.45.46-.66.7s-.42.46-.61.71-.2.24-.3.36l-.28.38a8.23,8.23,0,0,0-.53.78l-.23.4-.2.38c-.07.14-.13.28-.19.42s-.11.26-.15.4a5.82,5.82,0,0,0-.16,1h0a7.4,7.4,0,0,1,.21-.81,3.6,3.6,0,0,1,.29-.63c.12-.21.25-.41.39-.61l.15-.22.28-.38c.09-.12.2-.24.3-.36l.31-.36.32-.32c.11-.13.22-.25.34-.37l.32-.33c.23-.23.47-.45.7-.69l.33-.31.36-.33.74-.65.35-.32.35-.33c.23-.22.44-.43.68-.64l.32-.28.13-.1.3-.26.24-.18a.69.69,0,0,1,.13-.11l.77-.62a.27.27,0,0,0-.08.07c.14-.11.28-.22.43-.32L19,30.9l.5-.4.35-.28c.14-.11.29-.23.42-.35l.33-.3c.12-.1.22-.21.33-.32a14.41,14.41,0,0,0,1.25-1.48v0l.14-.19c.13-.19.27-.38.38-.58S22.9,26.57,23,26.36Z"/><path class="cls-1" d="M22.34,27.53l0,0h0Z"/><path class="cls-1" d="M6.29,11.17c0-.21.09-.42.14-.64a3.88,3.88,0,0,1,.14-.45c.07-.18.14-.37.22-.55a6.45,6.45,0,0,1,.49-.89c.19-.27.37-.55.58-.81s.24-.28.37-.41.3-.28.44-.43h0l-.57.35a4,4,0,0,0-.47.34A3.52,3.52,0,0,0,7.22,8c-.14.13-.28.26-.4.39a6,6,0,0,0-.69.93c-.09.17-.18.34-.26.51s-.12.32-.18.48a3.79,3.79,0,0,0-.18,1.05c0,.34,0,.68,0,1a4.51,4.51,0,0,0,.16,1c.05.15.1.3.16.45a2.53,2.53,0,0,0,.21.44A5.44,5.44,0,0,0,7,15.4H7c-.12-.19-.25-.38-.36-.57s-.12-.2-.17-.3a2.72,2.72,0,0,1-.11-.25,3.16,3.16,0,0,1-.13-.53c0-.09,0-.19,0-.28s0-.2,0-.3a8.29,8.29,0,0,1,.09-1.32C6.23,11.62,6.25,11.4,6.29,11.17Z"/></g></g></svg>