<svg xmlns="http://www.w3.org/2000/svg" viewBox="0 0 57.61 35.56"><defs><style>.cls-1{fill:#fefefe;}</style></defs><title>cancer</title><g id="Layer_2" data-name="Layer 2"><g id="OBJECTS"><path class="cls-1" d="M33.36,25.59a8.8,8.8,0,0,0,.73-.64c.21-.22.43-.42.64-.64l.66-.68c.1-.11.22-.21.32-.31s.22-.2.32-.31l.34-.34.33-.36c.41-.48.83-1,1.23-1.45s.81-1,1.22-1.42l.32-.34c.1-.11.22-.22.33-.33l.31-.31.31-.32.19-.21,0,0a.78.78,0,0,0,.2-.24,1.74,1.74,0,0,0,.11-.18,2.85,2.85,0,0,0,.2-.51,1,1,0,0,0,.07-.35,1,1,0,0,0-.07-.41A1.3,1.3,0,0,0,41,16a2.6,2.6,0,0,0-.25-.33,4.14,4.14,0,0,0-.38-.35L40,15l-.72-.5c-.23-.16-.47-.31-.72-.46l-.73-.47a2.5,2.5,0,0,0-.39-.23l-.42-.22a6.19,6.19,0,0,0-.8-.34l-.89-.31a6.71,6.71,0,0,0-1-.21h.07l-.57-.1L33,12.05a7.69,7.69,0,0,0-.83,0l-.8,0c-.28,0-.56,0-.84,0a2.67,2.67,0,0,0-.48.08l-.43.09-.8.18-.8.18a5.54,5.54,0,0,0-.8.21l-.63.22-.64.23-.6.21-.31.12-.37.18a4.6,4.6,0,0,0-.72.39c-.21.15-.43.3-.63.47s-.45.42-.67.65a2.85,2.85,0,0,0-.53.74c-.07.17-.13.36-.19.54s-.08.32-.11.48a3.45,3.45,0,0,0,0,1.11,3.63,3.63,0,0,0,.32,1,3.17,3.17,0,0,0,.21.41l.27.43.45.65c.06.11.13.22.2.33l.28.45a5.34,5.34,0,0,0,.53.72,4.08,4.08,0,0,0,.36.36l.32.29.34.3.31.29a6,6,0,0,0,.49.39l.54.37.54.33a3.91,3.91,0,0,0,.57.31h0A4.26,4.26,0,0,1,27,24.3l-.56-.49h0l-.35-.33c-.16-.15-.31-.31-.45-.47s-.31-.36-.47-.53-.33-.34-.48-.53a6.07,6.07,0,0,1-.43-.57l-.38-.67c-.13-.24-.25-.49-.38-.72l-.2-.35c-.06-.12-.13-.22-.19-.34a2.31,2.31,0,0,1-.18-.35,2.17,2.17,0,0,1-.15-.35c0-.12-.07-.23-.1-.35a2.63,2.63,0,0,1-.06-.39,3.25,3.25,0,0,1,0-.54,5.27,5.27,0,0,1,.18-.71c0-.11.1-.2.15-.29a4.85,4.85,0,0,1,.74-.76c.24-.2.48-.38.73-.56a3.91,3.91,0,0,1,.44-.26l.45-.22.16-.08-.05,0a7.28,7.28,0,0,1,.77-.31l.79-.31c.26-.11.53-.21.79-.3a7.76,7.76,0,0,1,.79-.22l1-.27a8.84,8.84,0,0,1,1-.23c.28,0,.55,0,.83-.05l.79,0a5.77,5.77,0,0,1,.83,0c.28,0,.56.07.83.11l.81.11a4,4,0,0,1,.57.15l.58.2a9.41,9.41,0,0,1,1.1.45,7.6,7.6,0,0,1,.72.43l.74.48a8.17,8.17,0,0,1,.71.49c.23.17.47.35.7.54l.3.27.18.19a2.14,2.14,0,0,1,.13.19.83.83,0,0,1,.09.16h0a2.67,2.67,0,0,1-.22.41l0,.06a.86.86,0,0,0-.07.1.56.56,0,0,0-.12.23l-.18.19-.32.33c-.22.21-.43.43-.64.66l-.61.69c-.2.23-.4.47-.59.71s-.4.49-.59.74-.41.49-.61.73-.42.52-.64.77-.42.45-.62.68l-.27.28-.3.33c-.18.22-.37.43-.57.64s-.19.21-.28.31l-.28.3c-.19.19-.37.38-.57.56a4.51,4.51,0,0,1-1,.65L31.6,26a1.66,1.66,0,0,1-.42.12,1.48,1.48,0,0,1-.42,0,3.17,3.17,0,0,1-.44-.12,2.92,2.92,0,0,1-.49-.19,3.34,3.34,0,0,1-.4-.25h0a3.93,3.93,0,0,0,.38.31,3,3,0,0,0,.39.22,2.83,2.83,0,0,0,.78.29h.42a3,3,0,0,0,.43-.09,3,3,0,0,0,.4-.12L32.6,26l.4-.2C33.12,25.75,33.25,25.68,33.36,25.59Z"/><path class="cls-1" d="M49.13,26.39a2.34,2.34,0,0,0,0-.26c0-.13,0-.26-.07-.39s-.06-.28-.1-.42-.07-.27-.11-.41-.19-.59-.3-.87a4.78,4.78,0,0,0-.42-.81,3.78,3.78,0,0,0-.22-.33l-.13-.15-.15-.15-.32-.29c-.09-.08-.2-.15-.29-.22l-.61-.39c-.2-.14-.41-.27-.62-.4-.49-.29-1-.52-1.51-.77l-.63-.33c-.22-.12-.43-.25-.66-.36a6,6,0,0,0-.68-.32c-.23-.08-.45-.16-.68-.22s-.43-.1-.64-.14h0l.57.25a1.16,1.16,0,0,0-.31.07,1.05,1.05,0,0,0-.34.2,2.91,2.91,0,0,0-.47.52c-.14.2-.28.42-.41.64l-.34.65c-.11.22-.24.42-.37.63h0a3.36,3.36,0,0,0,.56-.57q.27-.35.51-.72l.47-.73a2.57,2.57,0,0,1,.39-.47,1.85,1.85,0,0,1,.33-.21l.06,0a10.2,10.2,0,0,1,1.23.73l.64.45.63.4c.43.25.87.49,1.29.76.22.13.43.27.64.41l.6.4.27.21a1.92,1.92,0,0,1,.22.18,2.68,2.68,0,0,1,.28.3l.17.21c0,.05.07.1.1.16a1.71,1.71,0,0,1,.13.23,3.18,3.18,0,0,1,.16.32l.11.27.12.33c.09.28.18.56.25.84l.09.45c0,.16.07.32.09.48s0,.22,0,.33v.19l0,.47,0,.2c0,.11,0,.21-.08.31a2.77,2.77,0,0,1-.26.48c-.12.17-.24.33-.37.48l-.17.19-.2.22-.39.39-.37.33-.42.35c0-.09,0-.18.08-.28s0-.12,0-.19,0-.07,0-.1a.36.36,0,0,0,0-.1v0c0-.14,0-.28,0-.42a2.1,2.1,0,0,0-.14-.86,1.52,1.52,0,0,0-.2-.38,3,3,0,0,0-.24-.32l-.16-.15-.15-.13a1.82,1.82,0,0,0-.36-.2,1.37,1.37,0,0,0-.4-.05,1.14,1.14,0,0,0-.4.08l-.35.14-.4.2-.32.2a4.15,4.15,0,0,0-.34.24c-.23.17-.47.35-.69.54s-.46.39-.68.61-.39.4-.58.6l-.61.59-.58.62-.55.6-.51.58c-.19.23-.38.45-.55.69h0l.07-.07h0l.08-.07h0c.35-.3.71-.59,1.07-.88s.73-.6,1.08-.91l.44-.38h0c.14-.12.27-.23.4-.36s.27-.25.4-.38.51-.49.77-.73l.4-.33c.16-.13.31-.26.47-.37l.5-.32a4.74,4.74,0,0,1,.5-.26h0l.17-.07.14,0a.71.71,0,0,1,.29,0,.81.81,0,0,1,.22.07,2.63,2.63,0,0,1,.4.28,3.39,3.39,0,0,1,.39.46.91.91,0,0,1,.07.14.59.59,0,0,1,.06.14,1.66,1.66,0,0,1,.06.21,2.51,2.51,0,0,1,0,.27c0,.14,0,.27,0,.41v.06c0,.12,0,.24,0,.36l-.06.32-.14.11a5.75,5.75,0,0,1-.64.46c-.42.28-.85.55-1.28.81l-.43.25-.49.28-.49.29-.26.14c-.08.05-.16.08-.24.12l-.3.13-.41.16-.71.23-.69.24L39.5,34a5,5,0,0,0-.51.16h0l.1,0h0l.13,0h0l.4-.06-.52.21c-.24.09-.49.16-.74.23-.53.15-1.06.29-1.59.41l-.65.13-.52.06h-.09l.33-.21c.23-.13.46-.27.68-.42a7,7,0,0,0,.67-.57,5.41,5.41,0,0,0,.55-.61c.11-.16.23-.32.33-.5l.07-.12.06-.13a1.17,1.17,0,0,0,0-.2.13.13,0,0,0-.09-.14h0l0,0,0,0a0,0,0,0,0,0,0s0,.06,0,.08h0l-.09.15-.13.19a6.68,6.68,0,0,1-.83.85,6.45,6.45,0,0,1-.66.51c-.23.15-.47.28-.72.41l-.37.2a2.7,2.7,0,0,0-.31.2,1.37,1.37,0,0,0-.24.18.38.38,0,0,0-.11.23.28.28,0,0,0,.18.27.9.9,0,0,0,.28,0h.2a5.74,5.74,0,0,0,.8-.12l.8-.23.72-.25c.26-.1.52-.19.78-.3s.47-.21.7-.34.37-.21.55-.32.59-.11.89-.18l.71-.16.36-.09.4-.12a4.53,4.53,0,0,0,.69-.28c.23-.11.45-.23.68-.36l.67-.37.63-.37.66-.41.32-.21.31-.22c.21-.14.4-.29.6-.45s.42-.33.63-.51.4-.37.6-.57.2-.21.29-.32a3.88,3.88,0,0,0,.26-.31,2.83,2.83,0,0,0,.62-1.32c0-.17.05-.34.07-.51s0-.28,0-.42A3,3,0,0,0,49.13,26.39Z"/><path class="cls-1" d="M35.42,33l.27-.12.24-.1.51-.17.58-.15.54-.1.55,0h0a2,2,0,0,0-.35,0h-.32a3.18,3.18,0,0,0-.62.05,5.58,5.58,0,0,0-.69.13l-.31.08-.12,0-.17.06c-.09,0-.19.07-.28.12l-.32.14-.31.16-.29.17-.28.19-.17.12-.14.12a2,2,0,0,0-.26.24,2.5,2.5,0,0,0-.23.23l-.08.08.15-.24c.09-.11.17-.22.27-.33l.31-.31.37-.35.29-.26,0,0,.19-.16.16-.13a.71.71,0,0,1,.14-.1l.51-.36.29-.19.29-.17.31-.18.31-.16.27-.14.47-.21.5-.2.45-.15.61-.14a1.07,1.07,0,0,1,.31,0l.16,0a1.91,1.91,0,0,1,.42.33h0a1.91,1.91,0,0,0-.41-.44l-.19-.07a.58.58,0,0,0-.19,0h-.32a4.91,4.91,0,0,0-.67.09l-.33.07-.35.09-.31.1-.13.05-.15.05-.62.26a6,6,0,0,0-.66.35c-.19.11-.37.23-.56.36l-.25.17a1,1,0,0,1-.13.09l-.17.14s0,0,0,.05l-.06,0h0l-.07.06-.09.08h0l0,0-.18.16c-.17.15-.33.32-.5.48a4.91,4.91,0,0,0-.43.48,2.38,2.38,0,0,0-.4.67,1.09,1.09,0,0,0-.07.24.62.62,0,0,0,0,.13.41.41,0,0,0,0,.16l0,0a.18.18,0,0,0,.07.08.2.2,0,0,0,.09,0h.06a.43.43,0,0,0,.18-.06,1,1,0,0,0,.19-.16l.1-.11.25-.25.25-.24.13-.12.2-.15.4-.27L35,33.2Z"/><path class="cls-1" d="M45,26.66h0l.35-.28c.15-.13.3-.26.46-.38l.52-.4.54-.41.23-.18.14-.09.15-.08.07,0h0s0,0,0,0H47.3l-.19,0-.15.05-.19.08-.36.18-.3.19a3.68,3.68,0,0,0-.65.6,4.76,4.76,0,0,0-.51.73Z"/><path class="cls-1" d="M45.13,25.37A7.37,7.37,0,0,1,43.85,25l-.79-.31c-.27-.1-.55-.2-.81-.32L41.39,24l-.8-.37-.81-.33-.14-.08a.38.38,0,0,0-.1,0l-.08,0L39.13,23h0a1.88,1.88,0,0,0,.25.24l.16.13a.75.75,0,0,0,.15.09,12.94,12.94,0,0,0,1.55,1,8.64,8.64,0,0,0,.87.42,6,6,0,0,0,.82.27c.32.08.64.16,1,.22l.55.09a3,3,0,0,0,.43,0H45a2.37,2.37,0,0,0,.64-.14h0A4.58,4.58,0,0,1,45.13,25.37Z"/><path class="cls-1" d="M27.71,33a1.17,1.17,0,0,0-.06-.2l-.09-.28a4.35,4.35,0,0,0-.25-.59,4.27,4.27,0,0,0-.3-.51l-.16-.22a2.88,2.88,0,0,0-.41-.44,2.63,2.63,0,0,0-.38-.3l-.24-.17a6.78,6.78,0,0,0-.84-.45,3.69,3.69,0,0,0-.42-.17l-.43-.15-.81-.22-.44-.1-.46-.08h-.17l-.22,0h-.46c-.4,0-.79,0-1.19,0h0l1.18.19.43.08h0l.2,0,.17,0,.38.13.76.28.45.18.41.17c.13,0,.25.1.37.15l.33.16.41.21-.07,0a2.71,2.71,0,0,0,.37.21,4.19,4.19,0,0,1,.65.48,4.67,4.67,0,0,1,.7.88,3.38,3.38,0,0,1,.24.41l.12.25.11.26c0,.08.06.17.1.25s.13.41.2.61h0c0-.2-.05-.4-.08-.6A3.94,3.94,0,0,0,27.71,33Z"/><path class="cls-1" d="M27.18,32.78a2.36,2.36,0,0,0-.64-.5l-.34-.17L26,32c-.39-.16-.78-.29-1.17-.42-.74-.24-1.48-.46-2.22-.64a3.58,3.58,0,0,0-.45-.09l-.5,0h0a4.39,4.39,0,0,1,.6.15c.18.06.36.14.54.22.37.15.75.29,1.12.42L25,32l.5.15.35.1.21.08.26.09a2.07,2.07,0,0,1,.34.15l.23.13.23.19a1.29,1.29,0,0,1,.15.17l.07.15a3,3,0,0,1,.06.32h0a1.43,1.43,0,0,0,0-.41A1.17,1.17,0,0,0,27.18,32.78Z"/><path class="cls-1" d="M24,34.54l-.33-.37L23,33.5l-.3-.31c-.1-.11-.19-.23-.28-.35s-.2-.27-.29-.41l-.24-.37-.15-.24c-.18-.3-.36-.59-.55-.87a5.88,5.88,0,0,0-.36-.51c-.12-.14-.26-.27-.4-.41s-.51-.44-.76-.66l-.35-.29L19,28.79l-.33-.27-.37-.27-.14-.09L17.88,28l-.42-.21a6.9,6.9,0,0,0-.75-.3l-.34-.08a3.69,3.69,0,0,0-.47,0h0a3.37,3.37,0,0,1,.34.09,1.3,1.3,0,0,1,.25.1l.42.25.41.26.27.19.2.17c.13.1.25.22.38.33s.3.31.46.46.31.3.46.45l.57.53c.15.13.3.26.44.4l.17.16a3.07,3.07,0,0,1,.29.34l.29.39.57.79c.2.25.39.5.6.74a6,6,0,0,0,.68.65c.24.2.49.39.74.57l.13.1c-.24-.07-.48-.14-.71-.23s-.28-.12-.42-.18L22,33.8l-.4-.19-.45-.22L20.39,33c-.27-.13-.54-.27-.81-.38s-.59-.24-.88-.35L17,31.7l-.35-.13-.31-.13-.31-.2L15.78,31l-.27-.21a3.15,3.15,0,0,0-.29-.22l-.28-.19-.36-.19-.64-.31-.38-.22a.52.52,0,0,0-.18-.18l-.1-.07-.07-.09a.31.31,0,0,1-.05-.1.13.13,0,0,1,0-.06.11.11,0,0,0,0-.05l0-.07a.54.54,0,0,1,.07-.13c.07-.1.15-.19.23-.29s.21-.21.31-.31l.49-.39a2.47,2.47,0,0,1,.53-.29,6.13,6.13,0,0,1,.75-.29c.13-.05.27-.08.41-.12l.41-.08c.12,0,.24,0,.37,0h0l-.47-.1-.43,0A3.63,3.63,0,0,0,15,27a3.73,3.73,0,0,0-.46.09,2.07,2.07,0,0,0-.4.13,4.16,4.16,0,0,0-.85.47,1.33,1.33,0,0,0-.19.14l-.26.23-.17.19a1.33,1.33,0,0,0-.31.64,1.23,1.23,0,0,0,0,.2,1.85,1.85,0,0,0,0,.23c0,.11,0,.2.08.31l.09.15a1.34,1.34,0,0,0,.16.23,1.55,1.55,0,0,0,.28.24.93.93,0,0,0,.19.11.3.3,0,0,0,.13,0,5.36,5.36,0,0,0,.62.25,7.22,7.22,0,0,1,.72.29,5.62,5.62,0,0,1,.69.43,4.43,4.43,0,0,0,.79.51,2.13,2.13,0,0,0,.41.18l.45.13.87.29c.56.18,1.11.38,1.67.6l.82.35.81.32c.21.08.42.17.64.24s.43.15.65.21l.33.1.35.08.56.06.23.17c.13.1.26.22.39.34h0l-.18-.24Z"/><path class="cls-1" d="M13.18,26.86a.2.2,0,0,1,.08,0q.27-.12.54-.21a1.47,1.47,0,0,1,.28-.08l.31-.1a1.81,1.81,0,0,0,.52-.26,2,2,0,0,0,.21-.2l.12-.18,0-.05.14-.14a.85.85,0,0,0,.2-.25.2.2,0,0,0,0-.17.24.24,0,0,0-.06-.08.74.74,0,0,0-.13-.12,4.68,4.68,0,0,0-.44-.27l-.41-.21a3.8,3.8,0,0,1-.57-.35c-.18-.14-.35-.29-.52-.45l-.3-.31c-.1-.11-.19-.24-.29-.35a1.37,1.37,0,0,0-.51-.45.76.76,0,0,0-.25-.06,1,1,0,0,0-.24,0,.65.65,0,0,0-.23.09,1,1,0,0,0-.24.21,2,2,0,0,0-.19.28l-.11.2c-.07.15-.14.3-.2.45a5.27,5.27,0,0,0-.19.51c-.05.15-.1.31-.14.47s-.07.4-.09.6,0,.34,0,.51a2.57,2.57,0,0,0,.06.55c0,.1.07.2.1.29l.12.22a1.24,1.24,0,0,0,.17.23,1.2,1.2,0,0,0,.21.17.81.81,0,0,0,.45.13h.07a1.43,1.43,0,0,0,.49-.13c.28-.11.56-.24.84-.37Zm2.32-1.57h0Zm-3.76,1.38h-.17l-.09,0-.08-.06-.09-.11a.75.75,0,0,0-.07-.12s0-.08,0-.12a1.31,1.31,0,0,1-.06-.27,2.16,2.16,0,0,1,0-.36,2.53,2.53,0,0,1,0-.38,3.69,3.69,0,0,1,.08-.46c.05-.17.1-.34.16-.51s.1-.27.16-.39a4.51,4.51,0,0,1,.22-.44l.11-.13.07,0,0,0h.11l0,0,.14.1.27.31A4.08,4.08,0,0,0,13,24a4.47,4.47,0,0,0,.72.51,2.19,2.19,0,0,0,.4.21l.41.14a5.39,5.39,0,0,1,.86.28l.13.09s0,0,0,0h0s0,0,0,0,0,0,0,0a1.82,1.82,0,0,1-.15.23h0a.13.13,0,0,1,0,.06.22.22,0,0,0,0-.08h0a.64.64,0,0,0,0,.07l0,.06-.12.12a1.07,1.07,0,0,1-.28.19l-.21.07-.22.05c-.22,0-.45,0-.67.06a3.27,3.27,0,0,0-.69.15l-.68.2C12.17,26.57,12,26.63,11.74,26.67Z"/><path class="cls-1" d="M21.12,22.52a3.9,3.9,0,0,1-.49.28l-.09,0-.27.08L20,23l-.86.1-.39.09-.49.14-.82.28-.83.28-.4.13h0a11.79,11.79,0,0,0,1.18-.12l1.21-.19a5.36,5.36,0,0,1,.69-.06,2,2,0,0,1,.35,0l.38,0a1.71,1.71,0,0,0,.32,0,2.25,2.25,0,0,0,.36-.06l.18-.06a3.83,3.83,0,0,0,.63-.34h.05a.58.58,0,0,0,.26-.21l.08-.12v0l.06-.16a1,1,0,0,0,0-.23v-.06a1.1,1.1,0,0,0,0-.18,1.53,1.53,0,0,0-.22-.42l-.13-.17c-.17-.21-.35-.41-.52-.63s-.34-.46-.51-.69-.31-.43-.46-.65a3,3,0,0,1-.26-.5,1.69,1.69,0,0,0-.08-.24.43.43,0,0,0-.09-.13.31.31,0,0,0-.11-.09.48.48,0,0,0-.31-.07,2.11,2.11,0,0,0-.48.12c-.28.09-.57.16-.85.23l-.81.2-.89.22-.41.09a3.06,3.06,0,0,0-.43.13,7.26,7.26,0,0,0-.86.38c-.26.14-.53.29-.79.46a2.71,2.71,0,0,0-.35.24l-.21.2a1.5,1.5,0,0,0-.19.25,2,2,0,0,0-.27.52.85.85,0,0,0,.08.71,1.38,1.38,0,0,0,.17.25.86.86,0,0,0,.13.14,1.75,1.75,0,0,0,.29.26,2.67,2.67,0,0,0,.45.22,8.46,8.46,0,0,0,.82.24l.39.13.41.13a1.81,1.81,0,0,0,.52.06,1.74,1.74,0,0,0,.53-.14h0a3.24,3.24,0,0,1-.44,0,1.4,1.4,0,0,1-.34-.13l-.5-.32-.5-.3a6.17,6.17,0,0,1-1-.61,1.76,1.76,0,0,1-.24-.29.43.43,0,0,1,0-.07l.14-.23a2.73,2.73,0,0,1,.23-.25,8.88,8.88,0,0,1,1.51-1l.37-.16.4-.14.83-.24.83-.24.84-.25.33-.12.29-.08v.05a2,2,0,0,0,0,.34,1.6,1.6,0,0,0,0,.21c0,.1.08.21.13.31a3,3,0,0,0,.29.49A3.07,3.07,0,0,0,20,21c.19.25.37.51.57.74l.32.36q.16.16.3.33h0a.35.35,0,0,1-.05.08Zm-7.65-.59h0v0Zm0,0h0Zm0,.05v0h0S13.49,21.93,13.49,21.94Zm5.81-2.72h0Z"/><path class="cls-1" d="M30.05,23.94l.36,0,.52.08.26.05.35.07.5.11.64.13h0c-.28-.16-.57-.31-.86-.44l-.44-.18-.45-.14a5.33,5.33,0,0,0-1.74-.14,1.76,1.76,0,0,0-.31,0,1.37,1.37,0,0,0-.29.07l-.24.1-.21.14-.31.22h0a4.79,4.79,0,0,1,.64-.21,3.29,3.29,0,0,1,.77,0l.46,0Z"/><path class="cls-1" d="M49.94,6.94c.09-.16.18-.32.26-.5h0l-.12.16L50,6.72,49.79,7l-.38.51L49.05,8l-.2.27-.18.22c-.12.16-.24.33-.37.49s-.24.34-.37.49a6.2,6.2,0,0,1-.42.46c-.14.14-.29.29-.43.45l-.2.25-.18.28a1.57,1.57,0,0,1-.2.3.86.86,0,0,1-.14.18l-.12.13-.14.13-.19.15-.34.24c-.24.15-.48.31-.72.44l-.17.08-.23.09-.43.1-.28,0-.27,0-.57.07c-.18,0-.37,0-.55,0s-.39,0-.59,0c-.38,0-.76,0-1.14.08H39.48l-.8-.06-.46-.07-.25,0-.25,0h0l.3,0,.26,0,.54.11a10.93,10.93,0,0,0,1.15.13,3.57,3.57,0,0,0,.56,0h.58l.57,0h.87a7.87,7.87,0,0,0,.84,0c.19,0,.37,0,.56-.06l.32,0,.28-.06.26-.09.31-.15a4.9,4.9,0,0,0,.48-.31,5.6,5.6,0,0,0,1-.77,3.64,3.64,0,0,0,.36-.49,4.46,4.46,0,0,1,.35-.5l.22-.25.22-.22c.13-.15.27-.29.41-.44a8.19,8.19,0,0,0,.47-.68l.23-.35.23-.37h0a.75.75,0,0,1,.07-.12l0,0c.19-.31.37-.63.54-.94C49.77,7.27,49.85,7.11,49.94,6.94Z"/><path class="cls-1" d="M42.61,11.32l-.65,0-.65,0c-.42,0-.85,0-1.27,0l-1.28-.07c-.2,0-.4,0-.61,0l-.29,0a1.38,1.38,0,0,0-.29.08l-.13,0-.08.06a.46.46,0,0,0-.07.07.57.57,0,0,0-.13.21.88.88,0,0,0,0,.16.74.74,0,0,0,0,.21.29.29,0,0,0,0,.09.53.53,0,0,0,.08.15,1.8,1.8,0,0,0,.27.28l.25.2h0a4.15,4.15,0,0,1-.44-.49l-.07-.12,0-.14V12a1.22,1.22,0,0,1,0-.17.14.14,0,0,1,0-.06l.06-.08.1-.08a.66.66,0,0,1,.2-.06,2.57,2.57,0,0,1,.62,0c.2,0,.39,0,.59.09l.66.1.69.08.63,0q.63,0,1.26,0c.44,0,.88-.07,1.32-.13l.67-.12.61-.12.33-.09.3-.12a3.54,3.54,0,0,0,.6-.38l.45-.34.46-.42.38-.35.43-.43A4.35,4.35,0,0,0,48,9l.36-.37.32-.3L49,8a2.09,2.09,0,0,0,.14-.17l.1-.15.06-.13c0-.1.06-.2.08-.3A1.33,1.33,0,0,1,49.46,7c0-.14.12-.27.18-.41a2.85,2.85,0,0,0,.2-.51c.1-.32.18-.64.28-1s.3-.92.44-1.38c0,.32-.09.63-.13,1s-.08.77-.1,1.16,0,.79,0,1.18h0c.05-.27.08-.55.13-.83s.07-.45.11-.68l.15-.76c.06-.26.11-.51.17-.77l.21-1.09c.07-.34.14-.67.18-1a.32.32,0,0,0,0-.19V1.61a.78.78,0,0,0,0-.16l0-.1a.18.18,0,0,0,0-.07l0-.05a.18.18,0,0,0-.22,0,.25.25,0,0,0-.1.16.55.55,0,0,0,0,.17h0l-.06.23c0,.14-.09.28-.13.42-.12.38-.25.75-.37,1.13,0,0,0,0,0-.06-.14.43-.28.86-.44,1.28,0,.1-.08.21-.11.31s-.09.25-.13.38-.11.38-.17.56a3.62,3.62,0,0,1-.13.35c-.06.12-.12.23-.17.35a4.13,4.13,0,0,0-.14.42l0,.18a.65.65,0,0,1,0,.13.25.25,0,0,1,0,.09,2.11,2.11,0,0,1-.19.23l-.21.22L48,8.2l-.28.28c-.08.08-.15.17-.23.26L47.27,9,47,9.21l-.48.48-.22.23c-.18.16-.35.31-.53.45l-.29.22a1.75,1.75,0,0,1-.29.18l-.31.14-.36.09a6.14,6.14,0,0,1-.72.15h.06Zm3.72-1.39h0l0,0A.08.08,0,0,1,46.33,9.93Z"/><path class="cls-1" d="M7.79,1.35c0,.13,0,.27.07.4,0,.3.08.6.13.9a9,9,0,0,0,.19.9c0,.07,0,.14.05.2L8.32,4a2.5,2.5,0,0,0,.09.25,2.44,2.44,0,0,0,.1.24l.09.22s.06.11.08.17.2.38.31.57a3.18,3.18,0,0,0,.17.27.93.93,0,0,1,0,.13c0,.15.09.3.13.45s.08.29.13.44.08.27.13.4l.18.47a2.12,2.12,0,0,0,.11.21l0,0h0l-.12-.18h0l.09.21.09.2.2.37a7.31,7.31,0,0,0,.46.76c.17.25.35.48.54.72s.37.45.55.68.37.46.55.7l.26.35.24.31c.18.24.37.46.56.68a3.28,3.28,0,0,0,.34.31,3.87,3.87,0,0,0,.34.21l.13.06.07,0h0a2.9,2.9,0,0,0,.41.16l.38.1.39.06c.28,0,.55,0,.83.07l.76,0,.79,0,.83,0h.83l.74,0c.47,0,.94,0,1.42,0h0l-.87-.14c-.28-.05-.57-.08-.86-.11l-.74-.06-.8-.08-.65-.06-.68-.08c-.41,0-.83-.06-1.24-.11a5.64,5.64,0,0,1-.67-.13,3.46,3.46,0,0,1-.66-.23l0,0h0l-.19-.1a1.73,1.73,0,0,1-.28-.19,4.33,4.33,0,0,1-.55-.58l-.56-.67c-.18-.22-.35-.43-.54-.63s-.38-.42-.58-.62l-.44-.45c-.14-.14-.27-.28-.4-.43s-.24-.28-.36-.43a.52.52,0,0,1,.1.11l.3.29.59.59a5.2,5.2,0,0,0,.63.53l.69.48.68.48c.22.15.45.29.68.43a6.65,6.65,0,0,0,.74.41l.36.18.38.14.13,0,.2,0a1,1,0,0,0,.24,0h.24l-.31,0a1.9,1.9,0,0,1-.39-.11l.71.07.78,0,1.57.07h1.62l.79,0,.74,0,.63,0,.12,0,0,0v0h0v0a.52.52,0,0,1,0,.11l0,.09a.38.38,0,0,0,0,.1l-.09.15a2.73,2.73,0,0,1-.36.45c-.26.24-.53.44-.8.65h0c.24-.14.49-.27.72-.43s.2-.16.3-.24a1.93,1.93,0,0,0,.27-.3.91.91,0,0,0,.11-.16l0,0,0,0,.06-.13a.7.7,0,0,0,.05-.25.54.54,0,0,0-.05-.22.38.38,0,0,0-.18-.15.49.49,0,0,0-.17-.06l-.38-.08-.36,0A7.84,7.84,0,0,0,21,11.8c-.27,0-.55,0-.83,0h-.75l-.78,0-.81.05-.7.08L16.3,12c-.23,0-.47.07-.69.12l0,0L15.21,12,15,11.85l-.18-.11c-.24-.15-.47-.31-.7-.48l-.65-.5-.65-.53-.73-.58a9.39,9.39,0,0,1-.84-.83l-.44-.45a5.37,5.37,0,0,1-.37-.44,3.42,3.42,0,0,1-.34-.66,5.84,5.84,0,0,1-.2-.59c.15.17.3.34.46.5q.43.5.9,1h0c-.3-.46-.59-.94-.88-1.41S9.91,6,9.69,5.58a1.4,1.4,0,0,1-.09-.17l-.21-.69c-.09-.29-.18-.57-.26-.86S8.87,3,8.77,2.54l-.15-.66c0-.07,0-.14,0-.22l0-.22a1.08,1.08,0,0,0,0-.19.31.31,0,0,0,0-.1h0s0-.06,0-.09l0-.17,0-.07A.52.52,0,0,0,8.37.66h0A.47.47,0,0,0,8.24.51a.32.32,0,0,0-.36,0,.43.43,0,0,0-.17.36,1,1,0,0,0,0,.25A1.55,1.55,0,0,1,7.79,1.35ZM22.67,12.42h0Zm0,0Zm0,0h0l0,0Z"/><path class="cls-1" d="M0,21.4a.22.22,0,0,0,.13.16H.21l.09,0h0l.13,0,.1,0a.33.33,0,0,0,.11-.09h0L1,21.29l.31-.12.58-.25.58-.28L3,20.35l.51-.25.62-.3c.37-.19.75-.38,1.13-.55L5.93,19l.52-.22.6-.22.66-.22L8.85,18l.65-.17.57-.14.48-.1,1.22-.19L13,17.19l1.25-.11c.4,0,.79,0,1.18-.1l.68-.09c.21,0,.43-.06.64-.1a7.21,7.21,0,0,0,1.17-.37l.26-.13a1.51,1.51,0,0,0,.28-.15,1.64,1.64,0,0,0,.26-.2,1,1,0,0,0,.19-.22,1.48,1.48,0,0,0,.18-.38h.1v0h0s0,0,0,0H19a1.1,1.1,0,0,1-.26-.06l-.28-.1a2.94,2.94,0,0,0-.58-.1,3.74,3.74,0,0,0-.58,0l-.59,0-.57.06-.26,0-.26,0a3.64,3.64,0,0,1-.57,0l-.58,0h-.57l-.61,0-.6.07-.31.06-.32.06c-.41.1-.83.22-1.25.31l-.55.12-.59.14L9,16.26l-.61.2-.54.2-.6.23L6,17.41l-.28.14c-.08,0-.17.07-.25.12s-.4.2-.59.31l-.61.34-.58.33c-.36.21-.72.43-1.07.66s-.4.25-.6.39l-.5.33-1.08.8L.32,21,.26,21l-.11.09-.1.11a.47.47,0,0,0,0,.1A.37.37,0,0,0,0,21.4Zm1.41-.75L2,20.24l.54-.37.27-.17L3,19.57l.58-.35c.37-.22.74-.43,1.12-.63l.43-.24.5-.25.6-.27c.4-.17.79-.35,1.19-.5s.81-.31,1.22-.45q.29-.11.57-.18l.57-.16,1.25-.3.6-.16.58-.16.46-.1a11.33,11.33,0,0,1,1.17-.15l.57,0,.57-.05.46-.05.45-.09.4-.07h0l.48-.08.52-.06a3.8,3.8,0,0,1,1,0l.2,0,.23.06a1.69,1.69,0,0,0,.32,0l-.09.17a2.11,2.11,0,0,1-.19.23,1.6,1.6,0,0,1-.31.22,6.2,6.2,0,0,1-1.36.4l-.31,0H16.7l-.21,0-.59,0c-.43,0-.85.06-1.28.09s-.78.05-1.17.09l-.68.07-.55.09-1.29.2-.64.13-.62.14c-.38.09-.77.2-1.15.32l-.64.2-.63.2c-.39.13-.78.29-1.16.46S5.33,18.79,5,19l-.65.32-.49.25-1.23.61c-.33.17-.65.33-1,.48l-.42.18Z"/><path class="cls-1" d="M11.39,20l.4-.19.42-.19.91-.38.83-.34.27-.11h0l.07,0,.14-.06.18-.07s0,0,0,0h0l.08-.07a.27.27,0,0,0,.07-.08.25.25,0,0,0,0-.07.54.54,0,0,0,0-.11.14.14,0,0,0,0-.09.11.11,0,0,0,0-.08l-.06,0H14.7l-.1,0-.18,0-.19,0-.21.05-.21,0-.21.06-.39.13-.2.06-.2.06c-.14,0-.27.07-.4.12l-.41.12-.41.11-.42.11-.41.13-.41.17-.81.37-.39.18L8.74,20l-.8.36-.89.45-.16.09L6.65,21l-.18.12a.91.91,0,0,0-.16.11l-.8.58C5,22.22,4.53,22.6,4,23l-.74.58-.76.59-.33.28-.34.3L1.55,25l-.16.18a1.31,1.31,0,0,0-.11.12l-.09.11a.2.2,0,0,0,0,.15.16.16,0,0,0,0,.12.13.13,0,0,0,.1,0h0a.43.43,0,0,0,.16-.05l.12-.06a1.37,1.37,0,0,1,.2-.13c.12-.08.24-.16.37-.23.28-.17.56-.32.84-.48s.5-.28.75-.42l.8-.45.89-.5L6.19,23,7,22.52c.26-.16.52-.32.79-.47l.78-.47.51-.3.37-.21,1.19-.64Zm-1.88.62-.4.22L8.94,21l-.18.11-.86.5-1.63,1-1.56.9-.82.47-.38.21-.39.22c-.27.15-.54.3-.81.47l-.19.12a0,0,0,0,1,0,0l.37-.32.37-.29L3.25,24l.38-.28.38-.3.72-.54.74-.54.76-.53.26-.19.19-.12.2-.13.25-.14.77-.38.83-.37.42-.17.4-.18L10,20l.41-.17.41-.17.42-.15.4-.14.4-.15.4-.17.39-.17c.26-.1.52-.22.77-.34a3.79,3.79,0,0,1,.42-.18c.13,0,.26-.1.4-.13h.36l.07,0h0v0a.64.64,0,0,1,0,.09l-.06.12a1.18,1.18,0,0,1-.13.18l-.17.06-.23.06-.46.16-.87.29-.37.12c-.13.05-.27.09-.4.15l-.47.17-.22.09-.18.07c-.27.12-.54.23-.8.36Z"/><path class="cls-1" d="M56.29,27.45a.22.22,0,0,0-.09-.1A3.24,3.24,0,0,0,56,27c-.07-.12-.15-.24-.23-.35a3.51,3.51,0,0,0-.27-.4c0-.06-.07-.11-.1-.16-.16-.26-.33-.51-.5-.75l-.51-.72-.3-.41-.51-.72c-.18-.27-.37-.52-.56-.77A13.54,13.54,0,0,0,52,21.45l-.31-.32-.3-.29-.15-.14-.14-.13-.34-.28c-.24-.2-.49-.39-.74-.57l-.7-.46c-.45-.29-.91-.58-1.37-.85L47.21,18a5.84,5.84,0,0,0-.76-.36l-.38-.14-.33-.12L45,17.12a6,6,0,0,0-.73-.17l-.37-.05a.7.7,0,0,0-.45,0,.38.38,0,0,0-.14.14.52.52,0,0,0-.09.2h0l0-.09.06-.08.08-.06.08,0h.11a1.87,1.87,0,0,1,.42.13l.41.16.34.16.32.18.69.38c.24.13.48.24.71.37l.66.41c.47.3.94.57,1.41.86l.69.44c.23.14.46.3.68.46s.37.26.54.4.37.31.55.48.41.38.6.58.41.42.6.65l.29.36-.27-.25-.61-.56L51.35,22l-.36-.3-.36-.3-.27-.22-.65-.49-.77-.57-.31-.2-.48-.32-.67-.4-.35-.2-.26-.13-.54-.27-.25-.12-.79-.34c-.21-.1-.41-.17-.63-.25l-.25-.09L44,17.65l-.27-.07-.49-.11h0l.81.39.35.18.44.24c.24.12.47.26.7.39s.42.22.62.34l.52.29.28.15.82.47c.23.12.45.27.67.4l.34.21.29.2.57.39.2.15.38.27.4.31.54.44.69.6.23.21.41.38.61.59.25.24.3.3.41.45h0c.13.16.26.33.38.5l.35.48.45.68c.13.19.25.39.37.59l.21.38a.5.5,0,0,0,0,.13A1.28,1.28,0,0,0,56,28h0a.28.28,0,0,0,.17.07h0a.21.21,0,0,0,.12,0,.33.33,0,0,0,.11-.19.48.48,0,0,0,0-.29A.39.39,0,0,0,56.29,27.45Z"/><path class="cls-1" d="M49.93,16l-.36-.19-.36-.18c-.32-.14-.65-.26-1-.39l-.67-.29-.43-.17a2.43,2.43,0,0,0-.38-.13,10,10,0,0,0-1.52-.31c-.25,0-.5-.06-.75-.09l-.41,0-.38,0h-.08c-.23,0-.47-.07-.71-.07a1.55,1.55,0,0,0-.31,0l-.3.08-.26,0a.85.85,0,0,0-.31.09.22.22,0,0,0-.1.09.25.25,0,0,0,0,.19l0,.07h-.05l.07,0v0l.1.12c.1.09.21.16.31.24h0l-.2-.24,0-.07c.48.16,1,.28,1.44.4l.71.19.86.26.75.23.82.26.37.13.35.12.77.28,1.32.53.4.18.3.14.48.23.36.2.68.4.81.48,1.38.85,1.46.91c.56.35,1.11.73,1.65,1.13a.32.32,0,0,0,.08.12.53.53,0,0,0,.15.11l.12.08a.52.52,0,0,0,.21.07h0a.28.28,0,0,0,.12,0,.27.27,0,0,0,.09-.12.37.37,0,0,0,0-.37s0,0,0,0l-.31-.3-.31-.3-.62-.59-.65-.62-.34-.31-.33-.28a14.24,14.24,0,0,0-1.34-1c-.25-.17-.51-.34-.77-.49s-.5-.29-.75-.43l-.7-.37c-.24-.14-.49-.27-.73-.42Zm1.94,1.65.7.38.73.46c.22.14.43.29.64.44a3.3,3.3,0,0,1,.3.22l.33.26.36.3.32.29,0,0-1-.59-1.48-.86c-.49-.28-1-.58-1.48-.85l-.72-.38-.47-.23L49.76,17l-.4-.18-.44-.16c-.26-.11-.53-.22-.81-.32s-.52-.2-.79-.3-.51-.18-.77-.27c-.51-.18-1-.33-1.56-.47l-.73-.17L43.88,15l-.44-.08-.82-.1-.79-.11-.06-.1v-.08l.06,0h.46l.49,0a1.65,1.65,0,0,1,.32.07l.39.11a2.33,2.33,0,0,0,.38.08l.37.08L45,15l.74.14c.31.06.61.12.92.2a3.38,3.38,0,0,1,.42.13l.46.18-.07,0,.81.32c.26.09.52.18.78.29l.33.14.35.18.72.38.74.4Z"/><path class="cls-1" d="M32.93,9.21c-.29,0-.58,0-.88,0s-.64,0-1,0l-.89,0c-.3,0-.6,0-.9,0l-.46,0-.42,0c-.28,0-.57.08-.85.14s-.58.12-.87.2a7.39,7.39,0,0,0-.87.29c-.3.13-.59.28-.88.43l-.45.26-.49.25h0c.17,0,.33-.09.49-.15l.44-.15c.27-.09.54-.16.81-.23a8.22,8.22,0,0,1,.84-.15c.58-.08,1.16-.12,1.74-.17l1-.09c.32,0,.65,0,1,0h.84l.87,0,.88.07.94.1.82.11.91.1a8.43,8.43,0,0,0,.87,0h.28l.7,0a3.27,3.27,0,0,0,.44,0,2.1,2.1,0,0,0,.42-.09,4.34,4.34,0,0,0,.47-.16c.14-.06.28-.11.41-.18l.48-.24a4.53,4.53,0,0,0,1-.83,5.22,5.22,0,0,0,.77-1.11c.13-.25.25-.52.36-.78s.12-.31.18-.47L42,6.25,42.13,6c0-.11.06-.21.09-.31s.1-.36.16-.54.14-.52.22-.78c.15-.53.29-1.06.44-1.59h0l-.75,1.81c-.11.28-.23.56-.34.83s-.1.28-.16.41-.13.28-.19.41A10,10,0,0,1,40.5,8a3.9,3.9,0,0,1-.74.67,3.81,3.81,0,0,1-.52.29l-.31.13-.52.19-.16,0a.79.79,0,0,1-.22.05c-.13,0-.28,0-.42.06h-.43c-.15,0-.29,0-.44,0h-.29c-.31,0-.61,0-.91,0l-.84-.07-.9-.08Z"/><path class="cls-1" d="M18.38,4.69c0,.17.07.33.1.49s.1.38.15.57.09.29.14.43.16.46.25.69.19.44.29.65a5.2,5.2,0,0,0,.37.61,4.49,4.49,0,0,0,.94,1,5,5,0,0,0,.65.4l.21.1.19.08a2.5,2.5,0,0,0,.25.09l.2.06a8.08,8.08,0,0,0,.85.2l.45.06h.48a2.58,2.58,0,0,0,.4,0l.41-.07c.29-.07.57-.16.86-.25l.51-.19.5-.19.35-.1.42-.09a5.58,5.58,0,0,1,.82-.11L29,9,29.81,9l.87-.1c.28,0,.55-.07.83-.09l.85,0,.81,0h1l.39,0h0l-.45,0-.41-.05q-.42-.06-.84-.09a12.74,12.74,0,0,0-1.75-.08c-.55,0-1.1.07-1.66.08l-.86,0-.81,0a4.4,4.4,0,0,0-.51,0,3.06,3.06,0,0,0-.51.1l-.52.14-.5.17-.46.13c-.17,0-.33.09-.5.12a4.89,4.89,0,0,1-.53.09l-.48,0A6.39,6.39,0,0,1,23,9.29c-.25,0-.5-.12-.75-.19L22,9l-.28-.12a6,6,0,0,1-.55-.31,5.1,5.1,0,0,1-.7-.62A5.41,5.41,0,0,1,19.9,7a8.73,8.73,0,0,1-.43-1c-.08-.2-.15-.41-.22-.61a3.38,3.38,0,0,0-.11-.34l0-.11c0-.08-.05-.15-.07-.22s-.09-.37-.14-.55-.06-.29-.08-.44,0-.39-.05-.59l0-.56,0-1,0-.76c0-.27,0-.54,0-.82h0c-.06.34-.09.69-.13,1s-.08.69-.12,1l-.06.62,0,.38c0,.26,0,.53,0,.79A7.58,7.58,0,0,0,18.38,4.69Z"/></g></g></svg>