<svg xmlns="http://www.w3.org/2000/svg" viewBox="0 0 53.12 50.32"><defs><style>.cls-1{fill:#fefefe;}</style></defs><title>capricorn</title><g id="Layer_2" data-name="Layer 2"><g id="OBJECTS"><path class="cls-1" d="M3.2,15.53c0,.49.1,1,.18,1.45,0,.23.09.46.15.7l.22.73.24.71c.09.24.19.48.27.73l.06.2c.06.21.12.43.17.64s.1.49.15.74a14.14,14.14,0,0,1,.13,1.46c0,.26,0,.52.05.78l0,.35c0,.12,0,.25.07.38a2.48,2.48,0,0,0,.1.39,1.66,1.66,0,0,0,.15.33,2.35,2.35,0,0,0,.23.32.8.8,0,0,0,.27.18.61.61,0,0,0,.3,0l.19-.06.18-.11c.11-.07.22-.24.33-.25h0a.27.27,0,0,0,.13,0,.42.42,0,0,0,.14-.09A.43.43,0,0,0,7.05,25a2.81,2.81,0,0,0,.36-.6,3.87,3.87,0,0,0,.23-.65c0-.12.07-.24.11-.36s.07-.22.11-.34a3.59,3.59,0,0,1,.2-.51A6.05,6.05,0,0,1,8.38,22l.33-.49c.11-.16.24-.31.37-.47l.35-.42c.19-.22.4-.43.59-.66l.54-.65.3-.35.3-.4.27-.37.11-.15.18.33a3.54,3.54,0,0,1,.16.34L12,19a7.15,7.15,0,0,1,.09.6c0,.1,0,.2,0,.3a2.17,2.17,0,0,0,0,.26,4.62,4.62,0,0,1-.06.66c0,.12,0,.23-.05.34s0,.23-.08.35l-.12.67c0,.22-.09.44-.13.66s-.11.45-.18.67-.15.5-.23.75-.12.47-.18.7-.14.56-.2.84-.11.5-.16.75a6.63,6.63,0,0,0-.11.76c0,.26-.06.52-.07.77s0,.49,0,.74c0,.53,0,1.06,0,1.59,0,.13,0,.26,0,.39s0,.25,0,.37.06.5.11.75,0,.24.08.36.07.26.11.39.16.48.25.71.17.47.27.69.11.24.17.35.11.22.17.33a6.56,6.56,0,0,0,.37.69c.13.22.26.43.4.64s.47.06.62.24.88-.81.75.23h0s-.2.42-.22.47c-.08.21-.25.58-.33.78l-.19.41a2,2,0,0,1-.1.21,1.29,1.29,0,0,0-.09.16,3.65,3.65,0,0,1-.18.34,1.09,1.09,0,0,0-.08.15l-.09.18-.19.29c-.06.1-.12.21-.19.31l-.06.1c-.16.23-.33.46-.51.67l-.28.3-.15.14-.16.15-.4.33-.29.21c-.07,0,.12.18.05.23a2.37,2.37,0,0,0-.73.74h0s-.15-.12-.08-.14c-.11.07-.35.1-.46.17s-.46.25-.66.39-.37.24-.54.37l-.29.23L7.34,44c-.16.15-.33.3-.49.47s-.33.34-.49.53a5,5,0,0,0-.39.52q-.21.3-.39.6l0,0a1,1,0,0,0-.08.11l-.09.17a3.09,3.09,0,0,0-.14.32.41.41,0,0,0-.05.09l-.06.1h0s-.24-.09-.26-.06-.21-.09-.22-.07h0s.15.16.13.17.05.1,0,.11,0,.06,0,.08,0,.07,0,.09a.69.69,0,0,0-.1.19,2.38,2.38,0,0,0-.11.38c0,.11,0,.22-.08.32l0,.13a.36.36,0,0,0,0,.11h.08s.09,0,.08,0v-.16l-.26-.15h0s.06.08.08,0,0,0,.07-.05.11-.19.17-.31v0a1.67,1.67,0,0,1,.18-.28L5,47.42l.06,0h0l.08,0h0l0,0a.1.1,0,0,0,0,0l0,0,0,0,.09-.07.06-.07a1.22,1.22,0,0,0,.15-.17l.11-.15a1,1,0,0,1,.12-.17l.07-.09a.22.22,0,0,0,0-.11c.16-.19.3-.38.45-.58s.3-.38.46-.56l.42-.46c.16-.17.33-.33.5-.49l.48-.42.57-.43A7.85,7.85,0,0,1,9.45,43l.55-.37.57-.38.25-.29s0,0,0,0l.36-.19.33-.21.27-.21c.12-.1.24-.2.35-.31s.21-.22.31-.34a2.85,2.85,0,0,0,.25-.33c.1-.13.18-.28.27-.42s.49.18.51.15.51.2.52.18h0s-.5-.2-.52-.18-.14-.25-.09-.33-.06-.16,0-.22.2,0,.23-.07.27-.13.32-.24a.84.84,0,0,0,.06-.14c0-.06-.15-.24-.12-.3s0-.33,0-.47,0-.26,0-.38,0-.25,0-.36,0-.24,0-.36,0-.22,0-.33a2.85,2.85,0,0,0,0-.29.59.59,0,0,0,0-.13c0-.25,0-.5-.07-.75s0-.43-.06-.65V35l0-.74c0-.06,0-.13,0-.2a1.5,1.5,0,0,1,0-.2l.06-.39c0-.1,0-.21,0-.31s.05-.21.07-.32l.06-.25c0-.09,0-.18.08-.27s.07-.24.11-.36.07-.21.1-.31.07-.18.1-.27l.21-.5c.08-.17.17-.33.25-.5s.11-.19.17-.29l.17-.31.15-.24.15-.24L15.8,29l.19-.25.28-.34.2-.21a4,4,0,0,1,.54-.48,5.57,5.57,0,0,1,.92-.52l.65-.28a5.15,5.15,0,0,1,.56-.16l.31-.06.3,0c.3,0,.6,0,.9,0,.13,0,.27,0,.4,0s.65.2.73,0h0c-.06.12-.47-.15-.7-.22l-.4-.11a5.06,5.06,0,0,0-1-.22h-.49a3.33,3.33,0,0,0-.54.07,3.64,3.64,0,0,0-.71.22l-.39.17-.45.23a5.36,5.36,0,0,0-.49.34,3.81,3.81,0,0,0-.59.55c-.08.09-.17.18-.24.27l-.16.2-.13.15-.13.18-.1.14-.19.3-.21.35c-.07.11-.12.23-.19.35l-.17.33a8.73,8.73,0,0,0-.56,1.42c0,.12-.08.24-.11.36s-.07.24-.1.37l-.06.24,0,.15c0,.13-.05.27-.08.4s0,.16,0,.24a.88.88,0,0,0,0,.17c0,.12,0,.24,0,.36a1.79,1.79,0,0,0,0,.23,1.21,1.21,0,0,0,0,.19,2.16,2.16,0,0,0,0,.36c0,.25,0,.5,0,.74s.16.5.17.75.16.42.17.62v0s-.13.08-.13.12A8.27,8.27,0,0,1,13,36c-.13-.18-.28-.37-.4-.56s-.25-.39-.36-.58-.22-.39-.32-.59-.11-.21-.16-.32l-.15-.34a12.23,12.23,0,0,1-.45-1.33,7.42,7.42,0,0,1-.18-.94c0-.16,0-.32-.06-.47a4.36,4.36,0,0,1,0-.51c0-.24,0-.48,0-.72s0-.53.05-.8,0-.5,0-.74.05-.52.09-.78a2.7,2.7,0,0,1,.06-.41c0-.17.06-.34.1-.5s.12-.57.19-.85.13-.49.19-.74.14-.49.21-.74.14-.49.2-.74.12-.52.17-.79.08-.49.11-.74.07-.47.09-.7a5.33,5.33,0,0,0,0-.8,2.6,2.6,0,0,0,0-.39c0-.12,0-.23-.05-.35s-.08-.32-.13-.48a2.19,2.19,0,0,0-.2-.44,4.36,4.36,0,0,0-.45-.67h0a.61.61,0,0,1,.07-.1s0-.05,0-.08,0-.05,0-.06.11-.18.17-.27l.19-.29c.06-.1.12-.2.17-.3s.13-.24.19-.36.21-.45.3-.67.2-.45.28-.68l.12-.35c0-.12.07-.23.1-.34a1.76,1.76,0,0,0,.07-.45,2.36,2.36,0,0,0,0-.46c0-.12,0-.24-.07-.36s0-.15-.07-.22-.05-.13-.08-.19-.12-.22-.17-.32-.15-.26-.23-.38a2.93,2.93,0,0,0-.34-.43l-.18-.2a1.39,1.39,0,0,1-.15-.19l-.07-.15,0-.11a2.25,2.25,0,0,1-.06-.36,1.69,1.69,0,0,1,0-.23,2.3,2.3,0,0,1,0-.26L12,9.87c0-.08.07-.16.1-.23a3.14,3.14,0,0,1,.18-.31,3,3,0,0,1,.2-.29l.22-.27c.08-.09.15-.19.23-.29a3.06,3.06,0,0,0,.21-.29,2,2,0,0,0,.18-.32.94.94,0,0,0,0-.16.85.85,0,0,0,0-.16l0-.13a1.09,1.09,0,0,0-.08-.15l-.09-.09s-.07,0-.11-.08A.9.9,0,0,0,12.79,7c-.06,0-.13-.1-.2-.1s-.06-.09-.09-.09h-.08c-.07,0-.15.08-.22.09a4,4,0,0,0-.73.26,3.36,3.36,0,0,0-.6.41,6.26,6.26,0,0,0-.51.52c-.15.19-.17.36-.31.57S10,9,9.93,9.07h0a1.74,1.74,0,0,1,.43-.54c.09-.09.12-.16.22-.25s.15-.13.24-.19l.34-.22.36-.16.34-.09.34,0a2.37,2.37,0,0,1,.46,0l.05,0s0,0,0,0a2.38,2.38,0,0,1-.48.69,6.55,6.55,0,0,0-.45.59,5,5,0,0,0-.36.69,2.87,2.87,0,0,0-.18.82,2.43,2.43,0,0,0,0,.47,2.17,2.17,0,0,0,.11.42.88.88,0,0,0,.1.22c0,.07.07.12.1.18l.07.1.33.36a4.93,4.93,0,0,1,.55.8,2.26,2.26,0,0,1,.11.22,1.27,1.27,0,0,1,.06.18,2.57,2.57,0,0,1,.07.4,1.93,1.93,0,0,1,0,.24l0,.24c0,.19-.1.38-.16.57s-.15.42-.22.62l-.24.61-.24.53c-.08.14-.15.29-.24.43l-.13.22-.11.19,0,0a.5.5,0,0,0-.08.12l-.09.14c-.07.1-.13.2-.2.29s-.26.4-.4.59-.29.36-.43.55l-.45.55-.08.1c-.16.18-.33.36-.48.55s-.29.35-.43.53-.28.36-.41.54a6.49,6.49,0,0,0-.39.62,4.23,4.23,0,0,0-.3.69c0,.11-.06.21-.09.32s-.06.24-.09.36-.1.45-.17.67-.06.21-.1.32-.08.2-.13.3a1.31,1.31,0,0,1-.17.28l-.07.07c-.1.05-.57-.14-.67-.09s-.59-.15-.62-.07h0s.35.23.34.23S5.58,25,5.57,25l-.23-.16h0a4.68,4.68,0,0,0,.44.27s.26.1.28.09.19,0,.23,0a1.21,1.21,0,0,1,.19,0,.66.66,0,0,1,.14,0,3.92,3.92,0,0,1-.36.16.79.79,0,0,1-.22.05h-.2l-.08,0-.07-.05-.08-.11a1.92,1.92,0,0,1-.14-.36,3,3,0,0,1-.07-.51,3.08,3.08,0,0,1,0-.43c0-.17,0-.34,0-.52s0-.32,0-.48,0-.36,0-.54,0-.53,0-.79-.06-.5-.11-.75-.09-.46-.14-.69-.15-.55-.24-.82l-.21-.53c-.07-.17-.13-.35-.19-.52s-.22-.63-.32-.95A5.82,5.82,0,0,1,4,16.71c0-.23-.09-.47-.12-.71s0-.49,0-.74,0-.5,0-.76v-.05c0-.3,0-.59,0-.89a4.45,4.45,0,0,1,.08-.81A6,6,0,0,1,4.1,12l.15-.38c0-.11.09-.21.14-.32s.2-.37.31-.55.23-.32.35-.47A2.81,2.81,0,0,1,5.36,10a5,5,0,0,1,.88-.4l.21,0h0c-.09.21-.54,0-.77.1A2.34,2.34,0,0,0,5,9.92a4.08,4.08,0,0,0-.33.25L4.59,10l-.12-.24a3.11,3.11,0,0,1-.16-.46,2.46,2.46,0,0,1-.09-.39c0-.14,0-.29,0-.44v-.2c0-.09,0-.17,0-.26s0-.37,0-.55,0-.31,0-.46,0-.32.07-.48.07-.29.11-.43.09-.29.14-.43.21-.54.33-.8.29-.55.44-.81a4.5,4.5,0,0,1,.27-.43l.14-.19.12-.14.34-.36.17-.16.19-.17L7,2.24,7.34,2l.44-.28L8,1.58l.29-.14.47-.2.29-.12.18-.06L9.8.89a3.5,3.5,0,0,1,.56-.13c.2,0,.41.2.61.18s.4.21.6.2h.18c.08,0,.16-.26.25-.26s.32-.11.49-.1c.32,0,.64,0,1,0,.63.1,1.25.19,1.87.34,0,0,0,0,.06,0l.89.27.92.29.9.29.9.33.44.18a4.84,4.84,0,0,0,.51.14c.32.06.65.1,1,.14l.93.11,1,.09,1,.1.45,0,.5,0h.51l.46,0c.32,0,.63-.06.94-.09s.63-.11.94-.18l.94-.22.95-.22.92-.28c.22-.07.43-.14.64-.23s.44-.18.66-.29A2.09,2.09,0,0,0,32,1.46l.3-.21c.16-.13.3-.28.46-.42h0a.24.24,0,0,0,.08-.06l.08-.07L33.1.55l.13-.07.08,0c.07,0,.14.13.22.11s.15.15.22.14h0c.05,0,.08-.16.13-.15s0-.07,0-.07,0,0,0,0h0s0,0,0,0a.26.26,0,0,1,0,.08s0,.06,0,.09a.59.59,0,0,1,0,.14A1.59,1.59,0,0,1,34,1a1.62,1.62,0,0,1-.13.19,1.07,1.07,0,0,1-.16.14,4.12,4.12,0,0,1-.62.33l-.35.16L32.35,2l-.7.3-.35.16L31,2.54a7,7,0,0,1-.88.21l-.46.07-.48.06-.93.1L27.77,3l-.47.08-.36.08-.37.07c-.24,0-.48.08-.73.12l-.75.09-.37,0-.36,0c-.35,0-.7,0-1.05.05s-.7.06-1,.07-.61,0-.92,0l-1-.1c-.64-.07-1.28-.08-1.91-.18L18,3.29l-.5-.08-.93-.14L16.05,3l-.47-.08-.44-.08-.44-.11-.23,0-.24,0h-.46a7.93,7.93,0,0,0-1,.08,3.2,3.2,0,0,0-.42.1l-.5.17c-.14.06-.29.12-.42.19s-.29.15-.43.23-.56.33-.83.51a8.17,8.17,0,0,0-.85.6l-.12.1A2,2,0,0,0,9,4.92a3.78,3.78,0,0,0-.22.33c-.09.14-.17.29-.25.43L8.41,6l0,.08-.06.18a2.17,2.17,0,0,0-.07.24c0,.1,0,.2-.06.3a4.65,4.65,0,0,0-.08,1c0,.28,0,.74,0,.74h0a5.36,5.36,0,0,0,.24-1.12c0-.15.08-.26.13-.41s.06-.17.1-.27l.06-.14.09-.2.11-.21L9,6a1.3,1.3,0,0,1,.1-.15l.16-.24.3-.4A5.32,5.32,0,0,1,10,4.85c.12-.09.24-.18.37-.26.32-.21.64-.42,1-.61l.27-.15.28-.13a4.87,4.87,0,0,1,.53-.21l.3-.1.39-.07.75-.06h.43l.23,0,.23,0,.47.08.45.06.48,0,.48,0,.95.1.94.12.46,0,.47,0,1,.05,1,.08.56,0h.56c.36,0,.72.17,1.08.15.15,0,.31.2.46.2h.18c.11,0,.21-.22.31-.22.31,0,.62-.17.93-.2s.61-.15.92-.2.6-.14.9-.21l.46-.09.45-.07.92-.11L30,3.09a5.34,5.34,0,0,0,.9-.2,3.66,3.66,0,0,0,.46-.18c.14,0,.27-.12.41-.18l.86-.37c.14-.05.26-.11.39-.17a4.13,4.13,0,0,0,.42-.22,1.18,1.18,0,0,0,.19-.11l.2-.14a1.11,1.11,0,0,0,.29-.35.8.8,0,0,0,.11-.25,1,1,0,0,0,0-.3l0-.18a.56.56,0,0,0-.07-.18.22.22,0,0,0-.09-.1L34,.08l-.14,0h-.35A1.58,1.58,0,0,0,33,.17l-.12.08-.13.09L32.6.42l0,0a.18.18,0,0,0-.05.07c-.22.17-.44.35-.66.51a6.27,6.27,0,0,1-1.26.59l-.38.12-.5.14L29.24,2l-.44.11-.93.2c-.32.08-.64.15-1,.21l-.44.06-.44,0-.87.06-.44,0-.5-.05-.93-.11c-.65-.07-1.29-.14-1.94-.23-.46-.06-.93-.13-1.39-.23L19.78,2l-.22-.08-.44-.19-.44-.16a4,4,0,0,0-.45-.15l-.91-.28L16.39.84c-.32-.1-.63-.2-1-.28s-.62-.15-.93-.21L14,.26,13.54.19,13,.11,12.54,0c-.28,0-.58,0-.86,0h-.11c-.17,0-.34.05-.51.06l-.51.07a3.55,3.55,0,0,0-.47.08A4.15,4.15,0,0,0,9.6.32L9.14.46,8.65.64,8.2.83l-.45.22a7.21,7.21,0,0,0-.88.55,9.08,9.08,0,0,0-.77.62c-.13.11-.24.24-.36.36A4.49,4.49,0,0,0,5.38,3a2.14,2.14,0,0,0-.13.19l-.14.19-.27.46a10.66,10.66,0,0,0-.47,1c-.07.14-.12.29-.18.44s-.11.31-.16.47a5.47,5.47,0,0,0-.13.55,3,3,0,0,0-.07.51,3,3,0,0,0,0,.42c0,.18,0,.35,0,.53a5,5,0,0,0,.09.94c0,.15.08.3.13.45a1.46,1.46,0,0,0,.07.19l.11.23a2.39,2.39,0,0,0,.21.34c.07.12.15.23.22.34A4.4,4.4,0,0,0,4,11a5.51,5.51,0,0,0-.36.68,3.41,3.41,0,0,0-.23.68,5.8,5.8,0,0,0-.16.81c0,.25,0,.5-.05.75s0,.55,0,.83S3.18,15.28,3.2,15.53ZM34,.43h0Zm0,0Zm-.05,0h0Zm0,0Z"/><path class="cls-1" d="M8.24,12.48s0-.06-.06-.07l-.09-.05h0s-.12,0-.16,0l-.14.06-.12.08a1.15,1.15,0,0,0-.21.23,2.9,2.9,0,0,0-.19.29c-.06.13-.12.25-.17.38s-.07.24-.1.35-.24.42-.31.66-.18.16-.22.26l0,0,.1.07a2.31,2.31,0,0,0-.29.45,3.1,3.1,0,0,0-.11.62h0s.16-.28.2-.38a1.71,1.71,0,0,1,.11-.14,1.07,1.07,0,0,1,.16-.14L7.1,15a2.74,2.74,0,0,0,.49-.35,2.77,2.77,0,0,0,.29-.54c.08-.16.07-.37.14-.54H8c0-.07.19-.08.22-.17s.08-.08.09-.14A2,2,0,0,0,8.4,13a.74.74,0,0,0,0-.3.54.54,0,0,0-.07-.13Zm-.57.9a4.19,4.19,0,0,1-.2.49c0,.08-.08.17-.13.25l-.18.25-.24.24L7,14.5c.12-.22.23-.46.34-.7,0,0,0,0,0,0a3.27,3.27,0,0,1,.32-.5l0,0A.39.39,0,0,0,7.67,13.38Z"/><path class="cls-1" d="M43.23,39.08c0-.13-.06-.25-.09-.37s-.12-.36-.17-.55-.12-.39-.17-.58a4.23,4.23,0,0,0-.19-.57l-.24-.58c-.13-.3-.25-.61-.39-.92a5.28,5.28,0,0,0-.56-1l-.36-.5a6,6,0,0,0-.4-.46,5.77,5.77,0,0,0-.44-.42l-.38-.38c-.13-.13-.25-.27-.37-.41s-.27-.3-.41-.44l-.2-.19-.22-.18a4.21,4.21,0,0,0-.45-.28c-.33-.17-.66-.3-1-.47l-.43-.23-.45-.24-.83-.4-.44-.2-.43-.2-.39-.21-.44-.25L33,28.58l-.48-.29-.73-.44c-.46-.29-.92-.58-1.37-.9-.23-.15-.45-.33-.67-.5l-.33-.28a3.19,3.19,0,0,1-.26-.26l-.19-.21-.18-.24c-.14-.18-.27-.37-.4-.56L28,24.33c-.11-.18-.22-.37-.32-.56l-.25-.46c-.18-.35-.34-.7-.49-1.06s-.29-.73-.43-1.1-.3-.77-.46-1.15-.3-.73-.45-1.08-.33-.72-.49-1.07-.33-.71-.49-1.07-.36-.74-.55-1.11l-.29-.53c-.09-.17-.2-.35-.3-.52-.22-.34-.45-.66-.69-1s-.48-.63-.74-.94l-.37-.44-.39-.46c-.13-.16-.28-.31-.42-.46s-.27-.29-.41-.43c-.29-.27-.59-.53-.9-.77s-.63-.43-1-.63a4.25,4.25,0,0,0-1.07-.42,5.55,5.55,0,0,0-1.07-.17H16l-.7,0L14.73,9l-.53.12-.54.12-.56.1a3.39,3.39,0,0,0-.52.15c-.17.07.06.31-.09.42s.25.21.24.24h0c0-.06-.07-.28.08-.33s.08-.14.22-.15a2.47,2.47,0,0,1,.38,0c.3,0,.56,0,.86-.07s.27-.05.42-.06l.43,0,.93,0a5.62,5.62,0,0,1,.71,0l.39.07.36.08a2.88,2.88,0,0,1,.56.2c.19.09.38.2.57.31s.37.23.55.36l.58.46.52.49c.16.16.31.32.46.49s.52.58.78.88.51.61.75.93.48.63.7,1c.11.16.21.33.32.51s.18.33.28.49l.06.12c.19.36.38.73.55,1.1s.33.7.49,1l.49,1.11.42,1.05c.06.16.13.31.19.47l.18.46c.12.31.23.62.35.92s.23.57.35.86l.21.44c.07.16.15.3.23.45.19.35.38.7.59,1l.36.54c.11.16.22.32.34.47l.16.21.21.25.44.41c.29.25.6.48.91.7s.37.24.55.36l.6.38,1.16.69c.66.41,1.33.78,2,1.16l.5.26a4.52,4.52,0,0,0,.5.23c.33.16.65.32,1,.51s.52.31.79.45l.47.22a2.74,2.74,0,0,1,.42.21l.32.23a3.89,3.89,0,0,1,.36.34c.23.25.45.51.68.77s.49.49.73.74.47.54.7.82l.33.44c.09.14.18.29.26.44s.23.47.33.71.25.61.36.92a9.67,9.67,0,0,1,.27,1c0,.15.1.31.14.46l.12.41c0,.12,0,.24,0,.36s0,.24,0,.37a7.11,7.11,0,0,1-.15,1.38,2.77,2.77,0,0,1-.15.49c-.08.19-.17.38-.26.58-.16.36-.31.74-.49,1.1-.1.2-.23.4-.35.59a5.08,5.08,0,0,1-.41.51L40.5,45l-.46.57a8.36,8.36,0,0,1-.67.66,6.43,6.43,0,0,1-.76.62,3.17,3.17,0,0,1-.41.21,3.66,3.66,0,0,1-.46.18c-.19.05-.38.1-.57.13l-.36,0-.33,0h-.34l-.21,0-.2,0c-.26,0-.51-.11-.77-.17l-.33-.1-.41-.16a5.94,5.94,0,0,1-.67-.33l-.33-.22c-.13-.1-.26-.2-.38-.31s-.44-.4-.65-.62a6.82,6.82,0,0,1-.6-.71,9.23,9.23,0,0,1-.54-.84,2.11,2.11,0,0,1-.16-.34c-.07-.15-.13-.3-.19-.46a9.32,9.32,0,0,1-.27-.9,4.52,4.52,0,0,1-.12-.64c0-.21,0-.43,0-.65s0-.28,0-.41l.06-.5a6,6,0,0,1,.15-.85A11.56,11.56,0,0,1,30.9,38c.07-.19.16-.38.24-.57s.15-.33.23-.5a2.82,2.82,0,0,1,.18-.29l.13-.18.19-.23c.25-.27.51-.53.79-.78s.3-.26.45-.38.3-.22.45-.32a3,3,0,0,1,.63-.3,3.59,3.59,0,0,1,.81-.1,6.77,6.77,0,0,1,.89.06,6.33,6.33,0,0,1,1,.16l.24.08.26.13.19.13c.08,0,.16.12.24.18l.22.2.19.18a3.76,3.76,0,0,1,.25.31,3.45,3.45,0,0,1,.2.32c.11.22.2.45.29.68s.15.47.21.7a5.12,5.12,0,0,1,.1.54c0,.2,0,.39,0,.59a4.71,4.71,0,0,1-.1.92,3.58,3.58,0,0,1-.11.35c0,.11-.09.21-.14.32s-.17.3-.26.45l-.16.24-.17.21a2.66,2.66,0,0,1-.43.39l-.28.14a.41.41,0,0,0-.16,0l-.06,0-.12,0a1.57,1.57,0,0,1-.3.05.91.91,0,0,1-.23,0,.31.31,0,0,1-.13-.06l-.1-.07-.09-.13a1.43,1.43,0,0,1-.08-.22s0,0,0-.08,0-.12,0-.18c0-.25,0-.59,0-.84s0-.31,0-.78h0a7.49,7.49,0,0,1-.24.88c0,.15-.07.34-.11.48A2.93,2.93,0,0,0,36,41a1.71,1.71,0,0,0,0,.32,1.32,1.32,0,0,0,.13.48,1,1,0,0,0,.11.17l.13.14a.92.92,0,0,0,.33.19,1.55,1.55,0,0,0,.36.08,1.62,1.62,0,0,0,.38,0l.23-.06.08,0a.21.21,0,0,0,.11-.08,1.93,1.93,0,0,0,.6-.35,3.84,3.84,0,0,0,.44-.46,3.88,3.88,0,0,0,.32-.47,5.77,5.77,0,0,0,.29-.55,3.78,3.78,0,0,0,.31-1.21,5.15,5.15,0,0,0,0-1.24,5,5,0,0,0-.28-1.16c0-.18-.12-.36-.19-.54a4.23,4.23,0,0,0-.27-.57,3.06,3.06,0,0,0-.35-.49,3.57,3.57,0,0,0-.44-.43,4.46,4.46,0,0,0-.43-.33l-.26-.16-.26-.12a3.21,3.21,0,0,0-.53-.15c-.18,0-.37-.06-.56-.09-.36,0-.71-.06-1.07-.07l-.57,0-.27,0a2.29,2.29,0,0,0-.56.18,5.48,5.48,0,0,0-.52.31l-.23.16-.24.18c-.19.15-.36.31-.54.47a7.53,7.53,0,0,0-.56.57l-.21.23-.21.27a2.47,2.47,0,0,0-.29.47L30.8,37c-.09.18-.17.36-.25.55s-.14.36-.22.54-.13.37-.2.55a4.71,4.71,0,0,0-.16.62c0,.21-.08.43-.11.64a5.73,5.73,0,0,0-.07.58c0,.21,0,.42,0,.63s0,.39.05.59a4.12,4.12,0,0,0,.12.59c0,.21.1.41.17.62A6.53,6.53,0,0,0,30.54,44a10.28,10.28,0,0,0,.64,1.06A9,9,0,0,0,32,46a6.87,6.87,0,0,0,.84.78,5.57,5.57,0,0,0,2.11,1c.19.06.39.1.58.14l.28,0,.27,0h.6l.3,0,.29,0a5,5,0,0,0,1.12-.33,3.29,3.29,0,0,0,.49-.26,4,4,0,0,0,.49-.35l.43-.39c.14-.13.28-.26.41-.4s.29-.31.43-.48l.38-.46c.24-.29.5-.58.73-.89l.15-.22c0-.09.11-.18.17-.27s.19-.35.28-.53c.16-.36.3-.73.47-1.09.07-.18.15-.35.22-.53a4.08,4.08,0,0,0,.16-.6c0-.2.06-.39.08-.58s0-.4,0-.6a4.33,4.33,0,0,0,0-.62A1.37,1.37,0,0,0,43.23,39.08Z"/><path class="cls-1" d="M31.64,35.74h0s0,0,0,0Z"/><path class="cls-1" d="M32.46,28.28h0Z"/><path class="cls-1" d="M35.11,21.33c0,.08,0,.15,0,.23s0,.13,0,.19c0,.25.1.5.16.75l.18.71c.06.25.11.51.18.75s.13.54.21.8.16.51.23.76.18.5.28.75.2.46.3.69l.31.66.24.53.24.54.12.25.14.24.28.45a1.3,1.3,0,0,1,.08.17,1.15,1.15,0,0,1,.06.17,3.28,3.28,0,0,0,.09.32h-.44A3.22,3.22,0,0,1,38,31.43h.13a9.3,9.3,0,0,1,.1-1.12,2.83,2.83,0,0,0,0-.5c0-.12-.08-.32-.13-.43s-.19-.5-.27-.73-.07-.25-.11-.36-.08-.27-.13-.4-.18-.47-.27-.71-.2-.47-.29-.7a6.22,6.22,0,0,1-.29-.71c-.09-.25-.17-.51-.25-.76s-.09-.29-.13-.43-.14-.49-.2-.74-.12-.5-.18-.75-.13-.49-.19-.74-.08-.49-.13-.74a7.26,7.26,0,0,1-.07-.92v-.15c0-.06,0-.11,0-.17s0-.25,0-.38.06-.43.1-.65.11-.49.17-.73.32-.42.4-.66.25-.14.29-.24.1-.27.16-.4,0-.4,0-.56l-.08,0s0,0,0,0-.09.22-.11.34,0,.16-.07.25,0,.2,0,.3v0c0,.24,0,.49-.07.73s0,.49,0,.73,0,.24,0,.36,0,.29,0,.44.06.5.1.75.09.47.13.7.09.48.13.73.07.45.11.68.07.45.12.67.14.49.21.74.16.49.26.73.18.44.29.66.24.46.37.69l.37.65.36.61c.25.44.51.89.78,1.32,0,.05.06.18.1.18h0a3,3,0,0,0-.32-.75c-.09-.21-.19-.43-.28-.65-.2-.49-.41-1-.63-1.46-.13-.27-.24-.53-.36-.8s-.21-.52-.31-.79-.14-.46-.2-.7-.07-.24-.1-.37-.05-.23-.07-.34-.08-.45-.11-.68-.09-.46-.13-.69-.08-.46-.13-.68-.11-.45-.16-.67-.08-.46-.12-.69,0-.25,0-.37,0-.22,0-.33,0-.34,0-.5,0-.39,0-.58v-.26a1.93,1.93,0,0,0,0-.24l0-.26.12.45.38,1.4.18.66.19.67.21.66.22.67c.14.44.27.88.42,1.31.07.21.13.42.2.62l.2.6c.17.47.33,1,.5,1.43v0c.07.21.14.31.21.52s.15.51.21.51h0a2.89,2.89,0,0,1-.14-.62c0-.21-.09-.36-.14-.57-.11-.47-.23-.92-.36-1.38-.05-.2-.1-.38-.16-.57s-.13-.42-.19-.64l-.42-1.31c-.14-.44-.28-.88-.41-1.33-.06-.22-.13-.44-.2-.66s-.39.18-.46,0c.05.1-.18.85-.11.88h0s.27-.57.28-.55.24-.11.3,0,.19.06.25.17c.25.43.54.79.79,1.22.1.17.22.29.32.44s.23.3.33.45.23.32.34.49.18.3.26.45.15.29.22.44.07.17.11.26.05.15.08.22.13.34.19.52a3.57,3.57,0,0,1,.16.46,4.63,4.63,0,0,1,.14,1c0,.12,0,.24,0,.36s0,.24,0,.36l0,.39c0,.13,0,.26-.05.38h0v0h0a2.06,2.06,0,0,0,.12-.35c0-.12.07-.24.11-.36s.05-.22.08-.33,0-.26.06-.39,0-.23,0-.35,0-.24,0-.37a2.56,2.56,0,0,0,0-.39,2,2,0,0,0-.07-.35c-.06-.26-.14-.52-.21-.78s-.07-.24-.11-.35-.08-.22-.13-.33a3.18,3.18,0,0,0-.16-.32l-.21-.37c-.13-.22-.26-.43-.4-.63l-.41-.6a6.65,6.65,0,0,1-.39-.63c-.25-.42-.52-.83-.77-1.24L38,19l0,0,0-.08,0-.05c-.1-.19-.2-.38-.29-.57l-.26-.62q-.13-.31-.24-.63L37,16.65a2.29,2.29,0,0,1-.08-.28,1.42,1.42,0,0,1-.05-.22c0-.1,0-.21,0-.31a.36.36,0,0,0,0-.09l.06-.17L37,15.4c0-.12.07-.26,0-.36s0,.21-.08.19,0,.25-.05.25h0s-.06-.25-.09-.24-.07-.09-.1-.06,0,0,0,0a.86.86,0,0,0-.1.16,1.6,1.6,0,0,0,0,.21,1.32,1.32,0,0,0,0,.28l-.27.63c-.1.24-.2.47-.29.71s-.09.21-.14.32l-.14.39c-.08.24-.16.49-.23.74s-.13.51-.19.76l0,.2a1.55,1.55,0,0,0,0,.21c0,.13,0,.26,0,.4a.76.76,0,0,0,0,.15,1.08,1.08,0,0,0,0,.18c0,.16,0,.31,0,.46S35.09,21.22,35.11,21.33Zm1.44-4.81v.06A.14.14,0,0,1,36.55,16.52Z"/><path class="cls-1" d="M52.93,21.79a1.13,1.13,0,0,0-.32-.05h-.16l-.11,0c-.2,0-.4.13-.61.14s-.28.12-.42.12H51c-.26,0-.52-.11-.78-.09s-.49,0-.74,0c-.46,0-.91,0-1.37.09l-.79.08c-.23,0-.46.06-.68.11l-.35.08-.35.11c-.24.08-.47.18-.7.27l-.66.29-.15.08-.14.07-.34.21-.35.23-.26.2-.6.51a5.27,5.27,0,0,0-.51.55,5.75,5.75,0,0,0-.41.56c-.1.16-.21.32-.3.5s-.18.35-.26.52a3.59,3.59,0,0,0-.3,1.16h0s.09-.29.14-.43.11-.29.17-.42l.09-.17a1.74,1.74,0,0,1,.11-.18c.08-.13.17-.25.25-.37a4.19,4.19,0,0,1,.26-.33l.26-.31.36-.37.17-.16.21-.19.46-.37.2-.16.2-.15.47-.29c.19-.1.37-.2.55-.28.38-.18.77-.33,1.16-.48l.25-.08.34-.08a2.29,2.29,0,0,1,.36-.07l.38-.07.39,0,.36,0,.65-.07c.5,0,1-.07,1.51-.09.35,0,.7,0,1.05,0h.34l-.15.07-.29,0h0q-1,.12-2,.27l-.41.07-.33.06-.16,0L47.8,23l-.41.1-.26.07-.2.06-.33.13c-.22.09-.42.2-.64.3l-.18.11-.21.12-.45.28-.13.1-.28.19a.38.38,0,0,0-.13.09l-.25.2c-.14.1-.28.22-.41.33l-.35.29-.33.28-.25.23-.11.1c-.24.23-.48.46-.71.7l-.21.21-.15.17-.15.18c0,.05-.09.1-.13.16s-.21.26-.31.4a.83.83,0,0,1-.08.12,1.51,1.51,0,0,0-.15.28c-.05.1-.08.29-.12.29h0c.08,0,.16-.3.26-.44s.25-.29.38-.43l.36-.37.33-.31.4-.35.37-.33.35-.29.72-.61.41-.33.19-.14.16-.13.44-.3.17-.1.27-.17.41-.24.21-.11.39-.19.29-.1.22-.07.26-.07.41-.11.55-.12.16,0,.33-.06,1.76-.36.42-.1c-.33.17-.66.34-1,.53s-.42.27-.63.43l-.2.07-.23.1c-.3.14-.6.28-.89.45l-.45.26-.45.28-.91.58c-.3.19-.6.38-.9.59l-.45.32c-.16.11-.31.23-.46.35l-.82.67A9.47,9.47,0,0,0,43,28c-.12.13-.25.26-.37.4s-.23.27-.34.41l-.26.33-.25.3a7.34,7.34,0,0,0-.48.75h0c.12-.15.23-.31.35-.45a2,2,0,0,1,.19-.22l.18-.18c.24-.24.47-.51.72-.75l.45-.41.45-.38.24-.19.27-.22.39-.3.2-.15a1.66,1.66,0,0,1,.21-.16c.28-.21.57-.41.86-.6l.9-.58c.29-.18.58-.36.86-.55l.92-.59.16-.11-.27.25c-.18.16-.35.34-.52.52s-.35.39-.52.6-.29.37-.43.56c-.29.38-.59.74-.89,1.1l-.38.41c-.13.14-.27.28-.41.41a5.54,5.54,0,0,1-.45.37l-.43.31-.59.37-.59.36-.61.34c-.21.12-.42.24-.62.37l-.63.39-.32.22a1.62,1.62,0,0,0-.28.25,4.1,4.1,0,0,0-.29.4,4.35,4.35,0,0,0-.29.52h0l.08-.1.24-.24a1.78,1.78,0,0,1,.27-.21l.15-.1,0,0a2.48,2.48,0,0,1,.58-.25L42,31l.32-.11.32-.14.64-.29a5.32,5.32,0,0,0,.61-.35l.6-.38.4-.27.27-.2a5,5,0,0,0,.56-.47l.52-.56q.27-.3.54-.63l.48-.6c.15-.19.28-.39.42-.58s.39-.51.59-.75l.45-.49.54-.5c.16-.15.32-.31.5-.45L50,24l.14-.1.22-.16.64-.38.64-.34.63-.32c.21-.1.42-.19.63-.31l.07,0,.08-.06a.34.34,0,0,0,.09-.14A.32.32,0,0,0,52.93,21.79Z"/><path class="cls-1" d="M41.28,30.67h0l0,0Z"/><polygon class="cls-1" points="2.99 42.57 3 42.56 3 42.56 2.99 42.57"/><polygon class="cls-1" points="3.03 42.57 3.03 42.57 3.03 42.57 3.03 42.57"/><path class="cls-1" d="M3.8,43a1.12,1.12,0,0,0,0-.13l0-.1a.35.35,0,0,0-.12-.15l-.12-.08a.37.37,0,0,0-.18,0c0-.12.09-.23.14-.36s.07-.22.1-.33a4.82,4.82,0,0,0,.1-.75c0-.24,0-.49,0-.73s0-.51,0-.77,0-.52,0-.79-.05-.5-.09-.75a6.79,6.79,0,0,0-.41-1.53l-.22-.63a5.6,5.6,0,0,1-.17-.54.55.55,0,0,0,0-.18.36.36,0,0,1,0-.09c0-.06-.24-.11-.26-.17s-.25-.22-.25-.33v-.06h.21c.16.05.42.1.58.17a5.32,5.32,0,0,1,.5.21l.49.29c.18.12.38.23.56.33l1,.53.62.37c.23.13.46.26.7.38l.31.14.35.16c.22.09.44.18.67.25a10.92,10.92,0,0,0,1.5.36l.71.14.62.14a4.27,4.27,0,0,1,.8.14h0c-.44-.23-.81-.46-1.26-.68a12.6,12.6,0,0,0-1.32-.54l-1.34-.48-.68-.29-.63-.31L6,35.48c-.19-.11-.39-.21-.59-.31l-.53-.27-.51-.28c-.23-.13-.45-.27-.68-.38A3.87,3.87,0,0,0,3,34L2.79,34l-.11,0H2.43l-.12,0a.27.27,0,0,0-.1.06.37.37,0,0,0-.11.18,1.81,1.81,0,0,0,0,.23,2.8,2.8,0,0,0,0,.41,1.92,1.92,0,0,0,.09.4l0,.09a.26.26,0,0,0,.05.12l0,0c0,.16.09.32.14.48s.13.35.19.52l.2.53c.06.17.11.34.16.52s.06.24.09.37,0,.25.06.38.08.47.11.71.07.5.1.75,0,.5.07.75,0,.49.05.73,0,.3,0,.45,0,.29-.06.44-.07.26-.1.38,0-.1,0-.1-.16,0-.24,0H3v.11s0,.06,0,.06l.1,0,.22,0,0,0,.06,0,.07.1s-.09,0-.09,0a2.66,2.66,0,0,1,0,.63v0c0,.11.1.22.09.33a2.62,2.62,0,0,1,0,.28c0,.14,0,.27-.07.4s-.09.29-.15.43l-.14.39L3,45.66H2.86l-.17,0-.38.1a3.6,3.6,0,0,1-.73.13H1.5a.58.58,0,0,0,.13-.2.39.39,0,0,0,0-.24.19.19,0,0,0,0-.08,1.11,1.11,0,0,1,0-.19A2.68,2.68,0,0,1,1.71,45l.12-.36c0-.13.08-.26.11-.39S2,44.09,2,44v0a.32.32,0,0,0,0-.17.09.09,0,0,0,0-.05c0-.24.09-.48.13-.72s.05-.49.07-.74a6.37,6.37,0,0,0,0-.76c0-.27,0-.54,0-.81s0-.48,0-.72-.05-.52-.09-.78c-.08-.51-.19-1-.32-1.5,0-.13-.07-.25-.1-.38L1.56,37c0-.14-.07-.28-.11-.41l-.12-.37c-.17-.5-.31-1-.47-1.5l-.27-.92c0-.09,0-.19-.08-.28a3.58,3.58,0,0,1-.11-.73,2.09,2.09,0,0,1,0-.56A1.31,1.31,0,0,1,.53,32l.08-.12.08-.07a.82.82,0,0,1,.19-.09,3,3,0,0,1,.66-.11l.67,0h.36l.32,0,.71.1L5,31.89c.47.08.94.16,1.41.26l1.39.3c.47.09.94.15,1.42.2l.33,0,.37,0h.77s-.38-.09-.62-.12l-.63-.12-1.29-.3c-.46-.12-.9-.25-1.36-.35s-.93-.2-1.4-.29L4,31.3l-.72-.12c-.11,0-.22-.09-.33-.1S2.69,31,2.58,31H2.43c-.2,0-.39.08-.59.09s-.23,0-.35.05l-.34.05a2.37,2.37,0,0,0-.36.09,1,1,0,0,0-.28.11.94.94,0,0,0-.35.41,2.31,2.31,0,0,0-.1.28A3.07,3.07,0,0,0,0,32.6a3.85,3.85,0,0,0,.12,1c.08.27.15.54.23.81s.15.46.21.7.16.51.23.76.07.24.11.36l.13.37a1.46,1.46,0,0,0,.05.2c.13.49.26,1,.37,1.49s.18,1,.23,1.52c0,.16,0,.33,0,.5s0,.47,0,.71,0,.5,0,.75,0,.5-.06.75.46.76.41,1,.49.5.45.61v0S2,44,2,44s-.27,0-.27,0-.15,0-.16.07c-.05.23-.17.42-.23.65a2.77,2.77,0,0,0-.12.41.78.78,0,0,0,0,.22s0,0,0,.07.36.14.36.16l.36.14h0s-.41-.05-.43,0-.24,0-.27.05-.14,0-.16.1-.07,0-.08.07l0,0a.4.4,0,0,0,0,.24.44.44,0,0,0,.14.18l.12.07a.55.55,0,0,0,.18.06,1.23,1.23,0,0,0,.33,0,3.36,3.36,0,0,0,.71-.08c.22,0,.43-.12.64-.18a.76.76,0,0,0,.2-.06.4.4,0,0,0,.18-.14,1.14,1.14,0,0,0,.1-.19,3.19,3.19,0,0,0,.14-.35c.08-.23.15-.46.22-.68A3.63,3.63,0,0,0,4,44a2.44,2.44,0,0,0-.06-.76A2.07,2.07,0,0,0,3.8,43Z"/><polygon class="cls-1" points="3 42.57 3 42.57 3 42.56 3 42.57"/><path class="cls-1" d="M14,36.57h0v0Z"/><path class="cls-1" d="M51.24,22.44h0Z"/><path class="cls-1" d="M51.21,22.44h0Z"/><path class="cls-1" d="M24.84,41.27l-.22-.09s-.15.17-.18.15-.34.07-.47,0l-.06,0-.49-.23.07,0c-.15-.08-.23-.34-.38-.41s-.4-.33-.61-.44-.4-.28-.6-.41-.41-.27-.63-.38-.49-.24-.74-.34L20.19,39l-.36-.11c-.23-.06-.47-.11-.71-.15s-.45-.06-.68-.08h-.36s0,0,0,0,.05,0,.07-.06l1.24-1c.39-.29.76-.6,1.14-.9l.52-.42.62-.53.23-.22.33-.34c.09-.09.17-.19.26-.29s.15-.19.22-.28a1.34,1.34,0,0,0,.11-.14l.15-.2c.06-.09.11-.18.16-.27s.43-.27.5-.41.63-.51.62-.75v0h-.54c-.12,0-.27.36-.39.52l-.48.6c-.14.16-.3.3-.45.45l-.27.24-.24.21-.33.28-.09.06-.22.18-.22.17-.64.51-1.18,1L18,37.9c-.63.48-1.25,1-1.89,1.41-.4.27-.81.53-1.2.82L13.76,41l-1.19.89-.6.43-.27.2-.28.21c-.39.3-.77.59-1.14.9l-.61.49c-.19.15-.39.29-.58.45s-.36.29-.53.45-.35.35-.52.54a3.11,3.11,0,0,0-.23.28,1.93,1.93,0,0,0-.22.28,5.14,5.14,0,0,0-.38.64c-.06.13-.12.27-.17.41a.65.65,0,0,0,0,.13s0,0,0,0a.46.46,0,0,0-.09.15,1.07,1.07,0,0,0-.07.19l0,.15a.89.89,0,0,0,0,.23l.06.31.06.3c0,.1,0,.2,0,.3s0,.22.08.33.07.22.11.33,0,.09,0,.14,0,.28-.07.28-.17.29-.26.29H6.76S6.67,50,6.63,50s-.2-.13-.3-.12a4.87,4.87,0,0,0-.54,0c-.34,0-.68.06-1,.08a1,1,0,0,1-.17,0l-.07,0-.06-.05,0-.06a1.34,1.34,0,0,1-.07-.18c0-.1.1-.21.09-.31s.13-.13.13-.19v0c0-.06-.12-.12-.11-.18s0-.12,0-.18a1.06,1.06,0,0,1,0-.19c0-.05,0-.11.08-.17s-.13.32-.08.27,0,.17,0,.19h0c-.08,0,0-.27-.09-.18s-.06,0-.13.06,0,0,0,0a.37.37,0,0,0,0,.11,1.83,1.83,0,0,0-.06.25.22.22,0,0,1,0,.08.21.21,0,0,0,0,.08,1.5,1.5,0,0,0,0,.37,1.72,1.72,0,0,0,.07.21.42.42,0,0,0,.09.14.56.56,0,0,0,.15.1.44.44,0,0,0,.15.05h.31l.36,0,1.27-.1.42,0a1.51,1.51,0,0,1,.3,0,.25.25,0,0,0,.25,0,.24.24,0,0,0,.07-.12.17.17,0,0,0,0-.07.28.28,0,0,0,0-.09,1.61,1.61,0,0,0-.09-.29l-.09-.27c0-.09-.07-.18-.1-.28l-.09-.26c0-.08,0-.17-.08-.26l-.09-.24a1.39,1.39,0,0,1-.1-.26c0-.06.25,0,.25,0s.25-.05.28-.13h0c0-.06-.22-.24-.2-.3s0-.41.15-.58a4.21,4.21,0,0,1,.29-.51c.08-.09.13-.19.21-.27s.15-.18.24-.26.34-.32.52-.46c.39-.3.8-.58,1.2-.88.2-.14.39-.29.58-.44l.57-.44.59-.43a2.83,2.83,0,0,1,.28-.2l.29-.2.64-.45.55-.4.63-.45.58-.42,1.06-.75.61-.39c.23-.15.45-.31.67-.47l.58-.43.4-.3a1.55,1.55,0,0,1,.31.07l.57.21.55.21.27.12.3.14.22.11c.21.1.42.2.62.32l.64.38.61.37.38.21a3.78,3.78,0,0,0,.35.17l.33.15.33.14.42.17.31.1.27.08.48.11.72.15,1.29.23h0c-.43-.2-.92-.4-1.39-.59Z"/><polygon class="cls-1" points="22.96 38.9 22.95 38.9 22.95 38.9 22.96 38.9 22.96 38.9"/><polygon class="cls-1" points="22.96 38.9 22.96 38.9 22.96 38.9 22.96 38.9"/><path class="cls-1" d="M28,40.82l-.56-.23-.29-.1-.3-.1-.64-.2-.33-.12L25.61,40l-.28-.09L25,39.76l-.24-.08-.2-.08-.08,0c-.19-.08-.26-.41-.44-.5s-.26-.43-.44-.51h0c-.12-.05.1.24.1.25h0l-.21.44-.24.49-.46-.44h0c-.08,0,1.36.18,1.36.18h0s-.84-.53-.94-.53l-.6-.16-.17-.07c0,.14.35.22.53.34s.37.24.55.36.06.4.15.46,0,.39.13.44l.19.11s.19-.25.22-.24.31,0,.43,0,.42.09.61.17.22,0,.33.07a2,2,0,0,0,.26.06l.3.08.36.09.63.13.5.12.53.14.46.16c.17.06.48.11.48.16h0c0-.11-.34-.2-.54-.3S28.18,40.91,28,40.82Z"/></g></g></svg>