<svg xmlns="http://www.w3.org/2000/svg" viewBox="0 0 41.03 39.14"><defs><style>.cls-1{fill:#fefefe;}</style></defs><title>leo</title><g id="Layer_2" data-name="Layer 2"><g id="OBJECTS"><path class="cls-1" d="M30.6,9.56h0Z"/><path class="cls-1" d="M30.56,9.52l0,0h0Z"/><path class="cls-1" d="M35,10.38a1.17,1.17,0,0,0-.25-.07l-.22-.06-.23,0-.23,0h-.25l-.25,0a1.9,1.9,0,0,1-.25,0,4.27,4.27,0,0,1-.54-.13h0l-.69-.18-.5-.2a3.45,3.45,0,0,1-.47-.24.93.93,0,0,1-.18-.16,1.29,1.29,0,0,1-.16-.17,6.81,6.81,0,0,1-.41-.63,4,4,0,0,0-.22-.34l-.23-.33a2.34,2.34,0,0,0-.25-.3.8.8,0,0,0-.13-.13L29.4,7.2,29.15,7A.91.91,0,0,0,29,6.87a.85.85,0,0,0-.19-.1l-.16-.08-.16-.07-.17-.08-.16-.08-.34-.14-.38-.14-.24-.08-.2,0a2.33,2.33,0,0,0-.37,0,2.68,2.68,0,0,0-.49,0,2.2,2.2,0,0,0-.37.07.56.56,0,0,1,0-.12,2.25,2.25,0,0,1-.06-.36,1.1,1.1,0,0,1,0-.18c0-.16,0-.31,0-.47s-.06-.53-.09-.8-.06-.5-.11-.74a4.59,4.59,0,0,0-.29-.81,7.67,7.67,0,0,0-.36-.7,4.92,4.92,0,0,0-.51-.67,4.3,4.3,0,0,0-.58-.55,3,3,0,0,0-.75-.44,3.37,3.37,0,0,0-.48-.15L22,.06l-.41,0-.38,0h-.29l-.25,0a2.31,2.31,0,0,0-.43.08,3.79,3.79,0,0,0-.53.14L19.32.4l-.39.15-.39.16a15.05,15.05,0,0,0-1.65.84,6.84,6.84,0,0,0-.72.47,8.81,8.81,0,0,0-.75.62,3.61,3.61,0,0,1-.51.36l-.12.06-.45.23L14,3.48a2.47,2.47,0,0,1-.42.17,1.53,1.53,0,0,1-.3,0l-.24,0-.24-.13c-.21-.15-.41-.31-.63-.44a2,2,0,0,0-.43-.16,2.78,2.78,0,0,0-.51,0,2.76,2.76,0,0,0-.4.06l-.5.13a2.5,2.5,0,0,0-.38.15c-.16.07-.32.16-.48.24A5,5,0,0,0,8.7,4l-.45.39-.33.33-.63.65,0,0L7,5.76c-.1.12-.19.25-.28.37s-.34.48-.51.73a12.46,12.46,0,0,0-2,1.64L4,8.73a6.11,6.11,0,0,0-.51.63,8.43,8.43,0,0,0-.56,1,6.83,6.83,0,0,0-.41,1.23c-.09.37-.17.75-.24,1.13h0c.24-.62.5-1.24.79-1.84a6.76,6.76,0,0,1,.75-1.11l.13-.15.39-.4.34-.32c.26-.24.52-.48.79-.71s.51-.45.77-.66.53-.42.8-.63l.11-.08.38-.29.18-.11.21-.16c.12-.09.25-.2.37-.31s.28-.24.42-.36h0L8,5.86,7.7,6l-.13.06h0l.36-.32.5-.44c.16-.15.32-.3.49-.44s.35-.29.53-.42.36-.22.55-.32A2.39,2.39,0,0,1,10.37,4l.34-.11a2.73,2.73,0,0,1,.49-.06,1.26,1.26,0,0,1,.27,0l.22.11c.18.14.34.3.53.44a1.14,1.14,0,0,0,.23.15,1.19,1.19,0,0,0,.26.11,2.07,2.07,0,0,0,.5.05h.18l.21,0a1.81,1.81,0,0,0,.31-.09l.21-.1c.29-.13.55-.31.83-.46l.33-.17a2.92,2.92,0,0,0,.37-.24l.13-.12c.08-.07.17-.13.25-.21L16.27,3l.45-.34.46-.31c.16-.11.33-.2.5-.3l.49-.27c.33-.17.67-.32,1-.46l.55-.21A4,4,0,0,1,20.28,1l.47-.08a3.85,3.85,0,0,1,.48,0,4.9,4.9,0,0,1,.54,0,3.56,3.56,0,0,1,.57.09l.26.1.28.14a5.17,5.17,0,0,1,.51.42c.15.14.29.3.43.46s.4.6.59.91a6.61,6.61,0,0,1,.5,1c.07.19.13.39.2.59s.17.46.24.7a5,5,0,0,0,.2.66,1.47,1.47,0,0,0,.1.22h0l-.48.14a3.59,3.59,0,0,0-.47.12,2,2,0,0,0-.33.15,1.59,1.59,0,0,0-.27.18,2.73,2.73,0,0,0-.25.23l0,0-.18.21-.32.45a1.81,1.81,0,0,0-.18.23l-.27.37-.3.41c-.1.13-.18.27-.27.41s-.16.28-.23.42L22,9.71l-.06.12a.44.44,0,0,0,0,.15,8,8,0,0,1-.56.87L20.42,12h0c.34-.27.68-.55,1-.84.17-.15.32-.31.48-.47a5.72,5.72,0,0,0,.4-.46h0l.11-.11.14-.19.17-.25.34-.44a5.72,5.72,0,0,1,.4-.46l.39-.5c.14-.17.26-.36.39-.54l.15-.19a1.8,1.8,0,0,1,.19-.2.67.67,0,0,1,.14-.09,3.86,3.86,0,0,1,.54-.19c.19,0,.38-.11.57-.16a3.78,3.78,0,0,1,.87-.09,2.2,2.2,0,0,1,.36,0l.4.08.38.07.34.07.2.06.1,0,.18.05.19.1c.12.09.24.18.35.28a1.09,1.09,0,0,1,.19.18.86.86,0,0,1,.13.14,2.43,2.43,0,0,0,.14.2l.13.18a1.64,1.64,0,0,1,.14.22l.12.21.24.41a2.7,2.7,0,0,0,.27.39h0a2.18,2.18,0,0,0,.21.22l.3.21.28.16.28.14a5,5,0,0,0,.58.22l.26.09c.12.05.24.08.37.12l-.08,0a4.48,4.48,0,0,0,.5.11,2.74,2.74,0,0,0,.5,0h.27l.62,0h.08A1.35,1.35,0,0,1,35,11a.16.16,0,0,1,.08.06l.06.08a.56.56,0,0,0,0,.12.87.87,0,0,0,.07.17,1.6,1.6,0,0,1,.05.21c0,.05,0,.1,0,.15l0,.13c0,.05,0,.09,0,.14a.78.78,0,0,0,0,.14v.08a.5.5,0,0,0,0,.13.64.64,0,0,0,0,.07.56.56,0,0,1,0,.08l-.06.08a.59.59,0,0,0-.1.17.65.65,0,0,1-.09.16l-.07.09a.46.46,0,0,0-.06.23.76.76,0,0,0,0,.26c0,.06,0,.11,0,.17a.58.58,0,0,0,.05.14.14.14,0,0,1,0,.07h0a.21.21,0,0,0,0-.11.31.31,0,0,1,0-.1.38.38,0,0,1,0-.15.71.71,0,0,1,0-.14s0-.05,0-.08a.24.24,0,0,0,0-.08l0-.09h0s0,0,0,0h0l0,0L35,13l.06-.09a1.09,1.09,0,0,1,.08-.15l.14-.17.06-.12,0-.1a.8.8,0,0,0,0-.21l0-.16a.88.88,0,0,1,.05-.15l0-.14a.5.5,0,0,0,0-.12v-.08c0-.06,0-.12,0-.17l0-.15c0-.06,0-.11,0-.16a.43.43,0,0,0,0-.11l0-.1a.62.62,0,0,0-.16-.2l-.13-.14A.83.83,0,0,0,35,10.38Z"/><path class="cls-1" d="M7.17,10.89A2.47,2.47,0,0,1,7,10.53l-.09-.29c0-.08,0-.17,0-.26a1.5,1.5,0,0,1,0-.3A1.86,1.86,0,0,1,7,9.29,1.29,1.29,0,0,1,7,9.13a4.33,4.33,0,0,1,.46-.5h0a4.43,4.43,0,0,0-.42.29,1.54,1.54,0,0,0-.19.17l0,0a1.41,1.41,0,0,0-.18.29l-.09.22a1.51,1.51,0,0,0-.07.37,2.81,2.81,0,0,0,0,.41,2.51,2.51,0,0,0,0,.27,1.17,1.17,0,0,0,.09.32,1.92,1.92,0,0,0,.16.42,2.82,2.82,0,0,0,.21.38,1.57,1.57,0,0,0,.3.33,1.38,1.38,0,0,0,.39.23,1.6,1.6,0,0,0,.33.07,1.82,1.82,0,0,0,.33,0,1.87,1.87,0,0,0,.4-.07,3.66,3.66,0,0,0,.91-.4l.39-.25a4.68,4.68,0,0,0,.37-.29c.26-.21.51-.45.75-.68s.44-.44.66-.66l.3-.32.31-.36c.38-.47.78-.93,1.19-1.38l.63-.69a5.67,5.67,0,0,1,.62-.58,7.06,7.06,0,0,1,1-.78l.63-.35c.17-.1.34-.2.52-.29a3.07,3.07,0,0,1,.6-.22,5,5,0,0,1,1-.08h.13l.51,0a1.86,1.86,0,0,1,.41.08,4.08,4.08,0,0,1,.85.38l.17.13.16.18a3.71,3.71,0,0,1,.33.54l.15.32a2.25,2.25,0,0,0,.16.31,2.86,2.86,0,0,0,.42.55.91.91,0,0,0,.76.35h0l-.1,0-.17-.08a1.07,1.07,0,0,1-.26-.26,3.51,3.51,0,0,1-.4-.71c0-.11-.09-.22-.12-.33l-.12-.4c0-.13-.09-.26-.14-.38a1.48,1.48,0,0,0-.19-.35,2.28,2.28,0,0,0-.29-.33,2.63,2.63,0,0,0-.37-.29,2.71,2.71,0,0,0-.37-.21,1.55,1.55,0,0,0-.44-.17,3.51,3.51,0,0,0-.8-.11c-.3,0-.6,0-.91,0a3,3,0,0,0-.42,0,3.92,3.92,0,0,0-.49.13,3,3,0,0,0-.41.17l-.48.24-.08,0a9.25,9.25,0,0,0-.88.47,6.7,6.7,0,0,0-.68.51,9.94,9.94,0,0,0-.76.68c-.22.22-.43.46-.64.69-.41.45-.82.9-1.22,1.37-.19.23-.38.47-.58.69s-.42.45-.63.67-.54.55-.82.8a3.9,3.9,0,0,1-.4.31l-.47.29-.23.1-.33.11h0l-.33,0-.25,0-.24-.12a3,3,0,0,1-.36-.35Z"/><path class="cls-1" d="M18.8,16h.08a.8.8,0,0,0,.31,0l0,0a.48.48,0,0,0,.2,0,.34.34,0,0,0,.15-.09.27.27,0,0,0,.08-.17.16.16,0,0,0-.1-.15.59.59,0,0,0-.27,0h-.2a1.06,1.06,0,0,0-.39.09l0,0c-.22,0-.44-.09-.67-.13h0l.29.2h0l.24.13h0C18.64,16,18.72,16,18.8,16Z"/><path class="cls-1" d="M10.48,33.62c.14-.08.28-.15.41-.24l.4-.29a9.09,9.09,0,0,0,.74-.63,3.36,3.36,0,0,0,.66-.75,2.47,2.47,0,0,0,.23-.46c.05-.15.09-.29.13-.44s.07-.3.11-.44l.09-.41c0-.15.07-.29.11-.43a3.58,3.58,0,0,1,.11-.35l0,0a.5.5,0,0,0,.08-.14c0-.05,0-.11.08-.16a3.21,3.21,0,0,1,.19-.31,2.6,2.6,0,0,1,.25-.31,3.06,3.06,0,0,1,.36-.36,5.06,5.06,0,0,1,.67-.47c.26-.17.52-.32.78-.48l.39-.24.35-.28a6,6,0,0,0,.73-.7,5.57,5.57,0,0,0,.6-.84c.07-.13.13-.26.19-.4a5.16,5.16,0,0,0,.21-.49,7.41,7.41,0,0,0,.26-.75,5.08,5.08,0,0,0,.14-.94,5.21,5.21,0,0,0,0-.79c0-.15,0-.3,0-.44s0-.25-.07-.38l-.06-.37c0-.12-.05-.25-.07-.37s-.07-.52-.13-.77l0-.14h0c0,.22,0,.44-.06.67l-.06.54c0,.19,0,.38,0,.58s0,.38,0,.56a.13.13,0,0,0,0,.06c0,.22-.08.44-.13.66s-.12.47-.19.7-.15.44-.23.66l-.23.56a4.54,4.54,0,0,1-.21.45,3.35,3.35,0,0,1-.27.45q-.19.25-.39.48c-.16.17-.32.32-.48.47l-.31.24-.38.25c-.24.16-.49.32-.73.5s-.26.17-.38.27l-.4.37a5.11,5.11,0,0,0-.6.77l-.18.32-.06.15a1,1,0,0,0-.08.23.06.06,0,0,0,0,0c0,.09-.07.18-.1.27l-.06.28c0,.18-.08.36-.11.54s-.09.39-.13.59-.05.2-.08.3a1.55,1.55,0,0,1-.08.23.66.66,0,0,1-.09.19l-.12.19a5.76,5.76,0,0,1-.88.9l-.55.43-.29.2-.26.14a4.4,4.4,0,0,1-.77.27,2.05,2.05,0,0,1-.49.06H8.71a2.62,2.62,0,0,1-.56-.09l-.27-.1-.17-.09-.1-.14a3,3,0,0,1-.24-.43c-.07-.16-.14-.33-.23-.5a10.13,10.13,0,0,0-.55-.89c-.17-.26-.33-.51-.48-.78s-.3-.52-.47-.76c0,0,0,0,0,0l.19,0a2.71,2.71,0,0,0,.41,0,1.4,1.4,0,0,0,.49-.06,3.68,3.68,0,0,0,.35-.15,4.09,4.09,0,0,0,.46-.25l.76-.49.39-.28.18-.14a4.27,4.27,0,0,0,.38-.36,3.09,3.09,0,0,0,.52-.87l.15-.42c.08-.24.15-.5.23-.74s.16-.35.25-.52a5,5,0,0,1,.31-.49c.11-.14.22-.27.34-.4s.24-.23.36-.34a6.17,6.17,0,0,1,1-.64,3,3,0,0,1,.37-.16,3.45,3.45,0,0,1,.42-.14l.33-.07.5-.12a3.43,3.43,0,0,0,.88-.39,5.1,5.1,0,0,0,.77-.62,3.19,3.19,0,0,0,.31-.33,2.83,2.83,0,0,0,.32-.45,2.49,2.49,0,0,0,.21-.51,2,2,0,0,0,.07-.42.3.3,0,0,0,0-.16.53.53,0,0,1,0-.13V20c0-.15,0-.31,0-.46l0-.42c0-.17,0-.34,0-.5a2.18,2.18,0,0,0,0-.25c0-.09,0-.17,0-.25s0-.14,0-.21v-.05h.05a2.5,2.5,0,0,0,.47,0,2.08,2.08,0,0,0,.48-.16h-.11a2,2,0,0,1-.43-.07,1.84,1.84,0,0,1-.81-.5,3.61,3.61,0,0,1-.23-.36,2,2,0,0,1-.1-.21,1.54,1.54,0,0,0-.08-.19,2.82,2.82,0,0,1-.14-.59,2,2,0,0,1,0-.34l.06-.19a3.38,3.38,0,0,1,.24-.41,5.88,5.88,0,0,1,.68-.73,2.25,2.25,0,0,1,.36-.24,2.86,2.86,0,0,1,.6-.21,2.22,2.22,0,0,1,.51-.06l.36,0,.42,0h0c-.26-.09-.52-.21-.79-.28a2.2,2.2,0,0,0-.77,0,2,2,0,0,0-.42.07,2.09,2.09,0,0,0-.41.17,2.65,2.65,0,0,0-.42.26c-.14.11-.28.22-.41.34a1.62,1.62,0,0,0-.18.19l-.12.13a2.09,2.09,0,0,0-.29.44,1.39,1.39,0,0,0-.12.28c0,.1,0,.2-.06.29A2,2,0,0,0,15,16a2.23,2.23,0,0,0,.09.39l.09.25h-.27a1.26,1.26,0,0,0-.28.05,1.54,1.54,0,0,0-.35.15l-.12.08A.51.51,0,0,0,14,17l-.06.07-.07.06-.13.13c-.15.16-.3.33-.43.5l0,.08a4.73,4.73,0,0,0-.35.56l-.14.28-.16.34c-.09.21-.18.42-.29.63a5.64,5.64,0,0,1-.31.53,3.51,3.51,0,0,1-.42.44l-.31.22-.14.06-.16,0-.21,0h-.2a2.33,2.33,0,0,1-.37,0l-.42-.06a4.21,4.21,0,0,0-.94,0l-.43.06L8.09,21a.9.9,0,0,0-.21.08,2.46,2.46,0,0,0-.45.25,3.6,3.6,0,0,0-.41.37,4.59,4.59,0,0,0-.33.44c-.09.12-.16.25-.24.37s-.33.55-.51.81a2.27,2.27,0,0,1-.26.28,4.33,4.33,0,0,1-.71.5,2.46,2.46,0,0,1-.38.14l-.12,0a2,2,0,0,1-.49,0,2.33,2.33,0,0,1-.53-.07,1.33,1.33,0,0,1-.24-.11l-.07,0a2.75,2.75,0,0,1-.26-.22,2.61,2.61,0,0,1-.24-.23l-.47-.52-.23-.31c-.09-.11-.16-.24-.24-.36a5,5,0,0,1-.35-.74c0-.1-.07-.2-.1-.3l0-.17A1.55,1.55,0,0,1,1.17,21a2.21,2.21,0,0,1,0-.25v0a.49.49,0,0,1,0-.12c0-.41,0-.82.06-1.22s0-.82,0-1.24c0-.24,0-.49.05-.74a1,1,0,0,1,0,.14,2.77,2.77,0,0,0,.27.61c.06.12.14.23.21.35l.11.16a1.49,1.49,0,0,0,.15.2l.11.13.17.16a2.72,2.72,0,0,0,.37.27,1.61,1.61,0,0,0,.36.15,2.57,2.57,0,0,0,.48.11,2.57,2.57,0,0,0,.48,0l.27,0a4.56,4.56,0,0,0,.62-.13,5.38,5.38,0,0,0,.51-.2l.48-.25c.27-.13.53-.27.8-.39a4.52,4.52,0,0,0,.85-.5,3.41,3.41,0,0,0,.39-.37,2.35,2.35,0,0,0,.3-.33,6.78,6.78,0,0,1,.62-.69s0,0,0,0,.32-.25.48-.36a5,5,0,0,1,.5-.29,4.84,4.84,0,0,1,.47-.21,3.22,3.22,0,0,1,.44-.14,2.9,2.9,0,0,1,.41-.06,1.24,1.24,0,0,1,.33,0l.41.11a2.22,2.22,0,0,0,.37.09h.25a1.4,1.4,0,0,0,.28-.06,1.33,1.33,0,0,0,.32-.15l.17-.12.15-.13.17-.18a4.84,4.84,0,0,0,.33-.46,6.28,6.28,0,0,0,.43-.81c.16-.33.29-.67.42-1h0a.59.59,0,0,0,.12-.2l0-.13.15-.29a2.33,2.33,0,0,1,.17-.26l.13-.17.15-.14.44-.35a6.37,6.37,0,0,1,.55-.35,3.24,3.24,0,0,1,.71-.27,1.93,1.93,0,0,1,.41-.06c.41,0,.8.11,1.21.13a2.22,2.22,0,0,0,.67-.1,1,1,0,0,0,.71-.46h0a.36.36,0,0,1-.08.09l-.1.07-.17.07-.2,0h-.21a2.73,2.73,0,0,1-.5-.06l-.09,0c-.26-.08-.51-.17-.78-.24a2.29,2.29,0,0,0-.36-.07,1.83,1.83,0,0,0-.47,0,3.76,3.76,0,0,0-1.67.75l-.4.31a2.71,2.71,0,0,0-.41.42,3.61,3.61,0,0,0-.36.51c-.05.08-.09.17-.13.25l-.06.14a.38.38,0,0,0,0,.21h0c-.13.29-.25.58-.39.87l-.26.49c-.09.15-.18.29-.28.43a1.83,1.83,0,0,1-.13.16L13,15l-.23.16-.11,0-.17,0a6.38,6.38,0,0,1-.76-.15,2.58,2.58,0,0,0-.48,0,2.12,2.12,0,0,0-.44.06,4,4,0,0,0-.88.3,7.17,7.17,0,0,0-.86.47,5,5,0,0,0-.52.38,3.94,3.94,0,0,0-.5.5c-.14.17-.27.35-.42.51s-.27.28-.42.42a2.11,2.11,0,0,1-.29.2L6.67,18l-1,.51-.51.25c-.18.08-.36.14-.54.2a4.17,4.17,0,0,1-.78.1A2.09,2.09,0,0,1,3.29,19l-.18-.06-.18-.1a1.88,1.88,0,0,1-.24-.18,2.5,2.5,0,0,1-.23-.23A4,4,0,0,1,2.17,18a4.36,4.36,0,0,1-.33-.6,5.49,5.49,0,0,1-.22-.91c0-.18-.05-.35-.07-.53s0-.28-.05-.41,0-.22,0-.33,0-.21,0-.31v-.28a3.9,3.9,0,0,1,0-.59,2.51,2.51,0,0,1,.14-.52,2.09,2.09,0,0,1,.16-.29l.39-.48h0l-.42.37-.09.09a2.25,2.25,0,0,0-.47,1s0,.05,0,.07a1.72,1.72,0,0,0-.31.62,3.66,3.66,0,0,0-.06.65c0,.2,0,.4,0,.6a4.5,4.5,0,0,1-.11.64c-.1.41-.22.81-.31,1.22s-.14.86-.2,1.29-.12.84-.16,1.26c0,.1,0,.2,0,.3a3.1,3.1,0,0,0,0,.43A4.39,4.39,0,0,0,.17,22c.09.25.19.5.3.74s.23.52.34.79c.21.51.43,1,.6,1.55l.12.46c0,.19.07.38.12.57a4.65,4.65,0,0,0,.21.63,3.4,3.4,0,0,0,.27.54,6.32,6.32,0,0,0,.77.94c.27.28.54.55.82.81s.52.41.78.61l0,0,.3.28.17.18a.93.93,0,0,0,.15.13c.15.17.3.35.44.54s.29.4.45.59.32.35.47.53a6.15,6.15,0,0,1,.46.58l0,.07a2.68,2.68,0,0,0,.07.27,1.36,1.36,0,0,0,.29.49,2,2,0,0,0,.59.44l.12.11h0L8,33.74a2.36,2.36,0,0,0,.79.2,1.85,1.85,0,0,0,.47,0,1.88,1.88,0,0,0,.33-.05l.45-.11Zm7.2-22.82h0ZM1.14,14.57l0-.1c0,.14,0,.27,0,.4a.17.17,0,0,0,0,.07.13.13,0,0,0,0-.06C1.11,14.78,1.12,14.68,1.14,14.57Zm1.67,12c-.06-.13-.11-.27-.16-.41s-.08-.35-.11-.53,0-.38-.09-.57-.13-.57-.21-.84l.19.21.31.28.11.07.15.1.14.06a2.94,2.94,0,0,0,.59.12,2.82,2.82,0,0,0,.58,0c.11,0,.22,0,.33-.06a2.91,2.91,0,0,0,.5-.16,3.9,3.9,0,0,0,.49-.28,4,4,0,0,0,.39-.3,2.51,2.51,0,0,0,.66-.76c.23-.36.45-.73.69-1.08.06-.06.11-.13.16-.19L7.67,22a3.13,3.13,0,0,1,.3-.2l.12-.05.19-.07A3.51,3.51,0,0,1,9,21.65a5.58,5.58,0,0,1,.82.11,2.7,2.7,0,0,0,.41.07,2.16,2.16,0,0,0,.51,0,3.86,3.86,0,0,0,.49-.1,1.65,1.65,0,0,0,.47-.21,2.45,2.45,0,0,0,.37-.26,2.86,2.86,0,0,0,.4-.38,3.46,3.46,0,0,0,.46-.67,4.81,4.81,0,0,0,.29-.71c.08-.22.15-.44.22-.67s.07-.2.1-.3l.1-.25a5.71,5.71,0,0,1,.53-.93l0,0,.07-.06.06-.07.15-.15a2.61,2.61,0,0,1,.27-.19,2,2,0,0,1,.39-.13l0,0s0,0,0,.05a2.52,2.52,0,0,0,.49.67,1.57,1.57,0,0,0,.83.39.53.53,0,0,1,0,.12c0,.13-.06.25-.1.37s-.06.25-.1.37-.07.26-.11.39a3,3,0,0,0-.07.32l-.06.34c0,.11,0,.22-.08.33s0,.12-.05.18a.47.47,0,0,0,0,.16.13.13,0,0,0,0,.06c0,.09-.06.18-.1.27l-.1.21a1.3,1.3,0,0,1-.1.15c-.13.17-.28.33-.43.49l-.46.42-.23.18a1.61,1.61,0,0,1-.28.17,1.3,1.3,0,0,1-.32.14l-.41.13a6.68,6.68,0,0,0-.83.27,5.78,5.78,0,0,0-1.62,1l-.34.33c-.1.11-.2.23-.29.35a5.5,5.5,0,0,0-.52.83c-.08.15-.15.3-.21.44s-.05.15-.07.22a1.52,1.52,0,0,0-.06.2c0,.15-.09.31-.14.46s-.09.27-.14.4a3.05,3.05,0,0,1-.28.5,2,2,0,0,1-.31.35.52.52,0,0,0-.11.1l-.38.28-.4.27c-.25.17-.5.32-.76.47a3.11,3.11,0,0,1-.5.21,1.66,1.66,0,0,1-.32,0H5.91l-.3-.06-.32-.13A1.35,1.35,0,0,1,5,29l0,0-.35-.31-.34-.32-.69-.72-.24-.26a1.19,1.19,0,0,0-.08-.16h0a.3.3,0,0,0,0,.1A4.58,4.58,0,0,1,3,26.89,4,4,0,0,1,2.81,26.54Zm4.36,6.22.11.19h0A1.74,1.74,0,0,1,7.17,32.76Z"/><path class="cls-1" d="M16.8,36.48l.37-.28a3.42,3.42,0,0,0,.4-.36,3.28,3.28,0,0,0,.31-.34,5.85,5.85,0,0,0,.34-.48,7.37,7.37,0,0,0,.41-.79,5.73,5.73,0,0,0,.37-.94c0-.15.08-.3.11-.45s.05-.34.07-.51a3.74,3.74,0,0,0,0-.67c0-.24-.06-.47-.08-.71,0,0,0-.07,0-.1a.53.53,0,0,0,0-.17v-.15a2.09,2.09,0,0,1,0-.25,3.37,3.37,0,0,1,.09-.34c0-.13.08-.26.13-.38l.24-.52c.1-.21.2-.41.31-.6l.33-.6c.1-.19.2-.39.29-.59l0-.05h0l0,0h0l0,.05a4.52,4.52,0,0,0,.18-.47c0-.14.08-.29.11-.43a5.31,5.31,0,0,0,.16-1,5.45,5.45,0,0,0-.06-.9c0-.27-.1-.53-.16-.8-.11-.49-.21-1-.34-1.47-.06-.24-.11-.49-.17-.73s-.15-.52-.22-.77h0c0,.29,0,.58,0,.87s0,.58,0,.87,0,.55,0,.83,0,.55.05.82.06.65.07,1c0,.16,0,.33,0,.49s0,.31-.05.47a4.86,4.86,0,0,1-.11.55q-.07.3-.18.6c-.11.25-.22.48-.35.72s-.29.54-.42.81-.13.27-.2.4l-.2.47a3.34,3.34,0,0,0-.25.91,1.94,1.94,0,0,0,0,.24.67.67,0,0,0,0,.2.37.37,0,0,0,.05.11c0,.23,0,.46.05.69s0,.3,0,.44a1.71,1.71,0,0,1,0,.39,4.1,4.1,0,0,1-.1.48c-.05.17-.11.33-.17.5s-.23.47-.35.71a6.58,6.58,0,0,1-.4.67,3.06,3.06,0,0,1-.34.39,4.89,4.89,0,0,1-.4.39,7.61,7.61,0,0,1-1.12.76,4.87,4.87,0,0,1-.72.28,2,2,0,0,1-.49,0l-.25,0-.27-.05-.13,0-.18-.08-.21-.1-.33-.19a1,1,0,0,1-.15-.11l-.2-.16c-.11-.1-.21-.21-.31-.32h0a.61.61,0,0,0-.07-.1,2.59,2.59,0,0,1-.19-.33l-.19-.4h0c0,.15.07.31.1.46a1.3,1.3,0,0,0,.14.39,3.63,3.63,0,0,0,.48.7,2.57,2.57,0,0,0,.29.28,3.15,3.15,0,0,0,.29.22l.2.14.2.11.38.13a1.65,1.65,0,0,0,.43.09h.44a1.7,1.7,0,0,0,.31-.06,3.73,3.73,0,0,0,.44-.14,4.59,4.59,0,0,0,.5-.24A8.69,8.69,0,0,0,16.8,36.48Z"/><path class="cls-1" d="M20.54,27.19h0l0,0Z"/><polygon class="cls-1" points="22.2 20.44 22.2 20.44 22.21 20.45 22.2 20.44"/><path class="cls-1" d="M28.49,34.2a3.42,3.42,0,0,0,.13-.62c0-.08,0-.17,0-.25s0-.29,0-.44a3.22,3.22,0,0,0,0-.43,4.94,4.94,0,0,0-.15-.87c-.08-.33-.18-.64-.27-1-.05-.17-.09-.34-.14-.51s-.06-.3-.08-.46a2.26,2.26,0,0,1,0-.37,3.42,3.42,0,0,1,0-.44l.09-.89c0-.29,0-.58,0-.86a8.7,8.7,0,0,0,0-.89c0-.3-.07-.59-.1-.89l0-.44h0c0,.2-.06.4-.08.59s0,.36,0,.54,0,.37,0,.55,0,.36-.07.54c-.09.56-.22,1.13-.32,1.69a4,4,0,0,0-.08.5,3.53,3.53,0,0,0,0,.46,5.21,5.21,0,0,0,.19.89c.05.19.11.37.17.55s.13.4.19.6a5.45,5.45,0,0,1,.14.58c0,.21.08.42.11.63a4.77,4.77,0,0,1,0,1c0,.14-.06.28-.1.42a1.61,1.61,0,0,1-.09.29l-1,.74-.52.37a6.59,6.59,0,0,1-.72.44l-.06,0h-.19c-.24,0-.46-.1-.7-.13a2.31,2.31,0,0,0-.8,0c-.25,0-.5.1-.75.16l-.33.09-.2.07a.81.81,0,0,0-.18.1h0l-.46.22c-.17.1-.33.21-.49.32s-.29.21-.43.32a3.44,3.44,0,0,1,0-.56,1.43,1.43,0,0,1,.07-.28,3.58,3.58,0,0,1,.25-.42L21.6,36a1.8,1.8,0,0,1,.2-.19l.7-.55c.26-.2.51-.43.76-.66a4.85,4.85,0,0,0,.61-.67A4.17,4.17,0,0,0,24.4,33a5.62,5.62,0,0,0,.19-.53,2.33,2.33,0,0,0,.1-.44,5.39,5.39,0,0,0,.09-1,7.45,7.45,0,0,0-.07-.95c0-.14,0-.29-.07-.43l-.09-.4A9,9,0,0,0,24,27.68c-.23-.5-.5-1-.71-1.47l0-.06a2.25,2.25,0,0,1-.08-.24c0-.12,0-.23-.07-.34s0-.16,0-.24a1,1,0,0,1,0-.24c0-.26.11-.53.16-.8s.1-.65.12-1a3.31,3.31,0,0,0-.31-1.66,6.65,6.65,0,0,0-.41-.62c-.16-.19-.3-.4-.46-.59a1.56,1.56,0,0,0-.16-.2h0a5.18,5.18,0,0,1,.17.56c.05.18.11.36.17.53s.12.36.17.54.06.36.09.54v.1a.28.28,0,0,1,0-.09,3.12,3.12,0,0,1,0,.43c0,.14,0,.29,0,.42-.05.28-.11.55-.17.83s-.16.57-.22.86a3.07,3.07,0,0,0-.06.52,2.94,2.94,0,0,0,.05.51,1.37,1.37,0,0,0,.09.4,4.68,4.68,0,0,0,.18.48c.14.33.31.64.47,1a9.23,9.23,0,0,1,.42.9,9.75,9.75,0,0,1,.32,1,3.81,3.81,0,0,1,.12.51c0,.17.06.35.08.52a5,5,0,0,1,0,.67c0,.23,0,.47-.06.7s-.05.24-.08.36-.07.2-.11.3-.07.16-.1.23l-.15.26a4.53,4.53,0,0,1-.3.46c-.19.25-.4.49-.6.73l-.61.66c-.11.11-.22.22-.32.34s-.2.27-.29.4a3.12,3.12,0,0,0-.23.49,1.56,1.56,0,0,0-.11.51,3,3,0,0,0,0,.31l.06.28-.48.37c-.16.12-.32.24-.5.35l-.1.06.08-.09h0c-.28.14-.54.3-.82.43a1.22,1.22,0,0,1-.27.09H18.7l-.27-.07h0l-.51-.27-.23-.15a1.51,1.51,0,0,0-.29-.13,3.84,3.84,0,0,0-.82-.23h0l.47.36h0l.09.07c.18.16.33.35.51.51a1.63,1.63,0,0,0,.71.38,1.4,1.4,0,0,0,.67,0,1.5,1.5,0,0,0,.48-.3l.17-.16L20,38.5a3.88,3.88,0,0,0,.46-.22c.3-.16.59-.34.89-.53l.46-.27.43-.21.39-.14h.18l.16,0,.3,0,.57-.11a3.4,3.4,0,0,1,.63,0l.43.06a3.9,3.9,0,0,0,.5,0,1.87,1.87,0,0,0,.32,0l.12,0,.17-.09.27-.21a4,4,0,0,0,.38-.34l.08-.09h.17a1.61,1.61,0,0,0,.53-.25,2.91,2.91,0,0,0,.43-.43,3.31,3.31,0,0,0,.37-.55A5.1,5.1,0,0,0,28.49,34.2Zm-1,1.31a3.07,3.07,0,0,1-.29.34A2.68,2.68,0,0,1,27,36l-.19.08.57-.62c.19-.21.37-.43.56-.65v0A3.45,3.45,0,0,1,27.52,35.51Z"/><path class="cls-1" d="M30.7,28.62a4.47,4.47,0,0,0,.19.46l.21.38a7.57,7.57,0,0,0,.83,1c.26.29.53.58.78.88a2.24,2.24,0,0,1,.27.45A1.46,1.46,0,0,1,33,32l0,.59h0l.15-.5a1.16,1.16,0,0,0,0-.52c0-.1,0-.21-.07-.31a7.43,7.43,0,0,0-.33-.77c-.25-.48-.54-.93-.82-1.38l-.34-.57a4.37,4.37,0,0,1-.31-.61,3,3,0,0,1-.15-.59,2.34,2.34,0,0,1,0-.26c0-.12,0-.24,0-.36s0-.26,0-.4a2.68,2.68,0,0,1,.21-.6,5.55,5.55,0,0,1,.24-.56h0c-.11.14-.22.27-.32.41a5.48,5.48,0,0,0-.35.49,2.49,2.49,0,0,0-.16.33.92.92,0,0,0-.09.23,4.05,4.05,0,0,0-.12.47A3,3,0,0,0,30.7,28.62Z"/><path class="cls-1" d="M32.28,24.14l.39-.13.39-.1.37-.16.38-.19.38-.18A7.08,7.08,0,0,0,35,23l.18-.11a1.13,1.13,0,0,0,.18-.12l.3-.23.39-.3.19-.13.2-.17a2.51,2.51,0,0,0,.33-.4,1.82,1.82,0,0,0,.15-.23l.06-.13A.29.29,0,0,0,37,21h0l0,.11-.09.13a2.09,2.09,0,0,1-.2.22c-.07.08-.14.14-.21.21a1.92,1.92,0,0,1-.35.23c-.15.08-.29.15-.43.24s-.28.18-.42.25l-.13.07-.27.12-.26.11c-.18.08-.37.14-.56.21s-.38.13-.57.21a5.27,5.27,0,0,1-.51.19,6.8,6.8,0,0,0-.75.18c-.25.08-.5.17-.76.24a3,3,0,0,1-.42.06,3.54,3.54,0,0,1-.46,0l-.48.05h-.4a5.07,5.07,0,0,1-.56-.05l-.26,0-.13,0h-.17l-.09,0L28,23.57c-.17-.08-.32-.17-.48-.26s-.4-.32-.6-.49-.4-.35-.6-.53a13.51,13.51,0,0,0-1.27-1l-.62-.45-.67-.46L23.06,20l-.31-.18-.4-.25h0l.35.33.29.24c.2.19.41.36.62.54s.39.35.58.53l.6.55c.41.36.81.73,1.2,1.1l.58.54a3.83,3.83,0,0,0,.62.51,3.08,3.08,0,0,0,.59.33,4.4,4.4,0,0,0,.51.18.31.31,0,0,0,.09.07l.16,0,.2,0a2.5,2.5,0,0,0,.38.06,4.21,4.21,0,0,0,.94,0l.42-.05.42,0a3.28,3.28,0,0,0,1-.23Z"/><path class="cls-1" d="M26.56,13.5h.23l.21,0,.12,0,.07,0,.13.05.2.06h.18a.46.46,0,0,0,.36-.26,2.34,2.34,0,0,0,.09-.24l.06-.28c0-.11.07-.21.11-.32l.05-.12a7,7,0,0,1,.5-1l.3-.49c.11-.18.2-.36.29-.54h0c-.1.12-.2.24-.32.36s-.22.21-.33.32a4.2,4.2,0,0,0-.56.63,4.07,4.07,0,0,0-.47.77c-.06.12-.1.25-.15.38a.94.94,0,0,1,0,.16l-.09,0-.2-.07a1,1,0,0,0-.34,0l-.49.05a5.07,5.07,0,0,0-.54.09l-.28.07-.12,0a.33.33,0,0,0-.13.07,3.3,3.3,0,0,0-.41.23l-.44.29-.22.16-.15.15a.53.53,0,0,0-.12.14c-.11.15-.2.31-.3.46h0c.15-.16.29-.34.45-.49a2.1,2.1,0,0,1,.33-.22,6.93,6.93,0,0,1,.93-.41h.1l.12,0,.22,0a3.39,3.39,0,0,1,.45,0Z"/><path class="cls-1" d="M26.05,15.21a5.43,5.43,0,0,0-.95.22h0a7.3,7.3,0,0,0,.94.1,2.83,2.83,0,0,0,.41,0,2.46,2.46,0,0,0,.45-.11.33.33,0,0,0,.15-.05.82.82,0,0,0,.19-.09,1.06,1.06,0,0,0,.34-.26h0l-.15,0c-.19,0-.39.05-.58.1h0C26.61,15.16,26.33,15.17,26.05,15.21Z"/><path class="cls-1" d="M28.88,19.87a2.32,2.32,0,0,0,.13.37,1.4,1.4,0,0,0,.15.3,1.53,1.53,0,0,0,.18.18,2.72,2.72,0,0,0,.38.29h0c-.13-.13-.25-.26-.37-.4a1,1,0,0,1-.13-.22,2,2,0,0,1-.1-.35l-.06-.34a2.47,2.47,0,0,1,0-.47.9.9,0,0,1,.06-.22c.06-.12.13-.23.2-.35a3.89,3.89,0,0,1,.38-.43L30,18a1.92,1.92,0,0,1,.31-.18l.23-.11a.45.45,0,0,0,.23,0l.1,0,.4-.06a3,3,0,0,0,.5-.11,3.52,3.52,0,0,0,.43-.13,2.7,2.7,0,0,0,.44-.24l.18-.13.24-.22.29-.31a5.65,5.65,0,0,0,.53-.78,5.41,5.41,0,0,0,.45-.94h0a7.8,7.8,0,0,1-.61.68l-.31.31L33.1,16a5.46,5.46,0,0,1-.79.57,4.63,4.63,0,0,1-.82.27L31,17a1.38,1.38,0,0,0-.29.08l-.14,0a.39.39,0,0,0-.17.11l-.34.19c-.15.1-.28.22-.42.33l-.14.14-.08.09a0,0,0,0,0,0,0,1.78,1.78,0,0,0-.21.27,3.18,3.18,0,0,0-.23.4,1.55,1.55,0,0,0-.15.46,1.51,1.51,0,0,0,0,.37A2.7,2.7,0,0,0,28.88,19.87Z"/><path class="cls-1" d="M35.17,18.74l.24-.44.24-.42.23-.41,0,0h0a1.86,1.86,0,0,0-.27.22l-.26.23c-.16.16-.31.33-.46.5a3.08,3.08,0,0,0-.24.27l-.21.25a3.9,3.9,0,0,1-.46.45l-.2.15-.2.07-.11,0H32a.34.34,0,0,0-.1,0h-.07a4.35,4.35,0,0,1-.52-.06,4.7,4.7,0,0,1-.51-.12,4.07,4.07,0,0,1-.58-.22c-.21-.09-.42-.18-.63-.25h0l.55.33a5.24,5.24,0,0,0,.51.3,3.49,3.49,0,0,0,.53.22,4.84,4.84,0,0,0,.54.17l.07,0,.13,0,.2,0,.41.08a7.35,7.35,0,0,0,.82.1,1.53,1.53,0,0,0,.3,0,1,1,0,0,0,.25-.07,1.49,1.49,0,0,0,.25-.13,1.74,1.74,0,0,0,.22-.18q.15-.13.3-.3c.1-.12.2-.25.29-.38S35.09,18.88,35.17,18.74Z"/><path class="cls-1" d="M34.53,11.7a3.14,3.14,0,0,1,.18-.37h0l-.21.2,0,.06a2.83,2.83,0,0,0-.2.28,2.43,2.43,0,0,0-.31.54,1.6,1.6,0,0,0-.16.66.88.88,0,0,0,.14.43,1.22,1.22,0,0,0,.68.42h0c-.11-.12-.24-.22-.35-.35a1.18,1.18,0,0,1-.11-.19,1.05,1.05,0,0,1-.06-.24,1.48,1.48,0,0,1,0-.21,5,5,0,0,1,.32-1h0l.06-.13Z"/><path class="cls-1" d="M37.1,20.33c0-.22,0-.45,0-.67-.05-.63-.18-1.24-.25-1.86a1.54,1.54,0,0,0,0-.3v-.06h0a1.7,1.7,0,0,0-.1.37,5.3,5.3,0,0,0-.1.8,5.16,5.16,0,0,0,0,.79,7.22,7.22,0,0,0,.48,1.6h0C37.1,20.77,37.11,20.55,37.1,20.33Z"/><path class="cls-1" d="M40,17.87c0,.31,0,.63-.05.94,0,.14,0,.28,0,.42a3.71,3.71,0,0,0,0,.47c0,.3.05.59.08.89a6.54,6.54,0,0,1,.07.89,2.47,2.47,0,0,1,0,.61,3.58,3.58,0,0,1-.19.55,4.65,4.65,0,0,1-.36.61c-.08.11-.17.21-.25.33l-.23.31-.2.28,0,0a1.09,1.09,0,0,0-.25-.23,1.4,1.4,0,0,0-.26-.16,2.42,2.42,0,0,0-.35-.12,2,2,0,0,0-.34-.05,3.91,3.91,0,0,0-.83.06h0l.56.15.45.15.41.2.37.25.05.05a.27.27,0,0,0-.07.08,6.34,6.34,0,0,0-.49.88l.06-.12c-.12.23-.22.46-.32.7s-.19.42-.26.64-.14.42-.2.64-.11.46-.16.69a5.31,5.31,0,0,1-.26.86l-.15.24a2.39,2.39,0,0,1-.23.22l-.27.23a3.57,3.57,0,0,1-.45.27l0-.12a5.83,5.83,0,0,0-.23-.58l-.28-.54a5.6,5.6,0,0,1-.27-.55l0-.08,0-.08a3,3,0,0,1-.1-.32c0-.11,0-.23-.08-.34s0-.24-.08-.36,0-.2,0-.3c0-.25,0-.51-.05-.76a6.66,6.66,0,0,0,0-.78h0c0,.15-.08.31-.12.47a3.74,3.74,0,0,0-.12.45,3.43,3.43,0,0,0-.09.44,2.42,2.42,0,0,0-.06.47,4.7,4.7,0,0,0,.08.92,2.09,2.09,0,0,0,.34.81,6.54,6.54,0,0,0,.4.52l.42.49a2.52,2.52,0,0,1,.24.33l-.46.25a3.88,3.88,0,0,0-.58.42c-.09.09-.18.17-.26.26a3,3,0,0,0-.22.28,7.41,7.41,0,0,0-.72,1,3.22,3.22,0,0,0-.23.5c0,.1-.08.21-.13.31l-.17.06-1.2.38-.6.18-.53.17c-.2.07-.39.14-.59.23a7,7,0,0,0-.87.43,2.5,2.5,0,0,0-.47.39l0,0a3.79,3.79,0,0,0-.34.45h0c.12-.1.23-.21.35-.3l.25-.17a1.87,1.87,0,0,1,.32-.15c.3-.13.6-.21.9-.31l.56-.16a9.38,9.38,0,0,0,1.13-.38c.4-.16.78-.34,1.17-.54h0c.17-.08.33-.18.5-.28l.64-.35h0l-.68.21-.29.1.15-.25c0-.09.1-.19.15-.27a2.56,2.56,0,0,1,.2-.26,7.48,7.48,0,0,1,.74-.75,1.67,1.67,0,0,0,.16-.12l.17-.14.32-.21.27-.14c.17-.07.35-.12.52-.18a5.71,5.71,0,0,0,.58-.21,3.44,3.44,0,0,0,1-.67c.07-.09.15-.18.22-.28a3.47,3.47,0,0,0,.18-.33,2.27,2.27,0,0,0,.17-.5c.06-.2.11-.41.16-.61l.09-.48a4.45,4.45,0,0,1,.24-.7c.1-.25.22-.5.34-.74a5.83,5.83,0,0,1,.58-1l.27-.32.27-.34,0,.06c.11-.13.21-.25.3-.38s.18-.23.26-.35a3.18,3.18,0,0,0,.23-.4,4.52,4.52,0,0,0,.23-.5,3.13,3.13,0,0,0,.12-.53,2.91,2.91,0,0,0,0-.51,3.41,3.41,0,0,0-.17-.9c0-.15-.09-.31-.14-.46s-.09-.26-.13-.39-.19-.55-.28-.83-.1-.38-.14-.57-.09-.48-.13-.72Zm.14,3.61h0Z"/><path class="cls-1" d="M39.38,19.75h0l-.68.07A5.59,5.59,0,0,0,38,20h0A4,4,0,0,0,39.38,19.75Z"/></g></g></svg>