<svg xmlns="http://www.w3.org/2000/svg" viewBox="0 0 47.11 44.57"><defs><style>.cls-1{fill:#fefefe;}</style></defs><title>libra</title><g id="Layer_2" data-name="Layer 2"><g id="OBJECTS"><path class="cls-1" d="M17.05,35.18h0Z"/><path class="cls-1" d="M46.18,26.93,46,27c-.75.2-1.5.48-2.24.69-1.56.48-3.73,1.16-5.9,1.78a2.17,2.17,0,0,0,0-.25c-.11-.91-.17-1.83-.29-2.75s-.29-1.84-.49-2.75c-.1-.46-.21-.92-.31-1.38s-.19-.85-.29-1.28c-.22-.92-.46-1.84-.7-2.76s-.52-1.83-.73-2.76L34.64,14c.35-.09.7-.19,1-.3.5-.17,1-.34,1.47-.53a9.29,9.29,0,0,0,1.15-.54,5,5,0,0,0,.67-.42,3,3,0,0,0,1-1.26,6.59,6.59,0,0,0,.24-.79,6.26,6.26,0,0,0,0-.75l-.1,0c0,.1-.09.19-.14.29a4.4,4.4,0,0,1-.58,1,2.89,2.89,0,0,1-.5.49,2.53,2.53,0,0,1-.52.26,25.68,25.68,0,0,1-2.63.59l-2.64.51a13.27,13.27,0,0,1-1.64.25,4.56,4.56,0,0,1-.64,0,3.52,3.52,0,0,1-.64-.09,4.13,4.13,0,0,1-.5-.15c-.07,0-.12-.09-.18-.13a2.6,2.6,0,0,1-.3-.36,2.55,2.55,0,0,1-.24-.5c-.12-.41-.2-.83-.28-1.24,0-.21-.08-.42-.13-.62s-.05-.18-.08-.27a2.75,2.75,0,0,0-.2-.57,1,1,0,0,0-.62-.53,1.63,1.63,0,0,0-.45-.09.88.88,0,0,0-.28,0,5,5,0,0,0-.53.11A10,10,0,0,1,25,8.68c-.85.11-1.71.18-2.56.27l-.25,0A6.53,6.53,0,0,0,22,7.82q-.16-.69-.39-1.35c-.15-.47-.31-.93-.5-1.38s-.31-.68-.48-1-.27-.52-.39-.78S20.1,3,20,2.79s-.14-.32-.22-.48-.15-.35-.22-.52c-.09-.32-.19-.64-.31-1-.05-.14-.11-.28-.17-.42S19,.25,19,.18h.36V.25c0-.19-.55-.06-.64-.25l-.37.32h0a3.49,3.49,0,0,1,.32,1.12c0,.28.12.39.13.66,0,.48.1.87.14,1.35s.1.86.17,1.31.16.83.25,1.25,0,.91.1,1.37c0,0-.22,0-.22,0v0c0,.06.24.12.25.17s.13.12.15.18.12.23.16.34a5.72,5.72,0,0,0,.28.68h0c0-.23.07-.46.1-.7a3.06,3.06,0,0,1,.05-.32,1.94,1.94,0,0,0,0-.24s0-.09,0-.14a11.76,11.76,0,0,0,0-1.33c0-.23,0-.47,0-.7,0,.12.09.24.14.37.16.45.35.9.54,1.35s.42,1,.59,1.45c.06.18.12.37.17.55l-.53.09-1.31.26c-.42.08-.85.13-1.27.2l-.19,0a22.41,22.41,0,0,0,.17-2.45c0-.44,0-.89,0-1.33s0-.84-.05-1.27c0-.71-.07-1.42-.13-2.13,0-.32-.05-.64-.07-1s0-.79-.07-1.16l.06,0h0a10.09,10.09,0,0,0-.23,1.45c-.06.43-.11.89-.13,1.32s-.05.88-.05,1.31,0,.89.05,1.34c0,.69.12,1.38.2,2.08s.14,1.23.19,1.85l-1.07.19-1.33.22c-.43.07-.87.13-1.3.23l-.64.17-.31.1-.36.13a1.88,1.88,0,0,0-.44.24,2.28,2.28,0,0,0-.7,1.07l-.24.51a4.9,4.9,0,0,1-.52.74,5.88,5.88,0,0,1-.88.7l-.33.19-.22.09a5.4,5.4,0,0,1-.7.13c-.23,0-.45.07-.68.09l-.95,0a7.14,7.14,0,0,1-.93-.08c-.25-.06-.49-.14-.73-.22a5,5,0,0,1-.81-.3,2.39,2.39,0,0,1-.34-.21l-.36-.3A3.51,3.51,0,0,1,4.16,13L4,12.81c0-.08-.12-.14-.18-.22-.21-.29-.45-.57-.69-.84h0c.12.3.24.6.34.91a1.53,1.53,0,0,1,.07.29l0,.13a1.46,1.46,0,0,0,.07.19,4.66,4.66,0,0,0,.26.61,4.9,4.9,0,0,0,.38.62,3.18,3.18,0,0,0,.54.56l.25.21.27.19a6.49,6.49,0,0,0,.55.36,3.2,3.2,0,0,0,.73.33,7.37,7.37,0,0,0,.81.2l.6.1.26,0-.09.62c-.08.5-.19,1-.29,1.5s-.23,1.11-.34,1.66l-.09.42s0-.06,0-.09c0,.16-.07.33-.1.49s-.07.3-.1.46a.29.29,0,0,0,0,.09s0,0,0-.07c-.06.28-.11.57-.17.85,0,0,0-.07,0-.11-.2.92-.35,1.84-.53,2.76s-.36,1.82-.51,2.73c-.08.5-.15,1-.22,1.5s-.12.88-.15,1.33c-.08.93-.11,1.86-.12,2.8,0,.34,0,.69,0,1v.25l0,.25a4,4,0,0,1,0,.6s-.33.83-.33.83S4.9,37,4.89,37h0s.34-.64.34-.58A3,3,0,0,0,5.43,36a2,2,0,0,0,.19-.42,3,3,0,0,0,.11-.32,3.54,3.54,0,0,0,.11-.44c.2-.89.33-1.81.48-2.7l.24-1.47c.07-.44.16-.89.24-1.33.16-.92.3-1.85.47-2.77s.32-1.86.47-2.79a53.8,53.8,0,0,0,.67-5.51c0-.43.07-.86.07-1.28,0-.16,0-.32,0-.47h.31c0,.16.05.31.07.46l.09.7.21,1.38c0,.25.08.51.11.76s.06.54.1.81c.06.45.12.89.19,1.34s.13.9.2,1.34c.15,1,.31,1.93.48,2.9s.34,1.85.56,2.77.53,1.85.85,2.76c.14.38.27.77.41,1.15s.15.47.23.7l.06.17c0,.1.07.21.11.32l.09.32-1.26.34A47.28,47.28,0,0,1,1,36.61a.89.89,0,0,0-.84.61.26.26,0,0,0-.18.25c-.07,2.25,2.11,4.15,3.79,5.31a10.86,10.86,0,0,0,7.59,1.69c4.89-.6,9.5-5.56,9.06-10.59.44-.61,0-1.67-.9-1.44-2.28.61-4.55,1.3-6.83,1.92,0-.1,0-.19,0-.28s0-.41,0-.61c0-.49,0-1-.07-1.46-.08-.91-.24-1.81-.39-2.71s-.32-1.8-.54-2.69-.44-1.93-.67-2.89-.38-1.82-.59-2.72l-.15-.65c-.06-.24-.11-.48-.18-.72-.13-.5-.28-1-.43-1.5s-.33-1.08-.5-1.62h0l.41,0a4.09,4.09,0,0,0,.61-.1,6,6,0,0,0,.85-.28,3.49,3.49,0,0,0,.57-.32,5.69,5.69,0,0,0,1.21-.92,6.5,6.5,0,0,0,.59-.69,4.46,4.46,0,0,0,.43-.77,6,6,0,0,0,.23-.59,2.83,2.83,0,0,0,.11-.31l0-.1.3-.12a19.7,19.7,0,0,1,2.52-.5c.46-.08.91-.17,1.37-.24l1.26-.19c.45-.07.9-.14,1.35-.23s.75-.14,1.13-.18l.18,0c.43,0,.85-.06,1.27-.11s.85-.09,1.27-.12a6.65,6.65,0,0,0,1.47-.25l.32-.08.3-.09c.05.23.08.46.12.69s.08.46.13.69a4.8,4.8,0,0,0,.24.82,2.41,2.41,0,0,0,.27.53,2.92,2.92,0,0,0,.52.64,2.6,2.6,0,0,0,.53.41,3.56,3.56,0,0,0,.58.24,6.77,6.77,0,0,0,.89.21,6.07,6.07,0,0,0,1.28.06,9.72,9.72,0,0,0,1.51-.18l1.14-.23c0,.15-.06.29-.08.44s-.06.45-.08.68c0,.39,0,.78-.06,1.17s0,.9-.07,1.35,0,.8,0,1.21l-.06,1.33c0,.85-.12,1.7-.19,2.55s-.15,1.7-.22,2.56c0,.43-.07.87-.1,1.3s0,.81,0,1.22c0,.67,0,1.34,0,2v.51c0,.05-.1.4-.1.45-.9.19-1.86.9-2.39.67h0a19.32,19.32,0,0,1-4.47.14s0-.17,0-.17-.08-.08-.13-.07a.87.87,0,0,0-.64.56.25.25,0,0,0-.18.25c-.08,2.37,2.23,4.37,4,5.59a11.44,11.44,0,0,0,8,1.79c5.16-.64,10-5.89,9.58-11.2A1,1,0,0,0,46.18,26.93ZM19.64,34.31l.15,0c.18,4.38-3.72,8.47-7.84,9.4a10.18,10.18,0,0,1-7.11-1.07C3.32,41.8,1.33,40.2.77,38.38l.15,0c3.5-.07,6.89-1,10.28-1.8C14,36,16.87,35.15,19.64,34.31Zm14.18-4.83c0-.42.09-.85.11-1.28s0-.83.07-1.25.07-.87.1-1.31,0-.8.07-1.21l.15-2.61c0-.85.08-1.7.08-2.54,0-.43,0-.86,0-1.28s0-.84,0-1.25c0-.6,0-1.2,0-1.8,0,.22,0,.44,0,.66a26.56,26.56,0,0,0,.39,2.82c.08.47.16.93.25,1.4s.21.91.3,1.38.18.86.27,1.29.19.91.28,1.38.18.92.28,1.39.2.9.3,1.35a26.17,26.17,0,0,0,.73,2.73l.09.25c-1.25.35-2.47.68-3.56.93C33.74,30.18,33.79,29.83,33.82,29.48ZM38,38.84a10.81,10.81,0,0,1-7.52-1.12c-1.6-.87-3.7-2.56-4.3-4.48h.16c3.7-.08,7.28-1.08,10.86-1.89,3-.68,6-1.54,8.92-2.43l.16,0C46.44,33.54,42.32,37.87,38,38.84Z"/></g></g></svg>