<svg xmlns="http://www.w3.org/2000/svg" viewBox="0 0 47.65 51.98"><defs><style>.cls-1{fill:#fefefe;}</style></defs><title>pisces</title><g id="Layer_2" data-name="Layer 2"><g id="OBJECTS"><path class="cls-1" d="M38.68,40a0,0,0,0,0,0,0h0Z"/><path class="cls-1" d="M26.34,40h0a.11.11,0,0,0,0,0v0h0l0,0h0Z"/><path class="cls-1" d="M21.45,42.4a1,1,0,0,1-.29.08,3.63,3.63,0,0,1-.57,0c-.22,0-.43,0-.65,0a12,12,0,0,1-1.33-.24l-.42-.1-.28-.08-.3-.08-.37-.11-.32-.11-.27-.1-.5-.22-.49-.23-.5-.25-.27-.15-.21-.13-.07-.06h0a2.42,2.42,0,0,0,.51.45c.18.13.37.27.56.39l.19.12.37.22a3,3,0,0,0,.31.15l.31.14.34.13.36.12.11,0,.24.07.24.06c.33.07.67.14,1,.19a5.93,5.93,0,0,0,.94,0,3.44,3.44,0,0,0,.46,0l.45-.06a1.46,1.46,0,0,0,.44-.16,1.65,1.65,0,0,0,.34-.31h0l-.14.11A.82.82,0,0,1,21.45,42.4Z"/><path class="cls-1" d="M31.06,32.49h0Z"/><path class="cls-1" d="M20.57,18.6a.33.33,0,0,0,.14.12l.21.11.12.05a.18.18,0,0,0,.1,0h.05l.69.29.37.18a3.59,3.59,0,0,1,.34.17l.72.4.36.19.34.17.38.19v.06l0,.17a1,1,0,0,1-.08.14,1.54,1.54,0,0,1-.17.19l-.11.07-.15.08a1.7,1.7,0,0,1-.32.1l-.35.08-.68.14-.39,0c-.14,0-.28,0-.42,0h-.11l-.11,0a.3.3,0,0,0-.16.08.24.24,0,0,0-.07.13.19.19,0,0,0,0,.08.27.27,0,0,0,0,.12.41.41,0,0,0,.15.14l.05,0,.19.11.11.05a.42.42,0,0,0,.15,0l.69.35c.25.13.48.28.72.43l.67.42c.25.15.5.29.77.43s.49.25.74.36a7.68,7.68,0,0,0,.79.32c.26.1.53.17.8.25l.4.11.38.1c.32.06.64.12.95.15l.07.05.46.28c.12.08.24.16.37.23l.28.2.28.2.28.21.28.22.25.21c.18.15.36.3.53.47a5.57,5.57,0,0,1,.46.51,5.19,5.19,0,0,1,.36.46l.15.21-.12.15-.27.33a2.62,2.62,0,0,0-.23.32,1.51,1.51,0,0,0-.14.35c0,.13-.06.26-.09.4s0,.25,0,.38,0,.28,0,.42,0,.27,0,.4a9,9,0,0,0,.16,1h0a.33.33,0,0,0,0,.17v0h0l-.72-.08-.47-.05-.38,0h-.05a0,0,0,0,1,0,0,3,3,0,0,1,0-.6c0-.09,0-.18,0-.28l0-.18a2.36,2.36,0,0,1,.1-.38c.07-.18.15-.35.23-.52a3.84,3.84,0,0,1,.18-.35c.06-.11.14-.22.2-.32a2.61,2.61,0,0,1,.19-.27,4.23,4.23,0,0,1,.33-.41,1.8,1.8,0,0,1,.19-.2l.19-.17.41-.27h0l-.41.16a2.21,2.21,0,0,0-.34.18c-.12.08-.23.17-.34.26a3.45,3.45,0,0,0-.28.26c-.09.1-.19.2-.28.31a1.56,1.56,0,0,0-.16.2.67.67,0,0,0-.12.16c0,.06-.09.13-.14.2l-.09.16-.12.2a3.46,3.46,0,0,0-.23.56,3.58,3.58,0,0,0-.09.35,2,2,0,0,1,0,.24,2.11,2.11,0,0,0,0,.26c0,.13,0,.26,0,.39a.94.94,0,0,0,.06.28.61.61,0,0,0,.07.14l.08.09.09.06a.79.79,0,0,0,.26.08l.19,0,.42,0,.85.1.21,0a.82.82,0,0,0,.31,0,.45.45,0,0,0,.32-.22.72.72,0,0,0,0-.48l0-.11a.67.67,0,0,0-.06-.12,8,8,0,0,1-.25-1c0-.23-.05-.47-.06-.7s0-.24,0-.36,0-.24,0-.37l0-.2a1,1,0,0,1,0-.16,4.66,4.66,0,0,1,.25-.5l.21-.35c.07.1.13.2.19.3s.25.41.37.61l.27.55a9,9,0,0,1,.31.87c.05.15.09.31.13.47s.06.25.08.38l.06.49a2.26,2.26,0,0,1,0,.45,10,10,0,0,1-.14,1.08c0,.19-.08.38-.13.56a3.68,3.68,0,0,1-.15.47,4.28,4.28,0,0,1-.2.43c-.08.14-.16.27-.25.4a5.72,5.72,0,0,1-.55.65l-.37.36-.28.25-.4.24c-.22.13-.44.25-.65.39l-.47.21-.49.19c-.36.12-.72.25-1.07.39l-.94.36c-.32.11-.64.23-1,.32a5.07,5.07,0,0,1-.56.13,3.8,3.8,0,0,1-.58.06h-.19a3.47,3.47,0,0,0,.55.08,4,4,0,0,0,.49,0c.36,0,.71-.09,1.06-.15a7.87,7.87,0,0,0,1.07-.24l.51-.15.54-.19a5.59,5.59,0,0,0,.86-.4l.44-.26c.13-.09.25-.17.37-.27s.44-.34.66-.51l.26-.15.08,0h0l.16-.1h0l.42-.26a.76.76,0,0,1,.09-.09c.09-.09.17-.19.25-.28a4.08,4.08,0,0,0,.25-.33,3,3,0,0,0,.21-.33c.06-.11.12-.22.17-.33a5.25,5.25,0,0,0,.27-.79,6.6,6.6,0,0,0,.17-.77c0-.25.08-.51.1-.76s0-.29,0-.44a.86.86,0,0,0,0-.16,1.48,1.48,0,0,0,0-.21c0-.28-.08-.56-.14-.83s-.14-.51-.22-.76-.08-.25-.13-.38-.12-.28-.18-.42a12.49,12.49,0,0,0-.76-1.32,9.38,9.38,0,0,0-1-1.27L32.11,27,32,27l-.43-.34c-.15-.12-.3-.24-.44-.37A3.07,3.07,0,0,1,30.9,26c-.19-.14-.39-.29-.59-.42a3.28,3.28,0,0,0-.31-.2l-.2-.12h0l.27-.13h0l-.32.12-.12-.07L29.41,25l.17-.1.25-.15a1.63,1.63,0,0,0,.39-.35,4,4,0,0,0,.39-.56,2.91,2.91,0,0,0,.21-.48c.06-.19.1-.38.14-.57A4.74,4.74,0,0,0,31,21.7a5.27,5.27,0,0,0-.13-.81c0-.1-.05-.19-.07-.28l0-.13-.08-.23-.06-.18c0-.11-.09-.23-.14-.34l-.12-.28c-.09-.19-.18-.37-.28-.55s-.19-.36-.3-.54-.22-.38-.32-.57h0c0,.14.08.28.13.42l.15.4.27.78c.05.13.09.26.13.39s.07.26.11.4a1,1,0,0,0,0,.14,2.61,2.61,0,0,0,.06.27s0,.07,0,.11,0,.19,0,.29l0,.11a6.36,6.36,0,0,1,.08.75,5,5,0,0,1,0,.77,4.18,4.18,0,0,1-.21,1,2.72,2.72,0,0,1-.16.35,3.58,3.58,0,0,1-.25.42l-.12.15a1.07,1.07,0,0,1-.19.18l-.14.13-.13.12L29,24.82l-.8-.37q-1.18-.54-2.4-1h0l1.34.85,1.34.82L27.92,25l-.58-.2-.64-.23h0l-.17-.06-.37-.16-.4-.18c-.26-.11-.5-.23-.75-.36l-.71-.41-.72-.46c-.24-.16-.49-.32-.75-.47l-.38-.21-.29-.15h.09A5.69,5.69,0,0,0,23,22l.35-.06.44-.06a1.94,1.94,0,0,0,.45-.14l.17-.09a1.84,1.84,0,0,0,.22-.17l.12-.13.1-.14A1.09,1.09,0,0,0,24.9,21a1.12,1.12,0,0,0,.08-.26,1.15,1.15,0,0,0,0-.19.61.61,0,0,0,0-.19,1.36,1.36,0,0,0-.11-.44,1.63,1.63,0,0,0-.11-.23,1.91,1.91,0,0,0-.24-.32,2.33,2.33,0,0,0-.32-.31,3,3,0,0,0-.44-.28l-.41-.21a4.62,4.62,0,0,0-.47-.19h0l.22.15a4.71,4.71,0,0,1,.41.35,3.5,3.5,0,0,1,.39.38,3,3,0,0,1,.36.56,2.4,2.4,0,0,1,.12.38,1.15,1.15,0,0,1,0,.19L24,20.18l-.66-.43c-.22-.16-.43-.31-.66-.46L22,18.88c-.21-.12-.43-.23-.65-.33l-.05-.05a.61.61,0,0,0-.14-.07l.6-.2.78-.26.76-.26.18-.06.2-.06.21-.06.22,0,.65-.11.4-.05.41,0,.43,0h.43l.42,0,.42,0,.55-.06.59.06h.12l.26,0,.31.06.58.12,1.2.24.46.14.47.13.47.12.44.13c.19.08.38.17.58.24h0l-.17,0a6.86,6.86,0,0,0-.9-.09h-.87l-.19,0-.33-.18-.56-.3a4.31,4.31,0,0,0-.49-.22h0l.16.1h0c.14.1.28.2.41.31l.33.25a2.34,2.34,0,0,1,.31.24,1.87,1.87,0,0,1,.47.55,4.5,4.5,0,0,1,.25.41l.12.32c0,.07.05.14.07.2l.09.27s0,.06,0,.09,0,.12,0,.18l.12.47c0,.09,0,.18,0,.26s.06.26.08.39,0,.44.07.67a6.65,6.65,0,0,1,0,.89,3.35,3.35,0,0,1-.08.54,3.68,3.68,0,0,1-.15.57c-.07.17-.14.34-.22.51h0c.11-.14.21-.27.31-.42a3,3,0,0,0,.28-.53,4.22,4.22,0,0,0,.29-1.11c0-.24,0-.48,0-.72a4.89,4.89,0,0,0-.08-.85c-.06-.28-.12-.56-.2-.83a2.17,2.17,0,0,0-.07-.24l-.07-.18a1.45,1.45,0,0,0-.09-.22c0-.07-.07-.15-.1-.23s-.14-.26-.22-.38-.18-.22-.27-.33a1.79,1.79,0,0,0-.27-.28s0,0,0,0h0l.56.16a4.42,4.42,0,0,1,.52.14l.53.18c.46.18.91.39,1.36.59l.31.12h.13l.1,0a2.81,2.81,0,0,1,.49.16c.15.07.3.13.44.21l.07,0,.23.1.17.14a3.52,3.52,0,0,1,.37.27,3.45,3.45,0,0,1,.28.26l.09.06.3.23.32.29.33.31h0L37.48,21h0l-.28-.35.11.07a1.87,1.87,0,0,1,.3.26l.33.34c.23.24.46.46.69.69l.34.32.35.3a9.35,9.35,0,0,1,.69.72,1.47,1.47,0,0,0,.1.13c0,.07.1.14.14.21s.16.25.23.38.27.48.38.72.25.56.37.84.25.57.36.86.11.3.15.46.08.31.11.46c0,.36.09.71.14,1.07l.18,1.1c.06.4.12.79.17,1.19,0,.19.05.38.07.57s0,.35.05.53,0,.16,0,.24v.18c0,.11,0,.23,0,.34a9.5,9.5,0,0,1-.15,1.07,8.83,8.83,0,0,1-.28,1l-.26.66a6.08,6.08,0,0,1-.33.68c-.11.22-.22.44-.35.65s-.26.41-.4.61l-.24.32c-.09.12-.19.25-.29.36s-.42.46-.64.68-.44.44-.67.65l-.67.57a15.78,15.78,0,0,1-1.36,1,12.1,12.1,0,0,1-1.52.78l-.51.2-.55.2c-.18.06-.36.13-.54.18l-.57.16c-.36.09-.72.17-1.08.23l-.55.09-.55.1-.66.1c-.36.05-.72.08-1.08.12s-.75.06-1.13.11-.69.09-1,.17a6.73,6.73,0,0,0-1,.32l-.5.22a4,4,0,0,0-.49.29,3.19,3.19,0,0,0-.42.3l-.22.18-.2.22a8.58,8.58,0,0,0-.69.9c-.09.15-.16.3-.24.45s-.17.3-.25.46l-.12.23a2.49,2.49,0,0,0-.11.29,1.59,1.59,0,0,0-.07.2L22.5,48c-.08.2-.15.4-.24.6s-.17.39-.27.59-.24.39-.37.58l-.27.38c-.08.11-.16.23-.23.35a5.63,5.63,0,0,1-.78.84,2.74,2.74,0,0,1-.46.29h0l-.42.18,0-.21.41-.38.22-.22.21-.24.15-.2.24-.34.27-.43.08-.13.15-.27.07-.13.09-.17.14-.28.06-.13c.07-.15.13-.31.2-.47l.14-.33c0-.12.09-.25.14-.37.1-.28.2-.55.29-.83l.15-.48c.05-.14.09-.28.13-.42l.21-.76a1.17,1.17,0,0,1,.05-.2h0c.05-.07.12-.13.17-.2l.18-.18.23-.2.34-.26.42-.28h0l-.33.17-.14.07L23.6,44a3.35,3.35,0,0,0-.44.29,4.62,4.62,0,0,0-.41.34,1.8,1.8,0,0,1-.2.19l-.29.29-.05.06-.15.16-.14.16-.05.05-.26.33a.76.76,0,0,1-.08.11l-.08.12-.2.3,0,0a.25.25,0,0,1,0,.07l-.12.21a.64.64,0,0,1-.08.14l0,.08-.19.38c0,.09-.08.17-.11.26l-.11.26c-.06.13-.11.27-.16.4l-.09.31c-.06.19-.12.39-.17.59s-.09.31-.13.46,0,.13-.05.19-.05.15-.08.23h0s0,0,0,0v0c-.06.17-.13.33-.19.49l-.09.22-.08.17a.28.28,0,0,1,0-.09v0l0,0a.89.89,0,0,1,.08-.17h0l-.09.16a0,0,0,0,1,0,0,.81.81,0,0,0,0-.16,1.23,1.23,0,0,0,0-.2L19.4,50c0-.12,0-.25,0-.38s0-.26,0-.39,0-.24,0-.37a7,7,0,0,1,0-1.12,5.42,5.42,0,0,1,.19-.87,7.11,7.11,0,0,1,.33-.75l.22-.38c.08-.12.16-.24.23-.36l.17-.22c.08-.1.16-.21.25-.31l.22-.26.24-.26.33-.33c.09-.09.18-.16.27-.24s.36-.31.54-.47l.32-.27.39-.27.33-.22a6.08,6.08,0,0,1,.64-.39l.25-.14.14-.07.44-.22.67-.32.25-.12h0l.07,0h0L25,41.5l-.36.11c-.12,0-.25.07-.36.12l-.49.17-.12.06-.28.12-.35.18-.18.09-.15.09-.34.22c-.14.09-.27.19-.4.29l-.36.3a1.71,1.71,0,0,0-.2.18l-.32.17h0l-.13,0a1.49,1.49,0,0,1-.3.09,3.48,3.48,0,0,1-.79,0,4.1,4.1,0,0,1-.61-.11l-.3-.08-.32-.1-.28-.1-.23-.1-.24-.12-.18-.09-.23-.12-.23-.13-.15-.09-.07,0-.38-.26c-.34-.24-.67-.49-1-.76s-.66-.57-1-.88l-.35-.39-.43-.54-.22-.3-.21-.29h0a.42.42,0,0,0,0-.1.27.27,0,0,0-.07-.08.24.24,0,0,0-.06-.08h.12c.4,0,.79.11,1.18.18l.07,0,.53.25.27.12.34.15.57.23.18.07.39.15.18.06.39.13.18.06.38.11.17,0,.06,0,.31.07.35.08h0l.15,0,.42.07.11,0h0l.4,0,.18,0h.07L21,41h1.13l.27,0h.13l.13,0a3.5,3.5,0,0,0,.56-.13l.27-.1.26-.14h0a2.06,2.06,0,0,1-.26.12h0a2.09,2.09,0,0,1-.35.13,2.83,2.83,0,0,1-.4.08l-.22,0-.2,0-.19,0H21l-.6,0-.65-.09-.18,0-.42-.08-.17,0-.38-.1-.27-.07-.08,0L18,40.41l-.37-.11-.19-.06-.38-.13L16.92,40l-.46-.16-.29-.11-.25-.1-.57-.22-.56-.23,0,0,.25,0,.29,0,.35,0,.34,0c.21,0,.42,0,.64,0a6.08,6.08,0,0,0,.61,0l.7,0h2q.61,0,1.23,0l.36,0,.3,0,.31,0,1.32.14.63.06.65,0,.77,0h.45l-.32-.06h.15l.41,0a3.08,3.08,0,0,0,.43,0l.42,0,.41-.06a5.08,5.08,0,0,0,.52-.15l.23-.08.32-.12h0l-.56.11c-.17,0-.35,0-.53.06l-.5,0H25.32l-.53,0-.31-.08h0l-.05,0h0l-.06,0h0l-.26-.07-.27,0h0l.13,0-.12,0-1.24-.21-.4-.06-.32,0-.68,0c-.87,0-1.74,0-2.61,0H17.3l-.67,0-.27,0-.3,0-.35,0-.32,0-.29,0-.61-.1-.66-.11-.31,0a1.79,1.79,0,0,0-.4,0,.6.6,0,0,0-.22.06.3.3,0,0,0-.16.22.11.11,0,0,0,0,.08.5.5,0,0,0,0,.13l.07.11.08.1.09.12a.19.19,0,0,0,.06.07l.05,0c.25.32.5.65.76,1s.28.32.43.46l.45.42c.16.15.33.29.5.43s.33.28.51.41l.53.38c.18.13.37.25.56.37h0c.16.1.33.19.5.28l.29.14.19.08.12.05.33.12.34.1c.21.06.42.09.62.13a2,2,0,0,0,.34,0l.42,0,.38,0a2.34,2.34,0,0,0,.38-.09,2.07,2.07,0,0,0,.52-.3l-.07.07-.26.24-.29.29-.55.65-.27.37c-.09.12-.18.25-.26.38a5.38,5.38,0,0,0-.39.7,6.32,6.32,0,0,0-.32.82c0,.13-.06.25-.08.37a3.78,3.78,0,0,0-.06.47,5.08,5.08,0,0,0,0,.78,2.57,2.57,0,0,0,.05.4l.06.41c0,.13.05.25.08.38s.07.24.1.36l.12.38c0,.13.07.26.1.39s0,.08,0,.12h0c0,.15.05.3.06.45s0,.2,0,.29l-.12,0h0l.12,0a1.37,1.37,0,0,1,0,.19h0c0-.06,0-.13,0-.2l.44-.12a2.86,2.86,0,0,0,.47-.22,2.65,2.65,0,0,0,.42-.33,3.51,3.51,0,0,0,.41-.37c.12-.13.22-.27.33-.4s.25-.29.36-.44a3.21,3.21,0,0,0,.34-.48,4.76,4.76,0,0,0,.24-.45c.11-.25.21-.5.31-.76s.23-.56.33-.84A2.6,2.6,0,0,1,23.3,47c.06-.13.15-.25.22-.38s.16-.25.23-.38.16-.27.24-.39a6.12,6.12,0,0,1,.4-.49,3.78,3.78,0,0,1,.48-.5A5.28,5.28,0,0,1,26,44.14a8.39,8.39,0,0,1,.84-.3c.31-.09.61-.16.93-.22l.5-.08.52-.07.55-.08.56-.07c.19,0,.38,0,.57-.09l.54-.1.53-.11c.37-.06.75-.13,1.12-.21s.73-.16,1.09-.27l1.08-.38.54-.2.54-.24c.35-.16.7-.33,1-.52A13.54,13.54,0,0,0,38.67,40l0,0q.45-.36.87-.75c.15-.13.29-.27.43-.41l.4-.39a9.31,9.31,0,0,0,.74-.92c.12-.16.23-.32.34-.49s.21-.33.31-.5.18-.35.27-.52.17-.34.24-.51a9,9,0,0,0,.41-1.13c0-.18.1-.36.14-.55s.08-.42.11-.62A5.91,5.91,0,0,0,43.05,32c0-.16,0-.33,0-.49a3.88,3.88,0,0,0,.31.26l.05,0a1.14,1.14,0,0,0,.3.13,1.42,1.42,0,0,0,.41.08,2.26,2.26,0,0,0,.45,0h0a6.63,6.63,0,0,1-1-.29l-.07,0L43,31.5c0-.23,0-.46-.07-.7s-.1-.72-.16-1.08-.13-.79-.18-1.19-.09-.72-.14-1.08-.08-.42-.13-.63a4.68,4.68,0,0,0-.17-.53l-.2-.54c-.06-.12-.11-.25-.17-.37l.6.21a6.32,6.32,0,0,0,2.49.15l.41-.07.16,0a1.31,1.31,0,0,0,.37-.15h0l-.2,0-.2,0h-.16l-.19,0-.25,0-.76-.1-.86-.07-.78,0q-.34,0-.69,0h0l-.22-.52c-.08-.19-.17-.37-.26-.56s-.18-.33-.27-.49-.18-.32-.28-.47l-.08-.11,0,0a2.82,2.82,0,0,0,.48.19,6.19,6.19,0,0,0,.62.13,1.13,1.13,0,0,0,.18,0l.23,0,.43,0h.88a7.42,7.42,0,0,0,.84-.1,5.07,5.07,0,0,0,.56-.13c.19-.05.37-.11.56-.18.38-.13.76-.29,1.13-.45h0l-1.62.29-.38,0-.45,0-.82,0c-.26,0-.52,0-.79,0h-.86l-.63,0a2.16,2.16,0,0,1-.44-.1h0a3.11,3.11,0,0,0-.23-.28c-.13-.15-.27-.3-.41-.44l-.41-.38-.21-.19h0c.22,0,.45.09.67.12l.8.11.34,0,.34,0,.74,0h.39L43,22l.29,0,.27-.05h.11l.4-.09.13,0,.23-.06.31-.1.36-.14a2.88,2.88,0,0,0,.31-.13l.34-.18h0l-.43.13-.42.11-.48.09-.39.06-.4,0-.33,0-.3,0H41.42l-.32,0-1.08,0-.55,0-.42,0c-.26-.26-.51-.52-.76-.79l-.17-.18q.35.12.69.21a7.08,7.08,0,0,0,.8.16,6.17,6.17,0,0,0,.74.07h.59l.4,0,.16,0,.31,0,.47-.07.9-.17h0l-.61,0,.2,0,.74-.14c.48-.09,1-.17,1.44-.28l.41-.09.43-.12.42-.12.34-.09h0s0,0,0,0a.83.83,0,0,1,.06.21,2.44,2.44,0,0,1,.06.26,2,2,0,0,1,.07.26c0,.09.05.18.07.26.08.34.16.67.22,1a4.76,4.76,0,0,1,.07.84,4.7,4.7,0,0,1-.13.63l-.21.68a4.88,4.88,0,0,0-.2.65c0,.24-.08.48-.13.71s-.1.45-.14.68a2.32,2.32,0,0,0-.06.38,2.16,2.16,0,0,0,0,.36.89.89,0,0,0,0,.22,1.62,1.62,0,0,0,0,.19c0,.12.06.23.1.35s.08.23.12.34l.12.36a1.38,1.38,0,0,1,.08.27.57.57,0,0,1,0,.13l0,.11a1.55,1.55,0,0,1-.12.22c-.14.18-.29.34-.44.51a4.28,4.28,0,0,0-.45.58,3.11,3.11,0,0,0-.32.63,1.73,1.73,0,0,0-.11.37,1.93,1.93,0,0,0,0,.41,3.31,3.31,0,0,0,.05.55c0,.2,0,.4.07.6l0,.59a4.19,4.19,0,0,1,0,.61,1.43,1.43,0,0,1,0,.29l-.1.34a3.13,3.13,0,0,1-.15.32l-.06.06-.06,0H45a1.59,1.59,0,0,1-.26-.14l-.12-.07-.06,0-.08,0-.11-.07-.12-.07L44,34.16c-.34-.22-.68-.42-1-.63h0l.3.25.3.22.28.23.3.24.12.09.08.07.07.07.07.06.07.06.16.12.08.05.11.06a.42.42,0,0,0,.45-.1,1,1,0,0,0,.25-.34,3,3,0,0,0,.24-.71,2.45,2.45,0,0,0,0-.38,2.17,2.17,0,0,0,0-.36c0-.12,0-.23,0-.35s0-.25,0-.37-.05-.46-.08-.69a2.82,2.82,0,0,1,0-.58,1.29,1.29,0,0,1,0-.19,1.8,1.8,0,0,1,0-.19,4.14,4.14,0,0,1,.38-.72c.13-.17.27-.33.42-.5a3.66,3.66,0,0,0,.46-.58,1.59,1.59,0,0,0,.12-.27,1.64,1.64,0,0,0,0-.22.83.83,0,0,0,0-.22,2.07,2.07,0,0,0-.1-.33c0-.13-.08-.24-.12-.36s-.08-.23-.11-.35-.07-.25-.09-.38a3.67,3.67,0,0,1,0-.46c0-.21.08-.42.12-.62s.11-.46.15-.7l.06-.35a3.58,3.58,0,0,1,.09-.35c.07-.22.15-.43.22-.64s.07-.23.1-.35l.09-.33a2.72,2.72,0,0,0,.06-.7,4.7,4.7,0,0,0-.1-.74c0-.23-.09-.46-.15-.68l-.09-.33c0-.12-.07-.23-.1-.35s-.06-.22-.1-.33a.75.75,0,0,0,0-.16,1.19,1.19,0,0,0-.08-.2.56.56,0,0,0-.16-.21l-.13-.07-.13,0h-.13a2.41,2.41,0,0,0-.37.07l-.71.17c-.47.12-1,.21-1.44.29l-.73.13-.36.08-.34.08-.89.29a4.42,4.42,0,0,1-.48.15l-.11,0-.42,0-.83,0-1.69-.08-.19-.18a3.16,3.16,0,0,0-.27-.2l-.26-.16a9.11,9.11,0,0,0-1-.51,5.94,5.94,0,0,0-.74-.28s0,0,0,0c-.19-.15-.39-.29-.59-.42s-.39-.25-.6-.37L33.77,18l-.64-.33-.3-.15-.3-.12c-.21-.09-.41-.17-.62-.24L31.27,17l-.4-.1h0l-.14,0-.15,0-1.3-.38h0c.18.07.37.14.54.22l.24.09-.9-.12c-.28,0-.56,0-.84-.05s-.53,0-.79,0l-.82,0c-.28,0-.56,0-.83,0l-.83.1-.92.16-.42.09a3.59,3.59,0,0,0-.39.12l-.37.13-.39.15c-.25.1-.49.19-.74.27l-.77.28a.92.92,0,0,0-.23.09l-.15.07a.35.35,0,0,0-.14.13A.32.32,0,0,0,20.57,18.6ZM19.49,51.21a1.93,1.93,0,0,0,0-.24l0,0a.43.43,0,0,0,0-.07s.05-.1.08-.14l.08-.15c0-.1.09-.2.14-.3a1.17,1.17,0,0,0,.05-.11L20,50l.12-.29c.07-.21.14-.41.22-.61l.13-.37.13-.34,0-.08a1.22,1.22,0,0,0,.07-.17c.05-.09.08-.19.13-.28l.18-.38.12-.23.1-.21.05-.09.19-.32.07-.14a.22.22,0,0,0,.05-.08,4,4,0,0,0,.22-.34l.2-.27.1-.12a.18.18,0,0,1,.05-.07l.27-.34.17-.2.19-.21.08-.09-.27.72c-.1.24-.19.49-.28.73L22,47c-.05.14-.11.28-.17.41s-.13.31-.2.47l-.16.37-.14.32c-.08.16-.15.32-.22.49l-.06.1c0,.09-.09.18-.14.27a1.51,1.51,0,0,1-.11.22c-.08.13-.15.27-.22.4l-.14.24-.12.19-.15.22a10.42,10.42,0,0,1-.67.82C19.48,51.44,19.49,51.32,19.49,51.21Zm27.1-31.5ZM30.51,16.89l.86.3.62.26.6.3.63.35.56.33.22.13-.13,0-.21-.07a4.1,4.1,0,0,1-.48-.21,4.67,4.67,0,0,0-.49-.27l-.13,0-.13-.05-.29-.1-.52-.18-.27-.11L31,17.37c-.19-.07-.39-.11-.58-.16l-.59-.14L29.37,17h.08Z"/><path class="cls-1" d="M28.12,19.89c-.12,0-.24,0-.35-.06a3.31,3.31,0,0,1-.42-.12l-.24-.12a2.65,2.65,0,0,1-.34-.33,1.27,1.27,0,0,1-.13-.19l0-.1v0l.05,0,0,0h.22a2.36,2.36,0,0,1,.46.1l.22.11.09.09a.64.64,0,0,1,.08.14.3.3,0,0,1,0,.1v.06a.08.08,0,0,1,0,0l0,0,0,0-.08,0h-.07l-.12,0a1.69,1.69,0,0,1-.32-.19h0a.92.92,0,0,0,.47.36.4.4,0,0,0,.3,0,.34.34,0,0,0,.15-.33.65.65,0,0,0,0-.19.72.72,0,0,0-.09-.2.69.69,0,0,0-.16-.18,1.2,1.2,0,0,0-.27-.19,2.86,2.86,0,0,0-.41-.15,1.61,1.61,0,0,0-.44-.06.56.56,0,0,0-.26.07.62.62,0,0,0-.22.17.55.55,0,0,0,0,.59,1.11,1.11,0,0,0,.33.44,2.23,2.23,0,0,0,.24.19l.07,0A.87.87,0,0,0,27,20a1.29,1.29,0,0,0,.28.08,1.27,1.27,0,0,0,.28,0h.26l.29,0a2,2,0,0,0,.53-.15l.13-.06h0A2.26,2.26,0,0,1,28.12,19.89Z"/><path class="cls-1" d="M44,29.31l-.51-.13-.24-.05L42.88,29h0l.31.16.23.1.51.17a4,4,0,0,0,.5.08,3.46,3.46,0,0,0,.56,0h0a4.56,4.56,0,0,1-.53-.13Z"/><path class="cls-1" d="M46.05,27.91c-.26-.05-.52-.09-.77-.15l-.37-.1-.37-.11-.72-.22-.39-.1-.24-.07a4.56,4.56,0,0,1-.52-.18h0a2.72,2.72,0,0,0,.38.29h0l.25.14.4.17a4.71,4.71,0,0,0,.75.25l.37.07.23,0h.17a5.76,5.76,0,0,0,.83,0Z"/><path class="cls-1" d="M37.7,34.53a.49.49,0,0,0,.27.06h.23a.58.58,0,0,0,.29-.09,1.56,1.56,0,0,0,.2-.16l.19-.19c.06-.06.11-.14.17-.21a1.55,1.55,0,0,0,.12-.22,2.25,2.25,0,0,0,.08-.24.61.61,0,0,0,0-.13.34.34,0,0,0,0-.14,4.51,4.51,0,0,0,.07-.53,3.25,3.25,0,0,0,0-.54,5.58,5.58,0,0,0-.08-.57c0-.17-.07-.34-.11-.51s-.08-.36-.13-.54-.1-.36-.15-.54l-.18-.52c-.06-.16-.12-.33-.19-.49a4.23,4.23,0,0,0-.23-.48A4.43,4.43,0,0,0,38,28a3,3,0,0,0-.33-.4l-.43-.38h0l.26.28.06.06c0,.14.09.27.14.4a4.27,4.27,0,0,1,.13.48,3.62,3.62,0,0,1,0,.47,2.69,2.69,0,0,1,0,.4l-.09.72c0,.23-.07.46-.11.69s-.06.49-.11.72l-.15.72c0,.14-.06.28-.1.42a3,3,0,0,1-.11.32,1.3,1.3,0,0,1-.08.17l0,0a.39.39,0,0,0-.06.11,1.09,1.09,0,0,1-.08.15,1.71,1.71,0,0,1-.13.23l-.09.09-.08,0-.1.07-.09.09s0,.06,0,.09v.08a.16.16,0,0,0,.07.09h0l.09,0a.78.78,0,0,0,.22,0h.6l.22,0,.73.11h0l-.56-.19-.25-.07-.28,0-.21,0h-.25l.16-.07a.73.73,0,0,0,.22-.18l.18-.23.07-.11a.19.19,0,0,0,0-.1.08.08,0,0,0,0,0,2.76,2.76,0,0,0,.29-.66c.07-.24.12-.48.17-.72a10.76,10.76,0,0,0,.17-1.5q0-.34,0-.69a5.14,5.14,0,0,0,0-.68c0-.12,0-.23-.05-.35a1.57,1.57,0,0,0-.06-.28,2.34,2.34,0,0,0-.09-.24,3.24,3.24,0,0,0-.17-.32,2.12,2.12,0,0,0-.11-.21l.09.11a3.3,3.3,0,0,1,.26.39c.08.14.15.29.22.44a1.89,1.89,0,0,1,.09.21c0,.09.07.18.09.26s.12.38.18.57.18.68.25,1,.09.44.13.66.07.41.11.62a2.45,2.45,0,0,1,0,.27,2.35,2.35,0,0,1,0,.27c0,.16,0,.33,0,.5l0,.17s0,0,0,0,0,0,0,0,0,.07,0,.1a2.37,2.37,0,0,1-.09.36,2.8,2.8,0,0,1-.27.43,1.73,1.73,0,0,1-.23.24l-.09,0-.07,0h-.08l-.19,0a.38.38,0,0,1-.15,0l-.08,0-.12-.05-.13,0h0l0,0h0l.09,0Z"/><path class="cls-1" d="M37.67,33.68h0l.07,0,.07-.09a.24.24,0,0,0,.06-.08,1.7,1.7,0,0,1,.1-.14l.15-.29a5,5,0,0,0,.26-.64,1.67,1.67,0,0,0,.08-.32c0-.12,0-.24,0-.37s0-.22,0-.33,0-.24,0-.36a3.16,3.16,0,0,0-.13-.53h0a2.53,2.53,0,0,1,0,.28,1.93,1.93,0,0,1,0,.24l0,.49a2.07,2.07,0,0,1,0,.22,2.38,2.38,0,0,1,0,.26c0,.08,0,.16,0,.23s-.05.18-.07.26l-.15.47c0,.16-.1.32-.16.48l0,.07a.54.54,0,0,1-.07.13l0,.06Z"/><path class="cls-1" d="M36.8,26.94h0s0-.08,0-.13h0Z"/><path class="cls-1" d="M33.86,22.35a1,1,0,0,0,0,.17h0l0-.16Z"/><path class="cls-1" d="M40.39,35l-.08.05h0l.08-.05Z"/><path class="cls-1" d="M9,12H9Z"/><path class="cls-1" d="M21.3,12h0s0,0,0,.06,0,0,0,0h0l0,0h0Z"/><path class="cls-1" d="M26.2,9.58a1.38,1.38,0,0,1,.29-.08,2.72,2.72,0,0,1,.57,0l.65,0A10.36,10.36,0,0,1,29,9.76l.42.1.27.07L30,10l.38.12.32.1.27.1.5.22.49.23.49.25.27.15a1.64,1.64,0,0,1,.22.14l.07,0h0a3.1,3.1,0,0,0-.51-.45L32,10.53l-.18-.11a3.72,3.72,0,0,0-.38-.22L31.1,10l-.31-.13-.34-.14-.36-.12-.11,0-.24-.07-.25-.06c-.33-.07-.66-.14-1-.19a7.5,7.5,0,0,0-.94-.05l-.46,0-.45.06a1.54,1.54,0,0,0-.44.16,1.26,1.26,0,0,0-.34.31h0L26,9.7A1.32,1.32,0,0,1,26.2,9.58Z"/><path class="cls-1" d="M16.59,19.5h0Z"/><path class="cls-1" d="M27.08,33.38a.53.53,0,0,0-.14-.12l-.22-.11-.11,0-.1,0h-.06l-.68-.28-.38-.18-.34-.17-.72-.4-.35-.2-.35-.17-.38-.19v-.05a.85.85,0,0,1,0-.17,1,1,0,0,1,.07-.15,1.62,1.62,0,0,1,.18-.19l.11-.07.15-.08.31-.1.35-.08.69-.14.39,0c.14,0,.28,0,.41,0h.12l.11,0a.35.35,0,0,0,.16-.08.27.27,0,0,0,.07-.13.19.19,0,0,0,0-.08.25.25,0,0,0,0-.11.32.32,0,0,0-.14-.14l0,0-.2-.1-.1-.06a.4.4,0,0,0-.15,0l-.7-.36c-.24-.13-.48-.27-.71-.42l-.67-.43c-.25-.15-.51-.29-.77-.43s-.49-.25-.74-.36-.53-.23-.79-.32l-.8-.25-.4-.11c-.13,0-.26-.07-.39-.09-.31-.07-.63-.12-.95-.16l-.07,0-.45-.29-.37-.23-.28-.19-.28-.2-.29-.22-.27-.22-.25-.2c-.18-.16-.37-.31-.54-.48s-.31-.33-.46-.5l-.36-.47c0-.07-.1-.14-.14-.21l.12-.15.27-.32a3.62,3.62,0,0,0,.22-.32,1.61,1.61,0,0,0,.15-.36,2.7,2.7,0,0,0,.08-.39c0-.13,0-.26,0-.39s0-.28,0-.41a2.81,2.81,0,0,0,0-.41,7.17,7.17,0,0,0-.15-1h0a.33.33,0,0,0,0-.17.11.11,0,0,0,0-.05h0l.73.07.46.05.39,0h0v0a4,4,0,0,1,0,.6,2.7,2.7,0,0,1,0,.28l0,.19a2.26,2.26,0,0,1-.11.37c-.06.18-.15.35-.22.53a3.72,3.72,0,0,1-.19.34c-.05.11-.13.22-.19.33l-.19.27a4.39,4.39,0,0,1-.33.4l-.19.2-.19.17a3,3,0,0,1-.42.27h0a2.86,2.86,0,0,0,.41-.15l.34-.19c.12-.08.23-.17.34-.26l.29-.26.28-.3.16-.2.12-.17.14-.19.09-.17a1.28,1.28,0,0,0,.11-.2,2.7,2.7,0,0,0,.24-.55,2.49,2.49,0,0,0,.08-.35,2,2,0,0,0,0-.24,1.23,1.23,0,0,0,0-.27,2.54,2.54,0,0,0,0-.39.92.92,0,0,0-.05-.28.5.5,0,0,0-.08-.14.27.27,0,0,0-.07-.08l-.09-.07a.87.87,0,0,0-.26-.08l-.2,0-.41,0-.86-.1-.2,0a.81.81,0,0,0-.31,0,.46.46,0,0,0-.32.22.72.72,0,0,0,0,.48s0,.07,0,.11a.29.29,0,0,0,.07.12c.09.32.18.64.24,1a5.51,5.51,0,0,1,.07.71c0,.11,0,.23,0,.35s0,.25,0,.37a1.42,1.42,0,0,1,0,.2.94.94,0,0,1,0,.16,3,3,0,0,1-.26.5c-.07.12-.14.24-.2.36l-.2-.31-.36-.61c-.1-.18-.19-.36-.28-.55a6.74,6.74,0,0,1-.3-.86,4.27,4.27,0,0,1-.13-.48,2.45,2.45,0,0,1-.08-.37,4.36,4.36,0,0,1-.06-.49,2.36,2.36,0,0,1,0-.46c0-.36.08-.72.15-1.07,0-.19.08-.38.13-.57a3.68,3.68,0,0,1,.15-.47,2.39,2.39,0,0,1,.2-.43c.07-.14.16-.27.24-.4a6.86,6.86,0,0,1,.56-.65l.36-.35L15.7,15l.4-.24c.22-.13.44-.25.65-.39l.46-.2a3,3,0,0,1,.5-.19c.36-.13.72-.25,1.07-.4l.93-.35c.32-.12.64-.23,1-.33a5.66,5.66,0,0,1,.56-.13,3.8,3.8,0,0,1,.59-.06H22a5,5,0,0,0-.56-.09,2.57,2.57,0,0,0-.48,0c-.36,0-.72.08-1.07.14a9.73,9.73,0,0,0-1.07.24c-.17,0-.33.1-.5.15s-.37.12-.54.19a5.18,5.18,0,0,0-.86.4l-.44.26-.38.27-.65.51L15.2,15l-.08.05h0l-.16.1h0l-.41.27-.09.09c-.09.08-.17.18-.26.27a4.08,4.08,0,0,0-.25.33c-.07.11-.14.22-.2.33s-.12.22-.17.33a5.66,5.66,0,0,0-.27.79,6.76,6.76,0,0,0-.17.78c-.05.25-.08.5-.11.75a3.37,3.37,0,0,0,0,.44,1,1,0,0,0,0,.17c0,.06,0,.13,0,.2a6.13,6.13,0,0,0,.14.84c.06.25.14.51.22.76s.08.25.13.37a3.79,3.79,0,0,0,.18.42,14.41,14.41,0,0,0,.75,1.32,10.33,10.33,0,0,0,1,1.28l.08.08.09.07.43.33c.15.12.3.24.44.37l.26.25c.19.14.39.29.59.42l.3.21.2.11h0l-.27.13h0l.33-.11.12.07.22.12-.16.09-.25.15a1.92,1.92,0,0,0-.39.36,3.78,3.78,0,0,0-.4.56,2.55,2.55,0,0,0-.2.48,5.12,5.12,0,0,0-.15.56,4.82,4.82,0,0,0-.07,1.14,4.55,4.55,0,0,0,.13.81l.06.27a.65.65,0,0,1,0,.13,1.55,1.55,0,0,0,.08.23,1.21,1.21,0,0,0,0,.18,3.65,3.65,0,0,1,.14.35c0,.09.09.18.13.28s.18.37.28.55.19.36.29.53l.33.57h0c0-.14-.09-.28-.14-.41s-.1-.27-.14-.4-.19-.53-.28-.79l-.12-.38c0-.14-.08-.27-.11-.4a1,1,0,0,1,0-.14l-.06-.28a.36.36,0,0,1,0-.1l-.06-.3a.36.36,0,0,0,0-.1c0-.25-.06-.51-.08-.76a6.66,6.66,0,0,1,0-.77,4.47,4.47,0,0,1,.2-1c.05-.12.11-.24.17-.36a3.09,3.09,0,0,1,.25-.42,1.58,1.58,0,0,1,.12-.15,1.53,1.53,0,0,1,.18-.18l.15-.13.13-.12.38.2.79.37c.8.35,1.6.69,2.41,1h0l-1.34-.85-1.33-.82.52.15.59.2.63.23h0l.16.06.38.16.4.18c.25.11.5.24.74.37l.72.4.71.46c.25.16.5.32.76.47l.37.21a2.69,2.69,0,0,1,.29.16h-.08a5.51,5.51,0,0,0-.71.08l-.35,0c-.15,0-.3,0-.44.06a2.15,2.15,0,0,0-.45.14l-.17.09a1.3,1.3,0,0,0-.23.18.63.63,0,0,0-.11.12l-.11.15a1,1,0,0,0-.15.4c0,.06,0,.13,0,.19s0,.13,0,.2a1.7,1.7,0,0,0,.11.43l.12.24a1.78,1.78,0,0,0,.24.32,1.83,1.83,0,0,0,.32.3,2.44,2.44,0,0,0,.43.28l.41.21.48.2h0a1.5,1.5,0,0,1-.23-.15l-.4-.34a4.68,4.68,0,0,1-.39-.38,2.87,2.87,0,0,1-.36-.57,1.6,1.6,0,0,1-.12-.37c0-.07,0-.13,0-.19l.37.24.65.44.66.45c.24.15.47.29.71.42l.65.32.05,0,.14.08-.59.19L25.1,34l-.75.26-.19.06a.66.66,0,0,1-.2.06l-.21.06-.21,0c-.22,0-.44.08-.66.11l-.39.06-.42,0-.43,0h-.42l-.43,0-.41,0-.55.06-.6-.07h-.12a2.13,2.13,0,0,1-.25,0l-.32-.05c-.19,0-.38-.09-.58-.12l-1.19-.25-.46-.13a4.19,4.19,0,0,0-.47-.14L15.37,34a3.19,3.19,0,0,1-.44-.13c-.2-.07-.38-.17-.58-.24h0l.18,0a6.54,6.54,0,0,0,.89.09h1.07l.32.19.57.29a5.11,5.11,0,0,0,.48.22h0l-.15-.1h0l-.42-.3L17,33.79l-.3-.25a2.91,2.91,0,0,1-.27-.24L16.17,33a3.38,3.38,0,0,1-.24-.41c0-.11-.09-.22-.13-.32s-.05-.13-.07-.2a2.76,2.76,0,0,0-.08-.27s0-.05,0-.08,0-.13-.05-.19-.07-.31-.11-.46l-.06-.27c0-.13-.05-.26-.08-.38s0-.45-.06-.67a6.59,6.59,0,0,1,0-.89c0-.19.05-.37.08-.55a4,4,0,0,1,.16-.57c.06-.17.14-.34.21-.5h0c-.1.13-.21.27-.3.41a3.39,3.39,0,0,0-.29.53,4.64,4.64,0,0,0-.28,1.11,5.79,5.79,0,0,0,0,.72,4.08,4.08,0,0,0,.08.85,6.39,6.39,0,0,0,.2.84c0,.07,0,.15.07.23l.06.19.09.21.11.23a2.08,2.08,0,0,0,.22.38,2.78,2.78,0,0,0,.27.33,2.33,2.33,0,0,0,.26.28l0,0h0c-.19-.06-.37-.11-.56-.15a5.26,5.26,0,0,1-.53-.15c-.18,0-.35-.12-.53-.18-.46-.18-.9-.39-1.35-.58l-.31-.13h-.14l-.1,0a3.11,3.11,0,0,1-.49-.16,3.42,3.42,0,0,1-.43-.21l-.07,0-.23-.1-.18-.14a2.89,2.89,0,0,1-.37-.27l-.27-.26-.09-.06a3.4,3.4,0,0,1-.3-.23l-.33-.29c-.11-.1-.22-.2-.32-.31h0c.21.25.41.5.62.74h0c.1.11.19.23.28.35l-.11-.07A3.48,3.48,0,0,1,10,31l-.33-.34L9,30l-.35-.33-.35-.3Q8,29,7.64,28.64l-.09-.13L7.4,28.3c-.08-.12-.15-.25-.23-.38s-.26-.47-.38-.72-.24-.56-.37-.84-.25-.56-.35-.85S6,25.2,5.92,25s-.08-.3-.11-.46l-.15-1.07c0-.37-.11-.73-.17-1.1l-.18-1.19c0-.19,0-.37-.07-.56s0-.36,0-.54,0-.16,0-.24V19.7c0-.11,0-.22,0-.34,0-.36.09-.71.16-1.07a7.61,7.61,0,0,1,.28-1c.08-.22.17-.44.26-.66s.21-.45.32-.68.23-.44.36-.65.26-.41.4-.6.15-.22.23-.32.19-.25.3-.37.42-.45.64-.67a8.2,8.2,0,0,1,.67-.65l.67-.58a16.38,16.38,0,0,1,1.36-.94,10.37,10.37,0,0,1,1.52-.78c.16-.07.33-.14.51-.2s.36-.15.55-.21L14,9.76l.56-.16,1.08-.23.55-.09.56-.09.65-.11C17.72,9,18.08,9,18.44,9s.76-.06,1.14-.11a8.85,8.85,0,0,0,1-.17,7.21,7.21,0,0,0,1-.31l.5-.23.49-.28a3.19,3.19,0,0,0,.42-.3,1.9,1.9,0,0,0,.21-.19l.2-.22a7.41,7.41,0,0,0,.69-.9c.09-.15.17-.3.25-.45l.25-.45c0-.08.07-.16.11-.23s.08-.2.12-.3,0-.13.07-.2.15-.39.22-.58.16-.41.25-.61.17-.39.27-.59.23-.39.36-.58l.28-.38.23-.34A4.75,4.75,0,0,1,27.3.7a2.34,2.34,0,0,1,.47-.3h0l.41-.17c0,.06,0,.13,0,.2l-.42.39L27.54,1l-.21.25-.15.2c-.08.11-.17.22-.24.33s-.19.29-.28.43a.83.83,0,0,1-.07.13l-.15.27-.08.14a.89.89,0,0,0-.08.17,2.44,2.44,0,0,0-.14.28l-.06.12c-.07.16-.14.31-.2.47s-.1.22-.14.33-.1.25-.14.37c-.1.28-.21.55-.29.83s-.11.32-.16.48L25,6.26,24.82,7c0,.06,0,.13-.05.19h0l-.18.19-.17.18-.24.21-.34.25-.42.28h0l.34-.17.14-.07L24.05,8a4.17,4.17,0,0,0,.44-.29c.14-.11.27-.23.4-.35a1.8,1.8,0,0,0,.2-.19,4,4,0,0,0,.29-.29l.06,0a2.09,2.09,0,0,0,.14-.17l.15-.16,0,0L26,6.13l.08-.1.08-.13.21-.29s0,0,0,0a.3.3,0,0,0,0-.08l.12-.21a1,1,0,0,0,.08-.14l0-.08.18-.38A2.06,2.06,0,0,0,27,4.43a2,2,0,0,0,.11-.26l.15-.39c0-.11.07-.21.1-.31s.12-.4.17-.59.08-.31.13-.47a1.8,1.8,0,0,1,.05-.19c0-.07.05-.15.07-.23h0V2c.06-.16.12-.33.19-.49a2,2,0,0,1,.09-.22,1.3,1.3,0,0,1,.08-.17v.12a0,0,0,0,1,0,0c0,.06-.05.12-.08.17h0l.08-.17s0,0,0,0a.76.76,0,0,1,0,.15l0,.21.06.38c0,.13,0,.25,0,.38l0,.39c0,.12,0,.25,0,.37a8.38,8.38,0,0,1,0,1.12,5,5,0,0,1-.18.87c-.1.26-.21.51-.33.76s-.15.25-.23.37-.15.24-.23.36l-.16.22c-.08.11-.17.21-.25.31a2.85,2.85,0,0,1-.23.26,2.85,2.85,0,0,1-.23.26c-.11.12-.22.23-.34.34l-.26.23-.54.47L25,8.93l-.38.27-.34.23c-.21.13-.41.27-.63.39l-.26.13-.13.07-.44.22-.67.33-.25.11h0l-.07,0h0c.29-.06.57-.15.85-.23l.37-.11.36-.11.48-.18L24,10l.27-.13a3.84,3.84,0,0,0,.35-.18l.18-.09L25,9.54a4.05,4.05,0,0,0,.35-.21c.13-.1.27-.19.4-.3l.36-.29.2-.18.31-.17h0l.12-.06A1.09,1.09,0,0,1,27,8.25a3,3,0,0,1,.79,0,3,3,0,0,1,.6.11l.3.08.33.09.28.1.23.1.24.12.18.09.22.12.24.13.14.09.08.05.38.25c.34.25.67.49,1,.76s.66.58,1,.89c.13.12.24.25.36.38l.43.54.22.3c.07.1.14.19.2.29h0a.42.42,0,0,0,0,.1l.06.09.06.08h-.12c-.39-.05-.78-.12-1.17-.19l-.08,0-.52-.25-.28-.13-.33-.14L31.3,12,31.12,12l-.39-.14-.18-.07-.4-.13L30,11.55l-.38-.1-.17,0-.06,0-.32-.07-.35-.08h0l-.15,0-.42-.06-.11,0h-.06l-.4,0-.18,0h-.07l-.64,0H25.5l-.28,0-.12,0H25a3.9,3.9,0,0,0-.57.13l-.26.11-.26.13h0l.25-.12h0l.36-.13.4-.08.22,0,.19,0,.19,0h1.19l.59,0,.66.08.18,0,.41.08.18,0,.37.09.28.07.08,0,.18.06.36.11a1.06,1.06,0,0,1,.19.06l.39.13.17.06.47.17.28.1.26.1.56.22.57.24,0,0-.26,0-.28,0-.35,0-.34,0-.64,0-.61,0-.71,0h-2l-1.23,0-.36,0-.3,0-.3,0c-.44-.06-.88-.11-1.33-.15l-.62-.06-.65,0-.77,0h-.45l.32.07-.16,0-.41,0a3.05,3.05,0,0,0-.43,0l-.41,0a2.7,2.7,0,0,0-.41,0,5.26,5.26,0,0,0-.53.15l-.22.08-.32.12h0l.57-.1.53-.07.5,0,.54,0h1l.53,0,.31.09h.12l.27.08.27,0h0l-.14,0,.13,0,1.24.22.4,0,.32,0,.67,0c.88,0,1.75,0,2.62,0h1.27L31,13l.26,0,.31,0,.35,0,.32,0,.29,0,.6.1.67.11.3,0a1.88,1.88,0,0,0,.41,0,.51.51,0,0,0,.21-.06.29.29,0,0,0,.16-.22.22.22,0,0,0,0-.08.29.29,0,0,0,0-.13.36.36,0,0,0-.07-.1l-.07-.11-.09-.12s0,0-.06-.06l-.06-.05c-.25-.32-.49-.65-.76-1a6,6,0,0,0-.42-.46l-.45-.42-.5-.43c-.17-.13-.33-.27-.51-.4l-.53-.39-.56-.37h0a4.82,4.82,0,0,0-.5-.27L30,8.65l-.18-.08-.13-.05c-.11,0-.21-.09-.32-.12L29,8.3l-.62-.13L28,8.12H27.6l-.38,0a1.53,1.53,0,0,0-.37.08,2.33,2.33,0,0,0-.53.3l.08-.07.25-.24.29-.29c.19-.21.38-.42.55-.65l.28-.36L28,6.52a4.7,4.7,0,0,0,.39-.69A6.45,6.45,0,0,0,28.74,5c0-.12.06-.24.08-.37a2.42,2.42,0,0,0,.05-.47,5.08,5.08,0,0,0,0-.78c0-.14,0-.27-.05-.4s0-.28-.07-.41,0-.25-.08-.37-.06-.25-.1-.37l-.12-.38c0-.13-.06-.26-.09-.39a.5.5,0,0,1,0-.12V1c0-.16,0-.31-.07-.46l0-.29.11,0h0l-.12,0a1.23,1.23,0,0,0,0-.19h0V.2l-.44.13a2,2,0,0,0-.47.22,2.18,2.18,0,0,0-.43.32,4.73,4.73,0,0,0-.4.37c-.12.13-.23.27-.34.41l-.36.43q-.18.24-.33.48a4.92,4.92,0,0,0-.24.45c-.12.25-.22.5-.32.76l-.33.84a3.12,3.12,0,0,1-.18.42c-.07.13-.15.26-.23.38s-.15.26-.23.38-.15.27-.23.4-.26.33-.4.49a4.43,4.43,0,0,1-.48.49,5.35,5.35,0,0,1-1.13.67,6.34,6.34,0,0,1-.83.3c-.31.09-.62.16-.93.22l-.5.08-.52.07-.56.08-.55.07-.57.09-.55.11-.52.1c-.38.06-.75.13-1.13.21s-.73.16-1.08.27l-1.08.38-.54.21c-.19.07-.36.15-.54.23a10.16,10.16,0,0,0-1,.53A11.94,11.94,0,0,0,9,12l0,0c-.29.24-.59.49-.87.75l-.42.41c-.13.13-.27.26-.4.4a9.55,9.55,0,0,0-.75.91L6.17,15c-.11.17-.22.33-.32.5L5.58,16c-.09.17-.16.34-.24.51a11.68,11.68,0,0,0-.4,1.13,5.12,5.12,0,0,0-.15.56c0,.2-.08.41-.11.62A6.63,6.63,0,0,0,4.59,20c0,.16,0,.33,0,.49a2.51,2.51,0,0,0-.32-.25l0,0A1.51,1.51,0,0,0,4,20,2,2,0,0,0,3.56,20a2.34,2.34,0,0,0-.46,0h0a9.25,9.25,0,0,1,1,.29l.07,0,.46.21c0,.23,0,.47.07.7s.1.72.16,1.08.13.79.18,1.19.09.72.14,1.08c0,.21.08.42.13.63a3.74,3.74,0,0,0,.17.54c.06.18.13.35.2.53s.11.25.16.38l-.59-.22a5.55,5.55,0,0,0-.81-.17,5.31,5.31,0,0,0-.89,0c-.27,0-.53,0-.79.06l-.41.07-.16,0a1.26,1.26,0,0,0-.38.15H2a.61.61,0,0,1,.19,0h.17l.19,0,.25,0,.76.1c.28,0,.57.06.86.07l.78,0q.35,0,.69,0h0c.08.17.15.35.23.52a5.69,5.69,0,0,0,.26.56,4.67,4.67,0,0,0,.27.49c.09.16.18.32.28.47l.07.11H7a1.93,1.93,0,0,0-.47-.19,6.21,6.21,0,0,0-.62-.14l-.18,0-.23,0-.44,0c-.15,0-.31,0-.46,0H4.18a8,8,0,0,0-.84.11,5.05,5.05,0,0,0-.56.12l-.55.18c-.38.14-.76.29-1.13.46h0l1.61-.29L3.1,29l.45,0,.82-.05c.26,0,.52,0,.78,0H6l.62,0a2.42,2.42,0,0,1,.45.1h0a3.22,3.22,0,0,0,.24.28,5.62,5.62,0,0,0,.41.44,4.86,4.86,0,0,0,.41.38l.21.19h0l-.68-.12-.79-.11-.34,0-.34,0q-.37,0-.75,0H5.09l-.42,0-.29,0-.27,0-.11,0-.41.09-.12,0-.23.07-.31.1-.37.13-.3.14a3.59,3.59,0,0,0-.34.17h0l.43-.14.42-.11.48-.08.39-.07.39,0c.11,0,.23,0,.34,0l.29,0H5.75l.48,0h.32l1.07,0,.56,0,.42,0c.26.25.51.52.76.79a1.37,1.37,0,0,0,.17.17c-.23-.07-.46-.15-.69-.21A7.73,7.73,0,0,0,8,31.12l-.74-.07H6.7l-.4,0H6.15l-.31,0-.48.08-.89.16h0l.6,0-.2.05-.74.14c-.48.08-1,.16-1.43.27l-.41.1-.43.11-.42.12a2.3,2.3,0,0,1-.35.1h0l0,0L1,32l-.06-.26c0-.08,0-.17-.07-.26l-.06-.26c-.09-.33-.16-.67-.22-1a3.33,3.33,0,0,1-.07-.84,3.5,3.5,0,0,1,.12-.63c.07-.22.14-.45.22-.67a5.53,5.53,0,0,0,.2-.66c.05-.23.08-.47.13-.71s.1-.45.14-.68l.06-.37c0-.13,0-.25,0-.37l0-.21c0-.07,0-.13,0-.2l-.1-.34-.12-.35a3.82,3.82,0,0,1-.13-.36,1.11,1.11,0,0,1-.07-.26.71.71,0,0,1,0-.14.17.17,0,0,1,0-.1A1,1,0,0,1,1,23.11a5.24,5.24,0,0,1,.44-.5A6.55,6.55,0,0,0,1.9,22a3.11,3.11,0,0,0,.32-.63A2.26,2.26,0,0,0,2.33,21a2.73,2.73,0,0,0,0-.41,3.31,3.31,0,0,0-.06-.55c0-.2,0-.4-.06-.59s0-.4,0-.6,0-.4,0-.61a2.7,2.7,0,0,1,0-.28,3.57,3.57,0,0,1,.1-.35,1.48,1.48,0,0,1,.15-.31l.06-.07.05,0h.07l.26.14.11.07.07.05.08,0,.11.07.11.08.26.16,1,.63h0l-.3-.24L4.11,18l-.28-.22-.29-.25-.12-.09-.08-.06a.27.27,0,0,1-.07-.08l-.08-.06-.06-.06L3,17,2.88,17a.31.31,0,0,0-.1,0,.42.42,0,0,0-.46.09,1.16,1.16,0,0,0-.24.34,3.16,3.16,0,0,0-.25.71c0,.13,0,.26,0,.39s0,.24,0,.36,0,.23,0,.34,0,.25,0,.38.05.45.08.68a2.82,2.82,0,0,1,0,.58.58.58,0,0,1,0,.19l-.06.19a4.14,4.14,0,0,1-.38.72c-.13.17-.27.34-.41.5A3.8,3.8,0,0,0,.55,23a2,2,0,0,0-.11.26,1.22,1.22,0,0,0,0,.44c0,.12.07.23.1.34s.08.24.13.36.08.23.11.34l.09.39a2.33,2.33,0,0,1,0,.46c0,.2-.07.41-.11.61s-.11.47-.15.7l-.06.36c0,.11-.06.23-.1.34s-.14.43-.21.65-.07.23-.11.34-.06.22-.08.33a3.33,3.33,0,0,0-.07.7c0,.25.06.5.1.74s.1.46.16.69,0,.21.08.32.07.24.11.35l.09.33c0,.06,0,.11,0,.16a1.19,1.19,0,0,0,.08.2.47.47,0,0,0,.16.21.27.27,0,0,0,.13.07l.13,0h.13a2.29,2.29,0,0,0,.36-.07l.72-.17c.47-.12,1-.21,1.43-.29l.74-.13L4.83,32l.33-.08.9-.29c.16-.05.31-.11.47-.15l.12,0,.42,0,.83,0,1.69.09.18.17.27.2.27.16c.33.19.68.36,1,.52s.49.19.74.27l0,0c.2.15.39.29.6.43l.59.36c.19.11.39.2.58.3l.65.32.3.15.3.13.62.24c.21.07.42.13.64.18l.39.1h0l.14,0,.15,0,1.3.37h0l-.55-.21-.23-.1c.29,0,.6.08.89.12s.57,0,.85,0,.52,0,.78,0l.83,0c.27,0,.55,0,.83,0l.83-.1.91-.16A3,3,0,0,0,23.9,35l.39-.12.36-.13.4-.15.73-.27.78-.27.23-.09.15-.08a.44.44,0,0,0,.14-.13A.32.32,0,0,0,27.08,33.38ZM28.15.78V1l0,0a.25.25,0,0,0,0,.07L28,1.27l-.07.14c-.05.1-.1.2-.14.3l-.06.12a.5.5,0,0,0,0,.13,2.52,2.52,0,0,0-.12.29c-.08.2-.15.4-.22.6s-.09.25-.14.37l-.12.34,0,.08c0,.06-.05.12-.08.17l-.12.28-.18.38-.12.23a2.12,2.12,0,0,1-.11.21l0,.09-.19.33s-.05.08-.07.13l-.06.08c-.07.11-.14.23-.22.34l-.19.27a1.13,1.13,0,0,0-.1.13l0,.06-.27.34-.18.21-.18.2-.08.1.27-.73c.09-.24.18-.49.28-.73s.2-.52.31-.78.11-.28.17-.41.14-.31.2-.46.11-.25.16-.37a3.13,3.13,0,0,1,.15-.32c.07-.17.15-.33.22-.49a.54.54,0,0,0,.05-.11c.05-.09.1-.18.14-.27l.12-.22c.07-.13.15-.26.22-.4s.09-.15.14-.23l.12-.2a1.43,1.43,0,0,1,.15-.22,10.42,10.42,0,0,1,.67-.82C28.16.55,28.16.66,28.15.78ZM1.06,32.27Zm16.07,2.82-.86-.3a6.57,6.57,0,0,1-.61-.26l-.6-.3c-.22-.11-.42-.23-.63-.35l-.56-.32-.23-.14.14,0,.21.07a3.41,3.41,0,0,1,.48.22c.16.09.32.18.49.26l.13.05.13,0,.28.1.53.19.27.1.32.12a5.72,5.72,0,0,0,.59.17l.59.13.48.11H18.2Z"/><path class="cls-1" d="M19.53,32.09a2.17,2.17,0,0,1,.35.07,3.25,3.25,0,0,1,.42.11,1,1,0,0,1,.23.12,2.73,2.73,0,0,1,.35.33.76.76,0,0,1,.12.19.42.42,0,0,1,0,.1v0h0l0,0h-.26a2.36,2.36,0,0,1-.46-.1L20,32.88,20,32.8l-.09-.15,0-.09v-.07l0,0,0,0,.05,0,.08,0h.07l.12,0a1.69,1.69,0,0,1,.32.19h0a1,1,0,0,0-.47-.36.44.44,0,0,0-.3,0,.36.36,0,0,0-.16.33,1.77,1.77,0,0,0,0,.2.88.88,0,0,0,.09.2c0,.06.11.12.16.18a1.67,1.67,0,0,0,.28.18,2.17,2.17,0,0,0,.4.15,1.67,1.67,0,0,0,.44.06.6.6,0,0,0,.27-.07.72.72,0,0,0,.22-.17.59.59,0,0,0,0-.59,1.41,1.41,0,0,0-.33-.44l-.24-.19-.07,0a1.24,1.24,0,0,0-.2-.1,1.38,1.38,0,0,0-.27-.08l-.28,0a2.26,2.26,0,0,0-.26,0l-.29,0a2.55,2.55,0,0,0-.54.15l-.12.06h0A2.79,2.79,0,0,1,19.53,32.09Z"/><path class="cls-1" d="M3.66,22.67l.51.13.24.06.36.09h0l-.32-.17-.23-.1a4.16,4.16,0,0,0-.5-.16,4.37,4.37,0,0,0-.5-.09,3.54,3.54,0,0,0-.56,0h0a5.11,5.11,0,0,1,.53.13Z"/><path class="cls-1" d="M1.6,24.07l.77.15.37.1.36.12.73.21.39.11.23.06A5.52,5.52,0,0,1,5,25H5a3.37,3.37,0,0,0-.38-.28h0l-.25-.13L4,24.4a4.71,4.71,0,0,0-.75-.25l-.37-.06a.91.91,0,0,0-.23,0l-.18,0a7.49,7.49,0,0,0-.82,0Z"/><path class="cls-1" d="M10,17.46a.52.52,0,0,0-.27-.07H9.44a.6.6,0,0,0-.29.08l-.2.16-.18.19L8.6,18a.94.94,0,0,0-.12.22,1.17,1.17,0,0,0-.09.24l0,.13a.66.66,0,0,0,0,.14,4.81,4.81,0,0,0-.07.53,4.86,4.86,0,0,0,0,.54,4.85,4.85,0,0,0,.09.57c0,.17.07.34.1.51s.08.36.13.55.1.36.16.54.11.34.17.51.13.33.2.49a4.23,4.23,0,0,0,.23.48c.09.16.18.31.28.46a4.12,4.12,0,0,0,.33.4l.44.39h0l-.27-.28-.06-.06L10,24a4.27,4.27,0,0,1-.13-.48,2.36,2.36,0,0,1,0-.46c0-.14,0-.27,0-.41s.07-.48.1-.72.07-.46.1-.69.07-.48.11-.72.1-.48.16-.72l.09-.41a1.85,1.85,0,0,1,.12-.33.77.77,0,0,1,.07-.16l0,0a.41.41,0,0,0,.07-.11l.07-.15a1.76,1.76,0,0,1,.14-.23l.09-.08.08-.05.1-.07a.34.34,0,0,0,.08-.09.41.41,0,0,0,0-.09v-.08a.16.16,0,0,0-.07-.09h0l-.08,0a.87.87,0,0,0-.22-.05c-.13,0-.26,0-.39,0H10.3l-.22,0-.73-.11h0c.18.07.37.14.55.19l.26.07.28,0,.21,0h.19l.06,0a.44.44,0,0,0-.16.06.55.55,0,0,0-.22.18,2,2,0,0,0-.18.23l-.08.11a.37.37,0,0,0,0,.11s0,0,0,0a2.43,2.43,0,0,0-.28.66c-.07.23-.12.47-.17.71a10.76,10.76,0,0,0-.17,1.5c0,.23,0,.46,0,.69s0,.46,0,.69,0,.22,0,.34l.06.28a2.44,2.44,0,0,0,.1.24l.16.33a2,2,0,0,1,.11.2l-.09-.11a2.59,2.59,0,0,1-.25-.39c-.08-.14-.16-.29-.23-.44l-.09-.21-.09-.26c-.06-.19-.12-.37-.17-.56-.1-.34-.18-.69-.26-1l-.12-.66c0-.21-.08-.42-.11-.62l0-.27c0-.09,0-.18,0-.27a4.36,4.36,0,0,1,0-.51.88.88,0,0,0,0-.17.08.08,0,0,0,0,0l0-.05s0-.07,0-.1a1.4,1.4,0,0,1,.1-.35A2.09,2.09,0,0,1,9,17.85a2.62,2.62,0,0,1,.22-.25l.09-.05.08,0h.08l.18,0h.16l.08,0,.12,0,.13,0h0l0,0h0l-.09,0Z"/><path class="cls-1" d="M10,18.3h0l-.06.05-.08.08-.06.08-.09.15L9.53,19a6,6,0,0,0-.27.63c0,.11-.06.22-.08.33s0,.24,0,.36,0,.22,0,.33,0,.24,0,.36a4.56,4.56,0,0,0,.13.53h0a2.44,2.44,0,0,0,0-.27,2.08,2.08,0,0,1,0-.25c0-.16,0-.32,0-.48l0-.23L9.4,20a1.89,1.89,0,0,1,0-.23,2.5,2.5,0,0,1,.07-.26c0-.16.1-.31.15-.47s.1-.32.16-.48l0-.07a.54.54,0,0,1,.07-.13l0-.06Z"/><path class="cls-1" d="M10.84,25.05h0s0,.08,0,.12h0A.56.56,0,0,1,10.84,25.05Z"/><path class="cls-1" d="M13.79,29.63l0-.17h0c0,.05,0,.11,0,.16Z"/><path class="cls-1" d="M7.26,17l.08,0h0l-.08,0Z"/></g></g></svg>