<svg xmlns="http://www.w3.org/2000/svg" viewBox="0 0 39.61 47.35"><defs><style>.cls-1{fill:#fefefe;}</style></defs><title>saggitarius</title><g id="Layer_2" data-name="Layer 2"><g id="OBJECTS"><polygon class="cls-1" points="25.56 45.23 25.57 45.23 25.57 45.24 25.56 45.23"/><polygon class="cls-1" points="25.57 45.24 25.57 45.24 25.57 45.24 25.57 45.24"/><path class="cls-1" d="M27.32,11.92l.05,0v0Z"/><path class="cls-1" d="M15.71,25.12Z"/><path class="cls-1" d="M33.81,21.15h0Z"/><path class="cls-1" d="M39.48,21.9a.6.6,0,0,0-.16-.08h-.06l-.1,0-.33-.06-.19,0h-.1a.4.4,0,0,0-.19,0L38,21.65l-.4-.06-.82-.1c-.14,0-.28,0-.42-.06L36,21.37l-.86-.09-.64-.08-.64-.05h-.27l-.35,0-.46,0h0c.32.11.63.2.95.28l.9.25c.27.09.54.17.82.24l.86.21h-.54l-.65.05.09,0h-.56c-.21,0-.42,0-.63,0l-.64,0-.31,0h-.2l-.07,0-.07,0-.52.06-.35,0-1,.14-.2,0a.28.28,0,0,0,0-.09c-.05-.32-.11-.65-.16-1s-.1-.63-.14-1l0-.14a2.26,2.26,0,0,1,0-.26c0-.59-.08-1.18-.16-1.77s-.14-1.18-.2-1.77c0-.19-.05-.38-.08-.57s-.11-.46-.17-.69c0,0,0,.05,0,.07-.05-.19-.11-.37-.18-.56a3.92,3.92,0,0,0-.29-.53s-.05-.08-.07-.13A.74.74,0,0,0,29,14l-.29-.44-.19-.26L28.3,13c-.14-.17-.28-.34-.43-.5s-.33-.35-.5-.53l-.64-.63-.6-.56-.31-.31-.33-.32c-.18-.17-.37-.34-.55-.53s-.38-.39-.56-.59-.39-.45-.57-.68c-.38-.48-.77-1-1.14-1.45a14.27,14.27,0,0,1-.88-1.31c-.19-.34-.35-.67-.51-1A6.7,6.7,0,0,1,20.9,3.5c-.08-.32-.14-.65-.19-1s-.06-.35-.08-.53a3.55,3.55,0,0,1,0-.46,3.08,3.08,0,0,1,.06-.61A1.83,1.83,0,0,1,20.8.6a5.3,5.3,0,0,1,.46-.6h0l-.43.26-.28.22L20.4.67a2.72,2.72,0,0,0-.36.88,4.41,4.41,0,0,0-.11.88c0,.3,0,.59,0,.88-.14.16-.26.32-.39.49a3.13,3.13,0,0,0-.2.3l-.2.31-.35.64c-.11.2-.22.4-.32.6s-.12.21-.17.32-.09.21-.14.31-.21.46-.32.7l-.15.33c-.06.11-.12.21-.17.32l-.12.24c0,.07-.07.15-.1.23s-.14.31-.22.47L16.83,9c-.08.16-.17.31-.26.46s-.22.37-.34.55l-.38.64L15,12.1q-.37.62-.78,1.23c-.28.41-.56.83-.83,1.26s-.54.86-.82,1.29-.54.83-.81,1.25-.55.83-.83,1.24l-.4.59-.44.63c-.27.41-.56.81-.84,1.21l-.42.62-.22.3c-.07.1-.13.21-.2.3L8,22.63c-.15.2-.3.41-.44.62s-.27.4-.4.61l-.38.61-.22.38c-.15.25-.3.5-.46.74L5.86,26c-.06.09-.12.18-.17.27L5.25,26l-.36-.11-.18-.06a1.3,1.3,0,0,0-.21,0h0a3.11,3.11,0,0,1,.28.23l.29.21.41.27-.09.14-.2.39L5,27.5,5,27.64l-.12,0-.3-.3h0a3.38,3.38,0,0,0-.35-.31,2.88,2.88,0,0,0-.35-.26A7,7,0,0,0,3,26.33a1.08,1.08,0,0,0-.3-.11h0l.1.12.11.11a5.22,5.22,0,0,0,.48.46,3.76,3.76,0,0,0,.59.39l.12.07,0,0a5.16,5.16,0,0,0,.67.32l-.2,0-.38.06-.36.06-.34.05L3.12,28,2.75,28l-.44.09h0q-.3.06-.6.15a3.69,3.69,0,0,0-.7-.61,4.3,4.3,0,0,0-.48-.24c-.16-.08-.32-.14-.49-.21H0a4.35,4.35,0,0,0,.79.69,4.31,4.31,0,0,0,.47.26l.29.13-.43.12-.52.16-.25.1-.12,0-.16.07H.26l.19,0,.39,0,.38,0,.39,0L2,28.62c.14,0,.28,0,.42-.06l.4-.07.21,0-.27.34a3.67,3.67,0,0,0-.34.53,2.6,2.6,0,0,0-.21.55,2.13,2.13,0,0,1-.08.27.42.42,0,0,0,0,.12.88.88,0,0,0,0,.16h0a1.26,1.26,0,0,0,.24-.22,3.31,3.31,0,0,0,.6-.84,2.88,2.88,0,0,0,.18-.49,1.65,1.65,0,0,0,0-.44l.1,0,.12,0,.32-.07.42-.09.39-.11.39-.1L5,28l.74.41.19.13.2.15,0,0c-.07.16-.12.32-.18.49a.41.41,0,0,0,0,.09.5.5,0,0,1,0,.13,2,2,0,0,1-.05.24.19.19,0,0,1,0,.07h0l.23-.17.09-.08a.41.41,0,0,0,.1-.13,4.33,4.33,0,0,0,.27-.37l.67.5.78.61.73.58.71.6.7.59.74.59.34.25.36.25.79.56.41.28.39.28.69.57.74.62.68.57c.25.21.49.43.73.65l.67.63.67.63.65.62.71.68.67.64.68.64c.28.27.58.52.87.78s.56.51.82.78.36.37.55.54l.56.53c.17.17.35.32.53.48l.31.26.27.22a.1.1,0,0,0,0,.05.46.46,0,0,0,.07.07l.12.11.24.22.26.22.23.22a3.88,3.88,0,0,0,.42.39c.14.12.3.21.43.33h0a2.5,2.5,0,0,0-.22-.24h0c-.12-.13-.24-.26-.34-.39l-.16-.2-.16-.21c-.11-.13-.23-.26-.34-.4s-.11-.13-.17-.2l-.09-.1-.11-.1L24,43.4l-.47-.48c-.19-.19-.38-.38-.56-.58l-.65-.64c-.43-.44-.87-.86-1.33-1.27-.23-.21-.46-.41-.68-.63l-.67-.64-1.34-1.3-.62-.61-.72-.69-.67-.63-.36-.33-.35-.32-.67-.57c-.24-.22-.49-.43-.74-.64s-.45-.38-.68-.55-.54-.39-.81-.58-.49-.33-.73-.5l-.76-.55c-.5-.38-1-.79-1.45-1.2-.23-.2-.46-.39-.71-.58s-.5-.37-.76-.54c-.49-.34-1-.64-1.5-.93,0-.09.09-.19.13-.29A4.88,4.88,0,0,0,7,27.81c0-.17.11-.33.17-.5a.19.19,0,0,0,.1,0h.07l1.09-.2,2-.41.83-.17.8-.16.83-.17.88-.18h0l.94-.2,1-.21c.31-.07.63-.13.95-.18l.95-.17c.69-.12,1.38-.25,2.08-.36s1.3-.2,1.95-.28l.52-.06.44-.05.33,0,.6-.07,1-.16,1-.16.94-.14c.33,0,.65-.1,1-.16l1-.16.92-.16.36-.05c.06.5.13,1,.2,1.51s.16,1.28.27,1.91c0,.2.07.4.12.59s.1.4.15.6l.09.37a2.6,2.6,0,0,1,.05.39l.09.81c.05.51.1,1,.1,1.54a2,2,0,0,1-.06.49c0,.16-.06.32-.1.48s-.07.2-.11.3l-.18.45c-.11.25-.24.5-.37.75s-.32.57-.47.85-.29.55-.44.82-.31.58-.46.88l-.22.46c-.07.13-.13.27-.2.41s-.26.58-.38.88-.25.57-.38.85-.25.57-.37.85-.27.58-.38.87a7.84,7.84,0,0,0-.33,1c-.08.31-.12.63-.17.94a7.32,7.32,0,0,0-.12.94A3.43,3.43,0,0,0,26,44a4.42,4.42,0,0,0,.1.5,5.54,5.54,0,0,0,.33,1l.43.83a3.32,3.32,0,0,0,.57.91.38.38,0,0,0,.36.13.44.44,0,0,0,.27-.32,1,1,0,0,0,0-.3c0-.1,0-.2,0-.3h0c-.05.15-.09.29-.13.44a.61.61,0,0,1-.05.12l-.05.07-.07.05,0,0h0l0,0,0,0a2.1,2.1,0,0,1-.15-.42c0-.1,0-.2,0-.3s0-.22,0-.33a3,3,0,0,1,0-.31c0-.12,0-.24-.05-.36a4.48,4.48,0,0,1-.06-.63c0-.24,0-.49,0-.73a4.78,4.78,0,0,1,.06-.53,5.81,5.81,0,0,1,.09-.58c.06-.35.13-.71.22-1.06s.21-.56.32-.83.14-.28.21-.42.13-.28.2-.41c.14-.29.28-.57.43-.84s.29-.56.42-.84.28-.56.43-.84.15-.28.23-.42.15-.3.23-.44c.16-.29.31-.58.48-.87s.28-.55.42-.83.22-.46.32-.69.16-.42.23-.64a5,5,0,0,0,.2-.85c0-.11,0-.22,0-.33s0-.11,0-.16a1.62,1.62,0,0,0,0-.22c0-.12,0-.25,0-.38a4.34,4.34,0,0,0,0-.51c0-.15,0-.3-.05-.45,0-.31-.09-.63-.14-.94s-.09-.58-.13-.88-.06-.61-.12-.91l-.09-.44c0-.15-.07-.31-.1-.47s-.11-.63-.15-.95c-.08-.62-.14-1.25-.22-1.88,0-.32-.07-.65-.11-1a1.23,1.23,0,0,0,0-.19l.35-.06c.31-.06.63-.13.94-.21h0c.48-.07,1-.12,1.45-.16l.89,0a8.48,8.48,0,0,0,.87-.06,8.52,8.52,0,0,1,.87-.08l.66,0c-.28.1-.55.22-.83.35l-.39.18-.38.16c-.44.18-.87.39-1.3.6h0l.53-.13.69-.14.36-.06a2.6,2.6,0,0,0,.4-.1c.51-.13,1-.28,1.53-.4l.42-.1.4-.11.41-.1.4-.12a1.85,1.85,0,0,0,.44-.18l0,0a.31.31,0,0,0,.09-.11.32.32,0,0,0,0-.16A.34.34,0,0,0,39.48,21.9ZM5.28,27.12h0a5.39,5.39,0,0,1,.33-.5l0,0a4.2,4.2,0,0,0,1.3.46l-.22.05c-.32.09-.62.21-.93.32l-.15.06-.11,0h-.1l-.12,0L5,27.63Zm1.5.54a5.27,5.27,0,0,0-.31.46q-.08.14-.15.3h0c-.08-.05-.16-.08-.24-.12a1.36,1.36,0,0,0-.21-.1c-.13-.06-.27-.09-.41-.14L5.05,28l.22-.06.18-.05.09,0,.1,0c.26-.06.52-.15.77-.23l.31-.09L7,27.36l.11,0A2.05,2.05,0,0,0,6.78,27.66ZM29,22.77l-.92.17-.94.18-1.95.33c-.65.11-1.3.24-1.95.34l-2,.31-1,.16-1,.17-.94.18-1.05.19-.7.14c-.28.06-.56.11-.83.18l-.92.2-.38.09h0l-.93.21-.69.14-.75.16c-.48.11-1,.2-1.45.3h0c-1.19.26-2.37.54-3.54.86A7.54,7.54,0,0,0,6,26.37l-.13-.07,0,0c.08-.1.16-.19.23-.29.3-.39.6-.79.87-1.2l.43-.6c.13-.19.28-.38.41-.58L8.25,23l.46-.59.47-.63c.14-.19.28-.39.43-.58l.44-.6c.15-.2.28-.4.42-.6.3-.41.58-.82.88-1.24l.84-1.25L13,16.32l.4-.62.42-.66c.13-.21.27-.42.41-.63s.25-.41.39-.6c.28-.41.55-.83.8-1.26s.41-.7.61-1.06l.54-.94c.13-.21.26-.42.38-.63l.37-.68q.16-.32.3-.63l.15-.34c0-.1.09-.2.14-.31s.1-.22.16-.33l.15-.34c.1-.23.2-.46.28-.69s.09-.21.12-.32.08-.22.13-.33L19,5.3c.05-.13.11-.25.16-.38l.17-.36c.06-.14.12-.27.19-.4s.13-.24.2-.36.11-.18.17-.27a5.28,5.28,0,0,0,.42,1.74,10.81,10.81,0,0,0,.91,1.67c.32.5.68,1,1,1.46s.71,1,1.1,1.45.6.67.92,1l.67.68.54.54.53.5.5.48.5.48c.17.18.34.38.5.57l.3.36c.05.07.1.15.16.22a.19.19,0,0,0,0,.1,1.28,1.28,0,0,0,.14.23l.14.18a2.9,2.9,0,0,1,.19.29,5.09,5.09,0,0,1,.34.84c.08.36.14.72.19,1.09,0,.56,0,1.11,0,1.67s.09,1.3.18,1.95c.05.32.1.64.16,1l.09.48,0,.21Z"/><path class="cls-1" d="M4.53,27.35h0Z"/><polygon class="cls-1" points="4.55 27.37 4.54 27.36 4.54 27.36 4.55 27.37"/><path class="cls-1" d="M2,26.93H2Z"/><path class="cls-1" d="M1.56,27a5.19,5.19,0,0,0,.46.36,3.6,3.6,0,0,0,.5.29,3.1,3.1,0,0,0,.58.21h0c-.17-.17-.35-.34-.53-.49l-.26-.21L2,26.94l-.4-.2a1.63,1.63,0,0,0-.43-.18h0l.18.21Z"/><path class="cls-1" d="M4.94,28.16a5,5,0,0,0-.47.56,6.75,6.75,0,0,0-.39.69l0,.1c-.07.13-.13.26-.19.39v0a2.18,2.18,0,0,0-.09.23h0a3.54,3.54,0,0,0,.42-.35,2.07,2.07,0,0,0,.38-.46,3.07,3.07,0,0,0,.38-1.14Z"/><path class="cls-1" d="M1.44,28.7a4.31,4.31,0,0,0-.54.75,1.85,1.85,0,0,0-.21.45,4.68,4.68,0,0,1-.18.48h0A1.37,1.37,0,0,0,.89,30a2.76,2.76,0,0,0,.28-.39,2.37,2.37,0,0,0,.27-.95Z"/><path class="cls-1" d="M6,26.36H6Z"/></g></g></svg>