<svg xmlns="http://www.w3.org/2000/svg" viewBox="0 0 46.65 52.39"><defs><style>.cls-1{fill:#fefefe;}</style></defs><title>scorpio</title><g id="Layer_2" data-name="Layer 2"><g id="OBJECTS"><path class="cls-1" d="M32.54,2.62a2.86,2.86,0,0,0-.07.28c0,.16-.07.31-.1.47a3.87,3.87,0,0,0,0,.48,4.87,4.87,0,0,0,0,.54c0,.15,0,.31,0,.46,0,.32.09.64.13,1a7.67,7.67,0,0,0,.15,1c.05.22.12.44.18.66a7.73,7.73,0,0,1,.17.94c0,.33.05.67.07,1s0,.64.08,1,0,.34.06.51,0,.31.08.46c.05.38.1.76.14,1.14h0l0-.81c0-.26,0-.51,0-.76v0c0-.66,0-1.32,0-2,0-.17,0-.35,0-.52a3.88,3.88,0,0,0,0-.48,3.4,3.4,0,0,0-.08-.46l-.12-.49-.09-.35c0-.13,0-.26-.07-.39s-.07-.48-.11-.73l-.12-.77c0-.24-.06-.47-.07-.71a3.1,3.1,0,0,1,0-.43,4,4,0,0,1,.09-.5A2.68,2.68,0,0,1,33,2.79c0-.08.05-.16.08-.24l.09-.19a2.4,2.4,0,0,1,.18-.26c.08-.09.15-.18.23-.26l.05,0a.79.79,0,0,1,0-.22c0-.05,0-.09,0-.13s0,0,0,0-.13.2-.2.3L33.27,2a.85.85,0,0,1-.54.15l-.06.13A2.43,2.43,0,0,0,32.54,2.62Z"/><polygon class="cls-1" points="22.55 22.09 22.55 22.09 22.55 22.09 22.55 22.09"/><path class="cls-1" d="M22.33,22.48v0h0Z"/><path class="cls-1" d="M7.52,26.68h0Z"/><path class="cls-1" d="M3.76,30c-.31.1-.63.21-.94.33l-.51.2-.4.19-.26.13L1.39,31a3.83,3.83,0,0,0-.39.27l0,0c.08-.19.15-.39.22-.58s.19-.53.3-.79a.36.36,0,0,0,0-.09c.43-.45.86-.9,1.28-1.36l.57-.64c.1-.12.21-.24.32-.35s.09-.12.14-.17L4,27.13l.26-.24a2.48,2.48,0,0,1,.26-.19c.19-.13.4-.25.6-.37l0,0c.27-.16.54-.34.8-.53h0l-.95.37c-.15.06-.3.11-.44.18a3.88,3.88,0,0,0-.45.24l-.16.11-.21.17a4.16,4.16,0,0,0-.42.42,3.24,3.24,0,0,0-.29.34c-.11.14-.23.29-.33.44-.4.54-.76,1.12-1.1,1.69l.13-.28.18-.35c.17-.28.33-.55.51-.81h0c-.14.12-.26.24-.39.37a3.38,3.38,0,0,0-.31.35,3.39,3.39,0,0,0-.33.42,3.19,3.19,0,0,0-.26.38,4.67,4.67,0,0,0-.27.49l-.21.47c-.13.29-.26.59-.4.88l-.08.18a.76.76,0,0,0-.09.18.27.27,0,0,0,0,.13.43.43,0,0,0,.05.12l.05,0a.24.24,0,0,0,.2,0,.39.39,0,0,0,.14,0l.09-.08.09-.08.06-.05,0,0A.31.31,0,0,0,.79,32l0,0,.27-.22.32-.25c.12-.09.24-.19.37-.27L2.12,31l.63-.34c.21-.12.44-.22.65-.33.46-.23.93-.45,1.37-.71h0Z"/><path class="cls-1" d="M30.22,44.49a4,4,0,0,0-.15-.49,1.08,1.08,0,0,0-.13-.29l-.11-.15a1.62,1.62,0,0,0-.18-.19l-.17-.15h0a3.17,3.17,0,0,1,.28.36h0l0,.09a1.17,1.17,0,0,1,.09.24,5.86,5.86,0,0,1,.14.82c0,.24,0,.49.05.73a3.85,3.85,0,0,1,0,.48,3.09,3.09,0,0,1-.09.68,2.82,2.82,0,0,1-.28.64c-.12.21-.26.42-.4.62l-.24.34c-.08.12-.18.23-.27.34a5.14,5.14,0,0,1-.38.42,6.61,6.61,0,0,1-1.29,1,10.25,10.25,0,0,1-1.06.5l-.33.13,0-.06a5.45,5.45,0,0,0,.35-.68l.15-.42a2.76,2.76,0,0,0,.08-.27c0-.1.06-.2.09-.3s0-.16,0-.23l.06-.27,0-.27c0-.07,0-.14,0-.21a2.67,2.67,0,0,0,0-.4,3.39,3.39,0,0,0,0-.45c0-.15,0-.29,0-.44h0a5.87,5.87,0,0,1-.08.72c0,.24-.09.47-.14.71s-.07.23-.11.34l-.15.4a9.76,9.76,0,0,1-.47,1,5.84,5.84,0,0,1-.79,1.06,4.13,4.13,0,0,1-.39.34l-.23.1-.28.13h-.11a.51.51,0,0,0-.17.07l-.17.11-.05,0-.12.11a.24.24,0,0,0-.07.12.31.31,0,0,0,0,.21.42.42,0,0,0,.08.18s0,0,.06.07a.34.34,0,0,0,.18.07h.17a1,1,0,0,0,.22-.08l.13,0a3.65,3.65,0,0,0,.54-.32,3.17,3.17,0,0,0,.35-.29l.12,0,1-.41.54-.23.27-.12c.24-.11.47-.24.7-.37a6.71,6.71,0,0,0,1.26-1,5.47,5.47,0,0,0,.82-1,6.73,6.73,0,0,0,.74-1.37,2.29,2.29,0,0,0,.14-.69c0-.1,0-.21,0-.31a2.81,2.81,0,0,0,0-.29,2.46,2.46,0,0,0,0-.26A6.83,6.83,0,0,0,30.22,44.49Z"/><path class="cls-1" d="M27.74,45.75c.18-.07.35-.16.53-.24h0l-.58.12-.56.08a10.61,10.61,0,0,0-1.13.17c-.41.08-.81.18-1.21.3s-.73.22-1.09.35l-.49.19-.46.2-.38.2c-.19.1-.37.21-.55.32a6.3,6.3,0,0,0-.76.51q-.25.19-.51.42l0-.07.25-.47c.13-.21.25-.41.4-.61l.24-.34c.08-.12.18-.23.27-.34s.34-.41.52-.61.32-.36.49-.53c.53-.52,1.07-1,1.64-1.53.28-.25.58-.49.88-.71l.42-.31.44-.27a4.59,4.59,0,0,1,.49-.26,3.28,3.28,0,0,1,.52-.2l.15,0,.11,0c.3.12.6.23.91.32l.51.12c.16,0,.32.07.48.09.36.05.72.07,1.08.09h0a.78.78,0,0,1,0,.14.44.44,0,0,0,.05.15h0l0,0s0,0,0,0a0,0,0,0,0,0,0l0-.07,0-.08c0-.11.06-.23.1-.34h0c-.06.14-.12.29-.19.43h0v-.07c0-.29,0-.57,0-.86s0-.29,0-.44,0-.29,0-.43a.86.86,0,0,0,0-.16l0-.23c0-.14-.05-.27-.08-.4a5.41,5.41,0,0,0-.24-.81c0-.1-.07-.19-.11-.29l-.15-.3a2.54,2.54,0,0,0-.16-.28l-.1-.13,0,0,.15-.18a1.3,1.3,0,0,0,.17-.7A4.28,4.28,0,0,0,30,37a5,5,0,0,0-.08-.56,4.13,4.13,0,0,0-.14-.63,9.79,9.79,0,0,0-.4-1.07,10.32,10.32,0,0,0-.51-1.06,9.93,9.93,0,0,0-.65-1,4.19,4.19,0,0,0-.78-.85c-.29-.24-.59-.46-.9-.68l-.64-.46h0l.89,1c.15.17.3.34.44.52l.2.28.14.23a16.37,16.37,0,0,1,.78,1.71c.22.57.43,1.15.6,1.74.06.24.11.49.15.73a4.17,4.17,0,0,1,.08.71,1.23,1.23,0,0,1,0,.27h0L29,38l-.14.21-.14.22a.87.87,0,0,0-.11.18.65.65,0,0,0,0,.13c-.15.24-.31.47-.48.71l-.53.72c-.18.26-.37.51-.56.76l-.55.75h-.08l.07,0h0l.49.22a2.75,2.75,0,0,0-.5.09l-.51.16-.52.22a4.59,4.59,0,0,0-.49.26c-.17.1-.35.2-.51.31l-.48.35-.45.36a13.08,13.08,0,0,0-1.71,1.7c-.25.3-.49.6-.72.91s-.44.63-.63,1-.27.48-.39.73a3.81,3.81,0,0,0-.24.64,1.16,1.16,0,0,0-.07.37v.19a.3.3,0,0,0,0,.1.22.22,0,0,0,.06.15.18.18,0,0,0,.07.08.42.42,0,0,0,.29.07.9.9,0,0,0,.41-.26l.12-.1a.58.58,0,0,0,.16-.19l.55-.44a7.06,7.06,0,0,1,.64-.42l1-.54a9,9,0,0,1,1-.47c.38-.17.76-.34,1.14-.49s.72-.29,1.09-.42l.43-.14.57-.19C27.4,45.88,27.57,45.81,27.74,45.75ZM27.22,41c.25-.24.49-.5.74-.76l0,0,.61-.61.5-.52,0,0a.35.35,0,0,0,.15-.12l.06-.06.18-.19.15-.17a1.8,1.8,0,0,1,.08.21c0,.1.07.21.1.31.06.27.12.53.19.79L30,40c0,.07,0,.14,0,.21s.05.26.08.39,0,.29.07.44a1.1,1.1,0,0,1,0,.18,2.17,2.17,0,0,1,0,.25c0,.05,0,.11,0,.16a1.79,1.79,0,0,0,0,.23l0,.4a2.83,2.83,0,0,0,0,.29c0,.06,0,.12,0,.18-.33-.13-.67-.26-1-.37s-.61-.2-.92-.28a19.24,19.24,0,0,0-2-.39Z"/><polygon class="cls-1" points="30.52 42.95 30.52 42.95 30.52 42.95 30.52 42.95"/><path class="cls-1" d="M12.58,18.12l.85.18.84.23a5.06,5.06,0,0,1,.89.4c.32.2.62.43.92.65s.58.43.88.63l.95.66c.31.21.61.44.9.68.44.36.87.73,1.28,1.12.23.22.44.45.66.68l.31.35c.14.13.28.26.43.38h0c-.12-.16-.24-.32-.34-.48s-.2-.33-.3-.49-.4-.62-.62-.91-.44-.6-.68-.88a10.15,10.15,0,0,0-.74-.86,20,20,0,0,0-1.74-1.58c-.3-.24-.6-.48-.91-.7a6.47,6.47,0,0,0-1.09-.61,5.28,5.28,0,0,0-1-.3l-.48-.08c-.39,0-.79-.07-1.19-.09-.8,0-1.61-.05-2.42-.05s-1.38,0-2.07,0h0c.83.18,1.65.38,2.48.55Z"/><path class="cls-1" d="M37.22,24.8a7.12,7.12,0,0,0-1-.41c-.37-.11-.76-.19-1.14-.27A5,5,0,0,0,34,24l-.52,0a3.68,3.68,0,0,1-.57.06h-.09a4,4,0,0,0,.58.2l.49.15c.34.13.66.29,1,.44s.65.31,1,.45.66.31,1,.47l.84.43.81.42a8.79,8.79,0,0,1,1.45,1c.16.17.3.34.45.52h0a5.31,5.31,0,0,0-.2-.56,2.8,2.8,0,0,0-.3-.49,8.08,8.08,0,0,0-.72-.83A8.3,8.3,0,0,0,37.22,24.8Z"/><path class="cls-1" d="M38.92,21.43a6.62,6.62,0,0,0-1.16-.31A7,7,0,0,0,36.64,21a8,8,0,0,0-1.2,0l-.25,0a2,2,0,0,0-.33.08h0l.5.09.39.09,1,.28,1.13.33c.74.21,1.46.45,2.19.7a7.88,7.88,0,0,0,.83.24,7.08,7.08,0,0,0,.92.16h0c-.26-.17-.54-.33-.82-.48s-.7-.43-1.06-.63c-.16-.1-.32-.18-.48-.26Z"/><path class="cls-1" d="M19.73,8.08l.49.32c.17.12.34.24.5.37s.58.44.85.68l.5.42.16.15.33.3.14.13.57.57c.23.26.47.5.69.77l.4.48a6.31,6.31,0,0,1,.44.58c.14.2.27.41.4.62.21.39.44.78.63,1.18.11.23.23.46.33.69s.17.35.24.53a2.91,2.91,0,0,1,.16.5h0c0,.13.07.26.1.38l-.16.16-.67.69c-.21.21-.41.42-.61.64l-.21.24c-.09.11-.18.21-.26.32s-.35.44-.51.67-.3.42-.44.64l-.48.72c-.13.2-.25.4-.37.6s-.27.44-.4.66v0h0l0,.06v0l-.18.32v0l0,0-.21.39-.18.37c-.13.25-.24.51-.35.77s-.22.52-.32.79l-.05.12-.33,0h0l.28.13-.15.45a2.14,2.14,0,0,1-.32-.2L20.39,25c-.12-.11-.25-.21-.38-.31l-.35-.23L18.9,24c-.27-.16-.55-.32-.84-.46a7.18,7.18,0,0,0-.81-.32,8,8,0,0,0-.83-.27,2.77,2.77,0,0,0-.48-.11l-.43-.07-.91-.11a6.78,6.78,0,0,0-.9,0l-.46,0-.46.06-.88.09-.45,0-.47.08-.63.15-.63.17-.14,0-.13.06-.09,0H9.24a1.56,1.56,0,0,0-.6.11,2.67,2.67,0,0,0-.43.25l-.76.49-.74.42-.21.09-.16.1L6,25l-.13.1a.4.4,0,0,0-.21.27.39.39,0,0,0,.13.32l.11.11h0l.08.05.36.2.33.17.66.34,0,0,.08.05.1.05h0l.4.25L8,27l-.17.17L7.64,27h0l.18.2a1.7,1.7,0,0,0-.19.19h0l.2-.15a1,1,0,0,1,.15.21,2.76,2.76,0,0,1,.2.47,3,3,0,0,1,.08.52c0,.16,0,.33,0,.49s0,.11,0,.16a2.26,2.26,0,0,1-.07.39l-.24.94c-.1.33-.21.67-.33,1-.06.15-.11.3-.18.45a4.31,4.31,0,0,1-.22.49l-.09.19L7,32.79l-.25.48,0,.06c-.11.19-.23.36-.35.54a4.61,4.61,0,0,1-.64.75l-.28.26a2.75,2.75,0,0,1-.26.22l-.59.45a3.62,3.62,0,0,1-.32.22l-.29.2-.32.2-.25.16,0,0A3.24,3.24,0,0,0,3.53,36,5.68,5.68,0,0,0,4,35.06c.12-.34.23-.67.33-1s.19-.64.29-1,.19-.63.27-1a9.12,9.12,0,0,0,.22-1c0-.27,0-.55.08-.82a.13.13,0,0,0,.06,0,.13.13,0,0,0,0-.18h0a4.85,4.85,0,0,1,.08-.53c0-.19.07-.38.1-.57a5.9,5.9,0,0,0,.06-.59c0-.18,0-.36,0-.55h0a0,0,0,0,0,0,0h0a.94.94,0,0,0-.06.28c0,.09,0,.18,0,.27a5.59,5.59,0,0,1-.12.56c-.06.19-.12.38-.17.58s-.12.42-.16.63-.08.43-.11.64-.09.42-.14.62-.18.61-.28.91-.21.63-.31,1-.19.66-.29,1-.2.68-.33,1-.21.47-.33.7a2.92,2.92,0,0,1-.24.37c-.08.12-.18.22-.27.33l-.16.14h0l-.15.08-.13.06L2,37a.21.21,0,0,0,0,.34.18.18,0,0,0,.16,0h0l.12,0,.18,0,.16-.06a.2.2,0,0,0,.09,0l.06-.06c.28-.13.57-.26.84-.41s.61-.35.91-.54.58-.37.85-.58.28-.21.41-.33L6,35.07l.15-.15a4.78,4.78,0,0,0,.64-.71c.11-.15.22-.31.32-.47a7.52,7.52,0,0,0,.52-.92A6.41,6.41,0,0,0,8,31.89c.12-.34.22-.69.31-1.05A8.57,8.57,0,0,0,8.52,30c0-.15.06-.31.08-.46a4.82,4.82,0,0,0,0-.76,2.17,2.17,0,0,0-.08-.51A1.31,1.31,0,0,0,8.44,28a2.08,2.08,0,0,0-.2-.36A3.76,3.76,0,0,0,8,27.28L7.9,27.2l.21-.14h0a1,1,0,0,0,.23.12h0l0,0h0l-.07-.06L8.17,27l.15-.09L9,26.5c.49-.3,1-.61,1.45-.9s.75-.4,1.13-.59l.56-.25c.21-.09.41-.17.62-.24s.44-.1.67-.14.42-.05.64-.06a6,6,0,0,1,.84.09c.28,0,.55.08.82.14s.81.22,1.2.36c.22.08.44.15.65.24s.39.19.57.29.49.28.73.44l.7.46.63.47a3.62,3.62,0,0,0,.32.22l-.15.37c0,.1-.08.2-.13.3l-.15.29a5.5,5.5,0,0,1-.36.57c-.15.21-.31.4-.47.59h0l.32-.3.28-.3a5.73,5.73,0,0,0,.47-.63,7.58,7.58,0,0,0,.4-.74l.22.14h0l-.2-.2.06-.13s0,0,0,0c.27.28.52.56.78.85a11,11,0,0,0,.91.9c.29.32.59.65.9,1h0a6,6,0,0,0-.41-1.07,3.61,3.61,0,0,0-.72-.89,4.25,4.25,0,0,0-.82-.63c-.16-.09-.33-.19-.5-.27l-.08,0,.14-.36c.1-.28.19-.56.3-.83s.1-.27.16-.41l0,0c.28.17.54.35.8.54s.56.45.86.66l.26.19.12.09.47.35.4.31c.16.13.33.26.51.38h0a5.11,5.11,0,0,0-.54-1.13,4.19,4.19,0,0,0-.85-.93,4.75,4.75,0,0,0-1.05-.6,2.94,2.94,0,0,0-.58-.16l-.31,0a0,0,0,0,0,0,0L22,24.1c.12-.26.23-.51.36-.76s.21-.41.32-.61l.21-.38.24-.4c.15-.24.3-.47.44-.71s.29-.42.43-.64.15-.24.24-.35.18-.27.28-.4a2.48,2.48,0,0,1,.19-.26.76.76,0,0,1,.08-.11l.65.2a5.85,5.85,0,0,1,1.05.48l.32.19.76.49.83.59.73.52.4.32a3.28,3.28,0,0,1,.34.31l.3.3h0c-.09-.16-.18-.33-.28-.49a5.22,5.22,0,0,0-.34-.48c-.13-.15-.27-.28-.41-.42l-.39-.38-.49-.42-.17-.13-.07-.05a1.33,1.33,0,0,0-.19-.14c-.18-.11-.36-.22-.55-.32a2.53,2.53,0,0,0-.23-.12l-.33-.14-.38-.14-.24-.07-.47-.1c-.18,0-.36,0-.54,0l-.26,0,.22-.28.22-.27c.08-.09.15-.19.24-.28.4-.43.8-.85,1.21-1.27l.19-.19c.19-.19.39-.37.59-.55l.67-.6.69-.6.27-.22a3.47,3.47,0,0,1,.29-.25l.39-.31.28-.22L30.7,14c.23-.17.45-.34.67-.49s.45-.3.68-.44h0a8.67,8.67,0,0,0-.82.38c-.24.13-.47.28-.71.43-.46.29-.93.58-1.37.9-.26.19-.51.37-.76.57s-.46.36-.69.55l-.62.51-.33.31-.06.06c0-.19,0-.38,0-.57a4.46,4.46,0,0,0-.15-1q-.13-.58-.33-1.17a10.54,10.54,0,0,0-.6-1.43,6.35,6.35,0,0,0-.64-1c-.13-.17-.26-.35-.4-.52a1.14,1.14,0,0,0-.15-.16l-.3-.32a2.39,2.39,0,0,0-.22-.23l-.18-.15-.49-.42a1.09,1.09,0,0,0-.17-.13l-.35-.26-.39-.27-.5-.32-.64-.36-.5-.25a6.77,6.77,0,0,0-.88-.36l-1-.38h0C19.09,7.68,19.41,7.88,19.73,8.08Zm-11,18.3-.56.48-.09.07a3.2,3.2,0,0,0-.25-.27c-.16-.14-.32-.28-.49-.41S7,26,6.85,25.91l-.53-.33-.17-.11.13-.08.3-.16.16-.09a.47.47,0,0,0,.09-.06A.3.3,0,0,0,6.91,25c.3-.17.61-.32.91-.5l.44-.29.42-.27.24-.11a4.5,4.5,0,0,1,.63-.07,4.37,4.37,0,0,1,.72.06,1.66,1.66,0,0,1,.31.12l.13.09a3.15,3.15,0,0,1,.22.29.76.76,0,0,1,.06.16,0,0,0,0,1,0,0,.28.28,0,0,1,0,.09l0,.06-.4.27A18.08,18.08,0,0,0,8.74,26.38Zm11.93.34-.17,0h0l.15.12a0,0,0,0,0,0,0l0,.1-.13-.13c-.25-.26-.49-.52-.75-.77s-.52-.5-.8-.72a7.16,7.16,0,0,0-.9-.66,7.58,7.58,0,0,0-1-.47,8.31,8.31,0,0,0-1-.32,5.6,5.6,0,0,0-.59-.12,5,5,0,0,0-.56-.08,4.52,4.52,0,0,0-.53-.06,3.22,3.22,0,0,0-.62,0,5.49,5.49,0,0,0-1.13.21,7.19,7.19,0,0,0-1.06.48c-.16.09-.33.18-.49.29v0a.53.53,0,0,0,0-.25,1.11,1.11,0,0,0-.18-.38,1.06,1.06,0,0,0-.48-.38,1.69,1.69,0,0,0-.5-.14H9.83c.26-.05.52-.08.78-.12l.89-.09.91,0,.45,0,.45,0h.55l.34,0c.24,0,.48.06.72.09l.71.1c.21,0,.43.07.64.12s.55.15.81.24l.85.28c.55.22,1.09.48,1.63.74l.33.17.32.2.33.23a2.31,2.31,0,0,0,.35.18l.13.06h0c-.06.2-.11.4-.17.6S20.73,26.53,20.67,26.72Z"/><path class="cls-1" d="M16.58,10.19c.16.11.31.21.46.33l.32.24.06.05.13.1.85.73c.57.52,1.15,1,1.7,1.56a14.94,14.94,0,0,1,1,1.21c.16.22.34.43.49.66s.35.47.51.72a4,4,0,0,1,.22.34l.2.34.27.47v0c.09.19.2.37.29.57l.3.67a2.36,2.36,0,0,1,.12.28l.15.38c.1.24.19.49.29.73h0v-.71c0-.1,0-.2,0-.29a2.09,2.09,0,0,0,0-.25,5.58,5.58,0,0,0-.08-.57,5.35,5.35,0,0,0-.11-.55,8.36,8.36,0,0,0-.38-1.2,9.41,9.41,0,0,0-.47-1l-.44-.75c-.09-.15-.19-.28-.29-.42a6.26,6.26,0,0,0-.49-.66,11.8,11.8,0,0,0-1.27-1.28c-.16-.14-.33-.26-.5-.39s-.23-.19-.35-.28l-.63-.44-.41-.25-.45-.26c-.18-.11-.37-.2-.55-.29a7.91,7.91,0,0,0-.84-.37,21.14,21.14,0,0,0-2-.67h0l1,.65C16,9.76,16.28,10,16.58,10.19Z"/><path class="cls-1" d="M17.91,16.39l.78.75c.38.39.78.76,1.16,1.14a12.91,12.91,0,0,1,1,1.18,13.86,13.86,0,0,1,.94,1.37c.2.37.38.75.56,1.12h0c0-.25,0-.5-.06-.74a5.12,5.12,0,0,0-.39-1.49A7.3,7.3,0,0,0,20,17a10.43,10.43,0,0,0-.88-.74c-.35-.26-.71-.52-1.07-.76s-.86-.55-1.29-.81L15.44,14h0q.77.79,1.56,1.56Z"/><path class="cls-1" d="M37.86,1.82,37.44,2c-.21.1-.42.22-.62.34l-.26.17a2.09,2.09,0,0,0-.28.24l-.11.09a.49.49,0,0,0-.11.14l-.14.19a3.4,3.4,0,0,0-.28.45c-.07.11-.12.24-.18.36a.09.09,0,0,0,0-.05l-.15.3-.15.31a3.63,3.63,0,0,0-.27.76l-.09.39,0,.16a.22.22,0,0,1,0,.08V6a2.33,2.33,0,0,0,0,.53s0,.06,0,.09,0,.27,0,.41c0,.37,0,.74,0,1.11,0,.18,0,.35,0,.53s0,.38,0,.57c0,.39,0,.78,0,1.17s.06.72.09,1.09c0,.19,0,.38.05.57s0,.38,0,.57,0,.53,0,.8V14c0,.2,0,.4,0,.61,0,.37,0,.74-.09,1.11s-.09.71-.14,1.07l-.09.57-.12.52c-.06.23-.13.46-.2.69s-.2.56-.31.84a10.83,10.83,0,0,1-.69,1.46c-.17.3-.35.6-.54.89s-.43.63-.66.92-.5.62-.76.93-.49.6-.74.9-.54.59-.82.87l-.77.74h0c-.28.26-.57.52-.87.77-.57.48-1.12,1-1.69,1.46-.29.24-.6.46-.9.68l-.44.3c-.15.1-.3.2-.44.31l-.8.59-.78.6h0l0,0-.07.06h0l.1-.05c-.05.16-.09.32-.14.48a2.48,2.48,0,0,1-.2.44c-.08.13-.17.26-.26.38a1.62,1.62,0,0,0,.12-.78,1.17,1.17,0,0,0-.14-.41,2,2,0,0,0-.16-.24l-.09-.09a4.47,4.47,0,0,0-.45-.42,3.19,3.19,0,0,0-.47-.31,1.81,1.81,0,0,0-.37-.18,2.72,2.72,0,0,0-.37-.13h-.08l0,0h0L20,30c-.16.1-.33.2-.48.31a4.82,4.82,0,0,0-.44.35c.14-.24.27-.48.43-.71a7.08,7.08,0,0,1,.61-.83h0a4.26,4.26,0,0,0-.74.59c-.12.12-.23.24-.34.37l-.29.39a2.66,2.66,0,0,0-.34.59.88.88,0,0,0-.07.23.68.68,0,0,0,0,.14.39.39,0,0,0,.08.1h0a.17.17,0,0,0,.14,0,.24.24,0,0,0,.12,0,.61.61,0,0,0,.16-.16l.15-.17a.35.35,0,0,0,.05-.08.61.61,0,0,1,.07-.1c.1-.11.2-.22.31-.32s.34-.33.52-.48l.56-.53a3.26,3.26,0,0,1,.4.34,5.51,5.51,0,0,1,.86,1.15.88.88,0,0,1,.09.2c0,.06,0,.11,0,.16a.59.59,0,0,0,0,.13,1.84,1.84,0,0,1-.15.35,4.2,4.2,0,0,1-.56.7c-.1.1-.21.19-.32.28s-.23.17-.33.27l-.11.12-.05.09a.41.41,0,0,0,0,.16.3.3,0,0,0,.12.2l.08.05a.41.41,0,0,0,.29,0l.22-.08.09,0a.53.53,0,0,0,.12-.1,3.69,3.69,0,0,0,.67-.44l.33-.27a2.92,2.92,0,0,0,.32-.38c.08-.13.15-.26.22-.4a1.88,1.88,0,0,0,.16-.39,4.17,4.17,0,0,0,.14-.86l.85-.43.87-.41.5-.21c.17-.07.34-.13.51-.21l.52-.23.5-.26L27,29l0,0,.46.37a2,2,0,0,1,.21.2l.21.19.39.37.31.33.37.42c.14.15.28.3.43.44l.39.34c.3.24.61.48.9.73s.55.47.81.72.49.51.72.78.47.53.71.79.26.26.38.4.26.29.38.45.22.28.32.43.21.33.31.51.27.47.42.69.29.43.42.66a1.73,1.73,0,0,1,.18.39c0,.11,0,.21.06.32a2.63,2.63,0,0,0,.06.39h0v-.06h0v-.5a2.09,2.09,0,0,0-.08-.5,3.45,3.45,0,0,0-.2-.48c-.07-.17-.15-.33-.22-.49s-.13-.33-.2-.49-.15-.35-.24-.51a6.66,6.66,0,0,0-.63-1c-.22-.29-.46-.56-.69-.84s-.47-.57-.72-.85a10.58,10.58,0,0,0-.8-.84c-.29-.26-.58-.5-.88-.74l-.49-.37L30,31c-.29-.22-.55-.47-.81-.71a6.53,6.53,0,0,0-.77-.62L28,29.37a3,3,0,0,0-.46-.26L27.16,29a8.18,8.18,0,0,0,.69-.45c.31-.21.6-.43.89-.66.44-.36.87-.73,1.28-1.12l.32.15.47.21c.29.13.59.26.88.41l.48.22.47.26.4.22a5,5,0,0,1,.81.58c.14.11.27.24.41.36l.05.05a4.71,4.71,0,0,1,.36.42c.12.14.23.29.34.43l.68.94c.22.3.46.59.69.89s.24.31.35.47a4.15,4.15,0,0,1,.3.43l.48.74c.14.24.28.49.43.73h0a1.4,1.4,0,0,1,.1.16,1.59,1.59,0,0,0,.13.22h0l.21.37h0a19.22,19.22,0,0,0-.84-2.18l-.23-.48-.3-.55c-.2-.34-.41-.67-.62-1l-.6-1c-.2-.3-.4-.6-.63-.88a5.5,5.5,0,0,0-.85-.82l-.38-.26a4,4,0,0,0-.58-.31c-.17-.08-.35-.16-.54-.23l-.39-.15-.3-.1-.66-.19c-.41-.12-.82-.22-1.24-.32l.21-.2.41-.4.39-.41.4-.44.36-.44c.12-.15.25-.29.37-.43q.39-.45.75-.9c.24-.29.45-.61.67-.92s.42-.63.61-.95A11.78,11.78,0,0,0,35,20.32q.22-.53.42-1.05c.06-.17.12-.34.17-.51s.13-.44.18-.67.09-.39.13-.59.06-.39.09-.58c.05-.37.09-.74.13-1.11s0-.74,0-1.12,0-.83,0-1.25S36,12.68,36,12.3a5.62,5.62,0,0,0-.09-.57c0-.19-.07-.37-.11-.55-.08-.36-.15-.71-.21-1.07a5.4,5.4,0,0,1-.09-.58L35.4,9c0-.19,0-.39-.07-.58s0-.39-.07-.58a11.32,11.32,0,0,1-.09-1.16,5.44,5.44,0,0,1,0-.57.08.08,0,0,1,0,0,.3.3,0,0,0,0-.13l0-.16c0-.12,0-.24.08-.36s.07-.24.11-.36l0-.07.11-.19.26-.33.16-.2.14-.18a4.13,4.13,0,0,1,.56-.62l.17-.11A1.22,1.22,0,0,1,37,3.22L37.4,3l.43-.19a4,4,0,0,1,.45-.15,3.73,3.73,0,0,1,.82,0l.74.09a3.79,3.79,0,0,1,.72.18l.29.11a2.39,2.39,0,0,1,.37.15l.37.17a3.37,3.37,0,0,1,.35.22l.72.44.34.22a2.61,2.61,0,0,1,.28.17l.56.42c.11.09.22.17.31.26l.29.3a3.92,3.92,0,0,1,.27.33,4.35,4.35,0,0,1,.32.43,8.39,8.39,0,0,1,.5.81,4.3,4.3,0,0,1,.26.79,6.4,6.4,0,0,1,0,1.45c0,.14,0,.28,0,.42a3.22,3.22,0,0,1-.1.54l0,.08a1,1,0,0,0-.13.09l-.38.25a7.25,7.25,0,0,1-.75.47,6.53,6.53,0,0,1-1,.3c-.33.08-.68.15-1,.24a4.76,4.76,0,0,0-.53.19,3.74,3.74,0,0,0-.52.28,4.5,4.5,0,0,0-.85.72,1.1,1.1,0,0,0-.24.4.39.39,0,0,0,.1.44l.06,0a.53.53,0,0,0,.35,0A1.31,1.31,0,0,0,41,13.6a5.64,5.64,0,0,0,.87-.39c.26-.13.51-.27.76-.41l.37-.23.33-.19,0,0a1.29,1.29,0,0,1,.09.16,1.18,1.18,0,0,1,.1.3l.06.35c0,.11.05.22.08.33a3.66,3.66,0,0,1,0,.81,1.77,1.77,0,0,0,0,.23,0,0,0,0,1,0,0v.06a.34.34,0,0,1,0,.1.28.28,0,0,0,0-.09c0,.06,0,.12,0,.18s0,.24,0,.37,0,.22-.06.33l0,.05a.68.68,0,0,0-.1.21.31.31,0,0,0,.4.35.66.66,0,0,0,.22-.15.41.41,0,0,0,.12-.2l0-.06.13-.2a.35.35,0,0,0,.06-.14.11.11,0,0,0,0-.05A9.41,9.41,0,0,0,45,14.4a5.6,5.6,0,0,0,.37-1,4.64,4.64,0,0,0,.11-.51,2.33,2.33,0,0,0,0-.53,2.81,2.81,0,0,0-.09-.49c0-.14-.11-.27-.17-.4l.21-.15a1.53,1.53,0,0,0,.18-.18,3,3,0,0,0,.34-.45,2.07,2.07,0,0,0,.19-.32,1.94,1.94,0,0,0,.17-.42c0-.18.11-.37.15-.56a5.3,5.3,0,0,0,.1-.55,4.83,4.83,0,0,0,.08-1.14A3.5,3.5,0,0,0,46.52,7a2.88,2.88,0,0,0-.18-.49A6.1,6.1,0,0,0,46.05,6l-.3-.47c-.11-.15-.21-.31-.34-.46s-.28-.35-.43-.52a3.41,3.41,0,0,0-.39-.37,4.16,4.16,0,0,0-.39-.32,2.42,2.42,0,0,0-.36-.27,5.29,5.29,0,0,0-.5-.32l0,0-1-.61a4.71,4.71,0,0,0-.48-.29,3.92,3.92,0,0,0-.51-.22,5.89,5.89,0,0,0-.59-.21,5.18,5.18,0,0,0-.53-.14,5.25,5.25,0,0,0-.55-.09c-.22,0-.43,0-.65,0a3.67,3.67,0,0,0-.74,0A2.91,2.91,0,0,0,37.86,1.82Zm4.52,10.39c-.42.26-.84.51-1.28.73l0,0,0,0h0a4.35,4.35,0,0,1,.43-.32,2.22,2.22,0,0,1,.42-.25,3.3,3.3,0,0,1,.49-.19Zm2.74-1h0A.89.89,0,0,1,45,11h0l.06.2-.18.17c-.25.22-.51.44-.78.65h0q.29-.13.57-.3l.45-.26h0l.06.28a1.09,1.09,0,0,1,0,.26,1.13,1.13,0,0,1,0,.26,2.91,2.91,0,0,1,0,.31c0,.1-.05.2-.08.3s-.12.34-.19.51-.17.37-.26.55l-.16.28c0-.05,0-.1,0-.15a2.69,2.69,0,0,0,0-.49,6,6,0,0,0-.14-.61,3.84,3.84,0,0,0-.11-.46c0-.09-.07-.18-.11-.27A1.93,1.93,0,0,0,44,12a1.59,1.59,0,0,0-.29-.29l.26-.1a3.27,3.27,0,0,0,.5-.24,3.75,3.75,0,0,0,.44-.35l.37-.36.29-.3a6.54,6.54,0,0,1-.3.59C45.24,11.06,45.18,11.12,45.12,11.19Z"/><path class="cls-1" d="M37.38,2l.06,0h0Z"/><path class="cls-1" d="M43.74,14.65v0Z"/><path class="cls-1" d="M34.94.65,36,.53l.8-.09c.15,0,.3,0,.45,0h.26L38.56.32a8.34,8.34,0,0,1,1,0l.36,0h0L39.36.16a3.18,3.18,0,0,0-.52-.1,4.4,4.4,0,0,0-.51,0h-.55l-.57,0-.44.06a4.37,4.37,0,0,0-.49.12L35.22.54l-.28.11Z"/><path class="cls-1" d="M32.35,19.5a2.89,2.89,0,0,0-.56-.73c-.21-.2-.41-.4-.63-.59l-.3-.24a2.23,2.23,0,0,0-.3-.2c-.21-.14-.44-.27-.67-.4l-.49-.25-.48-.21a3.26,3.26,0,0,0-.44-.15l-.6-.19h0l.53.26.24.11.19.11.66.39.66.43.33.22.1.07.19.14.58.45c.23.19.46.37.67.57a5.2,5.2,0,0,1,.55.69h0C32.51,19.82,32.43,19.65,32.35,19.5Z"/><path class="cls-1" d="M27.77,25.2a7.37,7.37,0,0,0-.74-.93l-.46-.45a5.19,5.19,0,0,0-.46-.36,4.22,4.22,0,0,0-1-.6,5.37,5.37,0,0,0-.56-.21A3.92,3.92,0,0,0,24,22.5a3,3,0,0,0-.95-.06h0a8.93,8.93,0,0,1,1.72.79l.22.13c.47.29.93.57,1.39.88s1,.63,1.43,1Z"/></g></g></svg>