<svg xmlns="http://www.w3.org/2000/svg" viewBox="0 0 51.13 50"><defs><style>.cls-1{fill:#fefefe;}</style></defs><title>taurus</title><g id="Layer_2" data-name="Layer 2"><g id="OBJECTS"><path class="cls-1" d="M3,12.53c.08.1.16.19.23.29l.3.34a5,5,0,0,0,.59.53l1,.73.39.28h0c-.42-.38-.82-.78-1.23-1.18-.1-.11-.21-.22-.31-.34a2.54,2.54,0,0,1-.29-.36l-.24-.36-.15-.23-.18-.3c-.13-.26-.26-.52-.37-.79l-.18-.47c0-.12-.07-.25-.11-.37s-.09-.38-.13-.57a7.83,7.83,0,0,1-.1-.83A7,7,0,0,1,2.32,8l.15-.48.08-.2a2.3,2.3,0,0,1,.18-.43,5.44,5.44,0,0,1,.53-.73c.19-.23.4-.45.61-.67a6.4,6.4,0,0,1,.49-.42,6,6,0,0,1,.5-.38q.48-.34,1-.66c-.08.12-.16.24-.23.36a8.09,8.09,0,0,0-.57,1.09,6.49,6.49,0,0,0-.37,1.13,2.62,2.62,0,0,0-.09.56,4.7,4.7,0,0,0,0,.65,1.8,1.8,0,0,0,.11.56l.09.23c.09.18.18.35.28.52a2.17,2.17,0,0,0,.55.58c.12.09.24.18.37.26l.43.23.37.17a1.78,1.78,0,0,0,.33.09h.25a3,3,0,0,0,.42,0l0,0-.1.11c-.11.11-.21.24-.32.36s-.42.49-.62.74a5,5,0,0,0-.43.66,3.78,3.78,0,0,0-.17.35c0,.11-.09.23-.14.36s-.15.47-.21.72-.1.51-.15.77-.08.27-.11.41h0l.15-.32a2.49,2.49,0,0,0,.11-.29c.07-.19.13-.39.2-.58s.14-.36.22-.54a5.69,5.69,0,0,1,.26-.56c.1-.16.2-.32.32-.48s.25-.31.38-.46l.41-.43L8,10.85a5.81,5.81,0,0,1,1-.75h0c.2-.11.41-.2.62-.3a5.38,5.38,0,0,1,.55-.24l.17,0a3.4,3.4,0,0,1,.46.07l.76.2h0l.79.2.17,0,1,.29.54.16.56.13h0a1.93,1.93,0,0,1,.46.16l.27.21.2.14h0L15.25,11a3,3,0,0,0-.24-.26h0a1.9,1.9,0,0,0-.34-.2l-.22-.09-.46-.2L13.56,10a7,7,0,0,0-.83-.37l-.4-.13-.44-.13-.67-.21a3.93,3.93,0,0,0-.67-.19,1.14,1.14,0,0,0-.77.1c-.18.1-.35.23-.53.33a6.42,6.42,0,0,0-.84.5l-.36.3-.17.15-.08.09-.5-.07-.11,0A1.07,1.07,0,0,1,7,10.2a5.05,5.05,0,0,1-.78-.6l-.11-.11a3,3,0,0,1-.36-.44,3.4,3.4,0,0,1-.25-.67.83.83,0,0,1,0-.15c0-.12,0-.23,0-.35s0-.42,0-.63a4.76,4.76,0,0,1,.1-.52c0-.17.1-.34.16-.51s.15-.39.22-.57.17-.39.26-.58.17-.32.26-.48A6.73,6.73,0,0,1,6.83,4l.06,0A.55.55,0,0,0,7,3.76a.7.7,0,0,0,.19-.49.33.33,0,0,0-.07-.16.08.08,0,0,0,0,0A.21.21,0,0,0,7,3L6.89,3,6.76,3a2,2,0,0,0-.47.17,9.69,9.69,0,0,0-1,.6c-.33.22-.66.45-1,.69a9.37,9.37,0,0,0-.93.85,8.84,8.84,0,0,0-.74.88,3.82,3.82,0,0,0-.4.64c0,.11-.09.22-.13.33S2,7.36,2,7.46a4.44,4.44,0,0,0-.16.6,5.17,5.17,0,0,0-.07.55,3.88,3.88,0,0,0,0,.9c0,.2.07.39.11.58s.12.43.18.64.13.35.21.53a6.31,6.31,0,0,0,.59,1A1.88,1.88,0,0,0,3,12.53Z"/><path class="cls-1" d="M5.53,29.36a2.32,2.32,0,0,1-.18-.46,1.86,1.86,0,0,1-.06-.34,2.4,2.4,0,0,1,0-.37,1.67,1.67,0,0,1,0-.32,2.87,2.87,0,0,1,0-.31c.07-.23.14-.45.23-.67a4.48,4.48,0,0,1,.29-.58c.13-.22.28-.44.43-.66A7.31,7.31,0,0,0,6.69,25a10.57,10.57,0,0,0,.83-1.85c.1-.32.19-.65.26-1a3.54,3.54,0,0,0,.08-.45,2.83,2.83,0,0,0,0-.51,2.21,2.21,0,0,0,0-.35c0-.13,0-.27-.08-.4A3.5,3.5,0,0,0,7.62,20a2.41,2.41,0,0,0-.15-.33c0-.11-.1-.23-.16-.34s-.14-.24-.2-.37-.12-.25-.17-.37-.09-.24-.13-.36c-.14-.55-.2-1.12-.29-1.68a.68.68,0,0,0,0-.14l1.18-.17h0c-.4,0-.81,0-1.21-.06l-.06-.52c0-.34-.09-.67-.14-1h0l0,1.16v.36l-.75,0c-.75,0-1.51,0-2.26,0h-.4l-.35,0a8.35,8.35,0,0,1-1.42-.17L.8,15.8a.18.18,0,0,1-.07-.05v0a1.07,1.07,0,0,1,.22-.15,6.29,6.29,0,0,1,.71-.3c.23-.09.47-.16.71-.23L2.73,15l.4-.07A6.86,6.86,0,0,1,4,14.8a2.89,2.89,0,0,1,.59.08l.29.1h0l-.22-.13-.22-.08-.13,0A2.29,2.29,0,0,0,4,14.65l-.59,0a4.58,4.58,0,0,0-.53,0,5.54,5.54,0,0,0-.57.07l-.51.09L1.24,15l-.51.15-.23.09c-.22.09-.47.23-.5.49a1,1,0,0,0,0,.17,1.21,1.21,0,0,0,0,.18,1,1,0,0,0,.24.31,1,1,0,0,0,.31.2,2.06,2.06,0,0,0,.44.14,4.72,4.72,0,0,0,1.19.12h.63l.6,0,.61-.05.56-.06,1-.13.63-.09v.38c0,.32,0,.63,0,.95,0,.15,0,.31,0,.46a3.1,3.1,0,0,0,.11.51,7.88,7.88,0,0,0,.33.85c.06.13.11.26.17.4s.09.25.13.38.07.35.1.52,0,.33,0,.49a4.62,4.62,0,0,1-.09.65l-.15.65A12.06,12.06,0,0,1,6.49,24a12.25,12.25,0,0,1-.58,1.21l-.23.38c-.09.16-.19.32-.28.49A4.88,4.88,0,0,0,5,27a3.36,3.36,0,0,0-.15,1,3,3,0,0,0,.07.5,2.32,2.32,0,0,0,.16.51c0,.09.09.18.14.27l.22.3.34.35c.1.11.21.2.31.3h0L5.8,29.8A4,4,0,0,1,5.53,29.36Z"/><path class="cls-1" d="M6.72,25l0,0v0A.16.16,0,0,1,6.72,25Z"/><path class="cls-1" d="M5.9,27.09l-.2.17h0A2,2,0,0,1,6,27.15a.55.55,0,0,1,.18,0,2.2,2.2,0,0,1,.36,0,5.08,5.08,0,0,1,.83.36c.13.08.27.16.39.25s.25.19.37.3l.09.09.09.1a.41.41,0,0,1,.07.11c.1.19.18.38.27.57l.15.35h0c0-.13,0-.26-.07-.39a2.81,2.81,0,0,0-.22-.75,1.38,1.38,0,0,0-.17-.25,1.49,1.49,0,0,0-.12-.14l-.15-.15-.15-.11a2.92,2.92,0,0,0-.37-.24l-.36-.16A1.39,1.39,0,0,0,7,27.05,2,2,0,0,0,6.51,27a1.12,1.12,0,0,0-.41,0A.88.88,0,0,0,5.9,27.09Z"/><path class="cls-1" d="M7.57,29.56a2.71,2.71,0,0,1,.45.3H8a1.86,1.86,0,0,0-.27-.29,3.58,3.58,0,0,0-.39-.29,6.78,6.78,0,0,0-.84-.45h0a7.18,7.18,0,0,0,.91.65h0Z"/><path class="cls-1" d="M9.78,31.2l.31-.15a.13.13,0,0,0,.09,0l.09,0,.2-.11a3,3,0,0,0,.3-.19l.29-.23.3-.24c.2-.17.39-.35.6-.51a4.57,4.57,0,0,1,.61-.45c.53-.28,1.08-.54,1.63-.78l.88-.38.43-.19.42-.2a13.15,13.15,0,0,0,1.68-1.05c.26-.19.52-.38.76-.59s.49-.42.72-.64c.49-.46,1-.92,1.45-1.41a4.43,4.43,0,0,0,.74-1,6.39,6.39,0,0,0,.26-.6c.05-.15.11-.29.16-.44s.09-.25.13-.38.08-.21.11-.32a7.32,7.32,0,0,0,.23-.8c0-.2.08-.4.11-.6a1.84,1.84,0,0,0,0-.47A1.28,1.28,0,0,0,22.1,19a5.36,5.36,0,0,0-.34-.49,2,2,0,0,0-.27-.31h0l.12.18c0,.09.09.18.13.26a4.17,4.17,0,0,1,.24.58,2.34,2.34,0,0,1,0,.26,3.43,3.43,0,0,1-.06.34,8,8,0,0,1-.32.86c-.1.23-.21.45-.31.67-.23.45-.42.91-.66,1.36-.12.18-.27.35-.41.52s-.24.26-.36.38l-.72.75a13.15,13.15,0,0,1-1.36,1.22,16.66,16.66,0,0,1-1.56,1.08l-.2.12-.39.21-.43.2-.88.38c-.29.12-.58.24-.86.38s-.57.28-.84.43-.34.19-.49.3a2.29,2.29,0,0,0-.43.32c-.28.25-.53.53-.79.79l-.18.19.05-.06a4.27,4.27,0,0,1-.44.41l-.23.17L10,30.6l-.06,0a.12.12,0,0,0-.06.06l-.15.09a6.2,6.2,0,0,1-1.41.49h0a3.87,3.87,0,0,1-.68.12H7.4l-.31-.05a2.14,2.14,0,0,1-.52-.22c-.2-.11-.38-.23-.57-.35H6l.4.32a2.12,2.12,0,0,0,.37.24,1.72,1.72,0,0,0,.42.18,2,2,0,0,0,.42.09,2.73,2.73,0,0,0,.9-.08,9.4,9.4,0,0,0,.92-.2Z"/><path class="cls-1" d="M25.33,15.46h0a2.5,2.5,0,0,0-.22-.24l-.18-.16a2.51,2.51,0,0,0-.24-.19,4.07,4.07,0,0,0-.53-.31l-.49-.23q-.29-.11-.57-.18c-.22-.06-.43-.1-.65-.14a2.74,2.74,0,0,0-.5-.08l-.28,0h-.35l-.56,0a5.41,5.41,0,0,0-.58.07l-.58.13-.29.07L19,14.3l-.35.14-.19.09-.28.14a3.57,3.57,0,0,0-.89.65,3.72,3.72,0,0,0-.43.61h0l.28-.3a3.36,3.36,0,0,1,.54-.39,4.17,4.17,0,0,1,.75-.33l.36-.1a2.37,2.37,0,0,1,.36-.09l.28-.06.21,0,.48-.05.45,0H21l.55,0a4,4,0,0,1,.48.07l.51.11a5.5,5.5,0,0,1,.72.23,5.86,5.86,0,0,1,.67.32,3.78,3.78,0,0,1,.33.22h0l-.74-.05a7.62,7.62,0,0,0-1.17,0c-.22,0-.44,0-.65.07a7.79,7.79,0,0,0-1,.29l-.25.09-.3.12-.54.26c-.48.25-1,.51-1.43.78-.24.14-.46.3-.69.46a4.65,4.65,0,0,0-.66.51h0l.38-.24h0a14.75,14.75,0,0,1,1.65-.8l.84-.33.49-.18.21-.07.23-.06a10.08,10.08,0,0,1,1.09-.24c.28,0,.57,0,.85,0l.58,0,.41.05-.43.22-.54.28L22,17l-.55.27-.55.25c-.13.07-.28.12-.42.18l-.43.17-.47.17-.41.13-.29.08-.46.09-.53.08h0l.68,0a5.44,5.44,0,0,0,.57,0,2,2,0,0,0,.24,0l.29-.05c.2,0,.41-.08.61-.14a6.36,6.36,0,0,0,.62-.19,6.13,6.13,0,0,0,.6-.22c.18-.07.35-.16.53-.25l.52-.28.39-.24.28-.18.76-.52.09-.06h.17l.27,0,.23,0a1.34,1.34,0,0,0,.2,0,.71.71,0,0,0,.24-.06.47.47,0,0,0,.29-.36.48.48,0,0,0,0-.17.5.5,0,0,0-.09-.23l-.06-.08Zm-.46.11h0Z"/><path class="cls-1" d="M14.24,18.2l-.1-.06a.24.24,0,0,0-.22,0,.62.62,0,0,0-.28.34l-.1.22a.84.84,0,0,0-.06.14l0,.11c-.09.2-.17.41-.25.62l-.24.7c-.08.21-.16.42-.25.63l-.31.73h0a14.69,14.69,0,0,0,.72-1.29c.1-.21.19-.43.28-.65s.19-.43.29-.64l0,0a.56.56,0,0,1,0-.08l.06-.13a3.36,3.36,0,0,1,.16-.33l0,0,.09.13a2.47,2.47,0,0,1,.11.36.85.85,0,0,0,0,.17,2.26,2.26,0,0,1,0,.45,1.72,1.72,0,0,1-.08.38c-.06.18-.14.36-.22.54l-.12.23-.2.36-.26.43c-.07.12-.15.24-.23.36h0l-.1.15h0l-.15.21h0l.56-.61c.15-.18.3-.38.44-.58a4,4,0,0,0,.22-.34,3.16,3.16,0,0,0,.36-.71,2.17,2.17,0,0,0,.07-.24,1.07,1.07,0,0,0,0-.25,1.46,1.46,0,0,0,0-.42,1.92,1.92,0,0,0-.23-.72A.53.53,0,0,0,14.24,18.2Zm-.22.23Zm0,0Z"/><path class="cls-1" d="M50.71,40c-.13-.4-.26-.8-.4-1.19s-.33-.92-.51-1.37c-.08-.22-.17-.44-.26-.66s-.15-.41-.24-.62-.13-.4-.2-.6l-.2-.65a1.8,1.8,0,0,1-.06-.22l-.12-.45c0-.21-.09-.42-.14-.63L48.46,33c0-.21-.09-.42-.12-.64s-.09-.47-.12-.71c-.06-.43-.12-.86-.15-1.3S48,29.45,48,29s-.1-.83-.16-1.25-.13-.86-.18-1.29c0-.21,0-.41-.08-.62s-.06-.38-.1-.56a12.65,12.65,0,0,0-.3-1.25,14.07,14.07,0,0,0-.46-1.34c-.05-.1-.09-.19-.13-.29a4.42,4.42,0,0,0-.34-.54L46,21.64l-.2-.23c-.14-.16-.3-.3-.46-.45l-.56-.48c-.59-.5-1.21-1-1.81-1.47l-.91-.84c-.3-.29-.6-.58-.91-.86s-.37-.36-.57-.53-.26-.22-.4-.32a10.7,10.7,0,0,0-1.12-.72,17.68,17.68,0,0,0-2.39-1.18c-.4-.16-.81-.3-1.21-.45l-1.28-.48c-.41-.16-.82-.31-1.24-.45s-.84-.27-1.27-.38l-1.26-.3-1.3-.29a24.49,24.49,0,0,0-2.69-.37c-.43,0-.87-.05-1.3-.05s-.89,0-1.33.07l-.53.07a2,2,0,0,0-.35.09L23,12c.1-.08.18-.17.27-.25a6.52,6.52,0,0,0,.5-.55,5.08,5.08,0,0,0,.61-.9c.06-.09.11-.2.17-.3l.13-.24c.05-.12.1-.23.16-.35s.07-.19.11-.28l.21-.56c.14-.41.25-.84.35-1.27A1.83,1.83,0,0,0,25.57,7c0-.12.05-.25.08-.38L25.74,6c0-.19.05-.39.07-.59s0-.19,0-.29,0-.33,0-.49a9.83,9.83,0,0,0-.09-1.08,6.46,6.46,0,0,0-.36-1.44,5.66,5.66,0,0,0-.52-1,4.46,4.46,0,0,0-.33-.43c-.1-.11-.21-.23-.32-.33L24.09.24,23.85.1A1.06,1.06,0,0,0,23.6,0a.36.36,0,0,0-.42.22.91.91,0,0,0,0,.4.31.31,0,0,0,.07.21h0l0,.51c0,.23,0,.47,0,.7s0,.52-.08.78-.05.47-.09.7,0,.24-.06.36-.06.26-.08.39-.09.29-.13.43-.11.29-.16.44-.12.26-.17.39-.22.46-.34.68A9.24,9.24,0,0,1,20.74,8c-.17.17-.36.33-.54.48l-.28.21a2.83,2.83,0,0,1-.28.2l-.47.3-.44.25-.59.32-.7.37c-.21.1-.41.23-.61.35s-.38.29-.57.44h0l.57-.27.59-.22c.36-.12.72-.23,1.08-.37l.61-.23.32-.14.27-.14a7.17,7.17,0,0,0,1.06-.65,7.32,7.32,0,0,0,1.29-1.26A7.72,7.72,0,0,0,23,6.13c.05-.1.09-.21.13-.31s.09-.19.12-.29l.11-.31L23.44,5c.06-.22.13-.44.17-.67s.05-.24.07-.36,0-.2.05-.29.05-.43.07-.65a11.5,11.5,0,0,0,.07-1.18,7,7,0,0,0-.05-1A.53.53,0,0,1,24,.93a3.35,3.35,0,0,1,.56.74A4.88,4.88,0,0,1,25,2.78a5.71,5.71,0,0,1,.16.92c0,.25.05.5.05.75a11.18,11.18,0,0,1-.13,1.42c-.05.35-.13.7-.21,1a12.39,12.39,0,0,1-.44,1.43,7.81,7.81,0,0,1-.3.75l-.18.38-.18.31c-.14.22-.28.45-.43.66s-.35.4-.53.6l-.28.25c-.1.1-.22.19-.33.28a4.79,4.79,0,0,1-.79.57l-.36.21-.47.25-.56.27-1.19.55-1.05.45a10.76,10.76,0,0,1-1.09.37l-.1,0h0l-.09,0h0a11.08,11.08,0,0,0,2.36-.39c.38-.11.76-.22,1.14-.35l.62-.22.6-.24c.19-.08.37-.18.56-.27a5.53,5.53,0,0,0,1-.67l.08-.07a2.52,2.52,0,0,1,.54-.08h1.26c.43,0,.85.05,1.27.09s.86.11,1.28.18l1.22.21c.42.08.84.17,1.25.27l1.26.31.64.16.68.21c.4.13.81.26,1.2.41l2.24.85c.35.13.7.25,1,.4s.71.31,1.06.48l.65.36.64.38c.21.14.43.28.63.43s.35.27.52.42c.54.49,1.06,1,1.58,1.53.13.14.26.27.4.4l.45.42.82.72c.36.33.72.68,1.07,1,.18.18.36.36.53.55a5,5,0,0,1,.38.52,2.77,2.77,0,0,1,.26.48c0,.12.09.23.13.35s.11.38.16.56.09.42.14.63q.12.63.21,1.26c.06.41.09.82.13,1.23s.1.85.15,1.28.11.84.15,1.26.06.84.11,1.25.1.87.18,1.3c0,.24.08.48.13.71s.11.51.17.76.1.4.15.6l.15.58c.07.24.14.48.22.72s.15.43.24.63.18.41.28.61l.3.58.72,1.25c.3.5.58,1,.87,1.5l.82,1.41h0Z"/><path class="cls-1" d="M23.12,39.24q.48,0,1-.12l.67-.1a2,2,0,0,0,.34-.06l.59-.11a4.23,4.23,0,0,0,.51-.13,5.05,5.05,0,0,0,.74-.27c.21-.09.42-.21.63-.32a8.07,8.07,0,0,0,.85-.59,8.17,8.17,0,0,0,.71-.61,3.87,3.87,0,0,0,.45-.55c.08-.11.14-.23.22-.34a9.63,9.63,0,0,0,.88-1.83c.11-.31.21-.61.32-.91l.18-.49.21-.48.18-.35.12-.22.15-.23a7.43,7.43,0,0,1,.57-.78l.18-.19.19-.2.39-.36.26-.22.22-.18.45-.32h0l.28-.18.77-.44c.3-.16.61-.3.92-.45h0l-.52.18a4.52,4.52,0,0,0-.47.18l-.46.19-.39.2-.47.26-.45.28-.39.28-.36.29-.17.14-.23.22-.32.34-.18.22a1.07,1.07,0,0,0-.14.16,3.6,3.6,0,0,0-.28.4c-.1.15-.19.31-.28.46a1.62,1.62,0,0,0-.1.18l-.12.25c-.07.16-.14.31-.2.47l-.19.49c-.08.21-.15.43-.24.64L30,34.4l-.15.31-.18.34-.19.32c-.06.11-.13.21-.19.3a5.89,5.89,0,0,1-.41.57,5.74,5.74,0,0,1-.74.65l-.54.39q-.27.16-.54.3a6.36,6.36,0,0,1-.71.31,6.66,6.66,0,0,1-.88.22l-.65.12-1,.15-1,.13-.87.1-1,.1-1.14.08-1.1.05H18l-2,0-2,0-2,.06h0c1.43.18,2.86.33,4.29.46.67.06,1.35.1,2,.13.28,0,.55,0,.83,0s.57,0,.86,0l1.2-.07.39,0,.72-.07Z"/><path class="cls-1" d="M9.05,33.75Z"/><path class="cls-1" d="M17.92,32.52l.65-.19.24-.09.3-.1.26-.11.3-.12.24-.11.18-.08.07,0,.53-.29.23-.12.16-.1a1.25,1.25,0,0,0,.12-.08,5.15,5.15,0,0,0,.45-.32l.44-.36c.14-.12.27-.23.4-.36l.14-.13.07-.07.18-.2c.14-.17.28-.33.43-.49h0l-.46.47c-.14.14-.29.26-.43.39l-.24.19-.23.17-.22.17-.21.15-.19.12-.12.07-.1.07-.29.15-.27.13-.21.1-.18.09-.09,0-.32.13-.2.08-.35.13-.19.06-.27.09-.22.07-.65.18-.19.05-.4.1-.54.13-.58.12-.58.1L15,32.8l-.49.07-.71.09-.59.06-.5.06-.53.06-.71.1-.42.07-.77.14-.21,0-.18,0-.54.13-.33.09h0l-.91.3h0l-.35.13c-.14.06-.27.11-.4.18a7.63,7.63,0,0,0-.73.42l-.58.39-.93.64-.67.48h0l1.1-.64,1-.61.19-.1.42-.23c.13-.07.28-.13.42-.19l.45-.16h0l.69-.21L9.23,34l.76-.17.17,0,.22,0,.76-.14.42-.06.71-.1.54-.07.49,0,.59-.06.72-.1.48-.07,1.12-.19,1.12-.25.4-.11Z"/><path class="cls-1" d="M29.83,47.73c-.43-.69-.84-1.39-1.25-2.09-.22-.36-.43-.71-.66-1.06-.11-.18-.24-.35-.36-.53l-.29-.4-.44-.58c-.18-.22-.36-.44-.56-.65l-.4-.38-.19-.16-.29-.25c-.29-.23-.58-.45-.88-.65a6.34,6.34,0,0,0-3.1-1.09h0l.16.06h0l.3.11a8.47,8.47,0,0,1,.87.38c.27.15.54.32.8.5s.68.54,1,.83c.15.13.29.28.44.42s.23.21.34.32.44.45.64.7.35.45.51.67.23.29.33.44c.27.37.54.75.8,1.13.46.64.91,1.28,1.38,1.9.36.46.72.91,1.09,1.36s.73.87,1.11,1.29h0c-.22-.35-.43-.71-.64-1.06Z"/><path class="cls-1" d="M26.78,25a3.18,3.18,0,0,1-.44.26L26,25.4l-.32.13a2.67,2.67,0,0,1-.36.14l-.29.11a3.59,3.59,0,0,1-.35.12l-.44.13-.34.08c-.24.06-.47.09-.71.14l-.44.07-.65.1h0c.46,0,.92,0,1.39,0a5.44,5.44,0,0,0,.57,0c.23,0,.45-.05.67-.09s.43-.08.64-.13a2.1,2.1,0,0,0,.24-.06l.27-.07.35-.11.31-.13a5,5,0,0,0,1.31-.74,4.1,4.1,0,0,0,.53-.49,6.44,6.44,0,0,0,.52-.65,6.08,6.08,0,0,0,.69-1.4c.09-.25.16-.51.23-.77s.08-.31.11-.48a9.53,9.53,0,0,0,.17-1.07l0-.32a2.91,2.91,0,0,0,0-.59,3.76,3.76,0,0,0-.2-.73h0a5.23,5.23,0,0,1,0,.79,5.56,5.56,0,0,1-.27,1.14c-.08.26-.17.51-.26.77s-.17.42-.25.63-.23.52-.36.77a8.72,8.72,0,0,1-.48.79,7,7,0,0,1-1.07,1.16A4.27,4.27,0,0,1,26.78,25Z"/></g></g></svg>