<svg xmlns="http://www.w3.org/2000/svg" viewBox="0 0 38.14 54.01"><defs><style>.cls-1{fill:#fefefe;}</style></defs><title>virgo</title><g id="Layer_2" data-name="Layer 2"><g id="OBJECTS"><path class="cls-1" d="M27.55,0c-.32,0-.66.06-1,.12L25.44.4a12.43,12.43,0,0,0-2,.66c-.66.28-1.31.56-1.94.9s-1.32.75-2,1.15-1.18.78-1.75,1.2-1.11.82-1.65,1.24S15,6.43,14.48,6.9c-.28.24-.57.49-.84.75l-.8.77c-.51.52-1,1.07-1.47,1.62l-.3.38-.28.35-.68,1c-.16.24-.31.48-.45.73a.22.22,0,0,0-.05.08l-.08.13c-.09.14-.16.3-.25.45s-.19.35-.27.53l-.27.56c-.08.18-.14.37-.21.55s-.09.25-.14.38-.12.34-.17.52-.11.41-.17.62-.1.41-.14.61c-.08.37-.15.74-.23,1.11-.12.66-.25,1.32-.36,2a20.36,20.36,0,0,0-.27,2.06C7,22.75,7,23.44,7,24.14s0,1.13,0,1.69c0,.3,0,.59-.08.89s-.09.48-.14.72a4.4,4.4,0,0,1-.25.75l-.13.28a7.25,7.25,0,0,1-.81,1.08c-.21.26-.44.51-.66.76-.45.5-.9,1-1.32,1.53-.22.27-.45.53-.65.81s-.43.61-.64.92c-.1.14-.18.29-.27.44a5.45,5.45,0,0,0-.35.62c-.15.31-.3.62-.42.94a21.16,21.16,0,0,0-1,4.37A19.82,19.82,0,0,0,0,42c0,.75,0,1.5,0,2.25s.08,1.41.14,2.12.14,1.37.2,2.06c.14,1.45.28,2.9.43,4.35,0,.42.08.84.13,1.26h0q.16-2.19.3-4.38c.05-.73.09-1.46.14-2.18s.1-1.44.14-2.17c0-.51.06-1,.1-1.52s.09-1.14.14-1.7.12-1.22.21-1.83.2-1,.31-1.56c.06-.25.12-.51.19-.76s.18-.61.27-.91.21-.58.32-.87a5.31,5.31,0,0,1,.3-.64c.16-.27.32-.53.5-.79l.67-.93c.2-.26.42-.51.63-.77l.64-.72c.46-.49.92-1,1.36-1.49A10.59,10.59,0,0,0,7.8,30,6.45,6.45,0,0,0,8.31,29a5.71,5.71,0,0,0,.38-1.28,8.83,8.83,0,0,0,.16-1c0-.35,0-.71,0-1.07,0-.67,0-1.34-.05-2s0-1.27,0-1.91.1-1.24.19-1.86.18-1.29.28-1.93c.05-.34.11-.68.17-1s.11-.51.17-.77.12-.47.2-.69.09-.29.14-.43a1.92,1.92,0,0,1,.11-.31c.2-.49.4-1,.64-1.43v0l.05-.09A2.49,2.49,0,0,0,11,13a1.62,1.62,0,0,1,.1-.18l0,0c.18-.3.36-.59.55-.88s.21-.31.32-.47.24-.32.36-.48c.4-.53.85-1,1.29-1.54s.87-.91,1.34-1.33l.85-.75c.28-.24.58-.48.87-.71.52-.43,1-.86,1.58-1.27S19.38,4.49,20,4.07s1-.64,1.5-1c.34-.19.68-.39,1-.56s.65-.33,1-.48l1.16-.5c.32-.13.66-.23,1-.34l.07,0,.1,0,.32-.09L26.69,1c.19,0,.38-.08.57-.12A7.94,7.94,0,0,1,28.35.68c.47,0,.94,0,1.41,0a4.2,4.2,0,0,1,.62.07c.24,0,.48.08.72.12l.92.25a6.24,6.24,0,0,1,.84.36,4.05,4.05,0,0,1,.35.21,2.54,2.54,0,0,1,.36.29,4.25,4.25,0,0,1,.42.53q.23.42.42.84h0a9.4,9.4,0,0,0-.39-1,2.65,2.65,0,0,0-.58-.76,5.3,5.3,0,0,0-1.75-1,6.25,6.25,0,0,0-.93-.29,7.23,7.23,0,0,0-1-.21C29.38.08,29,0,28.67,0l-.53,0a5.83,5.83,0,0,0-.59,0m.74.65h0Zm-2.07.39h0m-.61.18-.07,0,.07,0M8.83,23.46v0"/><path class="cls-1" d="M26.62,6.49a6.79,6.79,0,0,0-1.24.3,12.79,12.79,0,0,0-1.88.77,27.71,27.71,0,0,0-3.81,2.2c-.14.09-.29.19-.43.3l-.45.35c-.15.12-.28.25-.43.38s-.25.24-.37.37-.5.52-.75.79a8.93,8.93,0,0,0-.69.81,8.56,8.56,0,0,0-.59.85c-.19.31-.36.61-.53.92s-.21.38-.31.57l-.23.51a6.4,6.4,0,0,0-.33,1,7.76,7.76,0,0,0-.21,1.17,11.62,11.62,0,0,0,0,1.18c0,.18,0,.35,0,.52s0,.41.05.61c0,.36.09.71.14,1.06.23,1.38.56,2.75.75,4.15a8.48,8.48,0,0,1,.06.87c0,.27,0,.52,0,.78a5.46,5.46,0,0,1-.1.69,4.89,4.89,0,0,1-.26.73A6.88,6.88,0,0,1,14,29.54c-.47.48-.95.95-1.45,1.39l-1.76,1.55a3.47,3.47,0,0,0-.29.25l-.36.36c-.33.32-.66.64-1,1a18.85,18.85,0,0,0-3.4,5,11.33,11.33,0,0,0-1,3.47,14.24,14.24,0,0,0-.06,1.85A10.66,10.66,0,0,0,5,46.25c.09.42.2.83.31,1.25.07.26.13.52.2.78.1.42.22.84.36,1.25h0c-.07-.46-.12-.92-.17-1.39-.09-.94-.21-1.89-.24-2.84a9.81,9.81,0,0,1,.09-1.43c.07-.52.16-1,.27-1.55A13.79,13.79,0,0,1,7.09,39.2a20.73,20.73,0,0,1,1.33-2.15A22.4,22.4,0,0,1,10.12,35c.29-.3.59-.58.88-.87.13-.11.24-.23.36-.34a3.73,3.73,0,0,1,.3-.26L13.43,32c.52-.44,1-.91,1.5-1.39a9.22,9.22,0,0,0,.92-1.05,4.08,4.08,0,0,0,.6-1.08,5.29,5.29,0,0,0,.3-1.17,9.44,9.44,0,0,0,0-2.19c0-.35-.09-.7-.15-1.05s-.11-.66-.17-1-.12-.74-.19-1.1-.12-.62-.16-.93a18,18,0,0,1-.24-2.2.41.41,0,0,0,0-.11v-.48c0-.17,0-.34,0-.51a6.56,6.56,0,0,1,.14-.87c.05-.19.11-.37.17-.55a6.37,6.37,0,0,1,.23-.61c.17-.37.35-.72.53-1.08l.2-.36c.08-.15.18-.29.26-.43s.35-.5.53-.74c.37-.5.78-1,1.19-1.42l.42-.42.58-.52,1.24-1c.81-.61,1.67-1.16,2.52-1.71l.72-.44-.06,0c.31-.17.62-.34.94-.48a9.4,9.4,0,0,1,1.18-.48,2.92,2.92,0,0,1,.5-.09,7.86,7.86,0,0,1,.84,0h0l-.47-.11-.25,0a1.22,1.22,0,0,0-.33,0l-.34,0"/><path class="cls-1" d="M30.55,8.64c-.41.12-.82.27-1.22.42a11.38,11.38,0,0,0-1.94,1c-.31.19-.61.39-.91.59a11.22,11.22,0,0,0-3.65,4.23A9.23,9.23,0,0,0,22,17.74c-.08.47-.11.94-.15,1.42,0,.13,0,.27,0,.4s0,.43,0,.64,0,.31,0,.46,0,.49,0,.74l.06,1.06c.05.68.15,1.34.26,2,.07.39.13.78.19,1.17s.09.64.12,1l.06.78c0,.27,0,.54,0,.81s0,.41,0,.62a8.29,8.29,0,0,1-.18,1.3,8,8,0,0,1-.58,1.54,10.77,10.77,0,0,1-1.43,1.92c-.53.55-1.1,1-1.67,1.57s-.95.82-1.43,1.23l-1.05.91c-.24.2-.46.41-.68.62s-.53.46-.78.71l-.87.89-.68.72a23.65,23.65,0,0,0-1.55,1.92,15.94,15.94,0,0,0-1.7,3.28c-.23.58-.46,1.15-.68,1.73s-.43,1.13-.61,1.71h0l.13-.23h0c.4-.7.81-1.4,1.22-2.09.26-.43.52-.86.77-1.3.13-.21.27-.41.4-.61s.36-.54.55-.8a14.17,14.17,0,0,1,1.22-1.45c.81-.85,1.7-1.62,2.55-2.42C16,39.48,16.49,39,17,38.55s1-.81,1.47-1.21c.63-.52,1.24-1,1.85-1.57.27-.23.52-.48.78-.72a12.92,12.92,0,0,0,1.63-1.83,8.68,8.68,0,0,0,.75-1.29,6.31,6.31,0,0,0,.5-1.44A11,11,0,0,0,24.25,29c0-.21,0-.42,0-.63s0-.67,0-1,0-.49,0-.73,0-.31,0-.46q-.06-.59-.15-1.17c0-.33-.11-.65-.17-1s-.11-.65-.16-1-.08-.66-.11-1c-.06-.59-.08-1.16-.1-1.75,0-.38,0-.76,0-1.14s0-.53.05-.79a8.37,8.37,0,0,1,1-3.41,13.83,13.83,0,0,1,1.84-2.59,20.75,20.75,0,0,1,1.79-1.59c.24-.2.48-.39.73-.57s.45-.32.68-.47a10.34,10.34,0,0,1,1.79-.9,3.56,3.56,0,0,1,.91-.12h0a8.09,8.09,0,0,1,.85.06h0l-.56-.2a5,5,0,0,0-.65-.13h-.37a3.88,3.88,0,0,0-1,.17m-10.31,25,0,0,0,0"/><path class="cls-1" d="M36.85,14.27a.85.85,0,0,0-.26-.24,2.61,2.61,0,0,1-.28-.17,5.57,5.57,0,0,1-.59-.6,2.83,2.83,0,0,1-.2-.28l-.08-.12a.58.58,0,0,0-.14-.17l-.09-.17q-.12-.29-.21-.57c-.07-.22-.11-.45-.16-.67a6.29,6.29,0,0,1-.05-1.37c.05-.51.15-1,.23-1.51h0a11.87,11.87,0,0,0-.49,1.93,5.29,5.29,0,0,0,.73,2.79A4.28,4.28,0,0,0,36,14a1.46,1.46,0,0,1,.4.42c.13.3-.43.75-.61.91a3.06,3.06,0,0,0-1.11,1.85c0,.58.46,1.21-.19,1.63a2.93,2.93,0,0,1-3,.19,2.39,2.39,0,0,0,.23.22,2.65,2.65,0,0,0,.26.21,1.69,1.69,0,0,0,.36.17,2.84,2.84,0,0,0,.42.09,4.49,4.49,0,0,0,.73.06,1.93,1.93,0,0,0,.87-.24c.16-.08.3-.19.47-.26a1.38,1.38,0,0,0,.4-.28c.34-.36.15-.84.06-1.25l0-.21v-.19a2.7,2.7,0,0,1,.12-.47c0-.13.08-.26.13-.39a4.37,4.37,0,0,1,.23-.49l.22-.22.3-.21a3.75,3.75,0,0,0,.51-.38,1.15,1.15,0,0,0,.15-.2,1.46,1.46,0,0,0,.07-.19c0-.06,0-.13,0-.19A.81.81,0,0,0,36.85,14.27Z"/><path class="cls-1" d="M27.61,22.71a6.55,6.55,0,0,0,.2.82,5.35,5.35,0,0,0,.24.71,4.06,4.06,0,0,0,.33.66,3.33,3.33,0,0,0,.24.34,2.82,2.82,0,0,0,2.05-.35,4.75,4.75,0,0,1,3.53-.63,7.25,7.25,0,0,1,3.3,2.44l.13,0h0a1,1,0,0,1,.26.11l.11.05a.3.3,0,0,0,.16,0h0l0,0a2.72,2.72,0,0,0-.25-.32,5.68,5.68,0,0,0-1.34-1.17,8.27,8.27,0,0,1-.72-.53c-.23-.19-.46-.39-.69-.55a3.18,3.18,0,0,0-.85-.38c-.25-.07-.49-.11-.74-.17a3,3,0,0,0-.66-.1,4.51,4.51,0,0,0-1.34.24l-.57.13-.58.12a2.72,2.72,0,0,1-1.17,0,1.84,1.84,0,0,1-.74-.47,3.31,3.31,0,0,1-.37-.57,6.19,6.19,0,0,1-.28-.71c0-.15-.08-.31-.11-.48s-.08-.55-.11-.85l0-.54V20c0-.4,0-.79.06-1.19h0c-.05.33-.09.65-.12,1s0,.62,0,.93,0,.69,0,1A7.41,7.41,0,0,0,27.61,22.71Z"/><path class="cls-1" d="M33.19,12.25h0a5.31,5.31,0,0,0-.89.13,3.77,3.77,0,0,0-1,.46h0a3.33,3.33,0,0,0,1.09-.08,2.62,2.62,0,0,0,1-.53h-.16m0,0h0"/></g></g></svg>