<svg xmlns="http://www.w3.org/2000/svg" viewBox="0 0 31.26 17.19"><defs><style>.cls-1{fill:#fefefe;}</style></defs><title>aquarius_1</title><g id="Layer_2" data-name="Layer 2"><g id="OBJECTS"><path class="cls-1" d="M2.45,5l.2-.1.21-.14.37-.25Q3.59,4.22,4,4l1.65-.82a10.36,10.36,0,0,1,1.74-.77s0-.12.06-.13a4.63,4.63,0,0,1,1-.23h0c.11,0,.2.42.29.57a12.91,12.91,0,0,1,.67,1.69c.11.32.2.67.29,1a3.5,3.5,0,0,0,.14.46A1.69,1.69,0,0,0,11,6.9a1.75,1.75,0,0,0,1.15-.22,5.54,5.54,0,0,0,.63-.38l.88-.64c.56-.4,1.13-.78,1.71-1.16C16.18,4,17,3.42,17.89,2.93l.78-.39a7.34,7.34,0,0,1,.83-.35,1.53,1.53,0,0,1,.3,0h0l0,0,.11.1a3,3,0,0,1,.3.43c.27.56.43,1.15.67,1.72a10.71,10.71,0,0,0,.47,1,1.94,1.94,0,0,0,.15.24,1.28,1.28,0,0,0,.82.47A1.9,1.9,0,0,0,23.31,6a4.09,4.09,0,0,0,.46-.25,7.54,7.54,0,0,0,.83-.56c.27-.18.53-.37.81-.55C26,4.32,26.53,4,27.07,3.57a15.91,15.91,0,0,1,1.68-1.13,3.53,3.53,0,0,1,.56-.25L29.85,2l.06.06a5.66,5.66,0,0,1,.34.47,4,4,0,0,1,.22.69c.06.28.11.57.15.85a2.39,2.39,0,0,0,.09.45,1.33,1.33,0,0,1,.05.19c0,.13.08.14.13.26s0,.08,0,.08h0s0-.07,0-.17,0-.09,0-.17c0-.31.06-.59.1-.89a4.56,4.56,0,0,0,.06-1,3.27,3.27,0,0,0,0-.45A2.49,2.49,0,0,0,30.92,2a2.89,2.89,0,0,0-.32-.6A1,1,0,0,0,30.16,1a1,1,0,0,0-.58,0,8.26,8.26,0,0,0-1,.2,8,8,0,0,0-.92.36c-.62.31-1.21.65-1.81,1l-.51.27c-.45.24-.89.47-1.33.72l-1,.63c0-.1-.06-.19-.1-.29-.1-.3-.19-.61-.28-.91a5.69,5.69,0,0,0-.9-2,3.9,3.9,0,0,0-.51-.56,2.32,2.32,0,0,0-1-.39,3,3,0,0,0-.73,0H19.4a3,3,0,0,0-.73,0,5.7,5.7,0,0,0-.9.33C17.38.6,17,.77,16.64,1s-1,.58-1.46.88l-1.44.95c-.47.32-.93.64-1.38,1l-.64.48v0a7.54,7.54,0,0,0-.29-.92c-.12-.31-.25-.62-.39-.92a8.37,8.37,0,0,0-.6-1c-.1-.13-.2-.26-.3-.37A3,3,0,0,0,9.78.61a1.67,1.67,0,0,0-.9-.37A4,4,0,0,0,7.46.4a5.71,5.71,0,0,0-1.82.93c-.61.45-1.22.92-1.81,1.4-.34.27-.67.55-1,.85L2.43,4l-.19.2a1,1,0,0,0-.15.19l0,.06c-.39.4-.78.8-1.13,1.23A9.84,9.84,0,0,0,0,7.08H0c.31-.34.62-.68,1-1A15,15,0,0,1,2.45,5Zm20.2-.64ZM12,5.07h0ZM8.37,2.25Z"/><path class="cls-1" d="M30.21,12.23a6.31,6.31,0,0,0-1.06-.08,5.57,5.57,0,0,0-1,.11,6.36,6.36,0,0,0-1.06.28,16.51,16.51,0,0,0-3.25,1.64,5.31,5.31,0,0,0,0-.69,5.4,5.4,0,0,0-.31-1.18,4.9,4.9,0,0,0-.32-.65,2.83,2.83,0,0,0-.62-.76,2.79,2.79,0,0,0-.47-.32,1.39,1.39,0,0,0-.26-.1,5.16,5.16,0,0,0-.52-.16,3.05,3.05,0,0,0-.5-.08,4.92,4.92,0,0,0-.67,0l-.63,0a11.94,11.94,0,0,0-2.29.4,13.1,13.1,0,0,0-1.63.57,17.09,17.09,0,0,0-1.95.88c-.54.31-1.08.64-1.61,1l-.66.44a11.05,11.05,0,0,0-.3-1.09,3.57,3.57,0,0,0-.43-.79,3.42,3.42,0,0,0-.57-.63A2.63,2.63,0,0,0,9,10.46a3.06,3.06,0,0,0-.74-.09,4.17,4.17,0,0,0-1.11.14,7.35,7.35,0,0,0-.94.3,7.52,7.52,0,0,0-1,.48c-.27.16-.52.34-.78.51s-.36.25-.54.39l-.27.23a1.42,1.42,0,0,0-.26.29c-.56.49-1.08,1-1.59,1.56S.7,15.55.17,16.21h0c.65-.51,1.27-1.05,1.94-1.55a19.76,19.76,0,0,1,1.79-1.18l.21-.06a.53.53,0,0,0,.17-.08l.37-.19c.24-.12.5-.23.75-.34s.49-.21.75-.3a5.94,5.94,0,0,1,.6-.18,6.48,6.48,0,0,1,1.16-.16,2.87,2.87,0,0,1,.5.07l.23.1.13.11c.09.12.17.24.25.37a6.37,6.37,0,0,1,.23.61c.08.39.15.79.2,1.19a3.41,3.41,0,0,0,.1.46,1.27,1.27,0,0,0,.41.67l.29.18.06,0a1.07,1.07,0,0,0,.56.09,1.12,1.12,0,0,0,.57-.14,6.52,6.52,0,0,0,.8-.48c.42-.28.82-.58,1.23-.86s.84-.53,1.27-.78a14.11,14.11,0,0,1,1.38-.61,12.67,12.67,0,0,1,1.46-.52,8.3,8.3,0,0,1,1.57-.18,6.62,6.62,0,0,1,1.47.23.67.67,0,0,1,.21.09h0l.06.09a4.39,4.39,0,0,1,.21.61c0,.13.05.27.07.41s0,.46,0,.69a6,6,0,0,0,.24,1.51,2.61,2.61,0,0,0,.26.53l.24.26.3.19a1.24,1.24,0,0,0,.71.1,1.7,1.7,0,0,0,.65-.27,1.06,1.06,0,0,0,.21-.16l.4-.37.81-.79.17-.16.57-.52c.35-.31.72-.6,1.1-.88a12.56,12.56,0,0,1,1.24-.81,7.87,7.87,0,0,1,1.32-.52c.26-.06.53-.11.8-.15a6.42,6.42,0,0,1,.87-.09h.14A3.81,3.81,0,0,0,30.21,12.23Z"/></g></g></svg>