<svg xmlns="http://www.w3.org/2000/svg" viewBox="0 0 20.64 21.76"><defs><style>.cls-1{fill:#fefefe;}</style></defs><title>aries_1</title><g id="Layer_2" data-name="Layer 2"><g id="OBJECTS"><path class="cls-1" d="M20.61,4.18a3.46,3.46,0,0,0-.11-.84,4.84,4.84,0,0,0-.3-.8,4.74,4.74,0,0,0-.9-1.3,5.44,5.44,0,0,0-.69-.56,4.21,4.21,0,0,0-.55-.33A3.68,3.68,0,0,0,16.74,0,6.59,6.59,0,0,0,16,0h-.06a8.42,8.42,0,0,0-1,.08,6.15,6.15,0,0,0-.71.18A6.7,6.7,0,0,0,12.58,1a5.93,5.93,0,0,0-.86.63,6.64,6.64,0,0,0-.74.76,3.59,3.59,0,0,0-.4.54c-.17.27-.32.55-.47.83A8.64,8.64,0,0,0,9.6,5a10.65,10.65,0,0,0-.29,1.11c-.12-.4-.26-.8-.42-1.19a7,7,0,0,0-.4-.88,4.26,4.26,0,0,0-.59-.82,4.88,4.88,0,0,0-.59-.52,5.36,5.36,0,0,0-.55-.38A4,4,0,0,0,6.1,2a4.22,4.22,0,0,0-1.7-.21A4.72,4.72,0,0,0,3.28,2a6.61,6.61,0,0,0-1,.38,4.14,4.14,0,0,0-.86.57A4.57,4.57,0,0,0,1,3.35a3,3,0,0,0-.22.28,4.5,4.5,0,0,0-.42.78C.3,4.6.24,4.79.17,5A4.5,4.5,0,0,0,0,5.71a2.9,2.9,0,0,0,0,.51,4.55,4.55,0,0,0,.09.63,3.15,3.15,0,0,0,.09.42c.07.25.19.5.25.76a3.31,3.31,0,0,0,.12.42,2,2,0,0,0,.18.4A2.41,2.41,0,0,0,1,9.36c.11.19.24.37.36.55.26.36.5.73.75,1.09h0c-.1-.37-.2-.75-.31-1.13A5.65,5.65,0,0,1,1.54,9a2.44,2.44,0,0,0,0-.27c0-.09,0-.17,0-.25a3.64,3.64,0,0,1,0-.57,4.61,4.61,0,0,0,0-.52,3,3,0,0,1,.06-.43,2.5,2.5,0,0,1,.12-.45A5.49,5.49,0,0,1,2,6a7.28,7.28,0,0,1,.72-1,4.94,4.94,0,0,1,.44-.36,6.66,6.66,0,0,1,.72-.33,3.89,3.89,0,0,1,.47-.09A4.85,4.85,0,0,1,5,4.2l.18,0,.25.15a4.19,4.19,0,0,1,.45.39,4.86,4.86,0,0,1,.43.77A12.87,12.87,0,0,1,7.06,8c.09.49.2,1,.31,1.44s.21.91.33,1.37.23.91.32,1.37.2.94.28,1.41.15.89.23,1.34.16.9.25,1.35l.15.75c.06.29.1.57.16.85s.08.55.12.82.08.49.11.73l.06.5c0,.14,0,.27.07.41s.05.27.08.4a1.38,1.38,0,0,0,.19.56.93.93,0,0,0,.53.39,1,1,0,0,0,.89-.18,1.29,1.29,0,0,0,.16-.17.84.84,0,0,0,.16-.43.86.86,0,0,1,0-.16c0-.15,0-.31,0-.46s-.06-.4-.09-.59-.06-.35-.1-.52l0-.35-.06-.46c0-.33-.06-.66-.11-1s-.06-.56-.11-.83c-.09-.53-.15-1.06-.21-1.58a2,2,0,0,1,0,.25c0-.27-.06-.53-.09-.8s0-.71,0-1.07q0-1.49.15-3a23.07,23.07,0,0,1,.28-2.86,9.16,9.16,0,0,1,.35-1.24,10.1,10.1,0,0,1,.51-1.17,8.4,8.4,0,0,1,1-1.46,8.6,8.6,0,0,1,1-.83,8.49,8.49,0,0,1,1.22-.57l.57-.14a6,6,0,0,1,.61-.09,3.72,3.72,0,0,1,.58,0,1.38,1.38,0,0,1,.29.08,3.09,3.09,0,0,1,.44.24,4.83,4.83,0,0,1,.51.5,6.67,6.67,0,0,1,.58,1,2.52,2.52,0,0,1,.12.39c0,.18.07.36.12.55a7.62,7.62,0,0,1,.18.93,2.79,2.79,0,0,1,0,.58,3,3,0,0,1-.26.71,4.46,4.46,0,0,1-.64.92,4.3,4.3,0,0,1-.85.73,3.71,3.71,0,0,1-.49.24c-.16.07-.31.14-.48.2h-.1a.92.92,0,0,0,.37,0l.43-.06a3.33,3.33,0,0,0,.82-.23,5.63,5.63,0,0,0,1.23-.73,7.94,7.94,0,0,0,.59-.57A2.71,2.71,0,0,0,20.15,7a2.92,2.92,0,0,0,.34-.74,4.31,4.31,0,0,0,.13-.8A10.59,10.59,0,0,0,20.61,4.18Z"/></g></g></svg>