<svg xmlns="http://www.w3.org/2000/svg" viewBox="0 0 25.69 16.98"><defs><style>.cls-1{fill:#fefefe;}</style></defs><title>cancer_1</title><g id="Layer_2" data-name="Layer 2"><g id="OBJECTS"><path class="cls-1" d="M24.15,4.46c-.52-.25-1-.55-1.51-.84s-1-.57-1.56-.84c-.29-.14-.59-.28-.89-.4L19.29,2c-.57-.2-1.15-.4-1.73-.57-.3-.09-.6-.18-.89-.25s-.59-.13-.89-.18C15.15.91,14.53.78,13.89.67S12.67.45,12.05.36,10.87.17,10.27.11,9.13,0,8.56,0H8.49A16.31,16.31,0,0,0,6.78.08C6.25.13,5.72.19,5.2.29A7.82,7.82,0,0,0,3.57.84c-.24.11-.46.25-.69.38l-.44.26H2.32a1.11,1.11,0,0,0-.52.26,4.42,4.42,0,0,0-.65.57,4.56,4.56,0,0,0-.68.89,5,5,0,0,0-.28.57A3.74,3.74,0,0,0,0,4.44,4.75,4.75,0,0,0,0,5.57,4,4,0,0,0,.35,6.68a5.6,5.6,0,0,0,.57.94,6.19,6.19,0,0,0,.58.67c.16.15.34.29.5.43A3.55,3.55,0,0,0,2.31,9,6.52,6.52,0,0,0,3,9.38a10,10,0,0,0,1.06.46,7.19,7.19,0,0,0,.79.24c.38.1.76.17,1.14.24a6.3,6.3,0,0,0,1.89,0c.3,0,.6-.09.9-.15a5.55,5.55,0,0,0,1-.29,4.53,4.53,0,0,0,1-.6,3.89,3.89,0,0,0,.72-.74A3.71,3.71,0,0,0,12,7.85a3.61,3.61,0,0,0,.27-.56,3.8,3.8,0,0,0,.14-.67,4.11,4.11,0,0,0-.07-1.26,7.13,7.13,0,0,0-.18-.8,6.41,6.41,0,0,0-.39-1,7.36,7.36,0,0,0-.54-.83,3.21,3.21,0,0,0-1.08-.89,4.5,4.5,0,0,0-1.23-.43h1.16c.6,0,1.2.07,1.8.13s1.16.14,1.75.23l1,.15.9.15.81.14c1.19.26,2.38.57,3.56.89a17,17,0,0,1,1.78.61c.53.2,1.06.45,1.58.66l.57.23.61.22c.42.15.84.33,1.25.5h0C25.19,5,24.68,4.72,24.15,4.46ZM9.46,2.65a5.11,5.11,0,0,1,.39.42,3.81,3.81,0,0,1,.35.7c.05.17.1.35.14.52a3.35,3.35,0,0,1,.08.54c0,.16,0,.33,0,.49a5,5,0,0,1,0,.67,3.53,3.53,0,0,1-.15.46,5.74,5.74,0,0,1-.53.76l-.24.25-.3.24a3.48,3.48,0,0,1-.43.22c-.22.06-.45.1-.68.14s-.46.07-.7.09a5.93,5.93,0,0,1-1.11-.08,10,10,0,0,1-1.83-.58,5.09,5.09,0,0,1-.5-.3,2.11,2.11,0,0,1-.35-.26l-.3-.28c-.11-.12-.22-.25-.31-.37a6.15,6.15,0,0,1-.37-.66c0-.1-.05-.2-.07-.3a1.57,1.57,0,0,1,0-.3c0-.15,0-.29,0-.44s.08-.24.13-.36A3.48,3.48,0,0,1,3,3.71l.32-.32A1.08,1.08,0,0,0,3.56,3l.35-.26a5,5,0,0,1,.63-.38A6.81,6.81,0,0,1,5.27,2,14.29,14.29,0,0,1,6.7,1.66l.24,0c.3.07.6.14.9.23a6.94,6.94,0,0,1,.9.34A5.56,5.56,0,0,1,9.46,2.65Z"/><path class="cls-1" d="M25.05,10.44h0a6.08,6.08,0,0,1-.3,1,2.85,2.85,0,0,1-.23.37,3.48,3.48,0,0,1-.58.51,10.72,10.72,0,0,1-1.17.71,11.89,11.89,0,0,1-1.28.53l-.69.24-.92.26a16.34,16.34,0,0,1-1.68.39c-.59.11-1.18.23-1.76.32a11,11,0,0,1-.6-1.36c0-.09-.07-.19-.1-.29l0,.09c-.09-.29-.18-.58-.26-.88a7.94,7.94,0,0,1-.18-.95,4.91,4.91,0,0,1,0-.86,2,2,0,0,1,.12-.34,1.92,1.92,0,0,1,.17-.26,6.63,6.63,0,0,1,.86-.71,4.23,4.23,0,0,1,.82-.42,1.28,1.28,0,0,0,.48-.24h0a9.78,9.78,0,0,1,1.7-.31,8.85,8.85,0,0,1,1.78.14c.36.08.72.18,1.07.29a7.51,7.51,0,0,1,1.15.42,3.4,3.4,0,0,1,.68.43,2.15,2.15,0,0,1,.32.35,1.42,1.42,0,0,1,.17.35,3.61,3.61,0,0,1,.14.81h0a2.64,2.64,0,0,0,0-1,2.38,2.38,0,0,0-.37-.79A4.66,4.66,0,0,0,23.07,8.1l-.75-.41a8.19,8.19,0,0,0-.91-.41A7.93,7.93,0,0,0,20.58,7c-.33-.08-.67-.15-1-.2l-.47,0-.6,0a10.56,10.56,0,0,0-1.13.13l-.14,0a1.81,1.81,0,0,0-.64.15,3,3,0,0,0-.41.17,4.55,4.55,0,0,0-.83.54,8.57,8.57,0,0,0-.69.66,3.14,3.14,0,0,0-.65,1c-.53,1.56.36,3.12,1.29,4.32a8.17,8.17,0,0,0,.62.7c.1.11.21.23.32.33q-.75.12-1.53.18c-.48,0-1,0-1.45,0s-1.07,0-1.6-.07-1.13-.11-1.69-.18-1-.15-1.5-.25L6.63,14.1c-.57-.14-1.14-.32-1.71-.47s-1.22-.31-1.82-.48-1.19-.39-1.79-.58l-.07,0h0c.47.3.94.59,1.42.87s.92.48,1.39.71l1.61.81c.6.3,1.21.56,1.83.82a15.79,15.79,0,0,0,3.75,1q.94.12,1.89.18c.3,0,.61,0,.91,0a10.68,10.68,0,0,0,1.13-.05,15.29,15.29,0,0,0,3.53-.73,14.38,14.38,0,0,0,1.88-.74c.27-.13.54-.25.8-.4s.57-.33.85-.5a10.25,10.25,0,0,0,1.49-1.13,8.08,8.08,0,0,0,.76-.79A3.36,3.36,0,0,0,24.9,12a2.21,2.21,0,0,0,.17-.81c0-.23,0-.47,0-.71ZM15.6,10h0l-.07.08Z"/></g></g></svg>