<svg xmlns="http://www.w3.org/2000/svg" viewBox="0 0 18.29 20.43"><defs><style>.cls-1{fill:#fefefe;}</style></defs><title>capricorn_1</title><g id="Layer_2" data-name="Layer 2"><g id="OBJECTS"><polygon class="cls-1" points="1.88 10.99 1.88 10.98 1.88 10.98 1.88 10.99"/><polygon class="cls-1" points="4.1 19.43 4.1 19.43 4.1 19.43 4.1 19.43"/><path class="cls-1" d="M18.26,16.44a9,9,0,0,0,0-1.47,3.23,3.23,0,0,0-.08-.53,3.42,3.42,0,0,0-.32-.93,4,4,0,0,0-.47-.73,5.12,5.12,0,0,0-.56-.58,3.93,3.93,0,0,0-.86-.58l-.27-.11-.29-.11a5.71,5.71,0,0,0-.71-.19h-.08a3.66,3.66,0,0,0-.81,0,2.9,2.9,0,0,0-.6.11,3,3,0,0,0-.51.16,2.87,2.87,0,0,0-.48.28,3.18,3.18,0,0,0-.52.44,6.91,6.91,0,0,0-1.14,1.5c0-.69-.08-1.39-.15-2.08s-.21-1.6-.32-2.41a21.87,21.87,0,0,1-.16-2.43c0-.37,0-.73.06-1.09s.09-.87.12-1.31a8.22,8.22,0,0,0,0-.86,2.44,2.44,0,0,0-.44-1.43,1.51,1.51,0,0,0-1-.56l-.16,0a3.42,3.42,0,0,0-.64,0,2.3,2.3,0,0,0-.28.06l-.53.16A4.2,4.2,0,0,0,6.57,2a6,6,0,0,0-.68.43,12.26,12.26,0,0,0-.95.83,9.06,9.06,0,0,0-.88,1c-.26.33-.51.66-.74,1l0,0,0-.37A13.29,13.29,0,0,0,3,3.45,8.65,8.65,0,0,0,2,1.2,3.9,3.9,0,0,0,1.64.74,2.59,2.59,0,0,0,1,.18,1.42,1.42,0,0,0,.48,0,2,2,0,0,0,0,0H0C0,.07.21.15.37.24A1.9,1.9,0,0,1,.75.56a.67.67,0,0,1,.12.2,3.12,3.12,0,0,1,.29.77h0a14.29,14.29,0,0,1,.31,2.34c0,.84,0,1.68.12,2.52,0,.12,0,.24,0,.37a.88.88,0,0,0,0,.17,25.31,25.31,0,0,0,.3,4s0,0,0,.06l0,0a11.13,11.13,0,0,1,0,2.16.31.31,0,0,0,.62.09A25.7,25.7,0,0,0,3.11,7,5.49,5.49,0,0,0,3.17,6s.09-.06.09-.11.14-.08.18-.12a12.34,12.34,0,0,1,2-1.4,10.67,10.67,0,0,1,2-.86,4.41,4.41,0,0,1,.62-.09,2.19,2.19,0,0,1,0,.36c0,.37-.06.74-.1,1.11s-.09.83-.12,1.24A25.79,25.79,0,0,0,7.86,9q0,.6.09,1.2c0,.42.07.84.1,1.25.07.81.1,1.63.12,2.44v0c0,.42,0,.83-.07,1.24,0,.24-.06.48-.08.72,0,.09,0,.18,0,.27a.87.87,0,0,0-.1.19,2,2,0,0,0-.13.57l-.06.33c0,.12-.09.25-.14.37a2.21,2.21,0,0,1-.16.35c-.08.11-.15.23-.24.34a3.88,3.88,0,0,1-.26.31,5.72,5.72,0,0,1-.49.37,19.24,19.24,0,0,1-1.84.87h0l-.14,0a.67.67,0,0,1-.18-.16,1,1,0,0,0,.2.39.84.84,0,0,0,.48.19,4.86,4.86,0,0,0,.55.07,8.17,8.17,0,0,0,1.31,0,3.37,3.37,0,0,0,.77-.14,2.7,2.7,0,0,0,.54-.2,5.27,5.27,0,0,0,.72-.43,6.56,6.56,0,0,0,.67-.62,4.16,4.16,0,0,0,.65-1,2,2,0,0,0,.19-.42,2.83,2.83,0,0,0,.15-.53,1.23,1.23,0,0,0,0-.54c0-.08,0-.16.05-.24s0-.42.07-.64c0-.4,0-.8,0-1.2l.12-.18c.14-.18.3-.34.45-.5a6.33,6.33,0,0,1,.56-.49,6.49,6.49,0,0,1,.55-.36,4,4,0,0,1,.68-.27,3.07,3.07,0,0,1,.53-.06l.34,0,.35.07a6.41,6.41,0,0,1,.93.41,3.22,3.22,0,0,1,.41.32,4.81,4.81,0,0,1,.44.57,3.93,3.93,0,0,1,.24.56,3.51,3.51,0,0,1,.09.65c0,.07,0,.13,0,.2,0,.25,0,.5-.07.75s-.08.45-.13.68a4.32,4.32,0,0,1-.28.67l-.16.21a3.19,3.19,0,0,1-.42.3,3.06,3.06,0,0,1-.49.22,5.47,5.47,0,0,1-1,.12h-.08l-.72,0a4.69,4.69,0,0,1-.84-.09,2.83,2.83,0,0,1-.4-.17l-.06,0,0,0a2.29,2.29,0,0,1-.1-.23s0-.08,0-.12a7.69,7.69,0,0,1,.17-1.07c0-.18.09-.37.13-.54s0-.16.06-.16h0c-.11,0-.32.35-.45.53l-.23.28-.21.28a3.12,3.12,0,0,0-.27.43,1.72,1.72,0,0,0-.16.43,2,2,0,0,0,0,.49,1.19,1.19,0,0,0,.11.45,1,1,0,0,0,.15.26,3.73,3.73,0,0,0,.26.3,2.89,2.89,0,0,0,.88.59,7.72,7.72,0,0,0,1.41.45l.31.07a3.48,3.48,0,0,0,.85.06l.31,0h.16a5,5,0,0,0,.67-.15,3.7,3.7,0,0,0,.84-.43,3.51,3.51,0,0,0,.83-.71,2,2,0,0,0,.25-.33,3.74,3.74,0,0,0,.28-.52c0-.11.09-.21.12-.32A6.3,6.3,0,0,0,18.26,16.44Z"/><path class="cls-1" d="M4.1,19.43s0,.13.06.15l.06.05C4.18,19.54,4.15,19.45,4.1,19.43Z"/></g></g></svg>