<svg xmlns="http://www.w3.org/2000/svg" viewBox="0 0 13.76 21.01"><defs><style>.cls-1{fill:#fefefe;}</style></defs><title>leo_1</title><g id="Layer_2" data-name="Layer 2"><g id="OBJECTS"><path class="cls-1" d="M0,15.43a2.9,2.9,0,0,0,.37,1.13,3.05,3.05,0,0,0,.73.87,5.47,5.47,0,0,0,.74.52L2,18a.91.91,0,0,0,.37.22l.1,0,.25.08q.36.07.72.12a4.34,4.34,0,0,0,.51,0,2.31,2.31,0,0,0,.64-.1l.34-.13.21-.12.42-.23A4.1,4.1,0,0,0,6,17.54a3.57,3.57,0,0,0,.45-.5A3.68,3.68,0,0,0,7,16a5.26,5.26,0,0,0,.25-1,3.78,3.78,0,0,0,0-.89,1.38,1.38,0,0,0-.11-.8,6.36,6.36,0,0,0-.55-1.07L6.49,12a2.75,2.75,0,0,0-.23-.33,7.77,7.77,0,0,0-.7-.82,3.4,3.4,0,0,0-.31-.52C5.16,10,5,9.75,4.94,9.48s-.23-.67-.29-1-.14-.64-.17-1c-.05-.5-.09-1-.09-1.52,0-.13,0-.26,0-.39s0-.28,0-.42.06-.5.1-.74a4.44,4.44,0,0,1,.16-.6,2.18,2.18,0,0,1,.19-.48A6.56,6.56,0,0,1,5.4,2.5c.1-.1.2-.2.31-.29a3.57,3.57,0,0,1,.38-.3,4.65,4.65,0,0,1,.63-.32L7,1.51a2.25,2.25,0,0,1,.36-.06,5.61,5.61,0,0,1,1.16,0,6.12,6.12,0,0,1,1.13.33,4.12,4.12,0,0,1,.63.39,3.2,3.2,0,0,1,.43.47,2.11,2.11,0,0,1,.16.3,5.28,5.28,0,0,1,.19.71,4.92,4.92,0,0,1,.1.67,16.48,16.48,0,0,1,.06,1.72c0,.32,0,.63-.06.94s-.07.55-.11.82c-.16.72-.38,1.42-.61,2.12-.13.37-.26.74-.4,1.1l-.21.51-.23.51c-.17.36-.35.71-.51,1.07s-.29.7-.42,1l-.36,1c-.07.17-.12.34-.18.52a3.27,3.27,0,0,0-.13.54,10.43,10.43,0,0,0-.17,1.25,2.78,2.78,0,0,0,0,.5,3,3,0,0,0,.05.43,3.38,3.38,0,0,0,.16.48A2.89,2.89,0,0,0,8.84,20a5,5,0,0,0,1,.71,3.28,3.28,0,0,0,.59.23,4.58,4.58,0,0,0,.63.1h.24a1.44,1.44,0,0,0,.41-.05,2.67,2.67,0,0,0,.59-.23c.17-.09.32-.2.48-.3a2.17,2.17,0,0,0,.36-.31,5.48,5.48,0,0,0,.57-.85s0,0,0-.05h0a5.56,5.56,0,0,1-.72.47,1.88,1.88,0,0,1-.39.16,4.24,4.24,0,0,1-.8.19,2.55,2.55,0,0,1-.39,0,4.36,4.36,0,0,1-.64-.21,3.29,3.29,0,0,1-.44-.28,5.52,5.52,0,0,1-.76-.77,2.9,2.9,0,0,1-.31-.54,1.89,1.89,0,0,1-.09-.34,5.93,5.93,0,0,1,0-.73,7.52,7.52,0,0,1,.09-.83,7.51,7.51,0,0,1,.25-.93c.1-.35.22-.7.34-1.05.06-.18.12-.36.19-.55s.14-.36.21-.54c.14-.34.32-.67.47-1s.31-.7.46-1,.28-.68.4-1a22.74,22.74,0,0,0,.71-2.26,9.12,9.12,0,0,0,.22-1.27,11.67,11.67,0,0,0,.07-1.18q0-.57,0-1.14c0-.19,0-.38,0-.58a5.9,5.9,0,0,0-.1-.7,4.64,4.64,0,0,0-.28-.87,3.43,3.43,0,0,0-.57-.8A3.49,3.49,0,0,0,11,.81L10.63.62a4.6,4.6,0,0,0-1-.38C9.5.18,9.31.14,9.13.09L8.67,0a1.51,1.51,0,0,0-.3,0H8A8.59,8.59,0,0,0,7,.08a3.87,3.87,0,0,0-.56.15L6.05.39,5.77.53a4.29,4.29,0,0,0-.59.39,4.58,4.58,0,0,0-.42.35,4.79,4.79,0,0,0-.48.53L4,2.29a4,4,0,0,0-.31.62c-.07.18-.13.36-.19.54a6.46,6.46,0,0,0-.23,1.24,4.55,4.55,0,0,0,0,.52,5.83,5.83,0,0,0,0,.59A9.92,9.92,0,0,0,3.4,7c.08.35.17.7.28,1a11.69,11.69,0,0,0,.63,1.46c.21.44.44.88.62,1.33,0,.06,0,.12.07.18l-.27-.08-.1,0c-.18-.06-.38.06-.57,0s-.37.12-.55.12h0c-.2,0-.4-.13-.59-.09a2.68,2.68,0,0,0-1,.41,3.52,3.52,0,0,0-.45.3,5.81,5.81,0,0,0-.43.43c-.11.14-.22.27-.31.41a3.52,3.52,0,0,0-.31.57,4.24,4.24,0,0,0-.31,1.16c0,.18,0,.35,0,.53A3.77,3.77,0,0,0,0,15.43ZM5,11v0L4.91,11ZM1.46,14.28a4.9,4.9,0,0,1,.05-.77,4,4,0,0,1,.26-.83c.07-.13.14-.27.22-.39A4.08,4.08,0,0,1,2.24,12a4,4,0,0,1,.57-.52,2.82,2.82,0,0,1,.42-.22A4.58,4.58,0,0,1,4,11a3.06,3.06,0,0,1,.68.16,1.62,1.62,0,0,0,.35.17H5a2.46,2.46,0,0,1,.64.56.46.46,0,0,0,.07.1c.08.09.1.19.18.28a3.53,3.53,0,0,1,.33.64,3.36,3.36,0,0,1,.15.7,4.69,4.69,0,0,1,0,.53c0,.19,0,.38-.08.56a5.65,5.65,0,0,1-.41,1.13,2.54,2.54,0,0,1-.16.28,3.15,3.15,0,0,1-.22.29,1.45,1.45,0,0,1-.22.21,5,5,0,0,1-.52.26l-.46.21-.11,0H4.07L3.62,17a4.68,4.68,0,0,1-.53-.17h0l-.06,0a1.07,1.07,0,0,0-.37-.12l-.13-.09-.28-.2a3.11,3.11,0,0,1-.4-.41,1.93,1.93,0,0,1-.13-.21,1.67,1.67,0,0,1-.12-.23A3.27,3.27,0,0,1,1.45,15C1.44,14.77,1.45,14.53,1.46,14.28Z"/></g></g></svg>