<svg xmlns="http://www.w3.org/2000/svg" viewBox="0 0 23.26 20.7"><defs><style>.cls-1{fill:#fefefe;}</style></defs><title>libra_1</title><g id="Layer_2" data-name="Layer 2"><g id="OBJECTS"><path class="cls-1" d="M4.89,16.64c.42,0,.82,0,1.23,0l.79,0a1.12,1.12,0,0,0,.31.1h.54l.47,0,.34,0H9a1.2,1.2,0,0,0,.59-.23l.21-.21a1.06,1.06,0,0,0,.22-.51,1.09,1.09,0,0,0-.26-.9,2.35,2.35,0,0,0-.33-.3l-.51-.31L8.44,14l-.54-.38a5.46,5.46,0,0,1-.55-.43L7.14,13,7,12.77a4,4,0,0,1-.24-.51l-.22-.63c-.14-.39-.26-.77-.37-1.16S6,9.42,5.87,8.88c0-.3-.1-.61-.13-.91a7.86,7.86,0,0,1,0-.83,5.49,5.49,0,0,1,.13-1.07c0-.12.08-.24.13-.36a2.32,2.32,0,0,1,.18-.39,10.12,10.12,0,0,1,.65-.92,8.18,8.18,0,0,1,.74-.82A6.8,6.8,0,0,1,8.15,3a7.66,7.66,0,0,1,.66-.45c.26-.13.51-.26.78-.37a6.39,6.39,0,0,1,.77-.28A8.77,8.77,0,0,1,12,1.7c.25,0,.5,0,.75.05s.51.09.77.15.39.13.58.21a4.52,4.52,0,0,1,.49.25,9.91,9.91,0,0,1,1,.71c.3.25.58.51.85.78s.45.49.66.75a5.83,5.83,0,0,1,.49.7,3.88,3.88,0,0,1,.3.76,3.11,3.11,0,0,1,.09.6,4.26,4.26,0,0,1-.09.8,5.22,5.22,0,0,1-.39.83c-.15.25-.31.51-.48.75s-.46.56-.69.84c-.45.55-.92,1.09-1.42,1.6s-1.11,1.14-1.62,1.76a6.52,6.52,0,0,0-.73,1.07,2.25,2.25,0,0,0-.27,1.46l.07.25a1.32,1.32,0,0,0,.12.2.66.66,0,0,0,.16.17.63.63,0,0,0,.2.13,1.44,1.44,0,0,0,.58.17c.24,0,.48,0,.73,0,.4,0,.81-.06,1.21-.1s.85-.09,1.27-.17l1.24-.26c.72-.16,1.45-.31,2.17-.48l1-.25a7.58,7.58,0,0,1,1.16-.19h.12A4.15,4.15,0,0,0,21,15c-.43,0-.86,0-1.29,0a24.88,24.88,0,0,0-2.59.21l-.91.13c-.3.05-.61.08-.91.12a17.1,17.1,0,0,1-1.74.18l-.19,0a1.16,1.16,0,0,1,0-.18,1.79,1.79,0,0,1,.13-.32,9.94,9.94,0,0,1,1.23-1.45l.26-.26,0,0,.86-.8c.36-.31.7-.65,1-1s.56-.59.83-.89a9.38,9.38,0,0,0,.77-.9,14.83,14.83,0,0,0,.81-1.25,4,4,0,0,0,.46-1.77,3.44,3.44,0,0,0-.06-1,7.27,7.27,0,0,0-.22-.8,4.79,4.79,0,0,0-.67-1.24,9.46,9.46,0,0,0-.81-1c-.18-.2-.38-.38-.57-.58L17,1.82a8.59,8.59,0,0,0-1-.73A6.29,6.29,0,0,0,14.73.41,7,7,0,0,0,13.31.06,7.31,7.31,0,0,0,12.07,0h-.23a7.3,7.3,0,0,0-1.23.18A8.93,8.93,0,0,0,9.2.65C9,.74,8.82.83,8.64.93l-.23.13L8,1.3a8,8,0,0,0-1,.78c-.35.33-.68.68-1,1a7.42,7.42,0,0,0-.76,1,7.74,7.74,0,0,0-.42.68,3.68,3.68,0,0,0-.26.57A5.56,5.56,0,0,0,4.2,6.69a6.61,6.61,0,0,0,0,.77c0,.21,0,.41,0,.62,0,.42.07.84.12,1.25l.18,1.24c.07.42.18.82.28,1.23s.24.94.39,1.4a4.9,4.9,0,0,0,.24.52,4.78,4.78,0,0,0,.38.61,2.12,2.12,0,0,0,.2.24l.2.22-.22,0-1.23.29c-.81.21-1.64.4-2.44.68-.37.12-.74.28-1.11.43-.18.08-.36.14-.54.23s-.41.2-.62.3H0l.67,0,.61,0,1.2-.05C3.28,16.63,4.09,16.64,4.89,16.64Z"/><path class="cls-1" d="M22.65,19.28l-.35-.1h0c-.4-.11-.8-.22-1.21-.29s-.81-.11-1.21-.14c-.84-.08-1.68-.09-2.52-.1h-.6l-.83,0c-.45,0-.9.1-1.34.15-.85.09-1.69.15-2.54.2l-1.3.08-1.21.07c-.44,0-.88,0-1.31.09s-.81.08-1.22.1-.82.05-1.22.09l-.62.07a4.21,4.21,0,0,0-.62.09A12.05,12.05,0,0,0,3.27,20c-.38.12-.75.28-1.12.43l-.49.19h0l.75-.08c.21,0,.42-.07.64-.08.45,0,.91-.07,1.36-.07a23.65,23.65,0,0,1,2.38.22,18.88,18.88,0,0,0,2.71.08c1.74,0,3.48,0,5.21-.16.84-.07,1.67-.17,2.5-.23s1.68-.19,2.51-.33c.5-.09,1-.17,1.49-.24s.95-.11,1.43-.16h.21a1.24,1.24,0,0,1,.27,0l.14,0h0A1.33,1.33,0,0,0,22.65,19.28Z"/></g></g></svg>