<svg xmlns="http://www.w3.org/2000/svg" viewBox="0 0 20.62 20.55"><defs><style>.cls-1{fill:#fefefe;}</style></defs><title>pisces_1</title><g id="Layer_2" data-name="Layer 2"><g id="OBJECTS"><path class="cls-1" d="M16,10.55c.07-.64.15-1.29.23-1.93a22,22,0,0,1,1.41-5,8.87,8.87,0,0,1,.76-1.34,2.63,2.63,0,0,1,.45-.43,4,4,0,0,1,.66-.32l.43-.15h0a7.08,7.08,0,0,0-.79-.09,2.77,2.77,0,0,0-.7.07A3.33,3.33,0,0,0,17.25,2a8.24,8.24,0,0,0-.77.65,9,9,0,0,0-.75.77A15.58,15.58,0,0,0,14.4,5.18a15.66,15.66,0,0,0-1.08,2.17,10.58,10.58,0,0,0-.65,2.53l-.21,0c-.31,0-.62-.06-.93-.07a7.08,7.08,0,0,0-.92,0,7.48,7.48,0,0,0-1,.11,12.57,12.57,0,0,0-.2-1.39,8.52,8.52,0,0,0-.26-.9c-.16-.45-.32-.88-.51-1.31a19.89,19.89,0,0,0-.85-1.81l-.32-.57-.19-.29a1.63,1.63,0,0,0-.39-.43,8.61,8.61,0,0,0-.68-.91,7.63,7.63,0,0,0-1.07-1A13.44,13.44,0,0,0,2.86,0h0c.28.43.58.84.88,1.25A10.22,10.22,0,0,1,4.82,3.19q.13.39.24.78a.68.68,0,0,0,0,.15,2.09,2.09,0,0,0,.08.5c0,.16.08.33.11.49.06.32.13.64.19,1,.11.63.21,1.26.28,1.89,0-.15,0-.3,0-.45l.09.87a23.4,23.4,0,0,1,0,2.51c-.54.11-1.08.22-1.63.31l-.93.15a9,9,0,0,0-1,.16c-.72.17-1.43.38-2.13.61H0c.68.14,1.37.26,2,.44s1.31.46,2,.67a14.89,14.89,0,0,0,1.49.41c0,.21-.06.43-.1.65-.12.69-.25,1.38-.34,2.07s-.15,1.17-.24,1.74a10.86,10.86,0,0,1-.61,2.32.41.41,0,0,1,0,.09l0,0h0c.18,0,.34-.16.47-.26L5,20c.25-.21.48-.44.72-.68a13.9,13.9,0,0,0,1.35-1.71,19.23,19.23,0,0,0,1.85-3.24c.59,0,1.18,0,1.76,0s1.38-.07,2.07-.14a8.76,8.76,0,0,0,.85,2.46c.15.26.3.5.46.75,0,0,0,.06,0,.1a1.3,1.3,0,0,0,.31.53l.28.33a7,7,0,0,0,.53.56,4.9,4.9,0,0,0,.7.58c.23.17.48.31.7.49h0l.06.05h0c-.08-.27-.18-.54-.27-.81a6.86,6.86,0,0,1-.21-.81c-.06-.25-.09-.51-.13-.77s0-.28-.07-.42a.88.88,0,0,0-.12-.41.2.2,0,0,0-.06-.09c0-.34-.09-.68-.12-1a13.67,13.67,0,0,1,0-1.92c.49-.09,1-.2,1.45-.32a28.79,28.79,0,0,0,3.51-1.15h0A28.77,28.77,0,0,0,16,10.55Z"/></g></g></svg>