<svg xmlns="http://www.w3.org/2000/svg" viewBox="0 0 19.26 24.91"><defs><style>.cls-1{fill:#fefefe;}</style></defs><title>saggitarius_1</title><g id="Layer_2" data-name="Layer 2"><g id="OBJECTS"><path class="cls-1" d="M18.74.23A1.16,1.16,0,0,0,18.09,0h-.28A1.92,1.92,0,0,0,17.4.1l-.72.25c-.54.2-1.07.39-1.62.57-1,.32-2,.74-2.93,1.14l-1.45.63L9.3,3.32a18.72,18.72,0,0,1-2.05.77l-.58.16c-.2,0-.4.09-.59.15a6.19,6.19,0,0,0-.6.23l-.69.29h0l.78-.16.33-.06.35,0a22.9,22.9,0,0,0,3.2-.19c.5-.08,1-.18,1.49-.27s1-.18,1.52-.3,1-.23,1.47-.36c.29-.09.59-.17.88-.27l.58-.19.76-.2c-.39.42-.76.86-1.12,1.31-.75.91-1.54,1.77-2.32,2.66-.38.43-.75.88-1.14,1.3s-.76.83-1.11,1.27c-.72.89-1.42,1.8-2.11,2.72-.35.45-.68.9-1,1.33L6.22,14.81l0,.06-.11-.07L6,14.74l-.25-.13a.81.81,0,0,0-.31-.06c-.29-.16-.59-.31-.89-.45s-.76-.31-1.16-.45L2.2,13.26a4.91,4.91,0,0,0-.63-.17A5.08,5.08,0,0,0,.9,13h0a5.77,5.77,0,0,1,1,.71c.31.29.62.57.94.84.54.46,1,.93,1.58,1.4h0a1.35,1.35,0,0,0,.43.49l0,0c-.24.31-.48.63-.7.95s-.63,1-.92,1.45l-.43.74c-.14.23-.3.45-.44.68-.31.47-.6,1-.87,1.45-.16.28-.32.57-.45.86s-.23.51-.34.76-.14.32-.22.48a8,8,0,0,0-.41.89L0,24.9H0v0H0v0s0,0,0,0,.16-.1.21-.14l.23-.22.24-.23c.1-.1.18-.22.28-.32.34-.35.65-.72,1-1.07L3.1,21.77l.57-.55c.25-.24.5-.5.74-.77s.74-.82,1.09-1.25l1.07-1.27c.06-.08.13-.15.19-.22l.23.11c.33.2.65.42,1,.62l1.14.67c.35.22.69.45,1.06.66a4.2,4.2,0,0,0,.6.3l.56.22.17.12h0a1.26,1.26,0,0,0-.16-.33,3.71,3.71,0,0,0-.23-.32c-.15-.22-.3-.44-.44-.67l-.06-.1-.06-.1.07.11a10.8,10.8,0,0,0-1.45-1.91c-.32-.33-.63-.68-1-1L8.07,16q.27-.39.57-.78c.35-.45.72-.9,1-1.37s.65-.92,1-1.39l.95-1.36c.35-.48.7-.95,1-1.43s.63-.91.92-1.39.6-1,.88-1.5c.58-1,1.14-2,1.68-3.06.19-.33.39-.66.59-1h.05c-.1.45-.19.91-.25,1.38s-.11,1.06-.12,1.6,0,1.08-.07,1.62-.1,1.06-.11,1.59c0,.32,0,.64,0,1s0,.36,0,.54,0,.49,0,.74,0,.39,0,.59,0,.49,0,.73h0a7.12,7.12,0,0,0,.31-.76c.1-.22.19-.45.28-.67a6.49,6.49,0,0,0,.26-.74c.07-.23.12-.46.18-.69.12-.49.26-1,.41-1.45A17.59,17.59,0,0,0,18,6.44c.09-.43.16-.86.25-1.29l.09-.36c.12-.52.26-1,.41-1.54L19,2.53a6.83,6.83,0,0,0,.25-1A1.33,1.33,0,0,0,18.74.23Z"/></g></g></svg>