<svg xmlns="http://www.w3.org/2000/svg" viewBox="0 0 22.67 21.51"><defs><style>.cls-1{fill:#fefefe;}</style></defs><title>scorpio_1</title><g id="Layer_2" data-name="Layer 2"><g id="OBJECTS"><path class="cls-1" d="M22.32,17.8a1.41,1.41,0,0,0-.44-.18l-.05,0c-.16-.05-.37-.11-.56-.19a8.26,8.26,0,0,1-1.07-.54c-.37-.22-.68-.39-1-.54a4.32,4.32,0,0,0-.5-.2c0-.15-.07-.31-.1-.47l0-.13-.15-.67a2.32,2.32,0,0,0-.06.38c0,.22-.07.47-.1.75h-.05l0,0h0c-.05.46-.09.93-.12,1.37H18l-.81.05h-.08l-.94.05A5.65,5.65,0,0,1,15,17.4a7.1,7.1,0,0,1-1.22-.47,2.85,2.85,0,0,1-.33-.25,2.47,2.47,0,0,1-.21-.27,6.52,6.52,0,0,1-.36-.88,5,5,0,0,1-.15-.79c0-.25,0-.48-.05-.69a1.15,1.15,0,0,0,0-.19c0-.06,0-.12,0-.18,0-.31,0-.61,0-.88s0-.36,0-.55,0-.19,0-.28,0-.25,0-.38V11.5a2.44,2.44,0,0,0,0-.27c0-.33,0-.66,0-1,0-.62,0-1.24.07-1.84V8.27c0-.3,0-.6,0-.9V7.26c0-.32,0-.63,0-1s0-.41,0-.62V5.6c0-.38,0-.82.06-1.25s0-1,0-1.46a5.47,5.47,0,0,0-.34-1.8A2.41,2.41,0,0,0,12.25.5,1.34,1.34,0,0,0,11.46,0l-.27,0a2.11,2.11,0,0,0-1,.32,7.36,7.36,0,0,0-.62.4L9.29.91a1.12,1.12,0,0,0-.21.23l0,0c-.25.24-.49.48-.73.75s-.41.52-.6.78l-.12.17a10.72,10.72,0,0,0-1,1.68V4.39a7.4,7.4,0,0,0-.05-.74,5.83,5.83,0,0,0-.25-1.27,2.83,2.83,0,0,0-.11-.31,2.24,2.24,0,0,0-.56-.81A1.74,1.74,0,0,0,5.19,1,1.07,1.07,0,0,0,4.78.91l-.27,0a2.54,2.54,0,0,0-.37.1L4,1.06a3.68,3.68,0,0,0-.64.27,2.92,2.92,0,0,0-.72.49,5.12,5.12,0,0,0-.56.58L2,2.49A3.81,3.81,0,0,0,1.63,3L1.6,3l0,0a2.61,2.61,0,0,1-.19.27l-.06.1-.22.32c0-.23-.08-.46-.13-.68a15.35,15.35,0,0,0-1-3V.29C0,.52,0,.77,0,1V2.46C0,3,0,3.54,0,4.09v2.2a36.5,36.5,0,0,0,.28,3.93c.06.45.13.9.19,1.34v.06c0,.17.06.35.08.52l0,.28c.08.51.16,1.09.3,1.64v0a1.6,1.6,0,0,1,0,.21H1c0-.17.05-.34.07-.52v0c0-.13,0-.25.05-.38l0-.24c0-.26.07-.5.1-.73.08-.7.13-1.41.16-2a34.13,34.13,0,0,0,0-4.17c-.06-.74-.13-1.43-.23-2.08l.09-.09h0v0l.14-.14h0l.05-.05,0,0,.24-.23A2.61,2.61,0,0,1,2,3.38l.17-.13a8.23,8.23,0,0,1,.88-.61,3.26,3.26,0,0,1,.64-.26,4,4,0,0,1,.78-.11h0l0,0,.09.23c0,.12,0,.25.08.42a4,4,0,0,1,0,.6v.5l0,.34v.33c0,.45,0,.9.07,1.35l0,.64L5,7c0,.56.06,1.16.11,1.74l.09,1c0,.31,0,.6.07.9s.06.67.11,1c0,.13,0,.28.07.43s0,.13,0,.2v0a2.16,2.16,0,0,1,0,.27h0v0a2.8,2.8,0,0,0,.06-.28,1.43,1.43,0,0,1,0-.22l0-.18.07-.3c0-.26.11-.51.17-.76l0-.23c.19-.79.31-1.45.4-2.07s.17-1.27.21-2a18,18,0,0,0,0-1.81c.38-.46.72-.85,1-1.21s.58-.55,1-.9a7.32,7.32,0,0,1,.95-.72.72.72,0,0,0,.25-.07l.33-.15a3.89,3.89,0,0,1,.59-.22A1.23,1.23,0,0,1,11,1.43l.06.17a2,2,0,0,1,0,.43,18.31,18.31,0,0,1-.23,2.36c-.07.48-.14,1-.18,1.44s-.07.72-.1,1.08V7c0,.29,0,.57-.07.86s0,.37,0,.55v0c0,.46-.09.93-.12,1.39V9.9c0,.28,0,.57,0,.85,0,.11,0,.23,0,.35s0,.39,0,.58,0,.38,0,.57v.06a2.81,2.81,0,0,1,0,.29c0,.27,0,.54,0,.8v.17a4.62,4.62,0,0,0,.06,1.2,8.07,8.07,0,0,0,.27,1.11,5.33,5.33,0,0,0,.34.78,5.61,5.61,0,0,0,.67,1,3.2,3.2,0,0,0,2.1,1.05,9.5,9.5,0,0,0,1,.05,5.42,5.42,0,0,0,1.1-.1,12.52,12.52,0,0,0,1.92-.58l.42-.15h0s0,.07,0,.1l-.06.47-.12.85,0,.13-.06.42a4.52,4.52,0,0,0,0,.72.88.88,0,0,0,.06.28l0,.07a.94.94,0,0,0,.25.34h0a.71.71,0,0,0,.37.15h.13a.66.66,0,0,0,.27-.06,1.37,1.37,0,0,0,.51-.35l0,0A10.08,10.08,0,0,1,20.87,20c.32-.2.62-.41.82-.55l.3-.19.06,0c.28-.18.56-.37.61-.69A.73.73,0,0,0,22.32,17.8ZM19,17.36h0c0-.24-.1-.55-.16-.86h0l0,0,0,0c.18.18.35.38.5.54l0,0,.17.19h-.05l-.54,0Zm1.92,1.11-.14.08L20,19l-.16.09c-.21.12-.42.26-.65.42,0-.14,0-.28,0-.41s0-.5-.07-.75,0-.23-.05-.35a1.57,1.57,0,0,0-.08-.31v0l.34-.11.06,0,.23-.09c.17.18.3.33.43.45a3.77,3.77,0,0,0,.73.55l.11.07Z"/></g></g></svg>