<svg xmlns="http://www.w3.org/2000/svg" viewBox="0 0 22.81 19.88"><defs><style>.cls-1{fill:#fefefe;}</style></defs><title>taurus_1</title><g id="Layer_2" data-name="Layer 2"><g id="OBJECTS"><path class="cls-1" d="M21.39,1.22,20.94.91a5.14,5.14,0,0,0-1.1-.55A6.06,6.06,0,0,0,18,0h-.64A5.53,5.53,0,0,0,16.21.2a5.2,5.2,0,0,0-1.14.48L14.56,1a3.8,3.8,0,0,0-.85.8q-.27.34-.51.72A2.94,2.94,0,0,0,13,3c-.08.14-.14.28-.21.42a4,4,0,0,0-.16.49c-.08.22-.12.46-.18.69a9,9,0,0,0-.17,1c0,.35-.08.71-.11,1.06S12,7.38,12,7.74a4.12,4.12,0,0,1-.24.67,6.5,6.5,0,0,1-.66.9l-.37.44-.14.19-.5-.1a9,9,0,0,0-1-.09,3.49,3.49,0,0,0-1.29.15,5.3,5.3,0,0,0-1,.4h0a4.54,4.54,0,0,1,.51-.09l.51,0a4.37,4.37,0,0,1,1,.11,11.82,11.82,0,0,1,2.42.92,7.66,7.66,0,0,1,.7.46c.21.16.41.35.61.52s.34.34.5.53.29.36.42.55a6.22,6.22,0,0,1,.38.83v0a3.69,3.69,0,0,1,.11.56,1.47,1.47,0,0,1,0,.36,3.61,3.61,0,0,1-.25.72,4.78,4.78,0,0,1-.48.61c-.16.16-.32.31-.5.46s-.33.25-.5.37a9,9,0,0,1-1.39.7,5,5,0,0,1-.94.17,7.07,7.07,0,0,1-1.45-.15,5,5,0,0,1-.92-.32,4.92,4.92,0,0,1-.69-.51q-.21-.21-.42-.45a3.72,3.72,0,0,1-.33-.45,9.6,9.6,0,0,1-.79-1.65,5.08,5.08,0,0,1-.16-.85,4.48,4.48,0,0,1,.06-.63c0-.2.06-.4.1-.6a3.16,3.16,0,0,1,.17-.52,1.74,1.74,0,0,1,.1-.19l.18-.32c.1-.15.21-.29.32-.43s.27-.32.41-.47a3.07,3.07,0,0,1,.47-.41,2.48,2.48,0,0,1,.26-.19A3.83,3.83,0,0,1,8,9.53l.29-.07a1.26,1.26,0,0,1,.28,0,3.07,3.07,0,0,1,.42.17h0l0,0H9l0,0a.91.91,0,0,0-.14-.3.76.76,0,0,0-.23-.17l-.16-.08a.58.58,0,0,0-.17-.06l-.66-.31A3.33,3.33,0,0,1,7,8.31a3.2,3.2,0,0,1-.41-.5,3.35,3.35,0,0,1-.21-.36A4.81,4.81,0,0,1,6.18,7a8.54,8.54,0,0,1-.37-.9A16.67,16.67,0,0,0,4.73,3.18a6.83,6.83,0,0,0-1-1.39A5.35,5.35,0,0,0,2.39.69,2.91,2.91,0,0,0,1.19.28H1.11A2.52,2.52,0,0,0,.57.36,4.7,4.7,0,0,0,0,.61H0A3.88,3.88,0,0,1,.58.52a2.32,2.32,0,0,1,.53,0,2.26,2.26,0,0,1,.33.13,4.25,4.25,0,0,1,.76.58c.16.16.33.33.48.51s.29.38.42.58a7.51,7.51,0,0,1,.61,1.28c.14.46.27.93.41,1.39s.3,1.08.47,1.61a4.08,4.08,0,0,0,.35.73,4.66,4.66,0,0,0,.53.78,5,5,0,0,0,.66.64,3.39,3.39,0,0,0,.72.4,3.06,3.06,0,0,0,.59.17l.19,0a5.42,5.42,0,0,0-.85.31l-.42.21c-.19.11-.36.25-.54.37a6.79,6.79,0,0,0-.88.82,3.53,3.53,0,0,0-.72,1.17q-.15.4-.27.81a3.72,3.72,0,0,0-.14.74c0,.15,0,.29,0,.43a3.55,3.55,0,0,0,.14,1,9.63,9.63,0,0,0,.32.95,7.88,7.88,0,0,0,.38.77,5.94,5.94,0,0,0,1.21,1.56,4.41,4.41,0,0,0,.64.5,4.12,4.12,0,0,0,.7.34l.35.14a7.59,7.59,0,0,0,1.76.39,5.69,5.69,0,0,0,1,0,2.78,2.78,0,0,0,.75-.15c.2-.05.39-.12.58-.18a3,3,0,0,0,.41-.19c.24-.12.48-.27.72-.41s.56-.36.83-.56a5,5,0,0,0,.59-.53,5.53,5.53,0,0,0,.66-.79,3.37,3.37,0,0,0,.57-1.21A4.57,4.57,0,0,0,15.6,15a3.16,3.16,0,0,0-.08-.92,4.34,4.34,0,0,0-.33-.87,6.38,6.38,0,0,0-.53-.82,4.85,4.85,0,0,0-.54-.57,9.61,9.61,0,0,0-.76-.65c-.21-.16-.44-.3-.66-.45a5.39,5.39,0,0,0-1.56-.66L10.7,10l.23-.19c.21-.16.42-.32.62-.49a4.22,4.22,0,0,0,.58-.54,3.15,3.15,0,0,0,.45-.69c.12-.25.23-.51.33-.77s.16-.52.23-.78c.14-.5.27-1,.45-1.5A8.65,8.65,0,0,1,14,4a9.93,9.93,0,0,1,1-1.39A5.51,5.51,0,0,1,15.88,2a6.51,6.51,0,0,1,1.17-.54,6.64,6.64,0,0,1,1.48-.25,7.32,7.32,0,0,1,1.55.13,11.43,11.43,0,0,1,1.58.56c.38.16.77.31,1.15.49h0C22.36,1.94,21.87,1.58,21.39,1.22ZM8.88,9.6h0l0,0L8.72,9.5l0,0Z"/></g></g></svg>