<svg xmlns="http://www.w3.org/2000/svg" viewBox="0 0 21.04 23.51"><defs><style>.cls-1{fill:#fefefe;}</style></defs><title>vigro</title><g id="Layer_2" data-name="Layer 2"><g id="OBJECTS"><path class="cls-1" d="M21,7.51a9,9,0,0,0-.3-1.24,6.3,6.3,0,0,0-.51-1.12,5.37,5.37,0,0,0-.49-.75,2.37,2.37,0,0,0-1.31-.86,2,2,0,0,0-.48-.06,2.24,2.24,0,0,0-1,.23,4.34,4.34,0,0,0-1.18.91c-.13.15-.26.3-.38.46,0-.11,0-.22,0-.32,0-.37-.09-.74-.16-1.11a10.12,10.12,0,0,0-.33-1.23A4.41,4.41,0,0,0,14.08.91,2.55,2.55,0,0,0,12.32,0h-.21a2.19,2.19,0,0,0-1,.26,3.66,3.66,0,0,0-.9.61,9.38,9.38,0,0,0-.82.85L9.17,2a4.67,4.67,0,0,0-.27-.49A2.26,2.26,0,0,0,8,.73,1.11,1.11,0,0,0,7.46.61a1.88,1.88,0,0,0-.91.27A8.83,8.83,0,0,0,4.83,2.2,10.57,10.57,0,0,0,3.55,3.6c0,.08-.11.15-.16.22,0-.12-.08-.24-.13-.37A7.66,7.66,0,0,0,2.61,2a3.45,3.45,0,0,0-.42-.51A2.8,2.8,0,0,0,1.38.87,3,3,0,0,0,.6.58C.4.54.2.53,0,.51H0A6.67,6.67,0,0,1,.71.86a3.72,3.72,0,0,1,.57.48,2.89,2.89,0,0,1,.35.51A3.83,3.83,0,0,1,2,2.66a28.17,28.17,0,0,1,.41,4.68c.09,1.55.25,3.1.42,4.64.11,1,.2,2,.28,3l.15,1.57c0,.53.1,1.06.16,1.59h0a.5.5,0,0,1,0-.13h0c.21-.68.35-1.37.49-2.06s.27-1.54.37-2.32a23.51,23.51,0,0,0,.15-2.52q0-.56,0-1.11c0-.36,0-.72-.05-1.08-.06-.71-.16-1.42-.28-2.13s-.29-1.57-.49-2.34c0-.13-.07-.26-.11-.39.22-.25.45-.49.69-.73l.71-.57a8.28,8.28,0,0,1,.79-.52,5.58,5.58,0,0,1,1.13-.46l.35,0,.15,0,.12.1c0,.07.11.14.16.22a3.75,3.75,0,0,1,.22.67A18.48,18.48,0,0,1,8.1,4.87c.05.41.09.82.14,1.23s.06.77.09,1.15c.07.74.12,1.47.18,2.21s.13,1.54.18,2.3c.1,1.59.24,3.18.24,4.77,0,.14,0,.28,0,.42h0a2.74,2.74,0,0,0,.15-.4,15.62,15.62,0,0,0,.56-2c.16-.75.27-1.51.37-2.26s.15-1.45.18-2.17.07-1.7,0-2.56a21.29,21.29,0,0,0-.17-2.25c-.07-.41-.14-.81-.22-1.21s-.11-.49-.17-.73a3.64,3.64,0,0,0-.14-.47c-.08-.23-.16-.46-.26-.69l.31-.24a10.18,10.18,0,0,1,1-.63,3.22,3.22,0,0,1,.61-.24A5,5,0,0,1,11.7,1l.34.07a3.29,3.29,0,0,1,.39.17,2.12,2.12,0,0,1,.24.2,2.35,2.35,0,0,1,.19.25,3.61,3.61,0,0,1,.17.46,11.9,11.9,0,0,1,.16,2.23A20.63,20.63,0,0,1,13,6.46c-.05.37-.11.74-.17,1.12l-.15,1.06c-.1.68-.21,1.36-.31,2,0,.3-.07.61-.08.92s0,.9,0,1.34a8.7,8.7,0,0,0,.12,1L12.53,15c.15.8.33,1.6.52,2.39a8.22,8.22,0,0,0,.35,1.06c-.19.16-.37.32-.54.49s-.5.55-.74.83a8,8,0,0,0-.61.8,5.85,5.85,0,0,0-.53.86,6.37,6.37,0,0,0-.4,1,7.65,7.65,0,0,0-.22,1.08h0c.1-.26.19-.52.3-.78a4,4,0,0,1,.33-.65,7.37,7.37,0,0,1,.47-.67,6.48,6.48,0,0,1,.62-.67,13.54,13.54,0,0,1,1.16-1c.18-.14.37-.27.56-.39a.31.31,0,0,0,0,.1,7.35,7.35,0,0,0,.55,1,7.68,7.68,0,0,0,.71.91c.45.52,1,1,1.46,1.47h0c-.26-.45-.52-.9-.77-1.36a9.13,9.13,0,0,1-.43-.89,8,8,0,0,1-.32-1c-.06-.28-.12-.56-.17-.84a8.14,8.14,0,0,0,1.57-.91,9.47,9.47,0,0,0,.93-.86c.26-.27.53-.53.76-.82s.5-.61.73-.93a11.94,11.94,0,0,0,.67-1.07c.19-.34.38-.67.55-1s.28-.66.4-1,.23-.81.32-1.22A8.66,8.66,0,0,0,21,9.82,10.46,10.46,0,0,0,21,8.57,5.42,5.42,0,0,0,21,7.51Zm-1.6,1.3c0,.28-.08.56-.12.84a10.59,10.59,0,0,1-.34,1.48,8.25,8.25,0,0,1-.63,1.46c-.31.56-.63,1.12-1,1.66l-.1.16c-.29.45-.58.9-.91,1.33-.17.23-.34.47-.53.69s-.34.39-.52.57l-.51.41v-.29c0-.57,0-1.15.09-1.73s.14-1.23.17-1.84.09-1.14.15-1.7.08-1.32.1-2l.06-1.81c0-.64,0-1.28,0-1.92a5.91,5.91,0,0,1,.48-.52,6.14,6.14,0,0,1,1-.79,3.71,3.71,0,0,1,.55-.22l.3,0,.24,0,.27.12a2.11,2.11,0,0,1,.23.19,3,3,0,0,1,.26.36,7.19,7.19,0,0,1,.5,1.26,8.73,8.73,0,0,1,.17,1.62C19.39,8.38,19.37,8.59,19.35,8.81Z"/></g></g></svg>